<svg width="56" height="44" viewBox="0 0 56 44" fill="none" xmlns="http://www.w3.org/2000/svg">
<g clip-path="url(#clip0_90_303)">
<path d="M31.0871 38.1697H31.5871V37.6697V32.9173V32.4173H31.0871H28.8496H28.3496V32.9173V37.6697V38.1697H28.8496H31.0871ZM35.3202 38.1697H35.8202V37.6697V32.9173V32.4173H35.3202H33.0827H32.5827V32.9173V37.6697V38.1697H33.0827H35.3202ZM39.4928 38.1697H39.9928V37.6697V32.9173V32.4173H39.4928H37.2553H36.7553V32.9173V37.6697V38.1697H37.2553H39.4928ZM41.1094 43.2716H27.354V28.8409H41.1094V43.2716Z" stroke="#505B67"/>
<path d="M13.8398 37.5524H1.29102V43.2435H13.8398V37.5524Z" stroke="#505B67" stroke-miterlimit="10"/>
<path d="M13.8398 34.1494V37.4937H1.29102V34.1494C1.29102 30.6878 4.07963 27.8716 7.5073 27.8716H7.62349C11.1093 27.9303 13.8398 30.6878 13.8398 34.1494Z" stroke="#505B67" stroke-miterlimit="10"/>
<path d="M13.8403 43.2435H16.6289L19.3595 15.3745H22.9614L25.4014 43.5369H29.9329" stroke="#505B67" stroke-miterlimit="10"/>
<path d="M18.8359 20.6549H23.4836" stroke="#505B67" stroke-miterlimit="10"/>
<path d="M18.2559 25.9354H23.8912" stroke="#505B67" stroke-miterlimit="10"/>
<path d="M17.8486 31.6266H24.3554" stroke="#505B67" stroke-miterlimit="10"/>
<path d="M23.8909 11.2088C23.7747 12.969 22.5547 15.3745 22.5547 15.3745H19.7079C19.7079 15.3745 20.5213 11.9715 20.2308 10.9155C19.9403 9.85937 18.1975 10.8568 18.1975 10.8568C17.3841 11.9129 16.2803 12.7343 14.886 12.9103C14.1888 13.0276 13.4336 12.969 12.7945 12.7929C11.9812 14.1424 10.7031 15.0225 9.19256 15.3158C6.11346 15.8439 3.09247 13.145 2.45341 9.27265C1.81435 5.40033 3.90581 1.88003 7.043 1.35199C8.43731 1.1173 9.77352 1.528 10.9354 2.34941C11.5745 1.88003 12.3297 1.528 13.1431 1.41066C16.0479 0.941289 18.8365 3.11214 19.3594 6.2804V6.33907C23.0775 6.2804 24.0652 9.44867 23.8909 11.2088Z" stroke="#505B67" stroke-miterlimit="10"/>
<path d="M2.80127 39.0192V41.6007" stroke="#505B67" stroke-miterlimit="10"/>
<path d="M4.66016 39.0192V41.6007" stroke="#505B67" stroke-miterlimit="10"/>
<path d="M6.57764 39.0192V41.6007" stroke="#505B67" stroke-miterlimit="10"/>
<path d="M8.43652 39.0192V41.6007" stroke="#505B67" stroke-miterlimit="10"/>
<path d="M10.2964 39.0192V41.6007" stroke="#505B67" stroke-miterlimit="10"/>
<path d="M12.2129 39.0192V41.6007" stroke="#505B67" stroke-miterlimit="10"/>
<path d="M27.434 28.6344L23.8901 26.6395H38.0075L40.9704 28.2823V28.693L27.434 28.6344Z" stroke="#505B67" stroke-miterlimit="10" stroke-linecap="round" stroke-linejoin="round"/>
<path d="M45.2117 35.9989H45.7117V35.4989V28.9864V28.4864H45.2117H43.0622H42.5622V28.9864V35.4989V35.9989H43.0622H45.2117ZM49.2785 35.9989H49.7785V35.4989V28.9864V28.4864H49.2785H47.1289H46.6289V28.9864V35.4989V35.9989H47.1289H49.2785ZM53.2871 35.9989H53.7871V35.4989V28.9864V28.4864H53.2871H51.1375H50.6375V28.9864V35.4989V35.9989H51.1375H53.2871ZM54.8205 43.2716H41.645V23.2085H54.8205V43.2716Z" stroke="#505B67"/>
<path d="M41.726 23.0018L38.1821 21.007H52.2995L55.2624 22.6498V23.0605L41.726 23.0018Z" stroke="#505B67" stroke-miterlimit="10" stroke-linecap="round" stroke-linejoin="round"/>
<path d="M38.1821 21.007V26.6394" stroke="#505B67" stroke-miterlimit="10" stroke-linecap="round" stroke-linejoin="round"/>
</g>
<defs>
<clipPath id="clip0_90_303">
<rect width="56" height="44" fill="white"/>
</clipPath>
</defs>
</svg>
