<svg width="31" height="28" viewBox="0 0 31 28" fill="none" xmlns="http://www.w3.org/2000/svg">
<path d="M2.88818 16.6582V25.8001C2.88818 26.1977 3.21054 26.5201 3.60818 26.5201H27.3231C27.7207 26.5201 28.0431 26.1977 28.0431 25.8001V16.6582M17.6168 19.1176C17.6168 19.9358 16.9535 20.5991 16.1353 20.5991H15.4083C14.5901 20.5991 13.9268 19.9358 13.9268 19.1176M20.5684 4.30387V2.7601C20.5684 1.56716 19.6013 0.600098 18.4084 0.600098L13.1344 0.600098C11.9414 0.600098 10.9744 1.56716 10.9744 2.7601V4.30387M0.642578 6.46387C0.642578 5.27093 1.60964 4.30387 2.80258 4.30387H28.0026C29.1955 4.30387 30.1626 5.27093 30.1626 6.46387V11.9189C30.1626 15.8954 26.939 19.1189 22.9626 19.1189H7.84258C3.86612 19.1189 0.642578 15.8954 0.642578 11.9189V6.46387Z" stroke="#505B67"/>
</svg>
