<svg width="35" height="35" viewBox="0 0 35 35" fill="none" xmlns="http://www.w3.org/2000/svg">
<path d="M2.05078 33.0859H29.0317V33.7353C29.0316 33.9816 29.1055 34.2223 29.2438 34.4261C29.3821 34.63 29.5783 34.7877 29.8072 34.8787C30.0361 34.9698 30.287 34.9901 30.5275 34.937C30.768 34.8839 30.9871 34.7598 31.1563 34.5808C32.0203 33.6659 34.6158 30.9238 34.6158 30.9238C34.832 30.6953 34.9524 30.3927 34.9524 30.0782C34.9524 29.7637 34.832 29.4611 34.6158 29.2326L31.2435 25.6675C32.5626 23.3784 33.2883 20.7957 33.3544 18.1545C33.4206 15.5133 32.8251 12.8975 31.6223 10.5452C30.4194 8.19288 28.6474 6.17874 26.4674 4.68612C24.2874 3.1935 21.7687 2.26978 19.1406 1.99905V1.32886C19.1406 1.08256 19.0667 0.841942 18.9284 0.638131C18.7901 0.43432 18.5938 0.276697 18.365 0.185658C18.1361 0.0946182 17.8852 0.0743514 17.6447 0.12748C17.4042 0.180608 17.1852 0.304686 17.016 0.48366L15.5455 2.0387C12.8095 2.37551 10.2088 3.42049 8.00043 5.07033C5.79205 6.72018 4.05245 8.91778 2.95359 11.4459C1.85473 13.974 1.43465 16.7452 1.73486 19.4854C2.03508 22.2256 3.04521 24.84 4.66539 27.0703H2.05078C1.50706 27.0708 0.98577 27.2871 0.601299 27.6716C0.216829 28.056 0.000579045 28.5773 0 29.121V31.0351C0.000579045 31.5788 0.216829 32.1001 0.601299 32.4846C0.98577 32.8691 1.50706 33.0853 2.05078 33.0859ZM17.6116 1.04804C17.6679 0.988239 17.7408 0.946727 17.821 0.928876C17.9012 0.911025 17.9849 0.917657 18.0612 0.947913C18.1376 0.978169 18.2031 1.03066 18.2493 1.09858C18.2955 1.16649 18.3202 1.24672 18.3203 1.32886V2.37339C18.32 2.4768 18.3587 2.57652 18.4288 2.65257C18.4989 2.72863 18.5951 2.77541 18.6982 2.78354C21.2229 2.98272 23.6562 3.81691 25.772 5.2086C27.8878 6.60029 29.6175 8.50429 30.8002 10.7436C31.983 12.983 32.5804 15.485 32.5369 18.0171C32.4935 20.5493 31.8106 23.0293 30.5517 25.2268C30.3708 25.1829 30.1822 25.1808 30.0003 25.2204C29.8184 25.26 29.6478 25.3404 29.5015 25.4555C29.3551 25.5706 29.2368 25.7174 29.1554 25.8848C29.0741 26.0523 29.0317 26.236 29.0317 26.4222V27.0703H22.1402C24.1367 26.0735 25.7594 24.4605 26.7681 22.47C27.7768 20.4795 28.118 18.2172 27.7412 16.0177C27.3644 13.8182 26.2897 11.7985 24.6759 10.2572C23.0622 8.71592 20.9952 7.73502 18.7808 7.4596C18.7232 7.45296 18.6648 7.45851 18.6095 7.4759C18.5542 7.49329 18.5032 7.52212 18.4598 7.56052C18.4164 7.59892 18.3815 7.64604 18.3575 7.69879C18.3334 7.75155 18.3208 7.80878 18.3203 7.86675V9.06167C18.3202 9.14374 18.2955 9.22389 18.2494 9.29177C18.2033 9.35965 18.1379 9.41214 18.0616 9.44244C17.9853 9.47274 17.9017 9.47946 17.8216 9.46174C17.7415 9.44402 17.6685 9.40267 17.6121 9.34304L13.9546 5.47499C13.8822 5.39945 13.8419 5.29876 13.8422 5.19411C13.8425 5.08946 13.8834 4.98901 13.9562 4.9139L17.6116 1.04804ZM19.7611 27.0703H15.2389C13.125 26.5566 11.2492 25.338 9.92074 23.6153C8.59229 21.8926 7.89052 19.7686 7.93113 17.5935C7.97174 15.4184 8.75229 13.3221 10.1441 11.6502C11.5359 9.97826 13.4559 8.83049 15.5876 8.39612L17.0166 9.90741C17.1858 10.0862 17.4049 10.2101 17.6453 10.2631C17.8858 10.3161 18.1366 10.2958 18.3653 10.2047C18.5941 10.1136 18.7903 9.95599 18.9285 9.75222C19.0667 9.54845 19.1406 9.30789 19.1406 9.06167V8.34226C21.3073 8.71928 23.2781 9.83106 24.7213 11.4905C26.1646 13.15 26.9922 15.2559 27.065 17.454C27.1378 19.6521 26.4514 21.8082 25.1212 23.5595C23.7909 25.3109 21.8981 26.5507 19.7611 27.0703ZM2.46094 17.7734C2.45801 14.2837 3.67026 10.9019 5.8895 8.20879C8.10874 5.51568 11.1965 3.67933 14.6223 3.01515L13.3618 4.34761C13.1434 4.575 13.0213 4.87799 13.021 5.19329C13.0207 5.50859 13.1422 5.81182 13.3602 6.03964L14.9338 7.70378C12.8796 8.22711 11.0346 9.36621 9.64636 10.9682C8.25815 12.5703 7.39314 14.5586 7.16741 16.6664C6.94168 18.7741 7.36603 20.9005 8.38352 22.7602C9.40101 24.6198 10.963 26.1238 12.8598 27.0703H5.6957C3.60598 24.4214 2.46678 21.1473 2.46094 17.7734ZM0.820312 29.121C0.820674 28.7948 0.950429 28.4821 1.18111 28.2514C1.41179 28.0207 1.72455 27.8909 2.05078 27.8906H29.4418C29.5506 27.8906 29.6549 27.8474 29.7319 27.7704C29.8088 27.6935 29.852 27.5892 29.852 27.4804V26.4209C29.852 26.3388 29.8767 26.2586 29.9228 26.1906C29.9689 26.1227 30.0343 26.0702 30.1106 26.0399C30.1869 26.0095 30.2705 26.0028 30.3506 26.0205C30.4308 26.0382 30.5038 26.0796 30.5602 26.1392L34.02 29.7962C34.092 29.8723 34.1321 29.9731 34.1321 30.0779C34.1321 30.1827 34.092 30.2836 34.02 30.3597L30.5602 34.0167C30.5038 34.0763 30.4308 34.1177 30.3506 34.1354C30.2705 34.1531 30.1869 34.1464 30.1106 34.116C30.0343 34.0857 29.9689 34.0332 29.9228 33.9652C29.8767 33.8973 29.852 33.8171 29.852 33.735V32.6757C29.852 32.567 29.8088 32.4626 29.7319 32.3857C29.6549 32.3088 29.5506 32.2656 29.4418 32.2656H2.05078C1.72455 32.2652 1.41179 32.1355 1.18111 31.9048C0.950429 31.6741 0.820674 31.3613 0.820312 31.0351V29.121Z" fill="#404447"/>
<path d="M20.1029 13.5444C19.1291 14.4853 16.1716 17.2697 16.1716 17.2697L14.9349 16.0332C14.7539 15.8406 14.5361 15.6863 14.2944 15.5795C14.0526 15.4727 13.7919 15.4155 13.5276 15.4114C13.2633 15.4072 13.001 15.4562 12.756 15.5555C12.511 15.6547 12.2885 15.8022 12.1016 15.989C11.9147 16.1759 11.7673 16.3984 11.6681 16.6434C11.5688 16.8884 11.5198 17.1508 11.5239 17.415C11.5281 17.6793 11.5852 17.94 11.6921 18.1818C11.7989 18.4235 11.9532 18.6413 12.1458 18.8223L14.7383 21.4186C15.1005 21.7846 15.592 21.9936 16.1069 22.0006C16.6218 22.0075 17.1188 21.8119 17.4907 21.4558L22.8173 16.4092C23.0088 16.2318 23.1633 16.0182 23.2717 15.7808C23.3801 15.5433 23.4403 15.2866 23.4489 15.0257C23.4574 14.7648 23.4141 14.5048 23.3214 14.2607C23.2287 14.0167 23.0886 13.7934 22.909 13.6039C22.7295 13.4144 22.5141 13.2624 22.2754 13.1567C22.0367 13.0511 21.7794 12.9938 21.5184 12.9883C21.2574 12.9827 20.9979 13.029 20.7549 13.1245C20.5119 13.22 20.2903 13.3627 20.1029 13.5444ZM22.2532 15.8139L16.9274 20.8602C16.7101 21.0683 16.4197 21.1827 16.1188 21.1787C15.8179 21.1746 15.5307 21.0525 15.3191 20.8386L12.7244 18.2434C12.5082 18.0271 12.3868 17.7338 12.3869 17.428C12.387 17.1222 12.5085 16.829 12.7248 16.6128C12.9411 16.3966 13.2344 16.2752 13.5402 16.2753C13.846 16.2753 14.1393 16.3969 14.3555 16.6132L15.8744 18.1321C15.95 18.2077 16.052 18.2507 16.1589 18.2522C16.2657 18.2536 16.3689 18.2133 16.4464 18.1398C16.4464 18.1398 19.6211 15.1484 20.667 14.1397C20.8898 13.9343 21.1846 13.8249 21.4875 13.8352C21.7904 13.8454 22.077 13.9745 22.2855 14.1945C22.4939 14.4145 22.6074 14.7078 22.6013 15.0108C22.5952 15.3138 22.4703 15.6025 22.2532 15.8139Z" fill="#404447"/>
</svg>
