<svg width="43" height="47" viewBox="0 0 43 47" fill="none" xmlns="http://www.w3.org/2000/svg">
<path fill-rule="evenodd" clip-rule="evenodd" d="M5.88388 34.7065C5.88388 34.5626 5.85207 34.3388 5.72485 34.2269C5.51812 34.6105 5.07285 34.5946 4.85022 34.4827C4.80252 34.5946 4.83432 34.9143 4.97744 34.9942C5.24778 35.1381 5.69305 35.1381 5.88388 34.7065ZM5.26368 35.202C4.85022 36.481 6.91753 36.0813 5.86797 35.0102C5.70895 35.1061 5.3909 35.234 5.26368 35.202ZM3.72115 28.8554C3.72115 28.7435 3.60984 28.6796 3.48262 28.6636C3.29179 28.9034 3.08506 28.8554 3.00555 28.8235C2.89423 28.9034 2.89423 28.9993 2.95784 29.1432C3.16457 29.2071 3.48262 29.2871 3.72115 28.8554ZM3.03735 28.5677C3.03735 28.6476 3.11686 28.7276 3.19638 28.7276C3.27589 28.7276 3.3554 28.6476 3.3554 28.5677C3.3554 28.4878 3.27589 28.4078 3.19638 28.4078C3.11686 28.4078 3.03735 28.4878 3.03735 28.5677ZM5.62944 34.083L3.60984 29.1752C3.51442 29.2711 3.3872 29.2871 3.29179 29.2871L4.86612 34.2748C5.16827 34.5466 5.48632 34.3707 5.62944 34.083ZM5.3909 36.1452C5.20007 36.2412 5.24778 36.5929 5.51812 36.6728C6.0111 36.7048 6.18602 36.6408 6.66309 36.3051C6.7108 36.0014 6.66309 35.8575 6.36095 35.8255C6.23373 36.0653 5.61354 36.2412 5.3909 36.1452ZM24.1398 25.1946C24.0762 25.1946 23.8854 25.1466 23.7422 25.0986L23.8217 25.2745C23.9331 25.2905 24.0921 25.3544 24.1716 25.3544L24.1398 25.1946ZM36.5754 34.4027L36.5118 36.1452L38.2611 36.369C38.0544 35.5378 37.3706 34.4827 36.5754 34.4027ZM7.26738 41.5646C7.23558 41.8524 7.29919 42.348 7.72855 42.348C8.22152 42.4279 8.63498 42.1881 8.82581 42.0122C9.01664 41.8364 8.84172 41.4048 8.63498 41.1969C8.20562 41.9803 7.82396 41.7724 7.26738 41.5646ZM7.99889 42.5238C8.33284 43.2112 9.06435 42.7796 8.80991 42.2361C8.63499 42.3799 8.20562 42.5238 7.99889 42.5238ZM37.2274 38.8949C36.9571 38.735 36.7504 38.831 36.655 39.2626C36.5436 39.4065 36.3369 39.5024 35.8916 39.6463C35.4464 39.7742 35.2396 39.998 35.0329 40.1418C35.0329 40.1418 35.1124 40.2697 35.2715 40.2058C35.4305 40.1259 36.0666 40.0779 36.2415 39.934C36.4005 39.8061 36.655 39.5983 36.8458 39.4864C37.0843 39.5503 37.5137 39.0548 37.2274 38.8949ZM3.30769 28.3119C3.40311 28.232 3.46672 28.0881 3.46672 27.9602C3.46672 27.7044 3.25999 27.4966 3.00555 27.4966C2.76701 27.4966 2.56028 27.7044 2.56028 27.9602C2.56028 28.216 2.76701 28.4238 2.97374 28.4078C3.00555 28.2959 3.19638 28.2 3.30769 28.3119ZM16.7929 28.4078C16.9519 28.4238 17.2064 27.7524 17.2064 27.7524C17.2064 27.7524 17.27 28.168 17.1587 28.4078C17.429 28.3119 17.6516 27.7204 17.6516 27.7204C17.6516 27.7204 17.6993 28.1361 17.6039 28.3759C18.1605 28.2 18.1287 26.8412 18.5104 26.5854C18.2718 26.7932 19.0192 28.168 18.1764 28.3918C18.2718 28.7116 18.0969 29.7827 17.8584 30.0704C17.6516 30.3742 17.8584 30.4221 17.8743 30.4861C17.922 30.518 17.7947 30.8697 17.7947 30.9976C18.24 31.3493 18.5263 30.9816 18.5263 30.9497C18.5263 30.9177 18.4626 30.7099 18.399 30.598C18.2241 29.8626 18.733 29.1592 18.8125 29.0473C18.892 28.9194 19.7189 28.5997 19.8144 28.5517C19.8939 28.5037 20.0529 28.7116 20.0688 28.8075C20.0847 28.9354 19.9098 28.9993 19.9416 29.1752C19.9575 29.351 20.5618 29.7187 20.5618 29.7187C20.5618 29.7187 20.9275 30.0224 20.9593 30.1663C20.9911 30.2942 21.0865 30.3102 21.1661 30.3262C21.2297 30.3422 21.4046 30.502 21.4205 30.598C21.7067 30.8378 21.9612 30.8058 21.9771 30.7738C21.9771 30.7738 21.9453 30.4541 21.9453 30.4221C21.8976 30.2782 21.6113 30.1184 21.3728 30.0065C21.2933 29.8466 20.8321 29.2711 20.7208 29.1432C20.5777 29.0153 20.6572 28.9194 20.7367 28.8714C20.8162 28.8235 21.1342 28.4238 21.2297 28.2639L21.9612 29.9745C21.993 30.0384 21.993 30.2303 21.9771 30.3102C22.4382 31.3813 21.3251 30.7898 21.3251 30.6779C21.3251 30.582 21.2297 30.4381 21.0865 30.4381C19.2896 29.2391 18.8602 30.3262 19.0669 30.8537C18.9397 30.9177 18.7171 31.0296 18.6058 31.0296C18.1605 31.4772 17.7629 31.1735 17.6834 31.0616C17.1587 31.0776 17.1587 30.502 17.2223 29.8626C16.0296 32.0207 18.6853 31.717 19.1465 31.3653C19.0828 31.4133 19.1942 31.6051 19.2896 31.6211C19.4009 31.733 19.6076 31.8129 19.7825 31.8129C19.7348 31.8609 19.7666 31.9728 19.8621 32.0367L20.0529 31.9568C20.1642 31.9568 20.5777 32.0527 20.6095 32.1806L20.4504 32.2925C20.4345 32.3245 20.4663 32.4524 20.6095 32.5323L20.8162 32.4044C20.848 32.4364 21.2297 32.5163 21.2615 32.6442L21.1661 32.7721C21.182 32.8361 21.2456 32.916 21.3887 32.916L22.3746 32.0527C22.6768 32.2925 23.122 32.1806 23.0902 31.9408L24.0126 32.6922C24.0921 32.6922 24.2193 32.5963 24.267 32.4524L24.0762 32.2765C24.0444 32.1007 24.3465 31.9248 24.5215 31.9568L24.76 32.1167C24.8077 32.1167 24.9031 31.9888 24.919 31.8449L24.7123 31.701C24.7441 31.5092 24.8077 31.4452 24.9508 31.4133L25.1734 31.4772C25.2053 31.4612 25.253 31.3173 25.2371 31.2214L25.0303 31.1735C24.9826 31.0776 25.1098 30.8378 25.1893 30.6299C25.1893 30.6299 25.3325 30.6459 25.3325 30.598C25.3484 30.55 25.3484 30.4221 25.2848 30.3422L24.4101 30.4701C24.4101 30.55 24.5215 30.8218 24.5692 30.8537C24.601 30.9017 24.7918 31.2374 24.8077 31.3653L23.9808 31.3813C23.9013 31.3493 23.9331 31.0296 23.9649 30.9017L23.8535 30.534L22.7404 30.6939C22.7404 30.6939 22.6291 30.1503 22.5655 30.2303C22.5018 30.3102 22.2633 29.2551 21.993 29.4469L21.7703 28.8874C21.8817 28.8395 22.5337 28.9673 22.7722 28.9354C22.7245 28.7435 22.4064 28.5037 22.1361 28.3918C21.6431 28.4078 21.7544 28.2 21.7703 28.2C21.7544 28.2 22.2156 28.1041 22.4859 28.0242C22.7722 28.1041 23.1857 28.8554 23.297 29.0952C23.2493 29.5908 23.5037 29.6228 23.6309 29.7027C23.7581 29.7827 23.9967 30.9337 23.9967 30.9337C23.9967 30.9497 23.9331 31.1735 23.9967 31.3333H24.6487C24.6487 31.3333 24.5374 31.0456 24.3783 30.9177L23.9967 29.5269C24.108 29.1432 23.9967 28.8714 23.8376 28.7915C23.6786 28.7116 23.774 28.5837 23.7263 28.168C23.9967 27.8963 24.6328 27.7524 24.9985 27.6405C24.9985 27.6405 25.1575 27.8003 25.1734 27.8003C25.1575 27.8003 24.9826 28.3599 24.919 28.6476L24.6646 28.3918L24.3624 29.0313C25.078 29.4949 25.4279 28.5037 25.4756 27.7844C25.9527 27.4646 25.6823 26.8092 25.078 27.1289C25.078 27.1289 24.5374 27.1449 24.2511 27.1609C24.267 26.1378 23.1697 24.683 23.6786 24.1235C23.4401 24.8908 24.3306 24.8748 24.2034 25.3864C25.0144 25.7541 24.9985 25.1786 25.0144 25.0667C25.0303 24.9707 24.919 24.4272 24.8077 24.2514C24.7282 24.0755 24.8713 23.7078 24.6964 23.4361L25.0144 23.1483L24.4896 22.9724L24.5692 22.7327L24.3306 22.7167C23.8058 21.7735 22.963 22.2051 22.963 22.2051C22.963 22.2051 23.1538 22.269 23.3129 22.3969C23.1061 22.365 22.152 22.7646 22.152 22.7646C22.152 22.7646 22.4382 22.8126 22.7086 22.9085L21.9453 23.4201L22.1202 23.484L21.8021 23.8197C21.8021 23.8197 21.5954 23.7718 21.3569 23.8197C21.1183 23.3561 20.7844 22.8765 21.0865 22.8446L21.5318 22.9245C22.645 20.9422 20.4027 21.3738 20.0211 21.8534C19.6235 22.333 19.9257 22.4129 20.1801 22.317L20.4027 22.5728C20.1483 22.7806 19.385 22.365 19.1783 22.365C18.9715 22.365 18.9715 22.2051 19.0192 22.0293C19.051 21.8534 18.9715 21.4058 18.6217 21.3418L18.4149 20.9422L18.2241 21.0381L18.4149 21.4857C18.24 21.5656 18.2241 21.9014 18.4467 22.349C18.4467 22.349 17.3813 23.0044 16.936 23.468L17.2541 23.8037L18.0174 23.1003L18.1287 23.1483L17.095 24.1874L17.588 24.5231L18.3195 23.8357H18.4626L17.5562 24.7949L18.0492 25.0347L18.9238 23.9636L19.0351 23.9796L18.3195 24.9068L19.0192 25.0187L19.3214 24.635L19.7348 24.7789L19.8462 25.0827L19.4963 25.1306L19.6076 25.818C19.6076 25.818 19.0987 25.9619 18.7489 26.1697C17.4608 24.5871 16.8724 27.4327 16.7929 28.4078ZM18.2877 31.3173C18.5263 31.2694 18.7807 31.1255 18.9238 31.0456L18.9715 31.2054C18.892 31.2374 18.6376 31.3173 18.2877 31.3173ZM23.2016 31.9088L23.2493 31.685L24.0603 32.5323L23.2016 31.9088ZM24.6805 31.9248L23.2652 31.4772L23.1857 31.2534L24.6805 31.9248ZM23.2016 31.1895L23.1857 31.0296L23.8376 31.1255L23.8695 31.2374L23.2016 31.1895ZM23.8217 30.6619L23.8376 30.7738L23.1857 30.9337L23.1379 30.7578L23.8217 30.6619ZM23.0266 31.8449C23.0902 31.685 22.9312 31.2374 22.8199 30.9017C22.963 30.9976 23.2334 31.733 23.0266 31.8449ZM19.6076 30.7738C19.6076 30.7738 19.6235 31.0136 19.703 31.1895L19.5599 31.2054C19.1465 30.1024 20.037 30.4701 20.7049 30.8697C19.4327 30.6139 19.6076 30.7738 19.6076 30.7738ZM20.2596 30.8697V30.9976C20.2596 30.9976 19.9416 30.9816 19.7507 30.9976L19.7348 30.8378C19.8621 30.8378 20.2278 30.8537 20.2596 30.8697ZM19.7984 30.0224L19.8303 30.1344C19.703 30.1344 19.4645 30.1983 19.4327 30.2463L19.3373 30.1344C19.4168 30.0704 19.5758 29.9905 19.7984 30.0224ZM19.2101 31.3653C19.1624 31.3333 19.1305 31.0935 19.1305 30.9656H19.226C19.226 31.0935 19.3055 31.3173 19.3055 31.3173L19.2101 31.3653ZM19.2578 30.7418L19.1465 30.7738C19.0987 30.6299 19.1624 30.4381 19.226 30.3741L19.3055 30.4541L19.2578 30.7418ZM19.3214 31.4932C19.8144 31.2054 20.7367 30.9497 21.1024 30.9976L21.1979 31.1415C21.1024 31.1255 20.1801 31.1895 19.3214 31.4932ZM19.878 31.8929L21.4046 31.3014L21.5159 31.4452L19.878 31.8929ZM20.5936 32.3085L21.7544 31.5412L21.8817 31.6531L20.5936 32.3085ZM22.2474 31.9728L21.341 32.7082L22.1361 31.8609L22.2474 31.9728ZM24.3147 24.1554C24.2829 24.1714 24.2352 24.1395 24.2034 24.0755C24.1716 23.9956 24.1716 23.9476 24.2034 23.9156C24.2511 23.9156 24.2988 23.9476 24.3306 24.0116C24.3624 24.0755 24.3624 24.1395 24.3147 24.1554ZM24.6964 23.9796C24.2034 23.6918 24.4101 23.516 24.3465 23.3082C24.6487 23.8357 24.4578 23.6918 24.6964 23.9796ZM24.4419 22.7806L24.3147 23.1163L23.9967 22.8286L24.4419 22.7806ZM23.8058 27.8963H23.5832L23.4242 27.4167L23.615 27.3847L23.7422 27.6245L24.0762 27.1449L24.2193 27.2728L23.8058 27.8963ZM23.9808 26.4095C24.0603 26.4415 24.2034 26.7452 24.1239 26.7772C24.0285 26.8092 23.9649 26.7772 23.7899 26.6173C23.615 26.4575 23.2334 26.3136 22.4223 26.4895L22.3746 26.3296C22.7404 26.2497 23.2016 26.1697 23.6468 26.3296C23.7263 26.2656 23.9331 26.2816 23.9808 26.4095ZM22.2474 23.8517C22.2951 23.7718 22.4859 23.484 22.7086 23.3561L22.5496 23.3082C22.5973 23.2282 22.9153 23.0204 23.0743 22.9724L22.9312 22.9405C23.0902 22.7966 23.5037 22.6847 23.774 22.7327V22.8446C22.8994 22.9245 22.6132 23.5799 22.311 24.4272L22.2315 24.3313C22.2156 24.2194 22.2633 24.0435 22.3905 23.8997L22.2474 23.8517ZM22.1679 24.4272C22.5018 24.5871 23.1857 24.9867 23.5037 24.9867L23.5832 25.1626C23.3606 25.1786 22.5178 24.7789 22.0884 24.5391L22.1679 24.4272ZM22.0407 24.5871C22.6927 25.0347 23.5037 25.4663 23.7263 25.4823L23.774 25.6422C23.5991 25.6422 22.7245 25.1946 22.0248 24.731L22.0407 24.5871ZM21.4841 24.2993C21.5795 24.3952 21.7703 24.4112 21.8499 24.3313C21.9294 24.2673 22.0248 24.3793 22.0089 24.4272C21.993 24.5071 21.993 24.7789 21.8499 24.7469C21.7226 24.7469 21.4205 24.9388 21.4364 24.8748C21.4682 24.8269 21.4682 24.2833 21.4841 24.2993ZM21.5318 25.0986L21.6431 25.0347C21.6749 25.3065 21.8658 25.898 22.1838 26.4095C22.5019 26.9371 22.3587 27.4167 21.8817 27.4806L21.818 27.2728C22.0725 27.2088 22.4223 27.1769 22.0089 26.4255C22.0089 26.7293 21.9771 26.9531 21.7226 26.9051L21.659 26.7133C21.8817 26.6973 21.993 26.4255 21.6113 25.7381C21.5159 25.7221 21.5159 25.7381 21.4682 25.7381L21.4046 25.4344C21.5477 25.6102 21.6908 25.7541 21.5318 25.0986ZM21.2456 25.3384C21.2933 25.4823 21.6272 26.7293 21.5954 27.049C21.7385 27.1609 21.818 27.7684 21.834 28.0881L21.659 28.1201C21.6749 27.5765 21.5477 27.2408 21.3887 27.081C21.5954 26.7932 21.2933 26.0578 21.0706 25.5143C20.4663 25.3544 20.7844 25.3065 21.0547 25.3065C20.5141 25.0027 20.6731 24.9707 20.9911 25.1306C21.3092 25.3065 20.9752 24.7949 20.9752 24.7949C20.9752 24.8109 21.2297 24.8269 21.3251 24.715C21.2456 24.8908 21.182 24.9548 21.182 24.9548C21.182 24.9548 21.2456 25.2105 21.2456 25.3384ZM21.0229 22.6367C20.9752 22.6048 20.9434 22.5568 20.9593 22.5568C20.9593 22.5408 21.0229 22.5408 21.0706 22.5568C21.1342 22.5888 21.1501 22.6367 21.1342 22.6527C21.1183 22.6847 21.0706 22.6687 21.0229 22.6367ZM21.5636 22.1092C21.659 22.1891 21.4682 22.6207 21.341 22.7007C21.2933 22.7167 21.1979 22.7167 21.2615 22.6207C21.2933 22.5248 21.5159 22.317 21.4841 22.2211C21.4364 22.1252 21.1979 21.9493 21.1183 21.9973C21.007 22.0293 20.8639 22.4129 20.8003 22.4929C20.7367 22.5568 20.6731 22.4769 20.6572 22.4769C20.8798 21.9653 20.9911 21.5337 21.5636 22.1092ZM21.0706 23.3561C20.9911 23.1963 20.689 22.9405 20.5459 22.7806C20.7844 22.8765 20.9752 22.9405 21.0706 23.3561ZM20.3868 22.8765C20.7526 23.8037 20.6413 24.7629 20.3391 24.9867L20.3073 24.8109C20.5936 24.7469 20.5459 23.3721 20.3868 22.8765ZM20.355 23.7238L20.2278 23.7558C20.1165 23.4361 20.037 23.5639 19.6712 23.5799L19.6394 23.452C20.1006 23.3881 20.2596 23.3242 20.355 23.7238ZM19.9098 22.6687L20.0529 22.7486C19.878 22.7327 19.6235 22.8765 19.4486 22.9565L19.4168 22.8286C19.544 22.7167 19.8303 22.6527 19.9098 22.6687ZM18.4945 22.5568L18.574 22.6367C18.574 23.1803 18.5422 23.532 19.226 23.4201L19.2578 23.5639C18.399 23.5959 18.4308 23.2282 18.4945 22.5568ZM18.9238 22.269L19.1783 22.5248L21.7067 28.7595L21.2615 28.0881L18.9238 22.269ZM19.9098 25.9459C20.0847 26.985 20.1801 27.1449 20.689 27.017L20.7526 27.1769C20.7526 27.1769 20.3073 27.1929 20.1642 27.1449C20.037 27.0969 20.0688 27.4167 20.1006 27.4966C20.1165 27.5925 20.5936 27.5765 20.8957 27.5126L20.9434 27.6405C20.8798 27.6884 20.3073 27.7044 20.196 27.6884C20.1006 27.6724 20.1483 27.8483 20.1801 27.9442C20.2278 28.0242 20.6095 28.1041 21.0865 28.1041L21.1342 28.232C21.007 28.2799 20.4982 28.2 20.3073 28.1201C20.1165 28.0561 20.037 28.1201 19.9257 28.3918L19.8303 28.3119C20.196 27.8323 19.9257 26.8731 19.7189 25.9139L19.9098 25.9459ZM43 17.3612C42.2685 17.0255 41.696 16.9776 40.392 17.2653C40.9645 16.8497 42.1254 15.4269 42.348 14.5316C41.044 14.4357 40.2012 14.8833 39.4856 15.1551C41.7278 13.3966 41.8232 12.3255 41.5847 10.7748C40.4397 11.9418 36.8776 14.7714 36.8935 14.7714C36.8776 14.7714 38.6905 12.885 39.9945 11.3184C41.3144 9.73571 40.726 8.20102 39.899 7.06599C39.74 7.86531 37.5932 11.1905 35.8598 12.6932L35.7485 12.3895C35.6849 12.8051 34.5081 14.4357 33.7925 15.0272L33.6653 14.7395C33.2996 15.315 31.1527 17.1694 30.2463 18.0966C29.3558 19.0398 29.6897 19.951 30.2304 20.4466C30.787 20.9422 31.0255 21.4697 30.3894 22.333C29.7851 23.2282 28.0836 23.1003 27.3203 22.0932C28.9105 21.4537 28.7515 20.4626 28.3698 19.6793C27.4157 21.0701 26.8273 20.4786 26.0163 19.7272C26.8909 19.7112 27.3839 19.2636 27.7178 18.6241C26.0958 18.832 25.5869 18.1925 25.3484 17.1854C25.0939 16.1942 26.1117 15.0432 27.3044 14.2439C27.3362 14.2439 27.6065 14.4037 27.7973 14.3718C28.0041 14.3718 28.2426 14.052 28.5129 13.9241C29.7056 13.7323 30.3099 14.2439 30.1827 15.4908C30.6121 15.267 30.6757 14.5636 30.5325 14.116C30.3735 13.6844 29.9919 13.6204 30.0396 13.5565C30.1032 13.4925 30.5803 13.8122 31.0096 14.2119C31.4231 14.6276 32.3772 14.6276 32.7748 14.4517C33.1723 14.2599 33.395 13.6524 33.5063 13.0769C33.22 13.5884 32.4885 13.8442 32.0433 13.8122C31.6298 13.7643 30.787 13.1408 30.0396 12.981C30.6598 12.4374 31.5185 12.8211 32.0751 13.2527C33.22 11.702 32.3613 11.0306 31.7729 10.7429C31.1845 10.4391 31.0255 10.6789 30.8824 10.599C30.7552 10.535 30.5803 10.2952 30.2781 10.1993V10.0235C31.4549 10.0075 32.0592 9.49592 32.5999 9.0483C33.1564 8.60068 32.9656 7.41769 32.7589 6.82619C32.568 6.21871 32.9656 6.13878 33.1723 6.25068C33.3632 6.36259 34.4286 6.74626 34.4286 6.74626C34.4286 6.74626 34.524 6.82619 34.6354 7.19388C34.7308 7.56156 34.6831 7.76939 34.524 7.9932C34.365 8.21701 33.9356 8.72857 33.9038 9.36803C33.872 10.0395 34.3491 10.3912 34.3968 10.8388C34.4604 11.3184 33.9038 11.5742 33.9038 11.5742C33.9038 11.5742 34.0947 11.734 34.3968 11.702C34.7149 11.6861 35.3033 11.2864 35.4941 10.7908C35.669 10.3112 35.0806 9.68775 35.0806 9.68775C35.0806 9.68775 35.4623 9.91156 35.7644 9.92755C36.0666 9.97551 36.0348 9.81565 36.3051 9.89558C36.5595 9.97551 36.5913 10.3592 36.5913 10.3592C36.5913 10.3592 36.8299 10.1833 36.9253 9.87959C37.0048 9.57585 37.1002 8.90442 36.2892 8.85646C35.4623 8.79252 35.6372 8.50476 36.0666 7.97721C36.5277 7.43367 36.5436 6.55442 35.6531 6.3466C34.7785 6.15476 34.365 5.70714 34.047 5.16361C33.713 4.5881 32.8702 4.52415 31.7729 4.85986C30.7075 5.19558 31.2482 6.65034 31.5821 7.48163C31.932 8.29694 31.916 8.56871 31.7093 8.98435C31.4867 9.38401 30.6439 9.62381 30.1191 9.62381V9.25612C30.5484 8.58469 30.787 7.59354 30.628 7.19388C30.4848 6.79422 29.7851 6.58639 29.3717 6.60238C28.9423 6.61837 28.9423 6.61837 28.9423 6.61837C29.2286 6.4585 29.2763 6.05884 28.9741 5.88299V5.56327H29.2445V5.00374H28.99V4.71599H28.3698V4.98776H28.1472V5.56327H28.4016V5.88299C28.1313 6.05884 28.179 6.44252 28.4334 6.61837C28.4334 6.61837 28.4334 6.61837 28.02 6.60238C27.6065 6.60238 26.8909 6.79422 26.7478 7.19388C26.6047 7.59354 26.8273 8.58469 27.2408 9.25612L27.209 9.73571C25.7141 9.46395 25.3007 9.27211 23.6468 7.56156L23.6627 7.25782C24.6487 4.97177 24.7441 5.0517 24.7759 4.47619C24.7918 3.90068 24.7759 2.62177 22.5814 2.42993C22.5814 2.68571 22.2474 2.95748 22.0089 2.31803C22.3587 2.04626 22.3905 1.42279 22.0248 1.34286L21.9453 0.927211L22.3428 1.07109V0.319728L21.9294 0.463605L22.0884 0H21.2456L21.3728 0.447619L20.9752 0.287755V1.03912L21.3569 0.927211L21.2456 1.2949C20.8957 1.4068 20.8798 2.03027 21.2456 2.27007C21.007 2.92551 20.6731 2.63776 20.6731 2.38197C18.4945 2.54184 18.4149 3.78878 18.4149 4.36429C18.4467 4.9398 18.5263 4.87585 19.4645 7.17789V7.49762C17.7788 9.14422 17.4449 9.32007 15.9501 9.55986V9.08027C16.3635 8.42483 16.618 7.43367 16.4908 7.03401C16.3635 6.65034 15.6479 6.41054 15.2345 6.41054C14.821 6.41054 14.821 6.41054 14.821 6.41054C15.0595 6.25068 15.1232 5.91497 14.8369 5.67517V5.33946H15.1232V4.76395H14.8687V4.49218H14.2962V4.76395H13.9941V5.33946H14.2485V5.65918C13.9146 5.88299 13.9464 6.25068 14.2485 6.41054C14.2485 6.41054 14.2167 6.41054 13.851 6.37857C13.4216 6.3466 12.706 6.53844 12.5629 6.92211C12.4038 7.33776 12.6106 8.32891 13.024 9.01633L13.0081 9.36803C12.4675 9.36803 11.6405 9.09626 11.4338 8.6966C11.2271 8.29694 11.2271 8.02517 11.5928 7.19388C11.9586 6.37857 12.547 4.9398 11.4656 4.5881C10.4001 4.23639 9.54142 4.26837 9.19157 4.82789C8.85762 5.38742 8.44416 5.78708 7.53772 5.97891C6.66309 6.15476 6.64719 7.03401 7.07655 7.59354C7.52182 8.13708 7.68084 8.40884 6.85392 8.4568C6.027 8.48878 6.09061 9.1602 6.18602 9.46395C6.26553 9.78367 6.50407 9.95952 6.50407 9.95952C6.50407 9.95952 6.53587 9.57585 6.82212 9.49592C7.09246 9.41599 7.06065 9.57585 7.3628 9.55986C7.66494 9.54388 8.0307 9.33605 8.0307 9.33605C8.0307 9.33605 7.4105 9.92755 7.60133 10.4231C7.76035 10.9187 8.34874 11.3184 8.66679 11.3344C8.98484 11.3823 9.15976 11.2384 9.15976 11.2384C9.15976 11.2384 8.61908 10.9667 8.66679 10.5031C8.7463 10.0554 9.23927 9.71973 9.22337 9.0483C9.19157 8.39286 8.79401 7.89728 8.63498 7.65748C8.49186 7.41769 8.42825 7.22585 8.55547 6.85816C8.66679 6.47449 8.77811 6.41054 8.77811 6.41054C8.77811 6.41054 9.84356 6.05884 10.0344 5.94694C10.2252 5.85102 10.6387 5.91497 10.432 6.52245C10.2093 7.12993 10.0026 8.28095 10.5274 8.77653C11.068 9.22415 11.6405 9.73571 12.8014 9.79966V9.9915C12.4993 10.0714 12.3402 10.3112 12.1971 10.3592C12.0699 10.4391 11.9109 10.1993 11.3225 10.4711C10.7182 10.7588 9.85947 11.3663 10.9408 12.885C11.5292 12.4694 12.372 12.1177 12.9763 12.6612C12.2448 12.8051 11.3861 13.4126 10.9408 13.4605C10.5115 13.4925 9.77996 13.2048 9.52552 12.6932C9.62093 13.2048 9.84357 13.8602 10.2252 14.068C10.6228 14.2599 11.561 14.2918 11.9904 13.8762C12.4197 13.4765 12.8968 13.2048 12.9604 13.2367C13.0081 13.3007 12.6265 13.3646 12.4834 13.7963C12.3084 14.2119 12.372 14.9473 12.7855 15.1551C12.7219 13.9082 13.3421 13.3966 14.5348 13.6204C14.7892 13.7483 15.0436 14.084 15.2345 14.1C15.4253 14.116 15.6956 13.9881 15.7274 13.9881C16.8883 14.8194 17.7947 15.9864 17.5085 16.9935C17.2541 18.0007 16.8247 18.6082 15.2027 18.3684C15.5048 19.0238 15.9819 19.4714 16.8406 19.5194C16.0137 20.2388 15.3935 20.8143 14.503 19.3915C14.1054 20.1748 13.9305 21.166 15.4889 21.8534C14.6938 22.8286 12.9922 22.8925 12.4197 21.9973C11.8155 21.118 12.054 20.6065 12.6106 20.1269C13.1513 19.6473 13.517 18.7361 12.6583 17.7609C11.7837 16.8017 9.68454 14.9153 9.31879 14.3238L9.22337 14.6116C8.53957 13.9561 7.3628 12.3095 7.33099 11.8939L7.18787 12.1976C5.50222 10.7429 3.46672 7.36973 3.30769 6.57041C2.46487 7.68946 1.82877 9.19218 3.10096 10.8068C4.37315 12.2935 6.12241 14.2439 6.12241 14.2439C6.13831 14.2599 2.6875 11.3503 1.55843 10.2313C1.28809 11.6701 1.3517 12.7412 3.53033 14.5636C2.83062 14.2599 1.9878 13.7963 0.683802 13.8442C0.906435 14.7554 2.0037 16.2102 2.57618 16.6418C1.30399 16.3221 0.731509 16.3381 0 16.6738C0.318047 17.3293 1.38351 18.5282 2.14682 18.8799C1.25629 18.9759 0.174926 19.4714 0.0318047 19.6153C0.413462 20.2068 1.04956 20.7344 1.87648 21.0381C0.922337 21.4857 0.651997 21.7895 0.508876 22.0133C0.93824 22.6687 1.46302 23.1163 2.19453 23.2602C2.08321 23.3561 1.97189 23.468 1.86058 23.5799C2.0037 23.7718 2.52848 24.0116 2.56028 24.1395C2.59209 24.2514 2.78291 24.0116 2.83062 23.8517C2.81472 23.9476 3.3872 24.1874 3.18047 24.4752C3.27589 25.0827 3.72115 24.3952 3.88018 24.0755C4.96154 25.1626 3.95969 26.4415 3.97559 26.4895C3.97559 26.5374 4.24593 26.7612 4.34135 26.9531C4.91383 26.6493 6.26553 25.7541 6.26553 25.7541C6.26553 25.7541 4.81842 26.8252 4.48447 27.2728C4.16642 27.7684 4.34135 28.6156 4.40496 28.6796C4.46857 28.8075 5.40681 29.0473 5.72485 28.7276C6.0747 28.3918 7.68084 26.4415 7.66494 26.5054C7.66494 26.5694 6.79031 27.7524 6.48817 28.4078C6.20192 29.0633 6.61538 30.0384 6.75851 30.1344C6.96524 30.2303 8.0625 30.1344 8.23743 29.7986C8.39645 29.4629 9.54142 27.1929 9.54142 27.1929C9.55732 27.1929 8.7304 28.9194 8.68269 29.4949C8.63498 30.0704 9.20747 30.8697 9.3824 30.8857C9.55732 30.9337 10.5592 30.6619 10.6705 30.2463C10.7977 29.8466 11.3384 27.6405 11.3225 27.6405C11.3225 27.6405 11.0521 29.1592 11.1317 29.6068C11.1635 30.1184 11.8791 30.4701 12.0222 30.6459C12.1494 30.9337 12.2607 30.8378 12.4197 30.6459C12.5629 30.4861 13.358 30.3582 13.3103 29.4469C13.2785 28.5357 13.3103 27.8483 13.3103 27.8483C13.3103 27.8483 13.851 27.8803 14.1213 27.6245C14.3757 27.3847 14.5348 27.3048 14.5348 27.3048C14.5348 27.3048 14.7574 27.8003 15.0754 27.8163C15.4094 27.8483 15.6797 27.9442 15.6797 27.9442L15.7274 30.9017C14.9959 31.4612 14.4075 31.8129 13.4216 31.5412L13.6283 31.781C12.1494 31.8929 11.2112 32.4364 11.402 34.2748C11.5928 36.0653 10.6705 35.5537 10.6546 35.5378C10.6705 35.5378 11.1158 36.7687 12.4993 35.8095C12.706 36.3371 12.5152 37.0565 12.4038 37.2643C12.7855 37.1044 13.1035 36.8167 13.2308 36.6568C13.3262 36.5129 13.3421 36.9286 13.2785 37.1204C13.2308 37.3122 13.7078 36.6088 13.7555 36.449C13.8192 36.2731 14.3598 36.8167 13.8033 37.2803C13.2308 37.7599 11.402 38.3514 10.6228 38.4633C9.63684 38.6231 8.65089 38.767 8.65089 37.7918C8.65089 36.8486 7.55362 36.7527 7.10836 37.2323C6.83802 36.9765 6.63129 36.5289 6.63129 36.5289C6.63129 36.6088 5.85207 36.8806 5.82027 36.8327C5.78846 36.8966 6.0429 37.6 5.89978 37.7599C5.75666 37.9517 5.04105 38.2874 5.10466 38.6071C5.05695 39.1027 5.58173 39.2626 5.66124 39.2786C5.50222 39.7422 5.99519 40.2058 6.31324 40.0939C6.28144 40.9731 6.0747 40.7333 7.06065 41.2609C7.23558 41.3568 7.49002 41.3088 7.58543 41.4048C7.68084 41.5007 8.31694 41.9643 8.57138 40.5575C8.95303 40.2058 9.82766 39.6143 10.75 39.4384C11.7837 39.2626 15.5366 38.4153 16.3794 38.3514C16.4271 37.7279 16.1409 37.1204 16.1409 37.1204C16.1409 37.1204 17.1109 36.9126 17.4767 36.1612C16.8724 36.2891 16.2681 36.1932 16.2363 35.4898C16.2045 34.7864 16.7293 34.1789 17.4926 34.2748C18.3831 34.3548 19.2896 35.0901 19.226 35.9214C19.1942 36.7367 18.5899 37.0884 18.1446 37.3762C17.7311 37.6959 17.7629 38.3354 17.747 38.3354C17.7629 38.3354 17.7152 38.1116 18.0492 37.9837C18.3831 37.8398 19.0192 37.8238 19.0192 37.8078C19.0192 37.8238 19.0192 37.9997 18.6853 38.2235C18.3513 38.4793 17.1428 38.9748 16.6498 39.2146C16.0455 39.4544 15.1391 40.2697 14.8051 40.2378C14.4712 40.2537 14.169 40.1578 14.1372 39.8861C14.1213 39.6303 14.2803 39.2786 14.2803 39.2786C14.2803 39.2786 13.5329 39.4225 13.2785 39.8381C13.024 40.2697 12.8968 41.165 13.4375 41.4847C12.9445 42.0602 12.7696 43.1473 13.024 43.7388C13.2785 44.3303 13.2308 44.8578 13.2308 44.8418C13.2308 44.8418 13.7715 44.666 13.8033 44.2823C13.8351 43.9306 14.2326 43.435 14.2167 43.435C14.2326 43.435 14.2167 44.4741 14.8369 44.9058C15.4412 45.3374 16.0773 45.5932 16.9837 44.7459C17.8584 45.7531 18.4149 46.3765 19.8939 45.865C20.1006 46.2007 20.7049 46.8242 21.0388 46.9201C21.3728 46.8401 22.0089 46.3446 22.2474 46.0088C23.7104 46.5524 24.267 45.9609 25.1734 44.9537C26.1594 45.817 26.7955 45.5612 27.4157 45.1456C28.02 44.7459 28.0518 43.7068 28.0518 43.7068C28.0518 43.7068 28.4175 44.1864 28.4652 44.5541C28.497 44.9378 29.0377 45.1456 29.0377 45.1296C29.0377 45.1296 28.99 44.618 29.2763 44.0265C29.5625 43.451 29.4035 42.348 28.9264 41.7565C29.4671 41.4687 29.3558 40.5415 29.1013 40.1099C28.8628 39.6942 28.1154 39.5344 28.1154 39.5344C28.1154 39.5344 28.2744 39.8701 28.2426 40.1418C28.2108 40.4296 27.9087 40.5095 27.5747 40.4776C27.2408 40.4776 26.3502 39.6463 25.7618 39.3905C25.1894 39.1347 23.9967 38.6391 23.6468 38.3833C23.3129 38.1276 23.3288 37.9357 23.3288 37.9357C23.3288 37.9357 23.949 37.9997 24.2988 38.1276C24.6328 38.2874 24.5692 38.4793 24.5851 38.4793C24.5692 38.4793 24.6328 37.8558 24.2034 37.5361C23.774 37.2163 23.2016 36.8327 23.1697 36.0333C23.122 35.218 24.0603 34.4827 24.9349 34.4347C25.7936 34.3867 26.3025 34.9782 26.2389 35.6816C26.1912 36.369 25.5074 36.465 24.919 36.3371C25.2371 37.0884 26.3025 37.3282 26.3025 37.3282C26.3025 37.3282 26.0004 37.9197 26.0481 38.5272C26.8909 38.6391 30.628 39.5184 31.8365 39.8061C32.3136 40.0779 33.4109 40.7653 33.8879 40.7813C34.3491 40.8133 34.7785 40.4776 35.1124 40.3816C35.4464 40.3017 35.8121 40.3497 36.0825 40.2378C36.3369 40.1578 36.6073 39.7742 37.1479 39.6303C37.6568 39.4704 37.6568 39.0388 37.5932 38.799C37.8158 38.6391 38.2611 37.9517 38.3565 37.8238C38.4201 37.7119 38.436 37.8238 38.7064 37.7918C38.9926 37.7599 39.1516 36.6568 38.8654 36.4969C38.5473 36.3371 38.77 36.369 38.595 36.2412C38.4201 35.4099 37.784 34.131 36.5118 33.8592L36.2892 33.4595L36.8935 33.6993V32.3565L36.2892 32.6602L36.5436 32.0527H35.1601L35.3351 32.6602L34.699 32.3565V33.6993L35.3669 33.4595L35.1442 33.8912C33.872 34.1629 33.1882 35.1861 32.9974 36.0173C32.9974 36.0813 32.8384 36.0973 32.6635 36.2412C32.4885 36.401 32.4885 37.5361 32.6635 37.6C32.8225 37.6799 33.0928 37.632 33.1405 37.7279C33.1882 37.8398 33.3632 38.2075 33.3632 38.2075C33.3632 38.2075 32.6953 38.815 31.8524 38.783C31.0255 38.783 29.1967 38.0476 28.6561 37.5361C28.0836 37.0565 28.6561 36.5449 28.7197 36.7048C28.7674 36.8646 29.2127 37.6 29.1967 37.4082C29.149 37.2003 29.149 36.8007 29.2604 36.9446C29.3558 37.0884 29.6738 37.4082 30.0555 37.584C29.9283 37.3922 29.7533 36.6568 29.976 36.1133C31.3436 37.1044 31.8365 35.8895 31.8365 35.8735C31.8365 35.8895 30.8824 36.385 31.1368 34.5946C31.3754 32.7881 30.453 32.1806 28.9741 32.0527L29.1808 31.8289C28.2108 32.0847 27.6065 31.701 26.9068 31.1415L27.0022 28.168C27.0022 28.168 27.3044 28.0881 27.6224 28.0721C27.9564 28.0401 28.179 27.5765 28.179 27.5765C28.179 27.5765 28.338 27.6565 28.5925 27.9122C28.8469 28.152 29.3876 28.152 29.3876 28.152C29.3876 28.152 29.4035 28.8554 29.3558 29.7507C29.2922 30.6619 30.0873 30.8218 30.2304 30.9816C30.3894 31.1575 30.5007 31.2534 30.628 30.9816C30.7393 30.7259 31.4708 30.4221 31.5662 29.9745C31.6457 29.5109 31.4072 27.9922 31.4072 27.9922C31.4072 27.9922 31.8842 30.2143 31.9956 30.6139C32.1069 31.0136 33.0928 31.3014 33.2678 31.2694C33.4268 31.2534 34.0311 30.4861 33.9993 29.8946C33.9675 29.319 33.1882 27.5605 33.2041 27.5605C33.1882 27.5605 34.2696 29.8626 34.4286 30.2143C34.5877 30.534 35.6849 30.6779 35.8916 30.582C36.0507 30.502 36.48 29.5269 36.2097 28.8554C35.9234 28.2 35.0965 27.001 35.0806 26.9371C35.0806 26.8731 36.6231 28.8554 36.9571 29.2071C37.291 29.5429 38.2134 29.3031 38.3088 29.2071C38.3724 29.1272 38.5632 28.2959 38.2611 27.8003C37.9271 27.3207 36.5118 26.2177 36.5118 26.2177C36.5118 26.2177 37.1638 26.6173 38.1339 27.3207C39.0403 28.0241 39.3584 27.7364 40.1058 27.5765C40.2012 27.2888 40.1058 26.4895 39.6605 25.802C40.8373 25.85 41.1394 25.5942 41.6006 25.2585C41.5688 25.0187 41.203 24.2354 40.6783 23.8037C41.4098 23.6599 41.9345 23.2442 42.3798 22.6048C42.2526 22.365 41.9823 22.0612 41.0599 21.5976C41.8868 21.3099 42.5229 20.8303 42.9364 20.2228C42.7933 20.0949 41.7278 19.5514 40.8214 19.4395C41.537 19.1677 42.666 18.0007 43 17.3612ZM35.2078 10.9347C35.176 10.3112 34.3968 10.1034 34.7149 9.4C34.7149 10.0075 35.4782 10.0554 35.2078 10.9347ZM31.9002 7.62551C31.3436 6.28265 31.0573 5.11565 32.0115 5.35544C32.9656 5.59524 34.8262 6.36259 35.5418 6.52245C36.2574 6.68231 36.3846 7.36973 35.9234 7.86531C35.4782 8.36088 34.9693 8.84048 36.5913 9.22415C36.2892 9.22415 35.7803 9.2881 35.5259 9.06429C35.2715 8.84048 34.858 8.4568 35.669 7.65748C36.4959 6.87415 35.1919 6.6983 34.858 6.60238C34.4922 6.52245 33.2359 5.96292 32.5999 5.80306C31.9797 5.6432 31.4867 5.41939 31.9479 6.6983C32.3772 7.96123 32.6953 8.87245 31.8524 9.46395L31.2163 9.57585C31.7888 9.33605 32.4567 9.00034 31.9002 7.62551ZM7.90348 10.567C7.64904 9.68775 8.42825 9.67177 8.44416 9.0483C8.7622 9.7517 7.95118 9.94354 7.90348 10.567ZM11.3384 9.19218C10.5115 8.55272 10.8454 7.65748 11.3225 6.41054C11.8155 5.16361 11.3225 5.35544 10.6864 5.51531C10.0503 5.67517 8.79401 6.18673 8.41235 6.25068C8.0625 6.33061 6.75851 6.47449 7.53772 7.27381C8.33284 8.08912 7.91938 8.47279 7.63314 8.68061C7.3787 8.90442 6.88573 8.84048 6.58358 8.82449C8.20562 8.48878 7.72855 8.00918 7.28328 7.48163C6.83802 6.97007 6.98114 6.28265 7.69675 6.13878C8.41235 5.9949 10.2888 5.30748 11.243 5.08367C12.213 4.85986 11.8791 6.01088 11.3066 7.33776C10.7182 8.68061 11.3702 9.06429 11.9745 9.30408L11.3384 9.19218ZM14.503 20.0469C14.7256 20.2068 15.2345 20.4946 15.5684 20.5585C15.3776 20.6704 14.9482 20.5425 14.7097 20.4146C14.8051 21.0221 15.155 21.2619 15.5366 21.4857C14.6938 21.3898 14.328 20.4786 14.503 20.0469ZM14.7415 23.484C14.8369 23.5 15.0118 24.4432 14.8846 24.3473C14.7415 24.2354 14.503 23.468 14.7415 23.484ZM13.4534 23.532C13.5329 23.5639 13.2308 24.4912 13.1672 24.3473C13.1036 24.2034 13.2308 23.4041 13.4534 23.532ZM12.1812 23.0524C12.213 23.1163 11.6564 23.8997 11.6564 23.7398C11.6564 23.5639 12.0222 22.8605 12.1812 23.0524ZM12.2766 18.5602C12.3243 18.6721 12.4834 18.768 12.2766 18.8799C12.0381 19.0078 12.0381 18.7041 12.0381 18.6561C12.0381 18.6082 10.8613 17.0895 10.4638 16.7697C10.7659 16.8656 12.1812 18.4323 12.2766 18.5602ZM9.57323 19.3276C9.57323 19.0238 9.3824 18.5282 9.3824 18.5602C9.3824 18.5602 10.0503 18.3044 10.1298 18.2565C10.1775 18.2085 10.3842 18.1286 10.5274 18.1286C9.81176 17.2973 9.44601 16.3221 9.36649 15.1711L9.4142 15.1391C9.46191 16.498 10.432 17.9847 11.5769 18.8959C11.2589 18.6561 10.7341 18.2884 10.4638 18.4163C10.2093 18.5442 9.71635 18.7041 9.73225 18.7041C9.73225 18.6881 9.84356 19.1997 9.87537 19.4714C9.89127 19.7592 10.5433 20.015 10.9726 20.1269C10.5751 20.031 9.92308 19.935 9.76405 20.1908C9.57323 20.4146 9.22337 20.7983 9.22337 20.7983C9.20747 20.7823 9.52552 21.182 9.71635 21.4218C9.87537 21.6776 10.5274 21.6136 10.8613 21.5497C10.432 21.7255 9.89127 22.0932 9.89127 22.381C9.89127 22.6687 9.89127 23.1643 9.85947 23.1643C9.85947 23.1643 10.3524 23.2602 10.6546 23.3401C10.9249 23.4361 11.3861 22.9724 11.6564 22.6847C11.402 22.9884 11.068 23.468 11.1635 23.6759C11.2589 23.8837 11.402 24.3313 11.402 24.3313C11.3861 24.3313 11.8473 24.2514 12.0858 24.2514C12.3561 24.2514 12.5788 23.6918 12.7378 23.3881C12.6106 23.7398 12.4834 24.2833 12.6742 24.4592C12.865 24.635 13.1672 24.9707 13.1672 24.9707C13.1513 24.9707 13.5329 24.731 13.7715 24.619C13.9782 24.4912 13.9941 23.8997 13.9782 23.7078C14.01 24.0116 14.1372 24.5871 14.3916 24.651C14.6143 24.731 15.0436 24.9068 15.0436 24.9228C15.0436 24.9228 15.2504 24.5231 15.4412 24.3473C15.6002 24.1395 15.3617 23.6119 15.1868 23.3242C15.2027 23.3242 15.6002 23.8517 15.632 24.0915C15.6956 24.3313 15.6479 24.4912 15.4889 24.635C15.314 24.7949 15.1072 25.2265 15.1232 25.2105C15.1232 25.1946 14.7415 24.9707 14.5189 24.9068C14.3121 24.8429 14.1054 24.7789 14.0418 24.5231C13.9782 24.7469 13.9464 24.8429 13.7078 24.8908C13.4852 24.9548 13.1195 25.2585 13.1195 25.2425C13.1195 25.2425 12.8809 24.8748 12.706 24.7469C12.547 24.5871 12.4038 24.4912 12.4197 24.2194C12.2925 24.4112 12.1653 24.4432 11.9109 24.4432C11.6564 24.4432 11.243 24.5871 11.243 24.5871C11.2589 24.5871 11.1476 24.1554 11.0362 23.9476C10.9408 23.7398 10.8931 23.6439 11.0044 23.452C10.75 23.5959 10.6864 23.532 10.4161 23.452C10.1616 23.3561 9.66864 23.3242 9.68454 23.3242C9.70044 23.3242 9.71635 22.7327 9.70044 22.381C9.68454 22.0612 9.76405 21.9973 10.0344 21.7415C9.77996 21.7415 9.60503 21.6935 9.44601 21.4218C9.28698 21.166 8.90533 20.8143 8.90533 20.8143C8.90533 20.8303 9.25518 20.4466 9.4142 20.2068C9.57323 19.951 9.66864 19.8551 9.97078 19.9031C9.71635 19.7752 9.58913 19.6313 9.57323 19.3276ZM11.402 22.1731C11.4179 22.2531 10.5115 22.7966 10.5751 22.6048C10.6546 22.4449 11.3384 21.8854 11.402 22.1731ZM10.1775 20.7983C10.3206 20.6864 11.2907 20.6544 11.1953 20.8942C11.1794 20.9741 10.0185 20.9102 10.1775 20.7983ZM10.591 19.2636C10.75 19.1997 11.5928 19.3915 11.4497 19.6153C11.3861 19.6793 10.4479 19.3276 10.591 19.2636ZM15.314 26.7772C15.2822 26.6333 14.98 25.5303 14.98 25.5303C14.9641 25.3864 15.155 25.3065 15.1709 25.4663C15.2027 25.6422 15.473 26.6173 15.4889 26.7452C15.5366 26.8891 15.3299 26.9051 15.314 26.7772ZM13.7874 25.3224C13.7714 25.4983 13.7237 26.5054 13.7078 26.6333C13.7078 26.7772 13.517 26.7293 13.5329 26.6014C13.5488 26.4735 13.5806 25.3065 13.5806 25.3065C13.5965 25.1626 13.8033 25.1466 13.7874 25.3224ZM12.4675 25.1466C12.4357 25.3065 12.1812 26.2816 12.1494 26.4095C12.1017 26.5374 11.9427 26.4735 11.9745 26.3296C12.0222 26.2017 12.3084 25.0827 12.3084 25.0827C12.3243 24.9388 12.5311 24.9707 12.4675 25.1466ZM11.0839 24.7469C11.0044 24.8429 10.5433 25.6742 10.4638 25.7861C10.4001 25.898 10.2411 25.7861 10.3047 25.6742C10.4001 25.5463 10.9249 24.651 10.9249 24.651C11.0044 24.5231 11.1794 24.619 11.0839 24.7469ZM8.7622 20.4306C8.58728 20.4146 7.58543 20.3827 7.44231 20.3667C7.29919 20.3667 7.33099 20.1908 7.45821 20.1908C7.60133 20.2068 8.7622 20.2388 8.7622 20.2388C8.90532 20.2388 8.93713 20.4466 8.7622 20.4306ZM7.56953 18.5602C7.42641 18.5282 7.52182 18.3524 7.64904 18.4003C7.77626 18.4643 8.88942 18.8 8.88942 18.8C9.01664 18.848 9.00074 19.0558 8.82581 18.9918C8.66679 18.9439 7.69675 18.6241 7.56953 18.5602ZM8.93713 21.5656C9.08025 21.5497 9.14386 21.7575 8.95303 21.7575C8.79401 21.7895 7.77626 21.9173 7.64904 21.9173C7.52182 21.9173 7.52182 21.7255 7.64904 21.7255C7.80806 21.7255 8.93713 21.5656 8.93713 21.5656ZM8.14201 23.2762C8.28513 23.2442 9.30289 22.7327 9.30289 22.7327C9.4301 22.6687 9.55732 22.8446 9.3824 22.8925C9.22337 22.9724 8.33284 23.4041 8.17382 23.452C8.0784 23.516 8.01479 23.3401 8.14201 23.2762ZM9.01664 24.651C9.11206 24.5551 10.0026 23.6759 10.0026 23.6759C10.0821 23.5639 10.257 23.6918 10.1457 23.8037C10.0185 23.8997 9.20747 24.699 9.14386 24.7789C9.04845 24.9068 8.92123 24.7469 9.01664 24.651ZM9.23927 17.4891C9.33469 17.5531 9.25518 17.7289 9.12796 17.649C9.00074 17.5531 7.87167 16.8976 7.74445 16.8017C7.63314 16.7378 7.74445 16.5939 7.87167 16.6738C7.96709 16.7378 9.23927 17.4891 9.23927 17.4891ZM9.01664 15.6187C9.20747 15.8105 9.08025 15.9704 8.90533 15.8425C8.7304 15.7146 7.64904 14.5796 7.61723 13.8282C7.82397 14.3718 8.65089 15.331 9.01664 15.6187ZM3.18047 7.62551C3.27589 7.96122 5.10466 10.7109 6.42456 12.0857C5.74075 11.5582 3.78476 9.60782 3.48262 8.88844C3.45081 10.1993 4.85022 12.0058 5.67715 13.1088C4.64349 12.0378 2.44896 9.76769 3.18047 7.62551ZM4.40496 10.6949C4.62759 11.1265 6.0588 12.7571 6.64719 13.2207L6.50407 13.5565C5.82027 12.8371 4.48447 11.1905 4.40496 10.6949ZM5.20007 21.7895L5.26368 22.1571C4.27774 22.2051 3.03735 22.1891 2.49667 22.0932C2.95784 21.9653 4.27774 21.9014 5.20007 21.7895ZM5.04105 20.5585C4.0551 20.3986 2.62389 20.1748 2.13092 19.983C2.6557 19.967 4.16642 20.0949 5.07285 20.2068L5.04105 20.5585ZM5.18417 18.832C4.24593 18.5602 2.49667 17.9207 2.08321 17.601C2.51257 17.7289 4.53217 18.3204 5.26368 18.4803L5.18417 18.832ZM1.87648 11.1905C2.06731 11.3503 4.0074 13.1728 5.54993 14.1959C4.81842 13.8762 2.91013 12.6932 2.46487 12.1017C2.75111 13.3007 4.08691 14.4517 5.10466 15.251C3.89608 14.5156 1.73336 13.1568 1.87648 11.1905ZM5.93158 15.0912L5.85207 15.4429C5.05695 14.8673 3.3872 13.5565 3.24408 13.1088C3.51442 13.4765 5.26368 14.7554 5.93158 15.0912ZM5.53402 16.8337L5.42271 17.1854C4.54808 16.7697 3.00555 15.6667 2.76701 15.267C3.11686 15.5867 4.81842 16.6099 5.53402 16.8337ZM1.28809 14.3078C2.56028 14.1959 3.89608 15.1071 4.86612 15.8105C4.0233 15.3789 2.63979 14.7874 1.9878 14.7874C2.17862 15.4429 3.76886 16.6898 4.40496 17.1534C3.22818 16.6099 1.59024 15.4269 1.28809 14.3078ZM0.540681 16.8656C1.76516 16.5619 3.24408 17.2813 4.29364 17.8408C3.3872 17.5531 1.94009 17.1534 1.30399 17.2333C1.57433 17.8728 3.41901 18.7041 4.11871 19.0718C2.87833 18.6881 1.00185 17.9207 0.540681 16.8656ZM0.60429 19.7752C1.68565 19.1037 2.86243 19.4395 4.0233 19.6153C3.08506 19.6313 1.92419 19.5833 1.3517 19.8711C1.82877 20.3667 3.49852 20.7983 4.26183 20.9262C2.98965 20.9582 1.3676 20.6224 0.60429 19.7752ZM1.03365 22.0293C2.0355 21.2619 3.10096 21.3578 4.29364 21.4537C3.3554 21.5497 2.22633 21.7415 1.68565 22.1092C2.19453 22.5728 3.49852 22.7806 4.29364 22.7167C2.95784 22.9245 1.87648 22.9405 1.03365 22.0293ZM3.02145 23.7398L2.48077 23.7078C2.97374 23.3881 3.60984 23.2922 4.32544 23.1163C3.94379 23.3082 3.57803 23.4041 3.02145 23.7398ZM3.40311 24.0276C3.86428 23.7878 4.62759 23.5639 5.50222 23.2442L5.62944 23.5639C4.6912 23.8837 3.95969 23.9636 3.40311 24.0276ZM5.02515 24.4592L4.53217 24.8908L4.43676 24.651L5.02515 24.4592ZM4.35725 26.5534L4.24593 26.2976C4.45266 26.3296 5.07286 26.1378 5.75666 25.7701C4.96154 26.4255 4.64349 26.6173 4.35725 26.5534ZM4.51627 25.7701C4.91383 25.4344 5.27959 25.1466 6.0588 24.651L6.26553 24.9548C5.3909 25.4344 5.02515 25.5942 4.51627 25.7701ZM4.65939 28.5037C4.51627 27.5286 5.20007 26.8891 6.13831 26.1857C5.50222 26.8891 4.94564 27.5765 5.12056 28.0401C5.66124 28.2799 6.36095 27.3687 6.98114 26.8891C6.09061 27.9442 5.74075 28.7915 4.65939 28.5037ZM5.45451 27.7364C5.72485 27.2888 6.50407 26.5374 7.12426 25.85L7.3946 26.0898C6.6949 26.7932 5.89978 27.4327 5.45451 27.7364ZM6.93343 29.9105C6.48817 29.0153 6.91753 28.2799 7.56953 27.2888C7.18787 28.152 6.90163 28.9514 7.21968 29.335C7.79216 29.399 8.41235 28.4398 8.82581 27.8003C8.33284 29.0633 8.0466 29.8306 6.93343 29.9105ZM8.47596 26.8412L8.80991 26.985C8.38055 27.8803 7.80806 28.5357 7.47411 28.9514C7.61723 28.4398 8.11021 27.6724 8.47596 26.8412ZM9.46191 30.582C8.80991 29.8466 9.14386 29.1112 9.54142 27.9922C9.3824 28.9194 9.22337 29.7986 9.63683 30.0864C10.2093 29.9745 10.591 28.9514 10.8136 28.216C10.6546 29.5588 10.5115 30.2303 9.46191 30.582ZM9.76405 29.6228C9.77996 29.1112 10.0503 28.5357 10.1616 27.6085L10.5274 27.6725C10.3206 28.6476 9.95488 29.1112 9.76405 29.6228ZM12.1653 30.502C11.2271 29.8146 11.5133 29.399 11.6405 28.248C11.6882 29.1752 11.6405 29.6068 12.213 29.9745C12.9604 29.5269 12.865 28.9514 12.9445 28.184C13.0717 29.5588 13.2626 29.9425 12.1653 30.502ZM12.0858 27.8963L12.4516 27.8643C12.4516 28.8554 12.4197 29.0313 12.3084 29.5588C12.2289 29.0633 12.1494 28.8235 12.0858 27.8963ZM15.7115 27.6725C15.1709 27.7044 14.8846 27.5605 14.5507 26.9371C14.2803 27.3847 14.0736 27.5765 13.4693 27.6884C12.9445 27.3847 12.865 27.0969 12.7855 26.8731C12.5788 27.2248 12.3243 27.4486 11.6564 27.4646C11.3702 27.1609 10.9885 26.9051 10.9567 26.4895C10.5592 26.7293 10.1934 26.8731 9.79586 26.6973C9.57323 26.3616 9.50962 26.0898 9.49371 25.7061C8.98484 25.898 8.42826 25.9939 8.17382 25.7861C7.98299 25.2585 7.91938 24.8429 7.98299 24.4752C7.28328 24.4432 6.79031 24.1395 6.7108 23.8357C6.7426 23.468 6.85392 23.0204 6.94933 22.8605C6.31324 22.5728 6.15422 22.2531 6.10651 22.0932C6.18602 21.7255 6.31324 21.3258 6.48817 21.166C6.10651 20.9582 5.70895 20.6224 5.59763 20.1588C5.78846 19.7112 6.09061 19.4075 6.34504 19.1997C5.91568 18.6881 5.58173 17.9847 5.70895 17.7289C5.82027 17.4412 6.53587 17.1534 6.82212 17.2173C6.15422 16.5939 5.86797 15.7466 6.0747 15.4908C6.28144 15.2031 7.25148 15.299 7.49001 15.4269C7.04475 14.6435 6.79031 13.9721 7.21968 12.7731C7.15607 13.7803 6.93343 15.0432 8.96894 16.6259C8.39645 16.2582 7.10836 15.235 6.32914 15.6827C6.26553 16.3061 6.86982 17.1534 8.18972 17.9687C7.31509 17.5211 6.85392 17.2014 5.96339 17.8408C6.12241 18.848 6.53587 19.1517 7.63314 19.4075C6.86982 19.2796 6.55178 19.1357 5.86797 20.2388C6.36095 21.0221 6.90163 21.15 7.74445 21.0701C6.93343 21.134 6.59948 21.2459 6.36095 22.0293C6.86982 22.8286 7.33099 22.7327 8.09431 22.5568C7.26738 22.7966 7.02885 23.0524 6.99704 23.7398C7.68084 24.4272 8.0625 24.2514 8.7304 23.8837C8.28513 24.3313 8.0625 24.635 8.38055 25.5942C9.23928 25.7541 9.52552 25.5303 10.0662 24.731C9.77996 25.4344 9.57323 25.85 9.97078 26.4575C10.8295 26.5054 11.0362 26.1697 11.3861 25.5782C11.1794 26.2497 11.0521 26.6173 11.72 27.1929C12.3561 27.1449 12.6742 26.8412 12.9127 26.1378C12.9127 27.065 13.1831 27.2728 13.5488 27.4486C14.2008 27.2408 14.3598 26.8731 14.503 26.2656C14.821 27.1449 15.2981 27.5765 15.7433 27.4646L15.7115 27.6725ZM5.53402 39.1027C4.96154 38.7031 5.3432 38.3993 5.70895 38.2075C5.26368 38.6231 5.3909 38.815 5.53402 39.1027ZM8.53957 40.2857C8.57138 40.4136 8.53957 40.4935 8.44416 40.5415C8.22152 39.3265 7.87167 39.2946 7.79216 38.6871C7.69675 38.0476 7.55362 38.6871 7.55362 38.6871C7.53772 38.6871 7.53772 38.8789 7.64904 39.0388C7.66494 39.0548 7.45821 38.9748 7.33099 38.815C7.29919 38.815 7.45821 39.0388 7.29919 39.1187C7.29919 39.1347 7.3628 39.2786 7.3628 39.4225C7.18787 39.6143 7.3628 39.6942 7.50592 39.6942C7.66494 39.6942 7.72855 39.5663 7.76035 39.4544C7.82396 39.5983 7.79216 39.8061 7.66494 40.0139C7.50592 40.3337 7.79216 40.4456 7.87167 40.4136C7.95118 40.3816 8.0307 40.2857 8.0307 40.1099C8.15791 40.2378 8.12611 40.5095 8.0466 40.6694C8.01479 40.8452 8.0307 40.8932 8.01479 41.0211C7.99889 41.149 7.64904 41.4527 7.64904 41.4527C7.64904 41.4527 7.52182 41.4048 7.4105 41.3088C8.31694 40.9412 7.79216 40.4616 7.3787 40.6374C6.96524 40.8452 6.91753 40.7813 6.67899 40.7813C6.44046 40.8133 6.44046 40.4616 6.51997 40.2378C6.59948 40.3017 6.59948 40.4935 6.66309 40.5255C7.09246 40.7333 7.52182 40.3177 7.52182 40.1578C7.52182 39.902 6.7267 39.934 6.59948 39.982C6.47226 40.0459 6.09061 39.6942 5.94749 39.6303C5.82027 39.5983 5.72485 39.4384 5.75666 39.2306C5.99519 39.2786 6.36095 39.6942 6.64719 39.7582C7.58543 39.5983 7.02885 39.0388 6.93343 39.0068C6.83802 39.0068 6.58358 39.1827 6.50407 39.2146C6.40865 39.2786 6.39275 38.9748 6.31324 39.0228C6.21783 39.0867 5.99519 38.9588 5.83617 38.8629C5.67715 38.783 5.96339 38.5112 5.99519 38.3514C6.0429 38.2235 5.89978 38.2714 5.89978 38.2714C5.88388 38.2714 5.93158 38.0316 6.027 37.9037C6.17012 39.1507 6.53587 38.9109 6.82212 38.783C6.31324 38.1435 6.64719 37.8238 7.02885 37.5201C7.17197 37.4241 7.50592 37.3282 7.52182 37.3282C7.56953 37.3282 7.49002 37.4561 7.10836 37.7759C6.6949 38.1116 6.7426 38.1116 6.85392 38.4153C6.94933 38.751 7.20377 38.719 7.3787 38.5752C7.55362 38.4313 7.53772 38.2075 7.31509 38.0636C7.45821 38.0316 7.50592 37.8078 7.64904 37.8238C7.74445 37.8558 7.56953 38.0156 7.56953 38.0156C7.56953 38.0156 7.64904 38.1276 7.88757 38.0796C8.12611 38.0476 7.98299 38.2874 7.85577 38.4153C7.74445 38.5432 8.30104 39.1986 8.39645 39.3265C8.47596 39.4704 8.88942 39.3105 8.90533 39.4384C8.92123 39.5663 8.47596 39.5663 8.39645 39.6463C8.33284 39.7422 8.50777 40.1578 8.53957 40.2857ZM8.79401 40.3337C9.23927 39.8221 10.0503 39.4384 10.2252 39.4544C10.0503 39.4544 9.14386 40.0459 8.79401 40.3337ZM9.44601 38.9109C9.06435 38.9109 8.84172 38.9269 8.57138 38.2554C8.57138 38.2554 8.88942 38.6231 9.12796 38.767C9.36649 38.8949 10.2729 38.815 10.2729 38.815C10.2729 38.815 9.81176 38.9109 9.44601 38.9109ZM37.0048 39.6143C36.7186 39.7102 36.5913 39.8061 36.2733 40.0459C35.9553 40.2857 35.3828 40.3177 35.0647 40.3337C34.5081 40.7333 33.9357 40.7333 33.6017 40.6854C33.2519 40.6534 32.1387 39.8541 32.1705 39.8221C32.1864 39.8381 33.4745 40.4935 33.8243 40.5575C34.1424 40.6054 34.6354 40.3656 34.7149 40.2218C34.7626 40.0619 35.3033 39.7262 35.5418 39.6303C36.1938 38.8789 35.0011 38.4633 34.9375 39.1667C35.4941 39.1187 35.0806 39.5184 35.0806 39.5024C35.0806 39.5184 35.2396 39.6143 35.1601 39.7102C35.0806 39.8061 34.7308 39.6303 34.6513 39.7422C34.5717 39.8701 34.7308 39.8541 34.5877 39.8861C34.4445 39.902 34.3491 40.0459 34.3809 40.1418C34.4127 40.2378 34.1901 40.3497 34.0947 40.2058C33.9993 40.0779 33.3632 39.918 33.3632 39.7901C33.3632 39.6782 34.1742 39.934 34.2696 39.7422C34.3809 39.5823 33.22 39.5344 33.22 39.4065C33.22 39.2626 33.6335 39.3105 33.713 39.3105C33.7925 39.3105 33.8243 39.1027 33.8243 38.9429C33.8402 38.9429 34.1265 39.1347 34.1265 39.1347C34.1265 39.1347 33.9834 39.3105 34.0152 39.4065C34.0152 39.5184 34.2378 39.4384 34.3809 39.5503C34.5081 39.6782 34.6672 39.6143 34.7626 39.3425C34.6195 39.0068 34.9057 38.6871 35.1601 38.5752C35.2078 38.4473 35.2078 38.2874 35.0965 38.1755C35.3192 38.2075 35.4146 38.3354 35.5577 38.5752C36.0666 38.815 35.9553 39.2306 35.9075 39.3585C35.8757 39.5184 36.2892 39.3265 36.48 39.2146C36.5277 38.9748 36.6391 38.751 36.9253 38.6231C36.973 38.4633 36.8935 38.3354 36.7663 38.2075C37.0684 38.2075 37.132 38.3514 37.307 38.6071C37.6409 39.1986 37.291 39.4864 37.0048 39.6143ZM38.6428 37.3602C38.6428 37.5361 38.4996 37.6799 38.3247 37.6799C38.1657 37.6799 38.0067 37.5361 38.0067 37.3602C38.0067 37.2003 38.1498 37.0405 38.3247 37.0405C38.4996 37.0405 38.6428 37.1844 38.6428 37.3602ZM36.3846 34.1949C37.3388 34.067 38.4201 35.5697 38.4519 36.5289L36.2892 36.3051L36.3846 34.1949ZM37.7999 37.2643C37.7999 37.4401 37.6409 37.584 37.4819 37.584C37.3229 37.584 37.1638 37.4401 37.1638 37.2643C37.1638 37.0884 37.3229 36.9446 37.4819 36.9446C37.6409 36.9446 37.7999 37.1044 37.7999 37.2643ZM36.9412 37.1684C36.9412 37.3442 36.7981 37.4881 36.6232 37.4881C36.4482 37.4881 36.3051 37.3442 36.3051 37.1684C36.3051 36.9925 36.4641 36.8486 36.6232 36.8486C36.7981 36.8486 36.9412 36.9925 36.9412 37.1684ZM34.8898 33.5235V32.8361L35.5895 32.9799L35.4623 32.4364H36.1461L36.003 32.9959L36.655 32.852V33.4595L35.9394 33.3476L36.0984 33.9391H35.3828L35.5895 33.3316L34.8898 33.5235ZM35.7485 35.8735C35.9234 35.8735 36.0666 36.0173 36.0666 36.1932C36.0666 36.369 35.9234 36.5129 35.7485 36.5129C35.5736 36.5129 35.4305 36.369 35.4305 36.1932C35.4305 36.0173 35.5736 35.8735 35.7485 35.8735ZM35.4464 35.4099C35.4464 35.234 35.5895 35.0901 35.7644 35.0901C35.9552 35.0901 36.0984 35.234 36.0984 35.4099C36.0984 35.5697 35.9552 35.7296 35.7644 35.7296C35.5895 35.7136 35.4464 35.5697 35.4464 35.4099ZM35.7803 36.8007C35.9553 36.8007 36.0984 36.9446 36.0984 37.1204C36.0984 37.2963 35.9553 37.4401 35.7803 37.4401C35.6054 37.4401 35.4623 37.2803 35.4623 37.1204C35.4623 36.9446 35.6054 36.8007 35.7803 36.8007ZM35.8121 34.8983C35.6372 34.8983 35.4941 34.7544 35.4941 34.5786C35.4941 34.4027 35.6372 34.2588 35.8121 34.2588C35.9871 34.2588 36.1302 34.4027 36.1302 34.5786C36.1302 34.7544 35.9871 34.8983 35.8121 34.8983ZM38.0067 37.9997C37.8953 38.2554 37.6409 38.5272 37.5455 38.6231L37.4183 38.4473C37.5773 38.3194 37.6091 38.1276 37.6091 38.1276C36.973 37.9997 34.9216 37.9197 33.713 37.9677C33.8084 38.2075 34.1265 38.5752 34.6036 38.8789L34.5081 39.0548C33.9356 38.8469 33.5222 38.2395 33.3473 37.7918C34.6195 37.6959 36.5754 37.7439 38.0067 37.9997ZM33.7766 37.1844C33.7766 37.0085 33.9198 36.8646 34.0947 36.8646C34.2537 36.8646 34.4127 37.0085 34.4127 37.1844C34.4127 37.3602 34.2696 37.5041 34.0947 37.5041C33.9198 37.5041 33.7766 37.3602 33.7766 37.1844ZM34.6354 37.1524C34.6354 36.9765 34.7785 36.8327 34.9534 36.8327C35.1283 36.8327 35.2715 36.9765 35.2715 37.1524C35.2715 37.3122 35.1283 37.4721 34.9534 37.4721C34.7944 37.4561 34.6354 37.3122 34.6354 37.1524ZM35.351 34.2109L35.2874 36.2571L33.1087 36.2891C33.2359 35.3299 34.4604 33.9711 35.351 34.2109ZM33.1723 37.552C33.0133 37.552 32.8543 37.4082 32.8543 37.2323C32.8543 37.0565 32.9974 36.9126 33.1723 36.9126C33.3473 36.9126 33.4904 37.0565 33.4904 37.2323C33.4904 37.4082 33.3473 37.552 33.1723 37.552ZM33.3314 38.5272L33.4268 38.6071C33.0451 38.9429 32.5044 39.1986 31.7729 39.0068C32.2977 38.9748 32.9179 38.8949 33.3314 38.5272ZM27.1453 18.9918C26.9068 19.2796 26.1594 19.4714 25.7618 19.4235C25.7141 19.6793 25.7459 19.967 26.0799 20.4146C25.73 20.4146 25.2848 20.0949 24.8713 19.4554C24.7759 19.5354 24.8554 20.1109 24.9031 20.3667C24.5692 20.1908 23.5991 19.0558 23.5355 18.5442C23.1061 18.816 23.0266 19.9031 22.9789 20.3507C22.5655 20.0629 22.47 19.1197 22.4223 18.6401C22.1838 18.8 21.7385 19.5034 21.5636 19.967C21.5159 17.665 21.8817 16.3381 22.5337 15.9544C22.152 16.3861 21.8658 17.8248 21.7862 19.0078C21.7862 19.1037 22.0884 18.3684 22.5814 17.665C22.5337 17.8568 22.6291 18.5602 22.8199 19.4714C22.8199 19.2476 23.0902 18.4803 23.5832 17.9367C23.6309 18.4803 24.2193 19.2796 24.5055 19.6952C24.4737 19.5993 24.4737 18.8639 24.6328 18.5442C24.6646 18.9759 25.2212 19.5354 25.5392 19.8871C25.4597 19.8071 25.5074 19.3915 25.4756 19.0238C25.7618 19.2476 25.9845 19.1837 26.2707 19.1197C25.905 18.9599 25.2053 18.3204 25.1575 17.7769C25.5074 18.6721 26.8114 19.0078 27.1453 18.9918ZM24.2193 20.4146H23.9331C23.9013 20.3027 23.6627 19.983 23.6627 19.983C23.6627 19.983 23.6468 20.2228 23.6468 20.4146H23.3606C23.3924 20.1748 23.3924 19.3595 23.5991 19.1837C23.6627 19.4395 24.0603 20.3187 24.2193 20.4146ZM22.5814 20.4146H22.2792C22.2633 20.2867 22.1997 19.919 22.1997 19.919C22.1997 19.919 22.0089 20.2228 22.0089 20.4146H21.7067C21.7385 20.1748 22.0566 19.5194 22.2633 19.3435C22.3428 19.5833 22.4382 20.3187 22.5814 20.4146ZM26.6683 14.3878C25.4915 15.299 24.4578 17.3932 24.3465 18.4003C23.9967 16.6099 24.5533 15.267 24.9985 14.4037C24.4578 14.7714 23.4401 16.5459 23.0266 18.1605C22.9312 15.9704 23.456 14.9633 24.3306 13.7963C23.6309 14.0361 22.4064 15.6027 22.0566 15.9864C23.5355 13.1408 23.8695 12.7891 25.2371 12.5493L24.9826 12.7891C24.0921 12.8371 23.2652 14.1959 23.2652 14.1959C23.2493 14.2119 23.774 13.7323 24.8395 13.2687C24.4896 13.6844 23.6945 15.283 23.4083 16.0663C23.5037 15.7466 24.4101 14.5156 25.412 13.7483C25.2212 14.148 24.6169 15.9704 24.6169 16.5619C24.8872 15.9065 25.3643 15.235 26.6683 14.3878C26.8114 14.2759 26.9704 14.1799 27.1135 14.1C26.9545 14.1959 26.8114 14.2918 26.6683 14.3878ZM25.6823 11.8299C24.9826 12.6932 23.8695 12.7252 22.8835 12.5333C23.5514 12.4694 24.8077 11.8299 25.0939 11.6381C24.8872 11.9738 24.1716 12.3415 23.8535 12.4694C24.4737 12.4694 25.1894 12.1497 25.6823 11.8299ZM27.034 13.2527C27.1294 13.0449 27.4157 12.6772 27.4475 12.5973C27.1294 12.7571 26.0322 13.5245 25.8095 13.7483C25.8573 13.4765 26.2071 12.7252 26.3661 12.5813C26.0322 12.7891 25.3325 13.3167 25.1416 13.5085C25.1575 13.0769 25.8572 11.8939 26.1912 11.6381C25.73 11.6381 24.9985 11.3344 24.9826 11.3184C25.3325 11.4143 26.2866 11.4463 26.7478 11.4143C26.3025 11.6861 25.6346 12.4214 25.5074 12.981C26.1594 12.3575 27.0658 11.782 27.4634 11.702C27.0181 11.9898 26.2548 12.933 26.1912 13.2687C26.5251 13.0289 27.7655 12.1017 28.2744 12.0378C27.9405 12.4054 27.1135 13.0769 27.034 13.2527ZM26.4297 10.8867C26.5888 10.9027 28.8151 10.6949 29.5307 10.551C29.6579 10.7109 29.3717 11.1905 29.149 11.2704C28.9105 10.8867 26.7796 11.0146 26.4297 10.8867ZM30.3099 14.3398C29.9919 13.8442 29.5466 13.7003 28.9105 13.6364C29.5466 13.4126 30.0873 13.6364 30.3099 14.3398ZM32.0274 12.5813C32.25 12.1177 32.2818 11.734 32.1228 11.4942C31.9797 11.2704 31.5821 10.9667 30.9778 10.9027C31.5185 10.8548 32.3613 11.0946 32.409 11.734C32.4408 12.3095 32.0592 12.885 32.0433 12.885C32.0115 12.869 31.0573 12.2456 29.8805 12.7571C29.0536 13.1088 28.6243 13.3806 28.4334 13.5245C28.7515 13.2687 29.6738 12.5493 30.2463 12.4374C30.9778 12.2935 31.1845 12.3095 32.0274 12.5813ZM31.0891 12.1177C31.3754 11.8939 31.6298 11.8939 31.7252 12.3095C31.5821 12.2456 31.3277 12.1976 31.0891 12.1177ZM30.7075 10.8867C29.8169 12.3255 27.845 13.8282 27.5429 13.9721C27.2408 14.132 27.4316 13.9881 27.4316 13.9561C29.149 12.7891 30.5007 11.0146 30.5484 10.9187C30.5803 10.583 30.3735 10.599 30.2145 10.6949C29.324 12.4214 28.3698 12.8531 27.2408 13.3966C29.2286 12.2616 29.9919 10.8228 30.0873 10.567C30.3576 10.3432 30.7552 10.4071 30.7075 10.8867ZM29.976 8.52075C29.8328 8.52075 29.7374 8.40884 29.7374 8.28095C29.7374 8.13707 29.8487 8.05714 29.976 8.05714C30.1032 8.05714 30.2145 8.13707 30.2145 8.28095C30.2145 8.42483 30.1032 8.52075 29.976 8.52075ZM29.8965 9.6398C29.324 9.79966 28.0836 9.7517 27.5111 9.6398V9.33605L29.8805 9.36803L29.8965 9.6398ZM30.2781 6.87415C30.4212 6.87415 30.5166 6.97007 30.5166 7.11395C30.5166 7.24184 30.4053 7.35374 30.2781 7.35374C30.1509 7.35374 30.0396 7.25782 30.0396 7.11395C30.0396 6.97007 30.1509 6.87415 30.2781 6.87415ZM30.1986 7.46565C30.3417 7.46565 30.4371 7.57755 30.4371 7.70544C30.4371 7.83333 30.3417 7.94524 30.1986 7.94524C30.0714 7.94524 29.9601 7.83333 29.9601 7.70544C29.9601 7.57755 30.0714 7.46565 30.1986 7.46565ZM29.6261 6.98605C29.7533 6.98605 29.8487 7.09796 29.8487 7.22585C29.8487 7.36973 29.7533 7.46565 29.6261 7.46565C29.483 7.46565 29.3876 7.36973 29.3876 7.22585C29.3717 7.09796 29.483 6.98605 29.6261 6.98605ZM29.4989 7.60952C29.6261 7.60952 29.7215 7.72143 29.7215 7.84932C29.7215 7.97721 29.6261 8.08912 29.4989 8.08912C29.3558 8.08912 29.2604 7.97721 29.2604 7.84932C29.2445 7.72143 29.3558 7.60952 29.4989 7.60952ZM29.324 8.55272C29.4035 8.4568 29.5148 8.39286 29.5466 8.40884C29.5625 8.44082 29.5307 8.55272 29.4035 8.64864C29.324 8.74456 29.2126 8.8085 29.1808 8.79252C29.149 8.76054 29.2126 8.64864 29.324 8.55272ZM29.1013 8.55272C29.0218 8.71259 28.9423 8.82449 28.8946 8.79252C28.8469 8.77653 28.8628 8.61667 28.9423 8.4568C29.0218 8.29694 29.1013 8.18503 29.1649 8.21701C29.1967 8.26497 29.1808 8.39286 29.1013 8.55272ZM29.0695 6.82619L29.2922 6.77823L29.0536 7.97721H28.9582L29.0695 6.82619ZM28.2903 5.4034V5.11565H28.5447V4.84388H28.8469V5.11565H29.1013V5.4034H28.8469V5.65918H28.5447V5.4034H28.2903ZM28.4175 6.21871C28.4175 6.05884 28.5607 5.91497 28.7356 5.91497C28.8946 5.91497 29.0218 6.05884 29.0218 6.21871C29.0218 6.37857 28.8946 6.52245 28.7356 6.52245C28.5447 6.52245 28.4175 6.37857 28.4175 6.21871ZM28.672 8.00918C28.5925 8.00918 28.5447 7.96123 28.5447 7.89728C28.5447 7.81735 28.5925 7.78537 28.672 7.78537C28.7356 7.78537 28.7833 7.83333 28.7833 7.89728C28.7833 7.96123 28.7356 8.00918 28.672 8.00918ZM28.7356 8.4568C28.7356 8.64864 28.7038 8.8085 28.6402 8.8085C28.5766 8.8085 28.5447 8.64864 28.5447 8.4568C28.5447 8.26497 28.5766 8.12109 28.6402 8.12109C28.7038 8.1051 28.7356 8.26497 28.7356 8.4568ZM28.6879 7.60952C28.6084 7.60952 28.5447 7.56156 28.5447 7.46565C28.5447 7.38571 28.6084 7.32177 28.6879 7.32177C28.7674 7.32177 28.8469 7.38571 28.8469 7.46565C28.8469 7.56156 28.7674 7.60952 28.6879 7.60952ZM28.6879 7.1619C28.5925 7.1619 28.5129 7.08197 28.5129 6.98605C28.5129 6.89014 28.5925 6.8102 28.6879 6.8102C28.7833 6.8102 28.8628 6.89014 28.8628 6.98605C28.8628 7.08197 28.7833 7.1619 28.6879 7.1619ZM28.6402 8.96837C29.1808 8.96837 29.6261 9.03231 29.6261 9.09626C29.6261 9.1602 29.1967 9.22415 28.6402 9.22415C28.0677 9.22415 27.6383 9.1602 27.6383 9.09626C27.6383 9.03231 28.0836 8.96837 28.6402 8.96837ZM28.0836 8.8085C28.0518 8.82449 27.9405 8.77653 27.845 8.66463C27.7496 8.55272 27.686 8.4568 27.7019 8.42483C27.7496 8.39286 27.8609 8.4568 27.9405 8.56871C28.0518 8.64864 28.1154 8.76054 28.0836 8.8085ZM28.1154 8.23299C28.1631 8.21701 28.2585 8.31293 28.3221 8.47279C28.4016 8.63265 28.4334 8.77653 28.3857 8.8085C28.3221 8.82449 28.2267 8.72857 28.1631 8.56871C28.0836 8.39286 28.0677 8.26497 28.1154 8.23299ZM28.2903 6.82619L28.4016 7.97721H28.3062L28.0677 6.77823L28.2903 6.82619ZM27.6383 7.46565H27.8291V7.65748H28.02V7.88129H27.8291V8.05714H27.6383V7.88129H27.4475V7.65748H27.6383V7.46565ZM27.0181 7.11395H27.209V6.92211H27.4157V7.11395H27.6065V7.32177H27.4157V7.51361H27.209V7.32177H27.0181V7.11395ZM27.1612 8.58469V8.40884H26.9704V8.20102H27.1612V7.9932H27.368V8.18503H27.5429V8.39286H27.368V8.56871H27.1612V8.58469ZM30.0555 9.81565C30.1668 9.78367 30.1668 9.86361 30.1668 9.94354H30.1191C29.5943 10.0874 25.9527 10.1354 24.6169 10.0714C24.6328 10.2473 25.1894 10.6789 25.3007 10.7748C25.0939 10.8228 24.7441 10.9827 24.601 11.0786C24.6487 11.0466 24.8713 10.8707 25.0621 10.7429C24.7441 10.519 24.4419 10.1833 24.3942 9.95952C26.2707 10.1514 29.9442 9.83163 30.0555 9.81565ZM24.9985 9.46395H24.9667C24.9349 9.44796 24.919 9.43197 24.8872 9.41599C23.9013 9.01633 22.8676 8.23299 22.3269 7.52959C22.4859 7.59354 22.7086 7.62551 22.8994 7.62551C23.2493 8.1051 24.108 8.95238 24.9031 9.41599C24.919 9.43197 24.9667 9.44796 24.9985 9.46395ZM21.1024 7.89728C21.2456 7.92925 21.3569 7.94524 21.5954 7.96122C21.7544 7.96122 21.8817 7.96122 22.0407 7.92925C22.1997 7.89728 22.311 7.96122 22.1997 8.02517C22.1043 8.07313 21.8976 8.1051 21.5477 8.08912C21.2138 8.07313 21.007 8.05714 20.9116 8.00918C20.8003 7.92925 20.9275 7.86531 21.1024 7.89728ZM21.0229 7.54558C21.0229 7.43367 21.2615 7.48163 21.5318 7.49762C21.834 7.49762 22.0725 7.46565 22.0725 7.56156C22.0725 7.67347 21.8976 7.67347 21.5318 7.65748C21.1979 7.65748 21.0229 7.65748 21.0229 7.54558ZM21.5477 7.25782C20.9752 7.25782 20.2119 7.32177 19.7348 7.4017L19.6712 7.24184C19.8939 7.1619 20.8957 7.05 21.5477 7.05C22.2156 7.05 23.2334 7.20986 23.456 7.2898L23.3924 7.44966C22.9153 7.36973 22.152 7.25782 21.5477 7.25782ZM21.5477 6.71429C22.2156 6.71429 23.3129 6.87415 23.5196 6.9381L23.4878 7.09796C22.9948 7.01803 22.1202 6.90612 21.5477 6.90612C20.9911 6.87415 20.1324 6.97007 19.6394 7.03401L19.6076 6.87415C19.8303 6.79422 20.9275 6.68231 21.5477 6.71429ZM20.1642 6.13878C20.1801 6.05884 20.3868 6.05884 20.6254 6.13878C20.848 6.21871 21.0229 6.33061 20.9911 6.41054C20.9752 6.49048 20.7685 6.49048 20.5459 6.42653C20.3232 6.3466 20.1324 6.21871 20.1642 6.13878ZM21.5954 3.46905C21.659 3.46905 21.7385 3.53299 21.7385 3.61293C21.7385 3.69286 21.659 3.7568 21.5954 3.7568C21.5159 3.7568 21.4682 3.69286 21.4682 3.61293C21.4523 3.53299 21.5159 3.46905 21.5954 3.46905ZM21.4205 3.11735C21.4205 3.02143 21.5 2.9415 21.5795 2.9415C21.6749 2.9415 21.7385 3.02143 21.7385 3.11735C21.7385 3.21327 21.659 3.2932 21.5795 3.2932C21.5 3.27721 21.4205 3.21327 21.4205 3.11735ZM21.6908 4.15646C21.6908 4.22041 21.6272 4.28435 21.5636 4.28435C21.5 4.28435 21.4523 4.22041 21.4523 4.15646C21.4523 4.1085 21.5 4.04456 21.5636 4.04456C21.6431 4.02857 21.6908 4.09252 21.6908 4.15646ZM21.5477 5.14762C21.6272 5.14762 21.7067 5.43537 21.7067 5.78708C21.7067 6.13878 21.6272 6.42653 21.5477 6.42653C21.4682 6.42653 21.3887 6.13878 21.3887 5.78708C21.3887 5.43537 21.4682 5.14762 21.5477 5.14762ZM22.8676 4.84388C22.7404 4.84388 22.645 4.73197 22.645 4.60408C22.645 4.4602 22.7404 4.36429 22.8676 4.36429C23.0107 4.36429 23.1061 4.4602 23.1061 4.60408C23.122 4.73197 23.0107 4.84388 22.8676 4.84388ZM23.1379 4.9398C23.2811 4.9398 23.3924 5.03571 23.3924 5.17959C23.3924 5.32347 23.2811 5.43537 23.1379 5.43537C23.0107 5.43537 22.9153 5.32347 22.9153 5.17959C22.9153 5.03571 23.0107 4.9398 23.1379 4.9398ZM22.963 6.18674C22.9789 6.26667 22.8199 6.37857 22.5814 6.42653C22.3428 6.50646 22.1361 6.49048 22.1202 6.39456C22.1043 6.33061 22.2792 6.21871 22.5019 6.15476C22.7245 6.09082 22.9312 6.1068 22.963 6.18674ZM24.6964 8.98435C24.3465 8.82449 23.5196 8.02517 23.297 7.68946C23.3606 7.65748 23.456 7.67347 23.4878 7.68946C23.7581 8.04116 24.5215 8.84048 24.6964 8.98435ZM23.7263 5.9949C23.5832 5.9949 23.4878 5.88299 23.4878 5.7551C23.4878 5.62721 23.5991 5.51531 23.7263 5.51531C23.8535 5.51531 23.949 5.61122 23.949 5.7551C23.949 5.89898 23.8535 5.9949 23.7263 5.9949ZM23.7899 5.24354C23.6468 5.24354 23.5673 5.13163 23.5673 4.98776C23.5673 4.85986 23.6468 4.76395 23.7899 4.76395C23.9172 4.76395 24.0285 4.85986 24.0285 4.98776C24.0285 5.13163 23.9331 5.24354 23.7899 5.24354ZM24.426 4.50816C24.426 4.63605 24.3465 4.73197 24.2034 4.73197C24.0762 4.73197 23.9649 4.63605 23.9649 4.50816C23.9649 4.36429 24.0762 4.26837 24.2034 4.26837C24.3306 4.26837 24.426 4.38027 24.426 4.50816ZM24.0285 3.46905C24.1716 3.46905 24.267 3.56497 24.267 3.70884C24.267 3.83674 24.1716 3.94864 24.0285 3.94864C23.9013 3.94864 23.7899 3.85272 23.7899 3.70884C23.7899 3.58095 23.9013 3.46905 24.0285 3.46905ZM23.8217 4.33231C23.8217 4.4602 23.7263 4.57211 23.5991 4.57211C23.456 4.57211 23.3606 4.47619 23.3606 4.33231C23.3606 4.18844 23.456 4.09252 23.5991 4.09252C23.7104 4.09252 23.8217 4.18844 23.8217 4.33231ZM23.5037 2.86156C23.6468 2.86156 23.7422 2.97347 23.7422 3.10136C23.7422 3.24524 23.6309 3.34116 23.5037 3.34116C23.3765 3.34116 23.2811 3.24524 23.2811 3.10136C23.2811 2.97347 23.3765 2.86156 23.5037 2.86156ZM23.2175 3.45306C23.3447 3.45306 23.456 3.56497 23.456 3.69286C23.456 3.83673 23.3606 3.93265 23.2175 3.93265C23.0902 3.93265 22.9789 3.83673 22.9789 3.69286C22.9789 3.56497 23.0902 3.45306 23.2175 3.45306ZM22.6768 2.7017L22.963 2.74966L22.3905 4.95578L22.2474 4.9398L22.6768 2.7017ZM22.2474 5.37143C22.3269 5.4034 22.311 5.65918 22.2315 5.93095C22.152 6.20272 22.0248 6.42653 21.9294 6.41054C21.8658 6.37857 21.8658 6.13878 21.9453 5.85102C22.0248 5.57925 22.1679 5.33946 22.2474 5.37143ZM21.1024 0.879252V0.495578L21.5 0.623469L21.4205 0.143878H21.8499L21.7544 0.607483L22.1361 0.527551V0.895238L21.7385 0.751361L21.834 1.18299H21.4046L21.5 0.751361L21.1024 0.879252ZM21.1501 1.72653C21.1501 1.48673 21.3728 1.26293 21.6272 1.26293C21.8817 1.26293 22.0884 1.48673 22.0884 1.72653C22.0884 1.9983 21.8817 2.20612 21.6272 2.20612C21.3569 2.20612 21.1501 1.9983 21.1501 1.72653ZM21.5954 2.5898H22.0566L21.8658 4.71599H21.7226L21.8976 2.76565L21.5954 2.74966H21.3092L21.4364 4.7L21.3092 4.71599L21.1501 2.5898H21.5954ZM21.182 5.81905C21.2456 6.1068 21.2615 6.36259 21.1661 6.39456C21.0865 6.41054 20.9752 6.18674 20.8957 5.89898C20.8321 5.6432 20.8321 5.38742 20.8957 5.33946C20.9911 5.32347 21.1024 5.56327 21.182 5.81905ZM20.53 2.66973L20.9116 4.90782L20.7844 4.92381L20.2437 2.68571L20.53 2.66973ZM19.703 3.72483H19.8939V3.53299H20.0847V3.72483H20.2755V3.93265H20.0847V4.1085H19.8939V3.93265H19.703V3.72483ZM19.6394 4.65204H19.8303V4.4602H20.0211V4.65204H20.2119V4.84388H20.037V5.03571H19.8462V4.84388H19.6553V4.65204H19.6394ZM18.9079 3.43707H19.0987V3.24524H19.3055V3.43707H19.4804V3.62891H19.3055V3.82075H19.0828V3.62891H18.892V3.43707H18.9079ZM18.6694 4.60408V4.39626H18.8602V4.20442H19.0669V4.39626H19.2578V4.60408H19.0669V4.79592H18.8602V4.60408H18.6694ZM19.4486 5.53129V5.70714H19.2419V5.53129H19.051V5.30748H19.2419V5.11565H19.4486V5.30748H19.6394V5.53129H19.4486ZM19.6394 7.62551C19.6553 7.62551 19.7666 7.59354 19.8303 7.62551C19.5917 7.94524 18.7648 8.74456 18.399 8.88844C18.5581 8.76054 19.3532 7.97721 19.6394 7.62551ZM20.2914 7.56156C20.4663 7.52959 20.6095 7.51361 20.8003 7.49762C20.2278 8.21701 19.0987 9.00034 18.1128 9.4C18.9079 8.98435 20.0211 7.97721 20.2914 7.56156ZM20.6572 8.16905C20.9911 8.31293 21.0706 8.32891 21.5318 8.36088C22.0248 8.36088 22.1202 8.36088 22.4541 8.20102C23.0902 8.8085 24.4419 9.49592 25.6664 9.79966C24.9985 9.87959 24.108 9.70374 23.6309 9.36803C23.615 9.86361 24.6964 10.7109 24.6964 10.7109C24.6964 10.7109 24.2988 10.8228 24.0603 10.8228C23.8058 10.8228 23.9172 10.9986 24.0444 11.0946C24.1398 11.1905 24.5692 11.2864 24.8236 11.5102C23.9172 12.2935 22.963 12.2296 22.1043 12.0697C22.1838 12.5653 23.1538 12.885 23.5514 12.965C23.1857 13.4286 22.152 15.1071 21.4841 16.6259C20.8162 14.9793 19.8462 13.2687 19.4804 12.8211C19.878 12.7252 20.848 12.4214 20.9434 11.9418C20.0688 12.0697 19.1146 12.1017 18.2241 11.3983C18.4785 11.1745 18.9079 11.1105 19.0351 10.9986C19.1465 10.9187 19.2737 10.7429 19.0192 10.7429C18.7807 10.7269 18.3831 10.599 18.3672 10.599C18.3831 10.599 19.4804 9.78367 19.4804 9.2881C18.9874 9.62381 18.0969 9.76769 17.4767 9.67177C18.6217 9.41599 19.9893 8.76054 20.6572 8.16905ZM17.2223 13.5085C17.0155 13.3167 15.9342 12.5173 15.6161 12.3415C15.6797 12.4054 15.9342 12.7731 16.0296 13.0129C15.9501 12.8211 15.1391 12.1177 14.8051 11.782C15.314 11.8459 16.5385 12.7891 16.8565 13.0609C16.8088 12.7252 16.0614 11.782 15.6002 11.5582C15.9978 11.6381 16.9042 12.1497 17.4608 12.7891C17.3813 12.2136 16.7929 11.5742 16.3476 11.2864C16.7929 11.3184 17.6675 11.2864 18.0015 11.2224C18.0015 11.2224 17.3495 11.5102 16.8883 11.4942C17.2223 11.734 17.8266 12.869 17.7947 13.3007C17.6198 13.0769 17.0314 12.5653 16.6816 12.3255C16.8724 12.4854 17.2064 13.2367 17.2223 13.5085ZM13.9623 11.0626C13.7715 10.9667 13.4693 10.4871 13.6124 10.3272C14.328 10.5031 16.5226 10.7748 16.6975 10.7588C16.3476 10.8707 14.2167 10.6789 13.9623 11.0626ZM17.4131 11.718C17.8266 11.9259 18.5263 12.2456 19.1624 12.2935C18.8284 12.1497 18.1287 11.766 17.9379 11.5262C18.2241 11.734 19.4645 12.3095 20.1324 12.3575C19.1305 12.5653 18.0015 12.4854 17.4131 11.718ZM15.8547 8.39286C15.7115 8.39286 15.6161 8.28095 15.6161 8.15306C15.6002 8.02517 15.6956 7.91327 15.8388 7.91327C15.966 7.91327 16.0614 7.9932 16.0773 8.13708C16.0773 8.28095 15.966 8.39286 15.8547 8.39286ZM14.5348 8.77653C15.0913 8.77653 15.5207 8.85646 15.5207 8.93639C15.5207 9.01633 15.0595 9.0483 14.5189 9.0483C13.9782 9.03231 13.5329 8.95238 13.5329 8.88844C13.5329 8.8085 13.9941 8.76054 14.5348 8.77653ZM13.5965 8.20102C13.6283 8.16905 13.7396 8.23299 13.8351 8.3449C13.9146 8.44082 13.9941 8.55272 13.9623 8.58469C13.9305 8.61667 13.8192 8.55272 13.7237 8.44082C13.6283 8.3449 13.5806 8.23299 13.5965 8.20102ZM14.503 7.81735C14.4393 7.81735 14.3916 7.7534 14.3916 7.68946C14.3916 7.62551 14.4553 7.59354 14.503 7.59354C14.5825 7.59354 14.6302 7.6415 14.6302 7.72143C14.6302 7.76939 14.5825 7.81735 14.503 7.81735ZM14.6302 8.26497C14.6143 8.4568 14.5825 8.61667 14.503 8.61667C14.4553 8.61667 14.4234 8.4568 14.4234 8.26497C14.4234 8.07313 14.4871 7.92925 14.5348 7.92925C14.5825 7.92925 14.6302 8.07313 14.6302 8.26497ZM14.4871 7.41769C14.4234 7.41769 14.3439 7.35374 14.3439 7.27381C14.3439 7.19388 14.4234 7.11395 14.503 7.12993C14.5825 7.12993 14.6461 7.19388 14.6461 7.27381C14.6302 7.35374 14.5825 7.41769 14.4871 7.41769ZM14.503 6.97007C14.4234 6.97007 14.328 6.87415 14.328 6.77823C14.328 6.68231 14.4075 6.58639 14.503 6.60238C14.6143 6.60238 14.6779 6.68231 14.6779 6.77823C14.6779 6.89014 14.5984 6.97007 14.503 6.97007ZM15.0277 8.37687C14.9323 8.53674 14.8369 8.63265 14.7892 8.61667C14.7415 8.60068 14.7574 8.4568 14.8369 8.28095C14.9164 8.12109 15.0118 8.02517 15.0754 8.04116C15.0913 8.07313 15.0754 8.21701 15.0277 8.37687ZM15.2027 8.39286C15.2981 8.28095 15.4094 8.21701 15.4412 8.24898C15.4571 8.28095 15.4253 8.39286 15.2981 8.48878C15.2027 8.58469 15.0913 8.63265 15.0595 8.60068C15.0436 8.58469 15.0913 8.47279 15.2027 8.39286ZM15.6797 9.17619V9.47993C15.0754 9.57585 13.8351 9.59184 13.2785 9.41599L13.2944 9.14422L15.6797 9.17619ZM16.0455 7.80136C15.9183 7.81735 15.807 7.72143 15.807 7.57755C15.807 7.44966 15.8865 7.33776 16.0296 7.33776C16.1568 7.33776 16.2681 7.43367 16.2681 7.56156C16.284 7.68946 16.1727 7.78537 16.0455 7.80136ZM15.966 6.74626C16.0773 6.74626 16.2045 6.84218 16.2045 6.97007C16.2045 7.11395 16.1091 7.20986 15.9819 7.22585C15.8388 7.24184 15.7433 7.14592 15.7274 7.00204C15.7274 6.87415 15.8229 6.76225 15.966 6.74626ZM15.4094 6.87415C15.5366 6.87415 15.6479 6.97007 15.6638 7.09796C15.6638 7.22585 15.5525 7.33776 15.4253 7.33776C15.2981 7.35374 15.2027 7.25782 15.1868 7.11395C15.1868 6.98605 15.2822 6.87415 15.4094 6.87415ZM15.314 7.49762C15.4412 7.49762 15.5525 7.57755 15.5525 7.73742C15.5684 7.84932 15.4571 7.97721 15.3458 7.97721C15.2027 7.9932 15.1072 7.89728 15.0913 7.7534C15.0913 7.60952 15.1868 7.51361 15.314 7.49762ZM14.9164 6.63435L15.1072 6.58639L14.8528 7.78537H14.7733L14.9164 6.63435ZM14.1213 5.21156V4.90782H14.3916V4.65204H14.6779V4.90782H14.9482V5.21156H14.6779V5.46735H14.3916V5.21156H14.1213ZM14.2008 6.01088C14.2008 5.83503 14.3439 5.69116 14.503 5.70714C14.662 5.70714 14.821 5.85102 14.8051 6.01088C14.8051 6.17075 14.662 6.31463 14.4871 6.31463C14.3121 6.31463 14.1849 6.18673 14.2008 6.01088ZM14.2644 8.60068C14.2167 8.61667 14.1213 8.52075 14.0577 8.36088C13.9782 8.20102 13.9782 8.05714 14.01 8.02517C14.0577 8.00918 14.1531 8.13708 14.2008 8.29694C14.2803 8.44082 14.3121 8.58469 14.2644 8.60068ZM14.1372 6.61837L14.2167 7.80136L14.1213 7.78537L13.9146 6.58639L14.1372 6.61837ZM13.4693 7.44966H13.676V7.6415L13.8669 7.62551V7.83333H13.6919L13.7078 8.02517L13.5011 8.04116V7.84932H13.3103L13.2944 7.6415H13.4852V7.44966H13.4693ZM12.9922 6.90612H13.199L13.2149 7.09796L13.3898 7.08197L13.4057 7.2898L13.2149 7.30578L13.2308 7.48163H13.024L13.0081 7.2898L12.8173 7.30578V7.09796H13.0081L12.9922 6.90612ZM12.8332 8.39286L12.8173 8.18503L13.0081 8.16905V7.97721L13.2149 7.96122V8.16905L13.4057 8.15306V8.37687H13.2308V8.56871L13.0399 8.58469V8.39286H12.8332ZM13.1036 9.57585C13.2308 9.62381 16.8565 10.0395 18.6535 9.89558C18.5899 10.1034 18.2877 10.4391 17.9538 10.6629C18.1128 10.7588 18.2877 10.9027 18.3831 10.9667C18.4149 10.9827 18.4308 10.9986 18.4467 11.0146C18.4467 11.0146 18.4149 10.9986 18.3831 10.9667C18.2241 10.8707 17.922 10.7269 17.7311 10.6789C17.8584 10.599 18.4149 10.1833 18.4467 9.9915C17.2223 10.0235 13.5647 9.87959 13.0399 9.71973H12.9922C12.9763 9.62381 12.9763 9.54388 13.1036 9.57585ZM12.7219 13.9881C12.9604 13.3167 13.5329 13.0929 14.169 13.3327C13.517 13.3646 13.0558 13.4765 12.7219 13.9881ZM14.6143 13.2527C14.4553 13.1248 14.0418 12.8211 13.1672 12.4374C12.0222 11.8779 11.0521 12.4854 11.0203 12.5173C11.0203 12.5014 10.6387 11.9258 10.6864 11.4463C10.75 10.8228 11.5769 10.615 12.1335 10.6629C11.5451 10.6949 11.1476 10.9986 10.9885 11.2224C10.8295 11.4622 10.8454 11.75 11.068 12.2136C11.9268 11.9578 12.1176 11.9578 12.8014 12.1177C13.4057 12.2296 14.3439 13.0129 14.6143 13.2527C14.662 13.3007 14.6938 13.3167 14.6938 13.3167C14.6938 13.3167 14.662 13.2847 14.6143 13.2527ZM11.9904 11.782C11.7518 11.8299 11.4974 11.8619 11.3702 11.9418C11.4656 11.5582 11.72 11.5741 11.9904 11.782ZM12.9127 10.4551C12.7537 10.3592 12.547 10.3272 12.5629 10.6629C12.6106 10.7748 13.9305 12.4694 15.6002 13.6684C15.6002 13.7163 15.7911 13.8602 15.4889 13.7003C15.2027 13.5405 13.2626 12.0058 12.4197 10.631C12.3879 10.1673 12.7696 10.1194 13.024 10.3272C13.1354 10.567 13.8351 11.9259 15.807 13.1088C14.6938 12.5493 13.7714 12.1017 12.9127 10.4551ZM16.443 14.1959C16.284 14.084 16.125 13.9721 15.9501 13.8442C16.1091 13.9241 16.2681 14.052 16.443 14.1959C17.588 15.0432 18.0174 15.7146 18.2559 16.3381C18.2877 15.7466 17.7152 13.9082 17.5244 13.4925C18.4308 14.2599 19.2578 15.3949 19.4327 15.8105C19.1465 14.9633 18.4467 13.4446 18.1128 13.0449C19.1783 13.5405 19.6553 14.0201 19.6553 14.0201C19.6553 14.0201 18.892 12.6293 18.0015 12.5493L17.747 12.3095C19.1305 12.6133 19.4327 12.981 20.848 15.8425C20.5141 15.4429 19.3532 13.8602 18.6535 13.6044C19.4804 14.8034 19.9893 15.8105 19.8303 18.0007C19.4645 16.3861 18.4945 14.5956 17.9538 14.2119C18.3672 15.0752 18.892 16.45 18.4945 18.2085C18.399 17.2014 17.5244 15.1551 16.443 14.1959ZM17.1428 19.1997C16.7134 19.2636 15.9819 19.0398 15.7592 18.7201C16.0932 18.7361 17.3177 18.4323 17.6834 17.569C17.6198 18.1286 16.9996 18.768 16.618 18.8959C16.9042 18.9599 17.1269 19.0238 17.3336 18.832C17.3018 19.1997 17.3336 19.5993 17.2382 19.6793C17.5721 19.3435 18.1287 18.8 18.2082 18.3684C18.3513 18.6721 18.3195 19.4395 18.2877 19.5354C18.6058 19.1357 19.1942 18.3204 19.2896 17.7929C19.7666 18.3364 20.0052 19.1037 20.0052 19.3276C20.196 18.4323 20.3232 17.7289 20.2914 17.5371C20.7685 18.2565 21.0388 19.0078 21.0547 18.8959C21.007 17.7129 20.7685 16.2742 20.3868 15.8265C21.0388 16.2262 21.3569 17.5531 21.2615 19.8551C21.1024 19.3755 20.689 18.6721 20.4345 18.5122C20.4027 18.9599 20.2596 19.919 19.8621 20.1908C19.8303 19.7272 19.7666 18.6401 19.3373 18.3524C19.2737 18.8799 18.2877 19.983 17.9379 20.1429C18.0174 19.8871 18.0969 19.3276 18.0015 19.2476C17.5721 19.8871 17.2223 20.1588 16.8724 20.1588C17.1109 19.7272 17.1746 19.4714 17.1428 19.1997ZM21.0547 20.2867L20.7526 20.2708C20.7526 20.0789 20.5936 19.7752 20.5936 19.7752C20.5936 19.7752 20.4981 20.1429 20.4981 20.2708H20.196C20.355 20.1908 20.4663 19.4554 20.5618 19.1997C20.7367 19.3915 21.0229 20.0469 21.0547 20.2867ZM19.1305 19.8071C19.1305 19.8071 18.8761 20.1109 18.8602 20.2228H18.574C18.7171 20.1429 19.1305 19.2636 19.226 19.0238C19.4327 19.1997 19.4168 20.015 19.4327 20.2388H19.1305C19.1465 20.0469 19.1305 19.8071 19.1305 19.8071ZM15.9819 20.6384H26.6524L26.6683 30.1344C26.5729 31.3493 26.6842 32.932 23.9649 32.9639C21.2456 32.9959 21.2933 33.9391 21.2138 35.266C21.1342 33.8272 21.2138 32.9799 18.4785 32.868C15.8547 32.7721 16.0296 31.0776 15.966 29.8786L15.9819 20.6384ZM23.1061 40.9571C24.4101 42.7476 24.2829 43.3551 23.6627 44.8898C24.2193 43.2432 23.5991 42.0762 23.1061 40.9571ZM21.993 37.8878C22.9789 39.934 24.4737 41.0051 24.7918 41.8364H24.5055C23.6309 40.5735 22.0407 38.9109 21.993 37.8878ZM21.3251 38.1595C21.4841 37.8558 21.8976 36.449 21.9612 35.8735L22.2633 35.8415C22.2474 36.0813 21.7226 37.7439 21.3251 38.1595ZM21.5 35.9854C21.8021 35.5058 22.4223 34.2908 22.5973 33.3156L22.8994 33.2997C22.8517 33.5075 22.1838 35.1861 21.5 35.9854ZM18.4945 44.7139C17.922 43.1473 17.7947 42.5238 19.1624 40.7813C18.6217 41.9003 17.9538 43.0354 18.4945 44.7139ZM17.7311 41.6286H17.4449C17.7629 40.7973 19.3214 39.7742 20.3391 37.7279C20.2596 38.767 18.6217 40.3816 17.7311 41.6286ZM20.1165 35.6816L20.4027 35.7456C20.4504 36.3211 20.848 37.7279 20.9911 38.0476C20.6095 37.6 20.1165 35.9374 20.1165 35.6816ZM19.5599 33.1238L19.8621 33.1398C20.0211 34.1469 20.5936 35.3779 20.8798 35.8415C20.2119 35.0422 19.5917 33.3316 19.5599 33.1238ZM21.0229 38.4313L21.2933 38.4153C21.3251 40.1738 21.1183 44.5381 21.1024 44.5221C21.0706 44.4901 20.9434 40.1898 21.0229 38.4313ZM21.0706 36.385L21.3092 36.417C21.2774 36.8007 21.1979 37.2643 21.182 37.2483C21.166 37.2483 21.1024 36.7687 21.0706 36.385ZM15.2981 31.5571C14.9959 31.717 14.0895 31.9088 13.851 32.3884C14.6302 32.0687 15.0754 31.9728 15.3776 32.1486C14.9005 32.5163 14.821 32.6122 14.8528 32.7242C15.3617 32.5963 15.807 32.6442 16.0455 32.8361C15.2027 33.0279 14.503 33.1238 14.169 33.3316C14.2008 32.9959 14.2485 32.7401 14.4394 32.5323C13.5806 32.7881 13.0717 33.1558 12.8332 33.4116C13.1035 32.6922 13.3262 31.9568 15.2981 31.5571ZM12.4834 34.4347C12.7378 34.1469 12.8332 33.9711 13.1513 33.8592C13.1513 34.115 13.1513 34.3548 13.2785 34.5946C13.4057 34.3548 13.7555 33.9231 13.7874 33.8912C13.5806 34.2908 13.3421 35.0102 13.3103 35.218C13.1354 34.9782 13.0081 34.6585 12.9286 34.3548C12.7855 34.4027 12.4038 34.7864 12.2448 34.9782C12.1971 34.6425 12.1653 33.7153 12.4357 33.1398C12.4197 33.5554 12.4038 34.2748 12.4834 34.4347ZM15.6002 38.1595C15.314 38.1915 14.4712 38.2554 14.2962 38.2075C14.5666 38.1276 15.2822 37.9677 15.4094 37.9197C15.3776 37.7599 15.3776 37.4561 15.5048 37.4561C15.6797 37.632 15.807 38.0476 15.6002 38.1595ZM16.7293 36.5449C15.9024 36.6728 15.7433 36.5609 15.5048 35.7776C15.4571 35.9374 15.5048 36.6248 15.1868 37.0565C14.9482 36.8007 14.821 36.2891 14.7097 35.7136C14.6461 35.9054 14.6302 36.5609 14.4553 37.1204C14.328 36.6888 14.0736 36.3051 13.7396 35.7296C13.5647 36.0813 13.2944 36.3371 12.8809 36.6248C12.9922 36.385 12.8968 35.6497 12.7219 35.25C12.3084 35.6337 11.9904 35.8575 11.3384 35.8255C12.3561 35.6337 10.6705 32.5483 12.9445 32.2446C11.2112 32.8201 12.2448 34.9622 11.9268 35.3939C12.1176 35.4099 12.5152 35.1861 12.8491 34.7544C12.9604 35.0102 13.0876 35.4578 13.1831 36.0653C13.2944 36.0173 13.4852 35.7935 13.6601 35.4099C13.8192 35.4898 14.1849 35.8095 14.3598 36.2731C14.3598 35.8575 14.5507 35.282 14.7574 35.0742C14.8369 35.3299 14.9323 35.7296 15.1709 36.0173C15.2981 35.9054 15.3299 35.5697 15.3935 35.0262C15.4412 35.1221 15.5207 35.3619 15.7751 35.6656C15.7751 35.3459 15.9183 34.8983 16.4271 34.3867C15.807 35.234 15.8865 36.0653 16.7293 36.5449ZM13.8987 34.8823C13.8669 34.0031 14.5984 33.3316 16.3794 32.9959C15.3299 33.5554 14.662 33.7952 14.4712 34.2748C15.2981 33.9231 17.1428 33.6833 17.8107 33.9711C16.8406 33.8112 14.662 34.2109 13.8987 34.8823ZM15.9024 33.5874C16.9519 33.2197 17.3813 32.852 18.6853 34.1629C18.1446 33.7952 17.429 33.2677 15.9024 33.5874ZM18.574 33.1238L18.8761 33.1398C19.1146 33.8592 19.6871 34.7065 19.9575 35.3139C19.1942 34.5626 18.7807 33.6354 18.574 33.1238ZM18.4785 37.616C18.7171 37.552 19.6076 36.481 19.4327 35.6177C19.5917 36.0493 19.4804 36.9286 19.385 36.9925C19.5917 36.8646 19.9575 36.417 19.9575 36.385C19.8303 36.8966 19.5281 37.6639 18.4785 37.616ZM15.9342 45.1136C15.2663 45.0337 14.662 44.8099 14.2803 43.1473C13.9623 43.3391 13.5488 43.9626 13.4852 44.1704C13.2467 43.6109 12.6742 42.3959 13.9623 41.5646C13.2626 41.0051 13.1036 40.3656 13.8033 39.918C13.9305 40.3976 14.5348 41.0371 15.5048 40.3337C16.5067 39.6622 17.1269 39.2306 17.4767 39.2306C16.8406 39.6463 15.6956 40.6694 15.0118 40.8293C14.3439 41.0051 13.9464 40.7813 13.7396 40.7014C13.8987 41.1969 14.169 41.4847 14.503 41.6126C13.8669 42.0602 13.358 42.5878 13.6919 43.1153C14.0418 42.6997 14.4871 42.5878 14.662 42.6837C14.9005 43.9466 15.4571 45.0497 16.2045 44.602C16.8565 44.1384 16.8883 44.1065 16.9678 44.1065C16.4112 43.9786 15.4253 43.9466 15.9024 42.348C16.5067 42.6197 16.8724 42.5078 17.1428 42.2361C16.6975 41.8044 16.4749 41.0211 16.6975 40.7173C17.0473 40.3976 19.7825 37.9997 19.878 37.7918C19.4327 38.6071 17.5244 40.1418 17.0791 40.7173C16.6339 41.2929 17.3972 42.2361 17.7788 42.1082C17.27 42.7316 16.8088 43.0833 16.1409 42.8595C15.807 43.9146 18.2559 43.3871 17.9379 44.7939C16.5544 44.0585 16.5385 45.1935 15.9342 45.1136ZM14.328 42.2201C14.6461 42.0122 16.7134 40.1259 17.3177 39.7422C15.3776 41.4687 15.3617 42.8755 15.2981 43.515C15.0436 43.2432 15.0595 42.5878 15.2663 41.9963C15.1072 41.9003 14.8687 42.0122 14.328 42.2201ZM17.27 43.5469L16.9678 43.499L16.936 43.0354L17.2382 42.9235C17.2541 43.1153 17.1905 43.2432 17.27 43.5469ZM17.3018 44.7939L17.6198 44.7619C18.24 45.3854 19.051 45.785 19.6076 45.2895C18.9715 44.9218 18.4467 44.2663 18.8284 43.2112C19.1783 42.1561 20.5459 38.4952 20.5936 38.4313C20.3868 39.7422 19.3691 42.3 19.1465 43.1473C18.892 44.0265 19.226 45.2735 20.4663 44.8259C20.0211 45.6092 18.8443 46.7442 17.3018 44.7939ZM20.0211 44.618L19.6235 44.5381C19.5281 44.2024 19.7666 43.2112 19.8939 42.9075C19.8939 43.3071 19.8939 44.3303 20.0211 44.618ZM21.0706 46.6963C20.689 46.4884 20.1801 45.801 20.196 45.801L20.3868 45.4813C20.5141 45.7531 20.8321 46.0888 21.0547 46.2486C21.2933 46.0568 21.5954 45.7371 21.7226 45.4813L21.9294 45.801C21.9612 45.801 21.4364 46.4725 21.0706 46.6963ZM21.659 44.8898C22.9153 45.3534 23.2652 44.1864 23.0425 43.3391C22.8199 42.4439 21.8817 39.8861 21.7067 38.5752C21.7385 38.6231 22.9948 42.348 23.3447 43.4031C23.6786 44.4742 23.1538 45.1136 22.5178 45.4493C23.0584 45.9769 23.8854 45.6092 24.5055 44.9697L24.8236 45.0177C23.2493 46.9201 22.1043 45.7051 21.659 44.8898ZM22.1202 44.7619C22.2474 44.4901 22.2792 43.451 22.2792 43.0514C22.4382 43.3551 22.6291 44.3303 22.5178 44.682L22.1202 44.7619ZM25.5392 40.9571C25.8573 41.2609 25.5074 42.0442 25.0462 42.4439C25.3007 42.7476 25.7618 42.8435 26.3661 42.6037C26.8273 44.2024 25.8254 44.2024 25.1734 44.3303C25.253 44.3303 25.3007 44.3622 26.0163 44.8259C26.7637 45.3054 27.368 44.2024 27.6065 42.9395C27.7973 42.8435 28.2108 42.9714 28.5766 43.4031C28.9105 42.8755 28.4175 42.3639 27.7973 41.9003C28.1313 41.8044 28.4493 41.5007 28.5925 41.0211C28.4016 41.101 28.02 41.2929 27.3362 41.101C26.6524 40.9412 25.4438 39.8861 24.8077 39.4544C25.1575 39.4544 25.8732 39.8861 26.8432 40.6054C27.8132 41.3408 28.4175 40.7014 28.5607 40.2378C29.2286 40.7173 29.0854 41.3408 28.3539 41.8684C29.6102 42.7476 29.0218 43.9466 28.7833 44.5061C28.7197 44.2823 28.2903 43.6588 28.02 43.467C27.5906 45.0976 26.9545 45.3214 26.3025 45.3854C25.6664 45.4493 25.6346 44.3303 24.2193 44.9857C23.9331 43.5949 26.4456 44.1704 26.1435 43.1153C25.3961 43.3391 24.919 42.9554 24.426 42.316C24.7918 42.4599 25.6028 41.5327 25.1575 40.9412C24.7282 40.3656 22.8517 38.783 22.4223 37.9357C22.5178 38.1435 25.1894 40.6214 25.5392 40.9571ZM26.9704 43.7867C26.9227 43.1473 26.9545 41.7245 24.9667 39.95C25.571 40.3497 27.6701 42.3 27.9882 42.4918C27.4634 42.284 27.209 42.1561 27.0499 42.252C27.2249 42.8595 27.2249 43.5629 26.9704 43.7867ZM24.9349 43.1473L25.2371 43.2432L25.1893 43.7228L24.8872 43.7548C24.9985 43.467 24.9349 43.3391 24.9349 43.1473ZM23.8695 37.7918C22.8199 37.8238 22.5178 37.0565 22.4064 36.5289C22.4064 36.5449 22.7563 37.0245 22.963 37.1524C22.8676 37.0884 22.7881 36.2252 22.9312 35.7935C22.7563 36.6248 23.615 37.7439 23.8695 37.7918ZM22.4064 35.4738C22.7245 34.8663 23.297 34.035 23.5514 33.3316L23.8535 33.3156C23.6468 33.8272 23.2175 34.7384 22.4064 35.4738ZM26.6206 33.8592C24.9985 33.5075 24.2829 34.0031 23.7263 34.3708C25.0621 33.0759 25.4915 33.4595 26.6206 33.8592ZM24.601 34.1949C25.2689 33.9071 27.193 34.1949 28.02 34.5786C27.8609 34.083 27.193 33.8272 26.1594 33.2517C27.9246 33.6194 28.6402 34.3068 28.5925 35.202C27.8609 34.4986 25.6028 34.051 24.601 34.1949ZM26.8114 38.4313C26.6206 38.3034 26.7478 37.8878 26.9068 37.7279C27.0499 37.7599 27.034 38.0316 27.0022 38.1915C27.1294 38.2395 27.8291 38.3993 28.1154 38.5112C27.9405 38.5592 27.0817 38.4952 26.8114 38.4313ZM31.1686 36.2092C30.5166 36.2412 30.1986 35.9854 29.7851 35.6017C29.6261 35.9854 29.4989 36.7367 29.5943 36.9605C29.1967 36.6728 28.9423 36.417 28.7674 36.0493C28.4175 36.6248 28.1631 36.9925 28.0359 37.4401C27.845 36.8646 27.845 36.2092 27.7973 36.0173C27.6542 36.5929 27.527 37.0884 27.2885 37.3442C26.9704 36.9126 27.034 36.2252 26.9704 36.0653C26.7319 36.8646 26.5729 36.9446 25.7459 36.8007C26.5888 36.3371 26.7001 35.5058 26.1594 34.6425C26.6365 35.1861 26.7637 35.6177 26.7637 35.9374C27.0022 35.6656 27.0976 35.4259 27.1612 35.3459C27.193 35.8735 27.2249 36.2252 27.3521 36.3371C27.6065 36.0333 27.686 35.6337 27.7814 35.3939C27.9723 35.6177 28.1631 36.1932 28.1472 36.4969C28.338 36.1293 28.7197 35.8415 28.8787 35.7616C29.0377 36.1293 29.2127 36.369 29.3558 36.417C29.4512 35.7935 29.5943 35.3619 29.7056 35.1061C30.0237 35.5378 30.4212 35.7775 30.6121 35.7616C30.294 35.3299 31.4231 33.2197 29.6738 32.5963C31.9161 32.948 30.1509 35.9854 31.1686 36.2092ZM30.0714 33.4755C30.3417 34.067 30.2781 34.9782 30.2304 35.3299C30.0714 35.1381 29.6897 34.7225 29.5625 34.6745C29.4671 34.9782 29.324 35.282 29.149 35.5378C29.1172 35.3299 28.9105 34.6105 28.7197 34.1949C28.7356 34.2269 29.0854 34.6745 29.2126 34.8983C29.324 34.6585 29.3717 34.4507 29.3558 34.1629C29.6738 34.3228 29.7692 34.4827 30.0237 34.7544C30.0873 34.6265 30.1191 33.8912 30.0714 33.4755ZM27.686 32.9959C27.7019 32.9 27.6383 32.7881 27.1612 32.4204C27.4952 32.2605 27.9087 32.3405 28.7038 32.6922C28.4652 32.2126 27.5588 31.9728 27.2726 31.8289C29.2286 32.2765 29.4194 33.0119 29.6738 33.7313C29.4512 33.4755 28.9582 33.0918 28.1154 32.8201C28.3062 33.0279 28.338 33.2997 28.3698 33.6194C28.02 33.4116 27.3362 33.2837 26.4933 33.0759C26.7478 32.9 27.1771 32.852 27.686 32.9959ZM42.4275 17.5211C41.9345 18.5762 40.0422 19.3116 38.7859 19.6473C39.5174 19.3116 41.3621 18.4963 41.6483 17.8728C41.0122 17.7769 39.5492 18.1286 38.6269 18.4163C39.7241 17.8568 41.203 17.1854 42.4275 17.5211ZM39.8354 24.8429C39.2788 24.7469 38.0862 24.4432 37.1479 24.0915L37.291 23.7558C38.1498 24.1075 39.3902 24.5711 39.8354 24.8429ZM37.4183 17.3772C38.1498 17.1534 39.8831 16.1782 40.233 15.8745C39.9945 16.2901 38.4201 17.3293 37.5296 17.7449L37.4183 17.3772ZM37.6409 22.333C38.5632 22.4609 39.8513 22.5728 40.3602 22.7327C39.8195 22.7966 38.5632 22.7966 37.5773 22.7007L37.6409 22.333ZM37.6409 19.0238C38.3724 18.8959 40.4397 18.3524 40.8691 18.2245C40.4397 18.5282 38.6746 19.1197 37.7204 19.3755L37.6409 19.0238ZM37.7999 20.7344C38.7382 20.6544 40.2489 20.5745 40.7578 20.6065C40.2489 20.7663 38.8018 20.9582 37.8317 21.102L37.7999 20.7344ZM41.7437 14.9473C41.4098 16.0663 39.7559 17.1854 38.5632 17.6969C39.2152 17.2653 40.8373 16.0663 41.044 15.4109C40.392 15.4109 39.0085 15.9704 38.1339 16.3701C39.1039 15.6667 40.4874 14.8194 41.7437 14.9473ZM41.2348 11.718C41.3302 13.7803 39.1198 15.0912 37.9112 15.7946C38.9449 15.0272 40.2807 13.9082 40.6146 12.7252C40.1535 13.3007 38.2134 14.4197 37.466 14.7235C39.0562 13.7323 41.044 11.9738 41.2348 11.718ZM39.8195 13.6844C39.6605 14.132 37.959 15.3949 37.1479 15.9704L37.0843 15.6187C37.7522 15.299 39.5333 14.084 39.8195 13.6844ZM40.0422 8.13708C40.726 10.2793 38.4519 12.5973 37.3706 13.6364C38.2452 12.5653 39.6923 10.6789 39.6923 9.36803C39.3743 10.0874 37.3547 12.0857 36.6709 12.5973C38.0226 11.1585 39.9149 8.47279 40.0422 8.13708ZM38.7223 11.1585C38.6269 11.6381 37.2433 13.3486 36.5436 14.052L36.4005 13.7163C37.0207 13.2527 38.5155 11.5901 38.7223 11.1585ZM33.9675 16.0663C34.3491 15.7786 35.1919 14.8354 35.4305 14.2918C35.3669 15.0272 34.2696 16.1303 34.0947 16.2582C33.9038 16.3861 33.7925 16.2422 33.9675 16.0663ZM33.713 17.9207C33.713 17.9207 35.0011 17.1854 35.0965 17.1374C35.2237 17.0575 35.3351 17.1854 35.2237 17.2813C35.0965 17.3612 33.9356 18.0007 33.8243 18.0806C33.6971 18.1605 33.6017 17.9847 33.713 17.9207ZM33.4109 23.3242C33.2519 23.2762 33.3791 23.0844 33.5063 23.1643C33.5063 23.1643 34.524 23.6918 34.6513 23.7398C34.7785 23.8037 34.7149 23.9796 34.5877 23.9156C34.4604 23.8677 33.5699 23.4041 33.4109 23.3242ZM33.6335 25.2265C33.554 25.1466 32.7748 24.3313 32.6476 24.2194C32.5521 24.1075 32.7112 23.9796 32.8066 24.0915C32.8066 24.0915 33.6653 24.9867 33.7766 25.0827C33.8402 25.1946 33.713 25.3225 33.6335 25.2265ZM33.872 22.2051C33.6971 22.1891 33.7607 21.9813 33.8879 22.0133C33.8879 22.0133 35.0329 22.1891 35.176 22.2051C35.3033 22.2211 35.3033 22.4129 35.176 22.3969C35.0329 22.381 34.047 22.2211 33.872 22.2051ZM34.1106 20.6864C34.1106 20.6864 35.2715 20.6864 35.3987 20.6864C35.5418 20.6864 35.5736 20.8622 35.4464 20.8622C35.3033 20.8782 34.2855 20.8782 34.1106 20.8942C33.9356 20.8942 33.9675 20.6864 34.1106 20.6864ZM34.0788 19.4395C33.9198 19.5034 33.8879 19.2956 34.0311 19.2636C34.0311 19.2636 35.1283 18.9279 35.2555 18.8799C35.3828 18.832 35.4623 19.0078 35.3351 19.0398C35.2078 19.1037 34.2378 19.3915 34.0788 19.4395ZM30.6439 19.2316C30.4212 19.1037 30.5803 19.0238 30.6598 18.9119C30.7393 18.8 32.2023 17.2653 32.4885 17.1854C32.091 17.4891 30.8824 18.9759 30.8824 19.0238C30.8824 19.0718 30.8665 19.3595 30.6439 19.2316ZM30.628 23.4041C30.787 23.2122 31.1527 23.9476 31.1368 24.1075C31.1209 24.2514 30.5644 23.468 30.628 23.4041ZM29.3399 23.8517C29.5466 23.7238 29.6579 24.5391 29.5943 24.683C29.5466 24.8109 29.2604 23.8997 29.3399 23.8517ZM28.0359 23.7558C28.2744 23.7398 28.0041 24.5071 27.8769 24.6031C27.7496 24.715 27.9405 23.7558 28.0359 23.7558ZM27.2885 20.8463C27.6383 20.7823 28.1472 20.4946 28.3539 20.3507C28.5607 20.7823 28.1631 21.6935 27.2885 21.7735C27.6701 21.5497 28.0518 21.3259 28.1472 20.7024C27.8928 20.8143 27.4793 20.9422 27.2885 20.8463ZM27.1294 24.3473C27.193 24.1075 27.5906 23.5959 27.6065 23.5799C27.4316 23.8677 27.193 24.3952 27.3362 24.6031C27.4952 24.8109 27.7019 25.2105 27.7019 25.1946C27.7019 25.1946 28.1313 25.0187 28.3698 24.9548C28.6084 24.8908 28.7674 24.3153 28.7992 23.9156C28.7833 24.2194 28.7674 24.8109 29.0059 24.9548C29.2285 25.0507 29.5943 25.3384 29.5943 25.3065C29.5784 25.3065 29.8965 24.9867 30.0714 24.8269C30.2781 24.667 30.1668 24.0915 30.0555 23.7238C30.1986 24.0435 30.4371 24.6031 30.6757 24.6031C30.9301 24.619 31.4072 24.731 31.3754 24.731C31.3754 24.731 31.5185 24.2833 31.6139 24.0755C31.7252 23.8517 31.4072 23.3721 31.1686 23.0844C31.4072 23.3561 31.8683 23.8357 32.1546 23.7398C32.4408 23.6599 32.9497 23.5799 32.9338 23.5799C32.9338 23.5959 32.9179 23.1003 32.9338 22.7966C32.9656 22.5088 32.4249 22.1412 31.9797 21.9333C32.3295 22.0133 32.9815 22.0932 33.1564 21.8534C33.3314 21.5976 33.6653 21.2139 33.6494 21.2299C33.6494 21.2299 33.3314 20.8463 33.1405 20.6224C32.9815 20.3827 32.3295 20.4466 31.9479 20.5425C32.3613 20.4146 33.0133 20.2068 33.0292 19.935C33.061 19.6473 33.2041 19.1357 33.2041 19.1357C33.2041 19.1517 32.7271 18.9759 32.4726 18.816C32.2182 18.6881 31.6616 19.0398 31.3436 19.2796C32.5203 18.3844 33.5063 16.9136 33.5858 15.5548L33.6176 15.6187C33.5222 16.7697 33.1246 17.7449 32.3931 18.5122C32.5203 18.5442 32.7271 18.6082 32.8066 18.6721C32.8543 18.7041 33.5222 18.9918 33.5222 18.9918C33.5222 18.9759 33.3314 19.4714 33.3155 19.7592C33.2996 20.0789 33.1723 20.1908 32.902 20.3347C33.2041 20.2867 33.2837 20.3986 33.4586 20.6704C33.6176 20.9102 33.9516 21.3099 33.9516 21.2939C33.9516 21.2779 33.5699 21.6296 33.3791 21.8854C33.22 22.1412 33.0451 22.1891 32.7907 22.1891C33.0451 22.4289 33.1246 22.5088 33.0928 22.8446C33.0928 23.1803 33.0928 23.7558 33.0928 23.7558C33.1087 23.7558 32.6158 23.7718 32.3613 23.8517C32.1069 23.9316 32.0274 23.9956 31.757 23.8197C31.8683 24.0435 31.8206 24.1395 31.7252 24.3473C31.6298 24.5391 31.5026 24.9707 31.5026 24.9707C31.5344 24.9707 31.0891 24.7949 30.8347 24.7949C30.5962 24.7949 30.453 24.7629 30.3258 24.5711C30.3576 24.8588 30.1986 24.9228 30.0396 25.0827C29.8805 25.2265 29.5943 25.5942 29.6102 25.5942C29.6102 25.5942 29.2604 25.2745 29.0377 25.2105C28.7992 25.1466 28.7515 25.0507 28.7197 24.8269C28.6402 25.0827 28.4334 25.1466 28.2267 25.2105C28.0041 25.2585 27.6224 25.4663 27.6224 25.4823C27.6224 25.4823 27.4316 25.0347 27.2726 24.8908C27.1294 24.7469 27.0658 24.5871 27.1294 24.3473ZM31.4549 19.983C31.3118 19.7752 32.1546 19.5993 32.2977 19.6633C32.4567 19.7272 31.4867 20.0629 31.4549 19.983ZM32.6953 21.198C32.8384 21.3099 31.6934 21.3578 31.6616 21.2619C31.5821 21.0381 32.5362 21.102 32.6953 21.198ZM32.2341 23.0204C32.2977 23.2122 31.4072 22.6527 31.4231 22.5728C31.4867 22.269 32.1864 22.8286 32.2341 23.0204ZM32.2659 26.1857C32.2023 26.0898 31.757 25.2425 31.6934 25.1306C31.598 25.0187 31.7729 24.9068 31.8365 25.0187C31.8365 25.0187 32.3454 25.9459 32.4408 26.0898C32.4885 26.1857 32.3295 26.2976 32.2659 26.1857ZM30.5962 26.7612C30.5484 26.6333 30.3258 25.6262 30.2781 25.4823C30.2145 25.3065 30.4371 25.2905 30.453 25.4184C30.453 25.4184 30.7075 26.5694 30.7552 26.6973C30.8029 26.8252 30.628 26.9051 30.5962 26.7612ZM29.1649 26.9051C29.1808 27.065 28.99 27.0969 28.99 26.9371C28.99 26.8092 28.99 25.7861 28.9582 25.6262C28.9582 25.4503 29.149 25.4823 29.149 25.6262C29.149 25.6262 29.1649 26.7932 29.1649 26.9051ZM27.7337 25.7861C27.7337 25.7861 27.4157 26.9051 27.3839 27.049C27.368 27.1769 27.1612 27.1449 27.209 27.033C27.209 26.9051 27.5111 25.9139 27.5588 25.7381C27.5747 25.5622 27.7814 25.6582 27.7337 25.7861ZM30.4371 30.8697C29.3558 30.2782 29.5625 29.9105 29.7215 28.5357C29.7851 29.319 29.6738 29.8626 30.4212 30.3422C31.0255 29.9905 30.9619 29.5588 31.0414 28.6156C31.1368 29.7827 31.3913 30.1983 30.4371 30.8697ZM30.2145 28.216L30.5803 28.2799C30.5166 29.1912 30.4212 29.431 30.3258 29.9265C30.2304 29.399 30.1986 29.2231 30.2145 28.216ZM33.1405 31.0136C32.091 30.6459 31.9797 29.9745 31.8365 28.6316C32.0592 29.367 32.409 30.4061 32.9974 30.518C33.4109 30.2143 33.2519 29.367 33.1405 28.4078C33.5063 29.5588 33.8243 30.2942 33.1405 31.0136ZM32.1705 28.0721L32.5362 28.0401C32.6317 28.9514 32.8861 29.5269 32.8702 30.0384C32.6953 29.5269 32.3295 29.0473 32.1705 28.0721ZM35.6849 30.4061C34.5876 30.3102 34.3173 29.5269 33.8402 28.248C34.2537 28.9194 34.8421 29.8626 35.4146 29.8306C35.7485 29.4469 35.4782 28.6476 35.1124 27.7684C35.7485 28.7755 36.1461 29.5269 35.6849 30.4061ZM35.176 29.431C34.8739 28.9993 34.3173 28.3279 33.8879 27.4327L34.2378 27.2888C34.5717 28.152 35.0488 28.9194 35.176 29.431ZM37.9908 29.0793C36.9094 29.319 36.5913 28.4558 35.7326 27.4007C36.3051 27.8963 36.9889 28.8235 37.5455 28.5997C37.7363 28.1361 37.1638 27.4327 36.5754 26.6973C37.5137 27.4486 38.1498 28.0881 37.9908 29.0793ZM37.2274 28.2799C36.7822 27.9602 36.003 27.2888 35.3351 26.5534L35.6213 26.3296C36.2097 27.033 36.9571 27.8323 37.2274 28.2799ZM36.0825 24.3313C35.9871 24.635 35.4941 24.9388 34.7785 24.9388C34.8421 25.3065 34.7785 25.7061 34.5558 26.2497C34.3014 26.4415 33.7448 26.3456 33.2359 26.1378C33.22 26.4895 33.1405 26.7612 32.9179 27.1129C32.5203 27.2728 32.1546 27.1129 31.7411 26.8571C31.7093 27.2888 31.3277 27.5286 31.0414 27.8163C30.3576 27.7844 30.135 27.5605 29.9124 27.1929C29.8328 27.4167 29.7374 27.7044 29.2126 27.9922C28.6084 27.8643 28.4016 27.6724 28.1472 27.2248C27.7973 27.8323 27.4952 27.9922 26.9704 27.9122V27.7364C27.4475 27.8643 27.9087 27.4486 28.2426 26.5854C28.3539 27.1929 28.5129 27.5605 29.1808 27.7684C29.5466 27.6245 29.8169 27.4167 29.8328 26.4895C30.0555 27.2088 30.3735 27.5126 30.9937 27.5925C31.6934 27.033 31.5662 26.6493 31.3754 25.9459C31.7252 26.5694 31.9161 26.9051 32.7589 26.8731C33.1882 26.2656 32.9974 25.85 32.7271 25.1786C33.2359 25.9619 33.5222 26.1857 34.365 26.0259C34.7308 25.0827 34.5081 24.7629 34.0629 24.3153C34.7308 24.715 35.0965 24.8908 35.8121 24.2194C35.7962 23.516 35.5577 23.2602 34.7308 22.9884C35.4782 23.2122 35.9552 23.2922 36.48 22.5408C36.2733 21.7415 35.9394 21.5976 35.1283 21.5656C35.9712 21.6296 36.5118 21.5177 37.0048 20.7503C36.3687 19.5993 36.0348 19.7592 35.2874 19.8551C36.3846 19.6153 36.7981 19.3276 36.973 18.3524C36.1302 17.681 35.6372 17.9687 34.7626 18.4163C36.0984 17.633 36.7345 16.8017 36.655 16.1782C35.9075 15.7146 34.5717 16.6738 33.9834 17.0735C36.0666 15.5388 35.8757 14.2759 35.8439 13.2527C36.2574 14.4837 35.9553 15.1391 35.4941 15.9065C35.7326 15.7946 36.7186 15.7146 36.9094 15.9864C37.1161 16.2582 36.814 17.1054 36.1302 17.7129C36.4164 17.649 37.1161 17.9687 37.2433 18.2565C37.3547 18.5282 37.0048 19.1997 36.5754 19.7112C36.814 19.919 37.1002 20.2228 37.291 20.6864C37.1638 21.15 36.7504 21.4857 36.3687 21.6616C36.5277 21.8534 36.655 22.2371 36.7345 22.6048C36.655 22.7646 36.4959 23.0844 35.8598 23.3721C35.9553 23.516 36.0825 23.9636 36.0825 24.3313ZM36.7027 25.1626C37.466 25.6741 38.3883 26.3296 38.77 26.6653C38.2611 26.4735 37.3547 25.9619 36.4959 25.4503L36.7027 25.1626ZM39.7559 27.2728C38.7382 27.7364 38.0067 27.1609 36.973 26.2816C37.6409 26.6653 38.6905 27.2408 39.1834 26.9051C39.2788 26.4095 38.5314 25.7861 37.784 25.2105C38.8495 25.7701 39.7241 26.2976 39.7559 27.2728ZM41.0281 25.2105C39.9149 25.7701 39.1198 25.4184 37.9749 24.7789C38.7223 25.0027 39.8195 25.2425 40.4397 24.9707C40.0263 24.4752 39.3266 24.0595 38.4837 23.6599C39.6287 23.9796 40.4715 24.0755 41.0281 25.2105ZM41.7914 22.6847C40.9327 23.5639 39.8354 23.532 38.5314 23.2762C39.2948 23.2602 40.6465 23.1803 41.1553 22.7327C40.6305 22.381 39.5174 22.1252 38.5473 21.9973C39.7559 21.9333 40.8214 21.8854 41.7914 22.6847ZM42.3003 20.4146C41.5052 21.2619 39.8831 21.5656 38.595 21.4857C39.3584 21.3898 41.044 21.0061 41.537 20.5105C40.9645 20.1908 39.8036 20.2068 38.8654 20.1908C40.0422 20.031 41.2189 19.7432 42.3003 20.4146ZM33.3314 36.1452L35.0965 36.0973L35.1601 34.4027C34.365 34.4027 33.6017 35.3299 33.3314 36.1452ZM3.3554 27.4806C3.68935 27.4806 4.10281 27.4486 4.0392 27.1129C3.97559 26.7772 3.72115 26.7452 3.72115 26.5854C4.0233 25.9619 4.29364 25.5303 3.76886 24.5711C3.65754 24.8109 3.18047 25.5622 3.02145 24.8269C3.22818 24.5551 2.79882 24.5231 2.81472 24.3952C2.84652 24.5231 2.44896 24.5551 2.63979 24.8269L2.44896 24.8109C2.49667 24.3313 2.06731 24.3952 1.97189 24.2514C1.95599 24.4592 1.55843 24.619 1.84467 25.0027L1.68565 25.0986C1.70155 24.7789 1.3517 24.9548 1.28809 24.8269C1.38351 24.9388 1.03365 25.1786 1.3676 25.3065C1.59024 26.0099 0.795118 25.6262 0.572485 25.4663C0.60429 26.5534 1.06546 26.7772 1.65385 27.1609C1.73336 27.3048 1.51072 27.4646 1.63794 27.7844C1.74926 28.1041 2.13092 27.9282 2.40126 27.7364C2.44896 27.6085 2.60799 27.4327 2.81472 27.3847C3.03735 27.3367 3.25999 27.3847 3.3554 27.4806ZM3.25999 26.6493C3.41901 26.6333 3.51442 26.6973 3.64164 26.6653C3.81657 27.0969 2.97374 27.5925 3.16457 26.8731C3.21228 26.8092 3.22818 26.6973 3.25999 26.6493ZM2.92604 25.4024C2.94194 25.2905 3.10096 25.2105 3.19638 25.2265C3.25999 25.3864 3.11686 26.0418 2.91013 25.834C2.87833 25.7221 2.91013 25.4344 2.92604 25.4024ZM2.19453 25.0187C2.38536 24.9388 3.00555 24.715 2.35355 25.5622C1.3676 25.1946 1.9878 25.0827 2.19453 25.0187ZM1.44712 25.7221C1.52663 25.6582 1.70155 25.6742 1.78107 25.7541C1.79697 25.7541 1.95599 26.0099 1.97189 26.1218C1.89238 26.3935 1.44712 25.882 1.44712 25.7221ZM1.79697 27.1129C1.90828 27.1129 1.9878 26.985 2.11501 26.9531C2.14682 26.985 2.22633 27.0969 2.28994 27.1129C2.79882 27.6725 1.79697 27.5765 1.79697 27.1129ZM2.06731 26.2017L2.86243 25.9779C3.03735 26.4415 3.13277 26.7452 2.75111 27.065C2.22633 27.017 2.14682 26.6973 2.06731 26.2017ZM2.83062 26.0578L2.16272 26.2497C2.22633 26.6653 2.30584 26.9211 2.73521 26.969C3.05325 26.6973 2.97374 26.4415 2.83062 26.0578ZM24.2829 25.4983L24.1875 25.4344C24.1875 25.4663 24.0126 25.5143 23.9331 25.5143L23.9808 25.6742C24.108 25.6582 24.2193 25.5782 24.2829 25.4983Z" fill="#505B67"/>
</svg>
