<svg width="33" height="29" viewBox="0 0 33 29" fill="none" xmlns="http://www.w3.org/2000/svg">
<path d="M31.4607 19.0741V12.1585C31.7567 12.0617 32.0291 11.9042 32.2605 11.6964C32.492 11.4885 32.6773 11.2347 32.8046 10.9512C32.9319 10.6678 32.9985 10.361 33 10.0504C33.0015 9.73983 32.9379 9.43238 32.8133 9.14773C32.6887 8.86309 32.5059 8.60753 32.2765 8.39742C32.0471 8.18732 31.7762 8.0273 31.4812 7.92762C31.1862 7.82794 30.8735 7.7908 30.5633 7.81858C30.253 7.84636 29.952 7.93844 29.6795 8.08893L24.9037 3.28575C25.05 3.0132 25.1379 2.71329 25.1617 2.40507C25.1856 2.09685 25.1449 1.78705 25.0423 1.49534C24.9396 1.20363 24.7773 0.936382 24.5655 0.710565C24.3538 0.484749 24.0972 0.305297 23.8122 0.183601C23.5272 0.0619055 23.2199 0.000625531 22.9098 0.00365163C22.5998 0.00667772 22.2938 0.0739438 22.0112 0.201179C21.7286 0.328415 21.4756 0.51284 21.2683 0.742746C21.0611 0.972652 20.904 1.24302 20.8071 1.53667H12.1929C12.0973 1.24504 11.9422 0.976234 11.7376 0.74707C11.5329 0.517906 11.2831 0.333317 11.0036 0.204852C10.7241 0.0763867 10.421 0.00681006 10.1133 0.00047532C9.80564 -0.00585942 9.49995 0.0511841 9.21538 0.168037C8.93081 0.284889 8.6735 0.459036 8.45953 0.679581C8.24556 0.900127 8.07955 1.16232 7.97188 1.44977C7.86421 1.73722 7.81719 2.04372 7.83377 2.35011C7.85036 2.6565 7.93019 2.95619 8.06826 3.23041L3.23811 8.04571C2.96034 7.90703 2.65663 7.82755 2.34635 7.81236C2.03606 7.79716 1.72601 7.84658 1.43594 7.95746C1.14587 8.06834 0.882144 8.23826 0.661578 8.45637C0.441012 8.67449 0.268439 8.93602 0.154856 9.22431C0.0412722 9.51259 -0.0108298 9.82131 0.00186975 10.1308C0.0145693 10.4403 0.091792 10.7437 0.228617 11.0218C0.365441 11.2998 0.558867 11.5464 0.796567 11.7459C1.03427 11.9453 1.31103 12.0932 1.60921 12.18V15.1493C1.30341 15.2385 1.02024 15.3917 0.778664 15.5988C0.537085 15.8059 0.342673 16.0621 0.208442 16.3502C0.0742117 16.6383 0.00326078 16.9517 0.000339512 17.2693C-0.00258175 17.5869 0.062594 17.9015 0.191504 18.192C0.320413 18.4825 0.510081 18.7422 0.74781 18.9537C0.985539 19.1652 1.26584 19.3236 1.56995 19.4184C1.87406 19.5131 2.19497 19.542 2.51117 19.503C2.82738 19.4641 3.13159 19.3582 3.40345 19.1926L4.23335 20.0493C4.06914 20.3234 3.96587 20.6295 3.93053 20.9468C3.89519 21.2641 3.92861 21.5853 4.02851 21.8886C4.12842 22.192 4.29249 22.4704 4.50963 22.705C4.72677 22.9397 4.99192 23.1252 5.28715 23.2488C5.58237 23.3725 5.90079 23.4316 6.22088 23.422C6.54097 23.4124 6.85525 23.3343 7.14249 23.1932C7.42973 23.0521 7.68322 22.8511 7.88582 22.6038C8.08843 22.3566 8.23542 22.0688 8.31686 21.76L14.6245 21.789C14.7071 22.0855 14.8503 22.3618 15.0452 22.6004C15.24 22.8391 15.4823 23.0349 15.7568 23.1757C16.0312 23.3164 16.332 23.399 16.64 23.4183C16.948 23.4376 17.2568 23.3931 17.5467 23.2876L18.9783 25.34C18.7644 25.5954 18.6105 25.8953 18.528 26.2177C18.4454 26.5401 18.4363 26.8769 18.5013 27.2032C18.5663 27.5296 18.7038 27.8374 18.9036 28.1039C19.1034 28.3704 19.3605 28.589 19.656 28.7436C19.9516 28.8982 20.2781 28.9848 20.6116 28.9972C20.9451 29.0096 21.2772 28.9475 21.5834 28.8153C21.8897 28.6831 22.1624 28.4842 22.3816 28.2333C22.6008 27.9823 22.7608 27.6856 22.85 27.365H26.9288C27.0255 27.7131 27.2056 28.0326 27.4535 28.296C27.7014 28.5594 28.0098 28.7588 28.3522 28.8771C28.6945 28.9954 29.0606 29.0289 29.4188 28.9749C29.7771 28.921 30.1168 28.781 30.4088 28.5671C30.7008 28.3533 30.9363 28.0719 31.095 27.7472C31.2538 27.4225 31.3311 27.0642 31.3203 26.7031C31.3094 26.3421 31.2107 25.989 31.0328 25.6744C30.8548 25.3597 30.6028 25.0929 30.2985 24.8969L30.7818 23.4222C31.3119 23.4175 31.823 23.2252 32.2241 22.8796C32.6252 22.534 32.8902 22.0576 32.9717 21.5354C33.0533 21.0131 32.9461 20.479 32.6694 20.0282C32.3926 19.5774 31.9643 19.2393 31.4607 19.0741ZM20.6946 24.538C20.4182 24.538 20.1441 24.5892 19.8865 24.6892L18.4674 22.6543C18.6829 22.4077 18.8413 22.1168 18.9313 21.8023L28.6145 21.8162C28.6189 21.8313 28.6231 21.8466 28.6278 21.8616L22.3488 25.2685C22.1395 25.0384 21.8842 24.8545 21.5993 24.7287C21.3144 24.6028 21.0062 24.5379 20.6946 24.538ZM15.4083 19.432L10.9982 15.9539C11.0348 15.8711 11.0663 15.786 11.0924 15.6993H15.1961C15.2975 16.0335 15.4758 16.3395 15.7168 16.5928C15.9578 16.8461 16.2549 17.0398 16.5843 17.1583L16.4296 18.9898C16.0571 19.0486 15.7057 19.2008 15.4083 19.432ZM6.15336 18.962C5.75821 18.9617 5.37013 19.0664 5.02907 19.2653L4.18225 18.391C4.37472 18.0555 4.47582 17.6756 4.47552 17.2891C4.47539 17.2056 4.47058 17.1222 4.46112 17.0392L7.08484 16.2888C7.22785 16.5035 7.40682 16.6921 7.61391 16.8464L6.56464 19.0002C6.42902 18.9748 6.29134 18.962 6.15336 18.962ZM3.67589 11.7475L6.88993 14.1886C6.77263 14.4638 6.71232 14.7597 6.71264 15.0587C6.71264 15.1174 6.71564 15.1754 6.72012 15.2329L4.05823 15.9943C3.73831 15.5477 3.26473 15.234 2.72777 15.1131V12.2162C3.07695 12.138 3.40214 11.9773 3.67589 11.7475ZM10.0683 4.46412C10.2071 4.46398 10.3455 4.45098 10.4818 4.4253L11.5085 6.59544C11.0461 6.94701 10.7391 7.46416 10.6525 8.03742L4.22776 9.02146C4.18477 8.93816 4.13658 8.85764 4.08346 8.78036L8.80504 4.07303C9.1766 4.32811 9.61718 4.46451 10.0683 4.46412ZM15.0568 8.81347H17.9432C18.0525 9.34316 18.3508 9.81535 18.7827 10.1424L17.6605 12.8516C17.2982 12.7988 16.9285 12.8359 16.5839 12.9594L14.5689 9.8102C14.8134 9.52437 14.9812 9.18146 15.0568 8.81347ZM22.9317 4.46412C23.3622 4.46446 23.7836 4.34017 24.1446 4.10634L28.8671 8.85606C28.8048 8.95447 28.7503 9.05762 28.7043 9.16455L22.3515 8.06669C22.2728 7.49355 21.9739 6.9733 21.5177 6.61579L22.5009 4.4223C22.6428 4.45012 22.7871 4.46413 22.9317 4.46412ZM28.5799 20.7009L18.9582 20.687C18.9366 20.594 18.909 20.5025 18.8756 20.413L23.7902 16.8131C24.1223 17.0735 24.5218 17.2346 24.9421 17.2775C25.3625 17.3204 25.7864 17.2433 26.1645 17.0553L28.9011 19.9559C28.749 20.1825 28.6401 20.435 28.5799 20.7009ZM19.5245 14.584C19.4106 14.0657 19.1153 13.6047 18.6916 13.2837L19.8137 10.5745C19.9202 10.5899 20.0277 10.5977 20.1353 10.5978C20.4443 10.598 20.75 10.5339 21.0328 10.4096L23.3988 13.6969C23.1959 13.958 23.0539 14.261 22.9833 14.5838L19.5245 14.584ZM17.3389 16.1739C17.1177 16.1739 16.9014 16.1085 16.7175 15.986C16.5336 15.8634 16.3902 15.6892 16.3055 15.4855C16.2209 15.2817 16.1987 15.0575 16.2419 14.8411C16.285 14.6248 16.3916 14.4261 16.548 14.2701C16.7044 14.1141 16.9037 14.0079 17.1207 13.9649C17.3377 13.9219 17.5626 13.944 17.767 14.0284C17.9714 14.1128 18.1461 14.2557 18.269 14.4391C18.3919 14.6225 18.4575 14.8381 18.4575 15.0587C18.4571 15.3544 18.3392 15.6378 18.1295 15.8469C17.9198 16.056 17.6355 16.1736 17.3389 16.1739ZM15.1533 14.584H11.1353C11.0507 14.1976 10.8644 13.8406 10.5954 13.5497L12.2863 10.5218C12.7381 10.6427 13.2166 10.6189 13.6541 10.454L15.6591 13.588C15.4083 13.8718 15.2343 14.2146 15.1533 14.584ZM7.5712 13.304L4.3264 10.8395C4.41615 10.607 4.46595 10.3611 4.4737 10.1121L10.7692 9.14804C10.8868 9.45969 11.0726 9.74125 11.3132 9.97218L9.65444 12.9423C9.30429 12.8259 8.93064 12.7981 8.56703 12.8612C8.20341 12.9243 7.86128 13.0765 7.5712 13.304ZM26.2874 15.0587C26.2874 15.2793 26.2218 15.4949 26.0989 15.6783C25.976 15.8617 25.8013 16.0046 25.5969 16.089C25.3925 16.1734 25.1676 16.1955 24.9506 16.1525C24.7336 16.1094 24.5343 16.0032 24.3779 15.8473C24.2215 15.6913 24.1149 15.4926 24.0718 15.2763C24.0286 15.0599 24.0508 14.8357 24.1354 14.6319C24.2201 14.4281 24.3635 14.254 24.5474 14.1314C24.7314 14.0089 24.9476 13.9435 25.1688 13.9435C25.4654 13.9438 25.7497 14.0614 25.9594 14.2705C26.1691 14.4796 26.2871 14.763 26.2874 15.0587ZM26.4602 13.2395C26.1475 13.0179 25.7827 12.8806 25.4011 12.8407C25.0195 12.8008 24.6341 12.8597 24.282 13.0118L21.9127 9.71958C22.0401 9.55361 22.1435 9.3706 22.2197 9.17592L28.5361 10.2674C28.5687 10.5865 28.6704 10.8947 28.8342 11.1707L26.4602 13.2395ZM21.2539 8.36738C21.2539 8.58795 21.1883 8.80357 21.0654 8.98697C20.9425 9.17036 20.7678 9.3133 20.5634 9.39771C20.359 9.48212 20.1341 9.5042 19.9171 9.46117C19.7001 9.41814 19.5008 9.31193 19.3444 9.15596C19.188 9 19.0814 8.80128 19.0383 8.58495C18.9951 8.36862 19.0173 8.14439 19.1019 7.94061C19.1866 7.73683 19.33 7.56266 19.5139 7.44011C19.6978 7.31757 19.9141 7.25217 20.1353 7.25217C20.4319 7.25252 20.7162 7.37012 20.9259 7.57919C21.1356 7.78826 21.2535 8.07172 21.2539 8.36738ZM12.8647 9.4826C12.6435 9.4826 12.4272 9.4172 12.2433 9.29465C12.0593 9.17211 11.916 8.99794 11.8313 8.79416C11.7466 8.59038 11.7245 8.36615 11.7676 8.14982C11.8108 7.93348 11.9173 7.73477 12.0738 7.57881C12.2302 7.42284 12.4295 7.31662 12.6465 7.27359C12.8635 7.23056 13.0884 7.25265 13.2928 7.33706C13.4972 7.42146 13.6718 7.5644 13.7948 7.7478C13.9177 7.9312 13.9833 8.14681 13.9833 8.36738C13.9829 8.66305 13.865 8.94651 13.6553 9.15557C13.4456 9.36464 13.1613 9.48225 12.8647 9.4826ZM7.83119 15.0587C7.83119 14.8381 7.8968 14.6225 8.01971 14.4391C8.14261 14.2557 8.31731 14.1128 8.5217 14.0284C8.72609 13.944 8.95099 13.9219 9.16797 13.9649C9.38495 14.0079 9.58426 14.1141 9.74069 14.2701C9.89713 14.4261 10.0037 14.6248 10.0468 14.8411C10.09 15.0575 10.0678 15.2817 9.98317 15.4855C9.89851 15.6892 9.75514 15.8634 9.57119 15.986C9.38725 16.1085 9.17098 16.1739 8.94975 16.1739C8.6532 16.1736 8.3689 16.056 8.1592 15.8469C7.94951 15.6378 7.83155 15.3544 7.83119 15.0587ZM17.6983 17.26C18.1122 17.192 18.4986 17.0097 18.8138 16.7338C19.129 16.458 19.3603 16.0996 19.4816 15.6992H23.026C23.0493 15.777 23.0769 15.8535 23.1087 15.9282L18.2338 19.4993C18.0298 19.3246 17.7958 19.1879 17.5432 19.0958L17.6983 17.26ZM29.7346 19.2116L27.0099 16.3236C27.2344 15.9998 27.3688 15.6224 27.3993 15.23C27.4298 14.8375 27.3554 14.444 27.1836 14.0896L29.6267 11.9609C29.8477 12.0914 30.0898 12.1827 30.3422 12.2308V19.0018C30.1305 19.0421 29.9258 19.1126 29.7346 19.2116ZM31.8802 10.0402C31.8802 10.2608 31.8146 10.4764 31.6917 10.6598C31.5688 10.8432 31.3941 10.9861 31.1897 11.0705C30.9853 11.1549 30.7604 11.177 30.5434 11.134C30.3264 11.091 30.1271 10.9848 29.9707 10.8288C29.8143 10.6728 29.7077 10.4741 29.6646 10.2578C29.6214 10.0414 29.6436 9.81721 29.7282 9.61343C29.8129 9.40966 29.9563 9.23548 30.1402 9.11294C30.3241 8.9904 30.5404 8.92499 30.7616 8.92499C31.0582 8.92534 31.3425 9.04295 31.5522 9.25202C31.7619 9.46109 31.8798 9.74454 31.8802 10.0402ZM22.9317 1.11847C23.153 1.11847 23.3692 1.18387 23.5532 1.30641C23.7371 1.42896 23.8805 1.60313 23.9651 1.80691C24.0498 2.01069 24.072 2.23492 24.0288 2.45125C23.9856 2.66758 23.8791 2.8663 23.7227 3.02226C23.5662 3.17823 23.3669 3.28444 23.15 3.32747C22.933 3.3705 22.7081 3.34842 22.5037 3.26401C22.2993 3.1796 22.1246 3.03666 22.0017 2.85327C21.8788 2.66987 21.8132 2.45425 21.8132 2.23368C21.8135 1.93802 21.9315 1.65456 22.1412 1.44549C22.3509 1.23643 22.6352 1.11882 22.9317 1.11847ZM12.2654 2.65189H20.7346C20.8314 3.15495 21.0989 3.60947 21.4921 3.93913L20.4942 6.16601C19.9633 6.07968 19.4189 6.18709 18.961 6.46853C18.5031 6.74997 18.1623 7.18657 18.0012 7.69825H14.9988C14.8394 7.19215 14.5041 6.75932 14.0533 6.47753C13.6025 6.19573 13.0657 6.08342 12.5393 6.16078L11.4942 3.95126C11.8949 3.62062 12.1676 3.16119 12.2654 2.65189ZM10.0683 1.11847C10.2895 1.11847 10.5058 1.18387 10.6897 1.30641C10.8737 1.42896 11.0171 1.60313 11.1017 1.80691C11.1864 2.01069 11.2085 2.23492 11.1654 2.45125C11.1222 2.66758 11.0157 2.8663 10.8593 3.02226C10.7028 3.17823 10.5035 3.28444 10.2865 3.32747C10.0696 3.3705 9.84465 3.34842 9.64026 3.26401C9.43587 3.1796 9.26117 3.03666 9.13826 2.85327C9.01536 2.66987 8.94975 2.45425 8.94975 2.23368C8.9501 1.93802 9.06807 1.65456 9.27776 1.44549C9.48745 1.23643 9.77176 1.11882 10.0683 1.11847ZM1.11984 10.0402C1.11984 9.81964 1.18545 9.60402 1.30836 9.42063C1.43126 9.23723 1.60596 9.09429 1.81035 9.00988C2.01474 8.92548 2.23964 8.90339 2.45662 8.94642C2.6736 8.98945 2.87291 9.09567 3.02934 9.25163C3.18578 9.4076 3.29231 9.60631 3.33547 9.82264C3.37863 10.039 3.35648 10.2632 3.27182 10.467C3.18716 10.6708 3.04379 10.8449 2.85984 10.9675C2.67589 11.09 2.45963 11.1554 2.2384 11.1554C1.94185 11.1551 1.65755 11.0375 1.44785 10.8284C1.23816 10.6193 1.1202 10.3359 1.11984 10.0402ZM2.2384 18.4043C2.01717 18.4043 1.80091 18.3389 1.61697 18.2164C1.43302 18.0939 1.28965 17.9197 1.20499 17.7159C1.12033 17.5121 1.09818 17.2879 1.14134 17.0716C1.1845 16.8552 1.29103 16.6565 1.44746 16.5005C1.6039 16.3446 1.8032 16.2384 2.02018 16.1953C2.23716 16.1523 2.46207 16.1744 2.66646 16.2588C2.87085 16.3432 3.04554 16.4861 3.16845 16.6695C3.29136 16.8529 3.35696 17.0686 3.35696 17.2891C3.35661 17.5848 3.23865 17.8683 3.02895 18.0773C2.81926 18.2864 2.53496 18.404 2.2384 18.4043ZM6.15336 22.3076C5.93213 22.3076 5.71587 22.2422 5.53192 22.1197C5.34797 21.9971 5.20461 21.8229 5.11994 21.6192C5.03528 21.4154 5.01313 21.1912 5.05629 20.9748C5.09945 20.7585 5.20598 20.5598 5.36242 20.4038C5.51885 20.2478 5.71816 20.1416 5.93514 20.0986C6.15212 20.0556 6.37702 20.0777 6.58141 20.1621C6.7858 20.2465 6.9605 20.3894 7.0834 20.5728C7.20631 20.7562 7.27192 20.9718 7.27192 21.1924C7.27156 21.4881 7.1536 21.7715 6.94391 21.9806C6.73421 22.1897 6.44991 22.3073 6.15336 22.3076ZM7.57756 19.4736L8.6518 17.2688C8.75056 17.2821 8.85009 17.2889 8.94975 17.2891C9.44039 17.2895 9.9174 17.1282 10.3066 16.8304L14.7236 20.3142C14.6736 20.4304 14.6337 20.5507 14.6043 20.6737L8.32203 20.6449C8.20474 20.1856 7.94402 19.7755 7.57756 19.4736ZM15.6611 21.1924C15.6611 20.9718 15.7267 20.7562 15.8496 20.5728C15.9725 20.3894 16.1472 20.2465 16.3516 20.1621C16.556 20.0777 16.7809 20.0556 16.9979 20.0986C17.2149 20.1416 17.4142 20.2478 17.5706 20.4038C17.727 20.5598 17.8336 20.7585 17.8767 20.9748C17.9199 21.1912 17.8977 21.4154 17.8131 21.6192C17.7284 21.8229 17.585 21.9971 17.4011 22.1197C17.2172 22.2422 17.0009 22.3076 16.7797 22.3076C16.4831 22.3073 16.1988 22.1897 15.9891 21.9806C15.7794 21.7715 15.6615 21.4881 15.6611 21.1924ZM20.6946 27.8837C20.4734 27.8837 20.2571 27.8183 20.0732 27.6958C19.8892 27.5732 19.7459 27.399 19.6612 27.1953C19.5765 26.9915 19.5544 26.7672 19.5975 26.5509C19.6407 26.3346 19.7472 26.1359 19.9037 25.9799C20.0601 25.8239 20.2594 25.7177 20.4764 25.6747C20.6934 25.6317 20.9183 25.6537 21.1227 25.7382C21.3271 25.8226 21.5018 25.9655 21.6247 26.1489C21.7476 26.3323 21.8132 26.5479 21.8132 26.7685C21.8128 27.0641 21.6949 27.3476 21.4852 27.5567C21.2755 27.7657 20.9912 27.8833 20.6946 27.8837ZM29.0838 27.8837C28.8626 27.8837 28.6463 27.8183 28.4624 27.6958C28.2784 27.5732 28.135 27.399 28.0504 27.1953C27.9657 26.9915 27.9436 26.7672 27.9867 26.5509C28.0299 26.3346 28.1364 26.1359 28.2929 25.9799C28.4493 25.8239 28.6486 25.7177 28.8656 25.6747C29.0826 25.6317 29.3075 25.6537 29.5119 25.7382C29.7162 25.8226 29.8909 25.9655 30.0138 26.1489C30.1368 26.3323 30.2024 26.5479 30.2024 26.7685C30.202 27.0641 30.084 27.3476 29.8744 27.5567C29.6647 27.7657 29.3804 27.8833 29.0838 27.8837ZM29.0838 24.538C28.5812 24.5387 28.0934 24.7079 27.6988 25.0184C27.3042 25.3289 27.0259 25.7626 26.9084 26.2499H22.8801L29.2222 22.8085C29.3638 22.9429 29.5222 23.0583 29.6937 23.1518L29.2376 24.5439C29.1866 24.5404 29.1355 24.538 29.0838 24.538ZM30.7616 22.3076C30.5404 22.3076 30.3241 22.2422 30.1402 22.1197C29.9563 21.9971 29.8129 21.8229 29.7282 21.6192C29.6436 21.4154 29.6214 21.1912 29.6646 20.9748C29.7077 20.7585 29.8143 20.5598 29.9707 20.4038C30.1271 20.2478 30.3264 20.1416 30.5434 20.0986C30.7604 20.0556 30.9853 20.0777 31.1897 20.1621C31.3941 20.2465 31.5688 20.3894 31.6917 20.5728C31.8146 20.7562 31.8802 20.9718 31.8802 21.1924C31.8798 21.4881 31.7619 21.7715 31.5522 21.9806C31.3425 22.1897 31.0582 22.3073 30.7616 22.3076Z" fill="#404447"/>
</svg>
