<svg width="120" height="65" viewBox="0 0 120 65" fill="none" xmlns="http://www.w3.org/2000/svg">
<g filter="url(#filter0_d_428_46624)">
<mask id="path-1-inside-1_428_46624" fill="white">
<path fill-rule="evenodd" clip-rule="evenodd" d="M10.5342 14.4004C6.1159 14.4004 2.53418 17.9821 2.53418 22.4004V38.4004C2.53418 42.8187 6.1159 46.4004 10.5342 46.4004L85.6378 46.4004L90.6343 46.4004L92.2565 46.4004C94.7761 46.4004 97.0849 44.9935 98.24 42.7542L104.323 30.9615C104.471 30.6755 104.472 30.3361 104.326 30.0494L98.2317 18.0787C97.0827 15.8217 94.7643 14.4004 92.2317 14.4004H90.6343H85.6377H10.5342Z"/>
</mask>
<path fill-rule="evenodd" clip-rule="evenodd" d="M10.5342 14.4004C6.1159 14.4004 2.53418 17.9821 2.53418 22.4004V38.4004C2.53418 42.8187 6.1159 46.4004 10.5342 46.4004L85.6378 46.4004L90.6343 46.4004L92.2565 46.4004C94.7761 46.4004 97.0849 44.9935 98.24 42.7542L104.323 30.9615C104.471 30.6755 104.472 30.3361 104.326 30.0494L98.2317 18.0787C97.0827 15.8217 94.7643 14.4004 92.2317 14.4004H90.6343H85.6377H10.5342Z" fill="white"/>
<path d="M10.5342 46.4004V48.0836V46.4004ZM85.6378 46.4004V44.7172V46.4004ZM90.6343 46.4004V48.0836L90.6343 48.0836L90.6343 46.4004ZM92.2565 46.4004V44.7172H92.2565L92.2565 46.4004ZM98.24 42.7542L96.7441 41.9826L98.24 42.7542ZM104.323 30.9615L105.819 31.7331V31.7331L104.323 30.9615ZM104.326 30.0494L102.826 30.813L104.326 30.0494ZM98.2317 18.0787L99.7317 17.3151V17.3151L98.2317 18.0787ZM4.21736 22.4004C4.21736 18.9117 7.0455 16.0836 10.5342 16.0836V12.7172C5.18631 12.7172 0.850996 17.0525 0.850996 22.4004H4.21736ZM4.21736 38.4004V22.4004H0.850996V38.4004H4.21736ZM10.5342 44.7172C7.0455 44.7172 4.21736 41.8891 4.21736 38.4004H0.850996C0.850996 43.7483 5.18631 48.0836 10.5342 48.0836V44.7172ZM85.6378 44.7172L10.5342 44.7172V48.0836H85.6378V44.7172ZM90.6343 44.7172L85.6378 44.7172V48.0836H90.6343V44.7172ZM92.2565 44.7172L90.6343 44.7172L90.6343 48.0836L92.2565 48.0836L92.2565 44.7172ZM96.7441 41.9826C95.8778 43.662 94.1462 44.7172 92.2565 44.7172V48.0836C95.406 48.0836 98.292 46.325 99.7359 43.5259L96.7441 41.9826ZM102.827 30.1898L96.7441 41.9826L99.7359 43.5259L105.819 31.7331L102.827 30.1898ZM102.826 30.813C102.726 30.6171 102.727 30.3852 102.827 30.1898L105.819 31.7331C106.215 30.9659 106.217 30.0551 105.826 29.2857L102.826 30.813ZM96.7317 18.8423L102.826 30.813L105.826 29.2857L99.7317 17.3151L96.7317 18.8423ZM92.2317 16.0836C94.1312 16.0836 95.8699 17.1495 96.7317 18.8423L99.7317 17.3151C98.2955 14.4938 95.3975 12.7172 92.2317 12.7172V16.0836ZM90.6343 16.0836H92.2317V12.7172H90.6343V16.0836ZM85.6377 16.0836H90.6343V12.7172H85.6377V16.0836ZM10.5342 16.0836H85.6377V12.7172H10.5342V16.0836Z" fill="url(#paint0_linear_428_46624)" fill-opacity="0.47" mask="url(#path-1-inside-1_428_46624)"/>
</g>
<path d="M19.0779 35.4727L22.3539 25.3927H24.4609L27.7369 35.4727H26.2179L23.2009 26.2747H23.5789L20.5969 35.4727H19.0779ZM20.7789 33.1977V31.8257H26.0429V33.1977H20.7789ZM32.9057 35.6827C32.1637 35.6827 31.4964 35.5637 30.9037 35.3257C30.3157 35.083 29.8164 34.7237 29.4057 34.2477C28.9997 33.7717 28.6987 33.1837 28.5027 32.4837L29.9377 32.1197C30.1384 32.7777 30.4907 33.3073 30.9947 33.7087C31.5034 34.1053 32.1124 34.299 32.8217 34.2897C33.3117 34.2803 33.7737 34.187 34.2077 34.0097C34.6417 33.8277 34.9987 33.5477 35.2787 33.1697C35.5167 32.8617 35.687 32.535 35.7897 32.1897C35.897 31.8443 35.967 31.4873 35.9997 31.1187H32.3877V29.7397H36.0067C35.9414 29.1097 35.7757 28.5567 35.5097 28.0807C35.2484 27.6047 34.8914 27.2337 34.4387 26.9677C33.9907 26.697 33.4517 26.5663 32.8217 26.5757C32.075 26.585 31.4474 26.795 30.9387 27.2057C30.43 27.6117 30.087 28.1623 29.9097 28.8577L28.4327 28.6477C28.6847 27.5463 29.2004 26.6947 29.9797 26.0927C30.7637 25.486 31.739 25.1827 32.9057 25.1827C33.8857 25.1827 34.7234 25.4043 35.4187 25.8477C36.114 26.2863 36.646 26.9 37.0147 27.6887C37.388 28.4727 37.5794 29.3873 37.5887 30.4327C37.598 31.4127 37.4184 32.2993 37.0497 33.0927C36.6857 33.886 36.1514 34.516 35.4467 34.9827C34.7467 35.4493 33.8997 35.6827 32.9057 35.6827ZM43.1938 35.6827C42.1858 35.6827 41.3272 35.4633 40.6178 35.0247C39.9085 34.5813 39.3648 33.9653 38.9868 33.1767C38.6135 32.388 38.4268 31.4733 38.4268 30.4327C38.4268 29.392 38.6135 28.4773 38.9868 27.6887C39.3648 26.9 39.9085 26.2863 40.6178 25.8477C41.3272 25.4043 42.1858 25.1827 43.1938 25.1827C44.3558 25.1827 45.3172 25.4767 46.0778 26.0647C46.8432 26.6527 47.3752 27.4437 47.6738 28.4377L46.1898 28.8367C45.9938 28.132 45.6438 27.579 45.1398 27.1777C44.6405 26.7763 43.9918 26.5757 43.1938 26.5757C42.4798 26.5757 41.8848 26.7367 41.4088 27.0587C40.9328 27.3807 40.5735 27.831 40.3308 28.4097C40.0928 28.9883 39.9738 29.6627 39.9738 30.4327C39.9692 31.2027 40.0858 31.877 40.3238 32.4557C40.5665 33.0343 40.9258 33.4847 41.4018 33.8067C41.8825 34.1287 42.4798 34.2897 43.1938 34.2897C43.9918 34.2897 44.6405 34.089 45.1398 33.6877C45.6438 33.2817 45.9938 32.7287 46.1898 32.0287L47.6738 32.4277C47.3752 33.4217 46.8432 34.2127 46.0778 34.8007C45.3172 35.3887 44.3558 35.6827 43.1938 35.6827ZM51.3161 35.4727L54.5921 25.3927H56.6991L59.9751 35.4727H58.4561L55.4391 26.2747H55.8171L52.8351 35.4727H51.3161ZM53.0171 33.1977V31.8257H58.2811V33.1977H53.0171ZM61.224 35.4727L61.231 27.9127H62.715V31.5527L65.683 27.9127H67.545L64.409 31.6927L67.867 35.4727H65.879L62.715 31.8327V35.4727H61.224ZM68.5658 35.4727L68.5728 27.9127H70.0568V31.5527L73.0248 27.9127H74.8868L71.7508 31.6927L75.2088 35.4727H73.2208L70.0568 31.8327V35.4727H68.5658ZM76.9366 38.8327L78.3996 34.8497L78.4206 36.0257L75.1236 27.9127H76.6496L79.1136 34.1777H78.6656L81.0176 27.9127H82.5016L78.3296 38.8327H76.9366ZM89.9822 35.6827C89.3568 35.6827 88.7992 35.552 88.3092 35.2907C87.8238 35.0293 87.4272 34.656 87.1192 34.1707C86.8112 33.6807 86.6152 33.0997 86.5312 32.4277H85.0542V35.4727H83.5912V27.9127H85.0542V30.9577H86.5242C86.6082 30.2717 86.8065 29.686 87.1192 29.2007C87.4318 28.7153 87.8332 28.3443 88.3232 28.0877C88.8178 27.831 89.3778 27.7027 90.0032 27.7027C90.7545 27.7027 91.4055 27.873 91.9562 28.2137C92.5068 28.5543 92.9338 29.0257 93.2372 29.6277C93.5405 30.225 93.6922 30.9087 93.6922 31.6787C93.6922 32.4673 93.5382 33.1627 93.2302 33.7647C92.9268 34.3667 92.4975 34.838 91.9422 35.1787C91.3868 35.5147 90.7335 35.6827 89.9822 35.6827ZM89.9612 34.3037C90.6938 34.3037 91.2398 34.061 91.5992 33.5757C91.9585 33.0903 92.1382 32.4603 92.1382 31.6857C92.1382 30.8877 91.9562 30.2553 91.5922 29.7887C91.2328 29.3173 90.6915 29.0817 89.9682 29.0817C89.2635 29.0817 88.7315 29.3173 88.3722 29.7887C88.0128 30.2553 87.8332 30.8853 87.8332 31.6787C87.8332 32.4767 88.0128 33.1137 88.3722 33.5897C88.7362 34.0657 89.2658 34.3037 89.9612 34.3037Z" fill="#505B67"/>
<defs>
<filter id="filter0_d_428_46624" x="-14.4658" y="0.400391" width="133.9" height="64" filterUnits="userSpaceOnUse" color-interpolation-filters="sRGB">
<feFlood flood-opacity="0" result="BackgroundImageFix"/>
<feColorMatrix in="SourceAlpha" type="matrix" values="0 0 0 0 0 0 0 0 0 0 0 0 0 0 0 0 0 0 127 0" result="hardAlpha"/>
<feOffset dx="-1" dy="2"/>
<feGaussianBlur stdDeviation="8"/>
<feColorMatrix type="matrix" values="0 0 0 0 0.0984375 0 0 0 0 0.269062 0 0 0 0 0.525 0 0 0 0.22 0"/>
<feBlend mode="normal" in2="BackgroundImageFix" result="effect1_dropShadow_428_46624"/>
<feBlend mode="normal" in="SourceGraphic" in2="effect1_dropShadow_428_46624" result="shape"/>
</filter>
<linearGradient id="paint0_linear_428_46624" x1="53.4843" y1="14.4004" x2="53.4843" y2="46.4004" gradientUnits="userSpaceOnUse">
<stop stop-color="#ABD1E9"/>
<stop offset="1" stop-color="#A8BBFF" stop-opacity="0.68"/>
</linearGradient>
</defs>
</svg>
