<svg width="678" height="371" viewBox="0 0 678 371" fill="none" xmlns="http://www.w3.org/2000/svg">
<rect x="0.166992" y="82.1074" width="88.5824" height="22.7134" rx="2" fill="url(#paint0_linear_240_14446)"/>
<rect x="129.633" y="118.449" width="88.5824" height="22.7134" rx="2" fill="url(#paint1_linear_240_14446)"/>
<rect x="477.148" y="0.338867" width="88.5824" height="22.7134" rx="2" fill="url(#paint2_linear_240_14446)"/>
<rect x="477.148" y="93.4639" width="88.5824" height="22.7134" rx="2" fill="url(#paint3_linear_240_14446)"/>
<rect x="477.148" y="186.589" width="88.5824" height="22.7134" rx="2" fill="url(#paint4_linear_240_14446)"/>
<rect x="588.445" y="186.589" width="88.5824" height="22.7134" rx="2" fill="url(#paint5_linear_240_14446)"/>
<rect x="588.445" y="348.286" width="88.5824" height="22.7134" rx="2" fill="url(#paint6_linear_240_14446)"/>
<rect x="318.155" y="322.869" width="88.5824" height="22.7134" rx="2" fill="url(#paint7_linear_240_14446)"/>
<rect x="261.371" y="48.0366" width="88.5824" height="22.7134" rx="2" fill="url(#paint8_linear_240_14446)"/>
<path d="M565.731 9.42432C582.195 9.42432 564.235 197.945 580.698 197.945" stroke="#0066FF"/>
<path d="M477.503 12.0489C477.698 11.8536 477.698 11.537 477.503 11.3418L474.321 8.15978C474.126 7.96452 473.809 7.96452 473.614 8.15978C473.419 8.35504 473.419 8.67162 473.614 8.86689L476.442 11.6953L473.614 14.5237C473.419 14.719 473.419 15.0356 473.614 15.2308C473.809 15.4261 474.126 15.4261 474.321 15.2308L477.503 12.0489ZM349.954 59.8935C378.607 59.8935 396.274 47.8845 413.833 35.958C431.385 24.0354 448.829 12.1953 477.149 12.1953V11.1953C448.497 11.1953 430.829 23.2043 413.271 35.1308C395.718 47.0534 378.274 58.8935 349.954 58.8935V59.8935Z" fill="#0066FF"/>
<path d="M129.987 130.159C130.182 129.964 130.182 129.647 129.987 129.452L126.805 126.27C126.61 126.075 126.293 126.075 126.098 126.27C125.902 126.465 125.902 126.782 126.098 126.977L128.926 129.805L126.098 132.634C125.902 132.829 125.902 133.146 126.098 133.341C126.293 133.536 126.61 133.536 126.805 133.341L129.987 130.159ZM88.749 93.9639C93.5882 93.9639 97.2741 96.146 100.416 99.4849C103.574 102.841 106.147 107.327 108.757 111.883C111.352 116.413 113.984 121.011 117.238 124.47C120.508 127.945 124.441 130.305 129.633 130.305V129.305C124.794 129.305 121.108 127.123 117.966 123.784C114.809 120.429 112.235 115.942 109.625 111.386C107.03 106.856 104.398 102.258 101.144 98.7996C97.8741 95.3244 93.9416 92.9639 88.749 92.9639V93.9639Z" fill="#0066FF"/>
<path d="M261.725 59.7476C261.92 59.5523 261.92 59.2358 261.725 59.0405L258.543 55.8585C258.348 55.6632 258.031 55.6632 257.836 55.8585C257.641 56.0538 257.641 56.3704 257.836 56.5656L260.664 59.394L257.836 62.2225C257.641 62.4177 257.641 62.7343 257.836 62.9296C258.031 63.1248 258.348 63.1248 258.543 62.9296L261.725 59.7476ZM218.216 130.306C224.479 130.306 228.793 125.668 232.114 119.027C235.441 112.373 237.867 103.518 240.276 94.7321C242.693 85.9152 245.094 77.1672 248.368 70.6195C251.649 64.0579 255.71 59.894 261.371 59.894V58.894C255.109 58.894 250.794 63.5317 247.474 70.1723C244.146 76.8267 241.72 85.6816 239.311 94.4676C236.894 103.285 234.493 112.033 231.219 118.58C227.938 125.142 223.878 129.306 218.216 129.306V130.306Z" fill="#0066FF"/>
<path d="M477.503 105.174C477.698 104.979 477.698 104.662 477.503 104.467L474.321 101.285C474.126 101.09 473.809 101.09 473.614 101.285C473.419 101.48 473.419 101.797 473.614 101.992L476.442 104.82L473.614 107.649C473.419 107.844 473.419 108.161 473.614 108.356C473.809 108.551 474.126 108.551 474.321 108.356L477.503 105.174ZM349.954 59.8936C378.187 59.8936 395.682 71.173 413.281 82.5271C430.888 93.8865 448.599 105.32 477.149 105.32V104.32C448.916 104.32 431.422 93.0409 413.823 81.6868C396.216 70.3275 378.504 58.8936 349.954 58.8936V59.8936Z" fill="#0066FF"/>
<path d="M477.503 198.299C477.698 198.104 477.698 197.787 477.503 197.592L474.321 194.41C474.126 194.215 473.809 194.215 473.614 194.41C473.419 194.605 473.419 194.922 473.614 195.117L476.442 197.945L473.614 200.774C473.419 200.969 473.419 201.286 473.614 201.481C473.809 201.676 474.126 201.676 474.321 201.481L477.503 198.299ZM349.954 59.8936C365.876 59.8936 377.729 68.4256 387.584 81.3455C397.45 94.2803 405.258 111.542 413.096 128.876C420.921 146.18 428.775 163.556 438.724 176.6C448.685 189.659 460.799 198.445 477.149 198.445V197.445C461.227 197.445 449.374 188.913 439.52 175.993C429.654 163.059 421.845 145.797 414.007 128.464C406.183 111.159 398.328 93.7827 388.379 80.7391C378.418 67.6805 366.304 58.8936 349.954 58.8936V59.8936Z" fill="#0066FF"/>
<path d="M565.731 104.82C577.081 104.82 569.348 197.945 580.698 197.945" stroke="#0066FF"/>
<path d="M588.798 198.299C588.994 198.104 588.994 197.788 588.798 197.592L585.616 194.41C585.421 194.215 585.105 194.215 584.909 194.41C584.714 194.606 584.714 194.922 584.909 195.117L587.738 197.946L584.909 200.774C584.714 200.969 584.714 201.286 584.909 201.481C585.105 201.677 585.421 201.677 585.616 201.481L588.798 198.299ZM565.731 198.446C565.75 198.446 565.768 198.446 565.787 198.446C565.805 198.446 565.824 198.446 565.842 198.446C565.86 198.446 565.879 198.446 565.897 198.446C565.916 198.446 565.934 198.446 565.952 198.446C565.971 198.446 565.989 198.446 566.007 198.446C566.025 198.446 566.044 198.446 566.062 198.446C566.08 198.446 566.098 198.446 566.116 198.446C566.135 198.446 566.153 198.446 566.171 198.446C566.189 198.446 566.207 198.446 566.225 198.446C566.243 198.446 566.261 198.446 566.28 198.446C566.298 198.446 566.316 198.446 566.334 198.446C566.352 198.446 566.37 198.446 566.388 198.446C566.406 198.446 566.424 198.446 566.442 198.446C566.459 198.446 566.477 198.446 566.495 198.446C566.513 198.446 566.531 198.446 566.549 198.446C566.567 198.446 566.585 198.446 566.602 198.446C566.62 198.446 566.638 198.446 566.656 198.446C566.674 198.446 566.691 198.446 566.709 198.446C566.727 198.446 566.744 198.446 566.762 198.446C566.78 198.446 566.798 198.446 566.815 198.446C566.833 198.446 566.85 198.446 566.868 198.446C566.886 198.446 566.903 198.446 566.921 198.446C566.938 198.446 566.956 198.446 566.974 198.446C566.991 198.446 567.009 198.446 567.026 198.446C567.044 198.446 567.061 198.446 567.078 198.446C567.096 198.446 567.113 198.446 567.131 198.446C567.148 198.446 567.166 198.446 567.183 198.446C567.2 198.446 567.218 198.446 567.235 198.446C567.252 198.446 567.27 198.446 567.287 198.446C567.304 198.446 567.322 198.446 567.339 198.446C567.356 198.446 567.373 198.446 567.391 198.446C567.408 198.446 567.425 198.446 567.442 198.446C567.459 198.446 567.477 198.446 567.494 198.446C567.511 198.446 567.528 198.446 567.545 198.446C567.562 198.446 567.579 198.446 567.596 198.446C567.613 198.446 567.63 198.446 567.647 198.446C567.665 198.446 567.682 198.446 567.699 198.446C567.716 198.446 567.732 198.446 567.749 198.446C567.766 198.446 567.783 198.446 567.8 198.446C567.817 198.446 567.834 198.446 567.851 198.446C567.868 198.446 567.885 198.446 567.902 198.446C567.918 198.446 567.935 198.446 567.952 198.446C567.969 198.446 567.986 198.446 568.002 198.446C568.019 198.446 568.036 198.446 568.053 198.446C568.07 198.446 568.086 198.446 568.103 198.446C568.12 198.446 568.136 198.446 568.153 198.446C568.17 198.446 568.186 198.446 568.203 198.446C568.22 198.446 568.236 198.446 568.253 198.446C568.269 198.446 568.286 198.446 568.303 198.446C568.319 198.446 568.336 198.446 568.352 198.446C568.369 198.446 568.385 198.446 568.402 198.446C568.418 198.446 568.435 198.446 568.451 198.446C568.468 198.446 568.484 198.446 568.5 198.446C568.517 198.446 568.533 198.446 568.55 198.446C568.566 198.446 568.582 198.446 568.599 198.446C568.615 198.446 568.632 198.446 568.648 198.446C568.664 198.446 568.68 198.446 568.697 198.446C568.713 198.446 568.729 198.446 568.746 198.446C568.762 198.446 568.778 198.446 568.794 198.446C568.811 198.446 568.827 198.446 568.843 198.446C568.859 198.446 568.875 198.446 568.891 198.446C568.908 198.446 568.924 198.446 568.94 198.446C568.956 198.446 568.972 198.446 568.988 198.446C569.004 198.446 569.02 198.446 569.036 198.446C569.052 198.446 569.069 198.446 569.085 198.446C569.101 198.446 569.117 198.446 569.133 198.446C569.149 198.446 569.165 198.446 569.181 198.446C569.196 198.446 569.212 198.446 569.228 198.446C569.244 198.446 569.26 198.446 569.276 198.446C569.292 198.446 569.308 198.446 569.324 198.446C569.34 198.446 569.355 198.446 569.371 198.446C569.387 198.446 569.403 198.446 569.419 198.446C569.435 198.446 569.45 198.446 569.466 198.446C569.482 198.446 569.498 198.446 569.513 198.446C569.529 198.446 569.545 198.446 569.561 198.446C569.576 198.446 569.592 198.446 569.608 198.446C569.623 198.446 569.639 198.446 569.655 198.446C569.67 198.446 569.686 198.446 569.702 198.446C569.717 198.446 569.733 198.446 569.748 198.446C569.764 198.446 569.78 198.446 569.795 198.446C569.811 198.446 569.826 198.446 569.842 198.446C569.857 198.446 569.873 198.446 569.888 198.446C569.904 198.446 569.919 198.446 569.935 198.446C569.95 198.446 569.966 198.446 569.981 198.446C569.997 198.446 570.012 198.446 570.027 198.446C570.043 198.446 570.058 198.446 570.074 198.446C570.089 198.446 570.104 198.446 570.12 198.446C570.135 198.446 570.15 198.446 570.166 198.446C570.181 198.446 570.196 198.446 570.212 198.446C570.227 198.446 570.242 198.446 570.258 198.446C570.273 198.446 570.288 198.446 570.303 198.446C570.319 198.446 570.334 198.446 570.349 198.446C570.364 198.446 570.379 198.446 570.395 198.446C570.41 198.446 570.425 198.446 570.44 198.446C570.455 198.446 570.47 198.446 570.486 198.446C570.501 198.446 570.516 198.446 570.531 198.446C570.546 198.446 570.561 198.446 570.576 198.446C570.591 198.446 570.606 198.446 570.621 198.446C570.636 198.446 570.651 198.446 570.666 198.446C570.681 198.446 570.696 198.446 570.711 198.446C570.726 198.446 570.741 198.446 570.756 198.446C570.771 198.446 570.786 198.446 570.801 198.446C570.816 198.446 570.831 198.446 570.846 198.446C570.861 198.446 570.876 198.446 570.891 198.446C570.906 198.446 570.921 198.446 570.935 198.446C570.95 198.446 570.965 198.446 570.98 198.446C570.995 198.446 571.01 198.446 571.025 198.446C571.039 198.446 571.054 198.446 571.069 198.446C571.084 198.446 571.099 198.446 571.113 198.446C571.128 198.446 571.143 198.446 571.158 198.446C571.172 198.446 571.187 198.446 571.202 198.446C571.216 198.446 571.231 198.446 571.246 198.446C571.261 198.446 571.275 198.446 571.29 198.446C571.305 198.446 571.319 198.446 571.334 198.446C571.349 198.446 571.363 198.446 571.378 198.446C571.392 198.446 571.407 198.446 571.422 198.446C571.436 198.446 571.451 198.446 571.465 198.446C571.48 198.446 571.495 198.446 571.509 198.446C571.524 198.446 571.538 198.446 571.553 198.446C571.567 198.446 571.582 198.446 571.596 198.446C571.611 198.446 571.625 198.446 571.64 198.446C571.654 198.446 571.669 198.446 571.683 198.446C571.698 198.446 571.712 198.446 571.726 198.446C571.741 198.446 571.755 198.446 571.77 198.446C571.784 198.446 571.799 198.446 571.813 198.446C571.827 198.446 571.842 198.446 571.856 198.446C571.87 198.446 571.885 198.446 571.899 198.446C571.913 198.446 571.928 198.446 571.942 198.446C571.956 198.446 571.971 198.446 571.985 198.446C571.999 198.446 572.014 198.446 572.028 198.446C572.042 198.446 572.057 198.446 572.071 198.446C572.085 198.446 572.099 198.446 572.114 198.446C572.128 198.446 572.142 198.446 572.156 198.446C572.17 198.446 572.185 198.446 572.199 198.446C572.213 198.446 572.227 198.446 572.241 198.446C572.256 198.446 572.27 198.446 572.284 198.446C572.298 198.446 572.312 198.446 572.326 198.446C572.34 198.446 572.355 198.446 572.369 198.446C572.383 198.446 572.397 198.446 572.411 198.446C572.425 198.446 572.439 198.446 572.453 198.446C572.467 198.446 572.481 198.446 572.496 198.446C572.51 198.446 572.524 198.446 572.538 198.446C572.552 198.446 572.566 198.446 572.58 198.446C572.594 198.446 572.608 198.446 572.622 198.446C572.636 198.446 572.65 198.446 572.664 198.446C572.678 198.446 572.692 198.446 572.706 198.446C572.72 198.446 572.734 198.446 572.748 198.446C572.761 198.446 572.775 198.446 572.789 198.446C572.803 198.446 572.817 198.446 572.831 198.446C572.845 198.446 572.859 198.446 572.873 198.446C572.887 198.446 572.901 198.446 572.914 198.446C572.928 198.446 572.942 198.446 572.956 198.446C572.97 198.446 572.984 198.446 572.998 198.446C573.011 198.446 573.025 198.446 573.039 198.446C573.053 198.446 573.067 198.446 573.08 198.446C573.094 198.446 573.108 198.446 573.122 198.446C573.136 198.446 573.149 198.446 573.163 198.446C573.177 198.446 573.191 198.446 573.204 198.446C573.218 198.446 573.232 198.446 573.246 198.446C573.259 198.446 573.273 198.446 573.287 198.446C573.301 198.446 573.314 198.446 573.328 198.446C573.342 198.446 573.355 198.446 573.369 198.446C573.383 198.446 573.396 198.446 573.41 198.446C573.424 198.446 573.437 198.446 573.451 198.446C573.465 198.446 573.478 198.446 573.492 198.446C573.506 198.446 573.519 198.446 573.533 198.446C573.547 198.446 573.56 198.446 573.574 198.446C573.587 198.446 573.601 198.446 573.615 198.446C573.628 198.446 573.642 198.446 573.655 198.446C573.669 198.446 573.683 198.446 573.696 198.446C573.71 198.446 573.723 198.446 573.737 198.446C573.75 198.446 573.764 198.446 573.777 198.446C573.791 198.446 573.804 198.446 573.818 198.446C573.831 198.446 573.845 198.446 573.859 198.446C573.872 198.446 573.886 198.446 573.899 198.446C573.913 198.446 573.926 198.446 573.939 198.446C573.953 198.446 573.966 198.446 573.98 198.446C573.993 198.446 574.007 198.446 574.02 198.446C574.034 198.446 574.047 198.446 574.061 198.446C574.074 198.446 574.088 198.446 574.101 198.446C574.114 198.446 574.128 198.446 574.141 198.446C574.155 198.446 574.168 198.446 574.181 198.446C574.195 198.446 574.208 198.446 574.222 198.446C574.235 198.446 574.248 198.446 574.262 198.446C574.275 198.446 574.289 198.446 574.302 198.446C574.315 198.446 574.329 198.446 574.342 198.446C574.355 198.446 574.369 198.446 574.382 198.446C574.395 198.446 574.409 198.446 574.422 198.446C574.435 198.446 574.449 198.446 574.462 198.446C574.475 198.446 574.489 198.446 574.502 198.446C574.515 198.446 574.529 198.446 574.542 198.446C574.555 198.446 574.568 198.446 574.582 198.446C574.595 198.446 574.608 198.446 574.622 198.446C574.635 198.446 574.648 198.446 574.661 198.446C574.675 198.446 574.688 198.446 574.701 198.446C574.714 198.446 574.728 198.446 574.741 198.446C574.754 198.446 574.767 198.446 574.781 198.446C574.794 198.446 574.807 198.446 574.82 198.446C574.833 198.446 574.847 198.446 574.86 198.446C574.873 198.446 574.886 198.446 574.9 198.446C574.913 198.446 574.926 198.446 574.939 198.446C574.952 198.446 574.966 198.446 574.979 198.446C574.992 198.446 575.005 198.446 575.018 198.446C575.031 198.446 575.045 198.446 575.058 198.446C575.071 198.446 575.084 198.446 575.097 198.446C575.11 198.446 575.124 198.446 575.137 198.446C575.15 198.446 575.163 198.446 575.176 198.446C575.189 198.446 575.202 198.446 575.216 198.446C575.229 198.446 575.242 198.446 575.255 198.446C575.268 198.446 575.281 198.446 575.294 198.446C575.307 198.446 575.321 198.446 575.334 198.446C575.347 198.446 575.36 198.446 575.373 198.446C575.386 198.446 575.399 198.446 575.412 198.446C575.425 198.446 575.438 198.446 575.452 198.446C575.465 198.446 575.478 198.446 575.491 198.446C575.504 198.446 575.517 198.446 575.53 198.446C575.543 198.446 575.556 198.446 575.569 198.446C575.582 198.446 575.595 198.446 575.608 198.446C575.622 198.446 575.635 198.446 575.648 198.446C575.661 198.446 575.674 198.446 575.687 198.446C575.7 198.446 575.713 198.446 575.726 198.446C575.739 198.446 575.752 198.446 575.765 198.446C575.778 198.446 575.791 198.446 575.804 198.446C575.817 198.446 575.83 198.446 575.843 198.446C575.856 198.446 575.869 198.446 575.882 198.446C575.895 198.446 575.908 198.446 575.921 198.446C575.934 198.446 575.947 198.446 575.96 198.446C575.973 198.446 575.986 198.446 575.999 198.446C576.012 198.446 576.025 198.446 576.038 198.446C576.051 198.446 576.064 198.446 576.077 198.446C576.09 198.446 576.103 198.446 576.116 198.446C576.129 198.446 576.142 198.446 576.155 198.446C576.168 198.446 576.181 198.446 576.194 198.446C576.207 198.446 576.22 198.446 576.233 198.446C576.246 198.446 576.259 198.446 576.272 198.446C576.285 198.446 576.298 198.446 576.311 198.446C576.324 198.446 576.337 198.446 576.35 198.446C576.363 198.446 576.376 198.446 576.389 198.446C576.402 198.446 576.415 198.446 576.428 198.446C576.441 198.446 576.454 198.446 576.467 198.446C576.48 198.446 576.493 198.446 576.506 198.446C576.519 198.446 576.532 198.446 576.544 198.446C576.557 198.446 576.57 198.446 576.583 198.446C576.596 198.446 576.609 198.446 576.622 198.446C576.635 198.446 576.648 198.446 576.661 198.446C576.674 198.446 576.687 198.446 576.7 198.446C576.713 198.446 576.726 198.446 576.739 198.446C576.752 198.446 576.765 198.446 576.778 198.446C576.791 198.446 576.803 198.446 576.816 198.446C576.829 198.446 576.842 198.446 576.855 198.446C576.868 198.446 576.881 198.446 576.894 198.446C576.907 198.446 576.92 198.446 576.933 198.446C576.946 198.446 576.959 198.446 576.972 198.446C576.985 198.446 576.998 198.446 577.011 198.446C577.023 198.446 577.036 198.446 577.049 198.446C577.062 198.446 577.075 198.446 577.088 198.446C577.101 198.446 577.114 198.446 577.127 198.446C577.14 198.446 577.153 198.446 577.166 198.446C577.179 198.446 577.192 198.446 577.205 198.446C577.218 198.446 577.23 198.446 577.243 198.446C577.256 198.446 577.269 198.446 577.282 198.446C577.295 198.446 577.308 198.446 577.321 198.446C577.334 198.446 577.347 198.446 577.36 198.446C577.373 198.446 577.386 198.446 577.399 198.446C577.412 198.446 577.425 198.446 577.438 198.446C577.451 198.446 577.463 198.446 577.476 198.446C577.489 198.446 577.502 198.446 577.515 198.446C577.528 198.446 577.541 198.446 577.554 198.446C577.567 198.446 577.58 198.446 577.593 198.446C577.606 198.446 577.619 198.446 577.632 198.446C577.645 198.446 577.658 198.446 577.671 198.446C577.684 198.446 577.697 198.446 577.71 198.446C577.723 198.446 577.735 198.446 577.748 198.446C577.761 198.446 577.774 198.446 577.787 198.446C577.8 198.446 577.813 198.446 577.826 198.446C577.839 198.446 577.852 198.446 577.865 198.446C577.878 198.446 577.891 198.446 577.904 198.446C577.917 198.446 577.93 198.446 577.943 198.446C577.956 198.446 577.969 198.446 577.982 198.446C577.995 198.446 578.008 198.446 578.021 198.446C578.034 198.446 578.047 198.446 578.06 198.446C578.073 198.446 578.086 198.446 578.099 198.446C578.112 198.446 578.125 198.446 578.138 198.446C578.151 198.446 578.164 198.446 578.177 198.446C578.19 198.446 578.203 198.446 578.216 198.446C578.229 198.446 578.242 198.446 578.255 198.446C578.268 198.446 578.281 198.446 578.294 198.446C578.307 198.446 578.32 198.446 578.333 198.446C578.346 198.446 578.359 198.446 578.372 198.446C578.385 198.446 578.398 198.446 578.411 198.446C578.424 198.446 578.437 198.446 578.45 198.446C578.463 198.446 578.476 198.446 578.49 198.446C578.503 198.446 578.516 198.446 578.529 198.446C578.542 198.446 578.555 198.446 578.568 198.446C578.581 198.446 578.594 198.446 578.607 198.446C578.62 198.446 578.633 198.446 578.646 198.446C578.659 198.446 578.672 198.446 578.685 198.446C578.699 198.446 578.712 198.446 578.725 198.446C578.738 198.446 578.751 198.446 578.764 198.446C578.777 198.446 578.79 198.446 578.803 198.446C578.816 198.446 578.83 198.446 578.843 198.446C578.856 198.446 578.869 198.446 578.882 198.446C578.895 198.446 578.908 198.446 578.921 198.446C578.934 198.446 578.948 198.446 578.961 198.446C578.974 198.446 578.987 198.446 579 198.446C579.013 198.446 579.026 198.446 579.04 198.446C579.053 198.446 579.066 198.446 579.079 198.446C579.092 198.446 579.105 198.446 579.119 198.446C579.132 198.446 579.145 198.446 579.158 198.446C579.171 198.446 579.184 198.446 579.198 198.446C579.211 198.446 579.224 198.446 579.237 198.446C579.25 198.446 579.264 198.446 579.277 198.446C579.29 198.446 579.303 198.446 579.316 198.446C579.33 198.446 579.343 198.446 579.356 198.446C579.369 198.446 579.383 198.446 579.396 198.446C579.409 198.446 579.422 198.446 579.435 198.446C579.449 198.446 579.462 198.446 579.475 198.446C579.488 198.446 579.502 198.446 579.515 198.446C579.528 198.446 579.542 198.446 579.555 198.446C579.568 198.446 579.581 198.446 579.595 198.446C579.608 198.446 579.621 198.446 579.634 198.446C579.648 198.446 579.661 198.446 579.674 198.446C579.688 198.446 579.701 198.446 579.714 198.446C579.728 198.446 579.741 198.446 579.754 198.446C579.768 198.446 579.781 198.446 579.794 198.446C579.808 198.446 579.821 198.446 579.834 198.446C579.848 198.446 579.861 198.446 579.874 198.446C579.888 198.446 579.901 198.446 579.915 198.446C579.928 198.446 579.941 198.446 579.955 198.446C579.968 198.446 579.981 198.446 579.995 198.446C580.008 198.446 580.022 198.446 580.035 198.446C580.049 198.446 580.062 198.446 580.075 198.446C580.089 198.446 580.102 198.446 580.116 198.446C580.129 198.446 580.143 198.446 580.156 198.446C580.169 198.446 580.183 198.446 580.196 198.446C580.21 198.446 580.223 198.446 580.237 198.446C580.25 198.446 580.264 198.446 580.277 198.446C580.291 198.446 580.304 198.446 580.318 198.446C580.331 198.446 580.345 198.446 580.358 198.446C580.372 198.446 580.385 198.446 580.399 198.446C580.412 198.446 580.426 198.446 580.44 198.446C580.453 198.446 580.467 198.446 580.48 198.446C580.494 198.446 580.507 198.446 580.521 198.446C580.535 198.446 580.548 198.446 580.562 198.446C580.575 198.446 580.589 198.446 580.603 198.446C580.616 198.446 580.63 198.446 580.643 198.446C580.657 198.446 580.671 198.446 580.684 198.446C580.698 198.446 580.712 198.446 580.725 198.446C580.739 198.446 580.753 198.446 580.766 198.446C580.78 198.446 580.794 198.446 580.807 198.446C580.821 198.446 580.835 198.446 580.848 198.446C580.862 198.446 580.876 198.446 580.889 198.446C580.903 198.446 580.917 198.446 580.931 198.446C580.944 198.446 580.958 198.446 580.972 198.446C580.986 198.446 580.999 198.446 581.013 198.446C581.027 198.446 581.041 198.446 581.054 198.446C581.068 198.446 581.082 198.446 581.096 198.446C581.11 198.446 581.123 198.446 581.137 198.446C581.151 198.446 581.165 198.446 581.179 198.446C581.193 198.446 581.206 198.446 581.22 198.446C581.234 198.446 581.248 198.446 581.262 198.446C581.276 198.446 581.29 198.446 581.304 198.446C581.317 198.446 581.331 198.446 581.345 198.446C581.359 198.446 581.373 198.446 581.387 198.446C581.401 198.446 581.415 198.446 581.429 198.446C581.443 198.446 581.457 198.446 581.471 198.446C581.485 198.446 581.499 198.446 581.513 198.446C581.527 198.446 581.541 198.446 581.555 198.446C581.569 198.446 581.583 198.446 581.597 198.446C581.611 198.446 581.625 198.446 581.639 198.446C581.653 198.446 581.667 198.446 581.681 198.446C581.695 198.446 581.709 198.446 581.723 198.446C581.737 198.446 581.751 198.446 581.765 198.446C581.779 198.446 581.793 198.446 581.808 198.446C581.822 198.446 581.836 198.446 581.85 198.446C581.864 198.446 581.878 198.446 581.892 198.446C581.907 198.446 581.921 198.446 581.935 198.446C581.949 198.446 581.963 198.446 581.977 198.446C581.992 198.446 582.006 198.446 582.02 198.446C582.034 198.446 582.049 198.446 582.063 198.446C582.077 198.446 582.091 198.446 582.106 198.446C582.12 198.446 582.134 198.446 582.148 198.446C582.163 198.446 582.177 198.446 582.191 198.446C582.206 198.446 582.22 198.446 582.234 198.446C582.248 198.446 582.263 198.446 582.277 198.446C582.292 198.446 582.306 198.446 582.32 198.446C582.335 198.446 582.349 198.446 582.363 198.446C582.378 198.446 582.392 198.446 582.407 198.446C582.421 198.446 582.435 198.446 582.45 198.446C582.464 198.446 582.479 198.446 582.493 198.446C582.508 198.446 582.522 198.446 582.537 198.446C582.551 198.446 582.566 198.446 582.58 198.446C582.595 198.446 582.609 198.446 582.624 198.446C582.638 198.446 582.653 198.446 582.667 198.446C582.682 198.446 582.696 198.446 582.711 198.446C582.726 198.446 582.74 198.446 582.755 198.446C582.769 198.446 582.784 198.446 582.799 198.446C582.813 198.446 582.828 198.446 582.842 198.446C582.857 198.446 582.872 198.446 582.886 198.446C582.901 198.446 582.916 198.446 582.93 198.446C582.945 198.446 582.96 198.446 582.975 198.446C582.989 198.446 583.004 198.446 583.019 198.446C583.033 198.446 583.048 198.446 583.063 198.446C583.078 198.446 583.093 198.446 583.107 198.446C583.122 198.446 583.137 198.446 583.152 198.446C583.167 198.446 583.181 198.446 583.196 198.446C583.211 198.446 583.226 198.446 583.241 198.446C583.256 198.446 583.271 198.446 583.285 198.446C583.3 198.446 583.315 198.446 583.33 198.446C583.345 198.446 583.36 198.446 583.375 198.446C583.39 198.446 583.405 198.446 583.42 198.446C583.435 198.446 583.45 198.446 583.465 198.446C583.48 198.446 583.495 198.446 583.51 198.446C583.525 198.446 583.54 198.446 583.555 198.446C583.57 198.446 583.585 198.446 583.6 198.446C583.615 198.446 583.63 198.446 583.645 198.446C583.661 198.446 583.676 198.446 583.691 198.446C583.706 198.446 583.721 198.446 583.736 198.446C583.751 198.446 583.767 198.446 583.782 198.446C583.797 198.446 583.812 198.446 583.827 198.446C583.843 198.446 583.858 198.446 583.873 198.446C583.888 198.446 583.904 198.446 583.919 198.446C583.934 198.446 583.949 198.446 583.965 198.446C583.98 198.446 583.995 198.446 584.011 198.446C584.026 198.446 584.041 198.446 584.057 198.446C584.072 198.446 584.087 198.446 584.103 198.446C584.118 198.446 584.134 198.446 584.149 198.446C584.164 198.446 584.18 198.446 584.195 198.446C584.211 198.446 584.226 198.446 584.242 198.446C584.257 198.446 584.273 198.446 584.288 198.446C584.304 198.446 584.319 198.446 584.335 198.446C584.35 198.446 584.366 198.446 584.381 198.446C584.397 198.446 584.412 198.446 584.428 198.446C584.444 198.446 584.459 198.446 584.475 198.446C584.49 198.446 584.506 198.446 584.522 198.446C584.537 198.446 584.553 198.446 584.569 198.446C584.584 198.446 584.6 198.446 584.616 198.446C584.631 198.446 584.647 198.446 584.663 198.446C584.679 198.446 584.694 198.446 584.71 198.446C584.726 198.446 584.742 198.446 584.758 198.446C584.773 198.446 584.789 198.446 584.805 198.446C584.821 198.446 584.837 198.446 584.853 198.446C584.868 198.446 584.884 198.446 584.9 198.446C584.916 198.446 584.932 198.446 584.948 198.446C584.964 198.446 584.98 198.446 584.996 198.446C585.012 198.446 585.028 198.446 585.044 198.446C585.06 198.446 585.076 198.446 585.092 198.446C585.108 198.446 585.124 198.446 585.14 198.446C585.156 198.446 585.172 198.446 585.188 198.446C585.204 198.446 585.22 198.446 585.236 198.446C585.253 198.446 585.269 198.446 585.285 198.446C585.301 198.446 585.317 198.446 585.333 198.446C585.35 198.446 585.366 198.446 585.382 198.446C585.398 198.446 585.414 198.446 585.431 198.446C585.447 198.446 585.463 198.446 585.48 198.446C585.496 198.446 585.512 198.446 585.528 198.446C585.545 198.446 585.561 198.446 585.577 198.446C585.594 198.446 585.61 198.446 585.627 198.446C585.643 198.446 585.659 198.446 585.676 198.446C585.692 198.446 585.709 198.446 585.725 198.446C585.742 198.446 585.758 198.446 585.775 198.446C585.791 198.446 585.808 198.446 585.824 198.446C585.841 198.446 585.857 198.446 585.874 198.446C585.89 198.446 585.907 198.446 585.924 198.446C585.94 198.446 585.957 198.446 585.973 198.446C585.99 198.446 586.007 198.446 586.023 198.446C586.04 198.446 586.057 198.446 586.073 198.446C586.09 198.446 586.107 198.446 586.124 198.446C586.14 198.446 586.157 198.446 586.174 198.446C586.191 198.446 586.207 198.446 586.224 198.446C586.241 198.446 586.258 198.446 586.275 198.446C586.292 198.446 586.308 198.446 586.325 198.446C586.342 198.446 586.359 198.446 586.376 198.446C586.393 198.446 586.41 198.446 586.427 198.446C586.444 198.446 586.461 198.446 586.478 198.446C586.495 198.446 586.512 198.446 586.529 198.446C586.546 198.446 586.563 198.446 586.58 198.446C586.597 198.446 586.614 198.446 586.631 198.446C586.648 198.446 586.666 198.446 586.683 198.446C586.7 198.446 586.717 198.446 586.734 198.446C586.751 198.446 586.769 198.446 586.786 198.446C586.803 198.446 586.82 198.446 586.837 198.446C586.855 198.446 586.872 198.446 586.889 198.446C586.907 198.446 586.924 198.446 586.941 198.446C586.959 198.446 586.976 198.446 586.993 198.446C587.011 198.446 587.028 198.446 587.046 198.446C587.063 198.446 587.08 198.446 587.098 198.446C587.115 198.446 587.133 198.446 587.15 198.446C587.168 198.446 587.185 198.446 587.203 198.446C587.22 198.446 587.238 198.446 587.255 198.446C587.273 198.446 587.291 198.446 587.308 198.446C587.326 198.446 587.343 198.446 587.361 198.446C587.379 198.446 587.396 198.446 587.414 198.446C587.432 198.446 587.45 198.446 587.467 198.446C587.485 198.446 587.503 198.446 587.521 198.446C587.538 198.446 587.556 198.446 587.574 198.446C587.592 198.446 587.61 198.446 587.627 198.446C587.645 198.446 587.663 198.446 587.681 198.446C587.699 198.446 587.717 198.446 587.735 198.446C587.753 198.446 587.771 198.446 587.789 198.446C587.807 198.446 587.825 198.446 587.843 198.446C587.861 198.446 587.879 198.446 587.897 198.446C587.915 198.446 587.933 198.446 587.951 198.446C587.969 198.446 587.987 198.446 588.005 198.446C588.024 198.446 588.042 198.446 588.06 198.446C588.078 198.446 588.096 198.446 588.114 198.446C588.133 198.446 588.151 198.446 588.169 198.446C588.187 198.446 588.206 198.446 588.224 198.446C588.242 198.446 588.261 198.446 588.279 198.446C588.297 198.446 588.316 198.446 588.334 198.446C588.353 198.446 588.371 198.446 588.389 198.446C588.408 198.446 588.426 198.446 588.445 198.446V197.446C588.426 197.446 588.408 197.446 588.389 197.446C588.371 197.446 588.353 197.446 588.334 197.446C588.316 197.446 588.297 197.446 588.279 197.446C588.261 197.446 588.242 197.446 588.224 197.446C588.206 197.446 588.187 197.446 588.169 197.446C588.151 197.446 588.133 197.446 588.114 197.446C588.096 197.446 588.078 197.446 588.06 197.446C588.042 197.446 588.024 197.446 588.005 197.446C587.987 197.446 587.969 197.446 587.951 197.446C587.933 197.446 587.915 197.446 587.897 197.446C587.879 197.446 587.861 197.446 587.843 197.446C587.825 197.446 587.807 197.446 587.789 197.446C587.771 197.446 587.753 197.446 587.735 197.446C587.717 197.446 587.699 197.446 587.681 197.446C587.663 197.446 587.645 197.446 587.627 197.446C587.61 197.446 587.592 197.446 587.574 197.446C587.556 197.446 587.538 197.446 587.521 197.446C587.503 197.446 587.485 197.446 587.467 197.446C587.45 197.446 587.432 197.446 587.414 197.446C587.396 197.446 587.379 197.446 587.361 197.446C587.343 197.446 587.326 197.446 587.308 197.446C587.291 197.446 587.273 197.446 587.255 197.446C587.238 197.446 587.22 197.446 587.203 197.446C587.185 197.446 587.168 197.446 587.15 197.446C587.133 197.446 587.115 197.446 587.098 197.446C587.08 197.446 587.063 197.446 587.046 197.446C587.028 197.446 587.011 197.446 586.993 197.446C586.976 197.446 586.959 197.446 586.941 197.446C586.924 197.446 586.907 197.446 586.889 197.446C586.872 197.446 586.855 197.446 586.837 197.446C586.82 197.446 586.803 197.446 586.786 197.446C586.769 197.446 586.751 197.446 586.734 197.446C586.717 197.446 586.7 197.446 586.683 197.446C586.666 197.446 586.648 197.446 586.631 197.446C586.614 197.446 586.597 197.446 586.58 197.446C586.563 197.446 586.546 197.446 586.529 197.446C586.512 197.446 586.495 197.446 586.478 197.446C586.461 197.446 586.444 197.446 586.427 197.446C586.41 197.446 586.393 197.446 586.376 197.446C586.359 197.446 586.342 197.446 586.325 197.446C586.308 197.446 586.292 197.446 586.275 197.446C586.258 197.446 586.241 197.446 586.224 197.446C586.207 197.446 586.191 197.446 586.174 197.446C586.157 197.446 586.14 197.446 586.124 197.446C586.107 197.446 586.09 197.446 586.073 197.446C586.057 197.446 586.04 197.446 586.023 197.446C586.007 197.446 585.99 197.446 585.973 197.446C585.957 197.446 585.94 197.446 585.924 197.446C585.907 197.446 585.89 197.446 585.874 197.446C585.857 197.446 585.841 197.446 585.824 197.446C585.808 197.446 585.791 197.446 585.775 197.446C585.758 197.446 585.742 197.446 585.725 197.446C585.709 197.446 585.692 197.446 585.676 197.446C585.659 197.446 585.643 197.446 585.627 197.446C585.61 197.446 585.594 197.446 585.577 197.446C585.561 197.446 585.545 197.446 585.528 197.446C585.512 197.446 585.496 197.446 585.48 197.446C585.463 197.446 585.447 197.446 585.431 197.446C585.414 197.446 585.398 197.446 585.382 197.446C585.366 197.446 585.35 197.446 585.333 197.446C585.317 197.446 585.301 197.446 585.285 197.446C585.269 197.446 585.253 197.446 585.236 197.446C585.22 197.446 585.204 197.446 585.188 197.446C585.172 197.446 585.156 197.446 585.14 197.446C585.124 197.446 585.108 197.446 585.092 197.446C585.076 197.446 585.06 197.446 585.044 197.446C585.028 197.446 585.012 197.446 584.996 197.446C584.98 197.446 584.964 197.446 584.948 197.446C584.932 197.446 584.916 197.446 584.9 197.446C584.884 197.446 584.868 197.446 584.853 197.446C584.837 197.446 584.821 197.446 584.805 197.446C584.789 197.446 584.773 197.446 584.758 197.446C584.742 197.446 584.726 197.446 584.71 197.446C584.694 197.446 584.679 197.446 584.663 197.446C584.647 197.446 584.631 197.446 584.616 197.446C584.6 197.446 584.584 197.446 584.569 197.446C584.553 197.446 584.537 197.446 584.522 197.446C584.506 197.446 584.49 197.446 584.475 197.446C584.459 197.446 584.444 197.446 584.428 197.446C584.412 197.446 584.397 197.446 584.381 197.446C584.366 197.446 584.35 197.446 584.335 197.446C584.319 197.446 584.304 197.446 584.288 197.446C584.273 197.446 584.257 197.446 584.242 197.446C584.226 197.446 584.211 197.446 584.195 197.446C584.18 197.446 584.164 197.446 584.149 197.446C584.134 197.446 584.118 197.446 584.103 197.446C584.087 197.446 584.072 197.446 584.057 197.446C584.041 197.446 584.026 197.446 584.011 197.446C583.995 197.446 583.98 197.446 583.965 197.446C583.949 197.446 583.934 197.446 583.919 197.446C583.904 197.446 583.888 197.446 583.873 197.446C583.858 197.446 583.843 197.446 583.827 197.446C583.812 197.446 583.797 197.446 583.782 197.446C583.767 197.446 583.751 197.446 583.736 197.446C583.721 197.446 583.706 197.446 583.691 197.446C583.676 197.446 583.661 197.446 583.645 197.446C583.63 197.446 583.615 197.446 583.6 197.446C583.585 197.446 583.57 197.446 583.555 197.446C583.54 197.446 583.525 197.446 583.51 197.446C583.495 197.446 583.48 197.446 583.465 197.446C583.45 197.446 583.435 197.446 583.42 197.446C583.405 197.446 583.39 197.446 583.375 197.446C583.36 197.446 583.345 197.446 583.33 197.446C583.315 197.446 583.3 197.446 583.285 197.446C583.271 197.446 583.256 197.446 583.241 197.446C583.226 197.446 583.211 197.446 583.196 197.446C583.181 197.446 583.167 197.446 583.152 197.446C583.137 197.446 583.122 197.446 583.107 197.446C583.093 197.446 583.078 197.446 583.063 197.446C583.048 197.446 583.033 197.446 583.019 197.446C583.004 197.446 582.989 197.446 582.975 197.446C582.96 197.446 582.945 197.446 582.93 197.446C582.916 197.446 582.901 197.446 582.886 197.446C582.872 197.446 582.857 197.446 582.842 197.446C582.828 197.446 582.813 197.446 582.799 197.446C582.784 197.446 582.769 197.446 582.755 197.446C582.74 197.446 582.726 197.446 582.711 197.446C582.696 197.446 582.682 197.446 582.667 197.446C582.653 197.446 582.638 197.446 582.624 197.446C582.609 197.446 582.595 197.446 582.58 197.446C582.566 197.446 582.551 197.446 582.537 197.446C582.522 197.446 582.508 197.446 582.493 197.446C582.479 197.446 582.464 197.446 582.45 197.446C582.435 197.446 582.421 197.446 582.407 197.446C582.392 197.446 582.378 197.446 582.363 197.446C582.349 197.446 582.335 197.446 582.32 197.446C582.306 197.446 582.292 197.446 582.277 197.446C582.263 197.446 582.248 197.446 582.234 197.446C582.22 197.446 582.206 197.446 582.191 197.446C582.177 197.446 582.163 197.446 582.148 197.446C582.134 197.446 582.12 197.446 582.106 197.446C582.091 197.446 582.077 197.446 582.063 197.446C582.049 197.446 582.034 197.446 582.02 197.446C582.006 197.446 581.992 197.446 581.977 197.446C581.963 197.446 581.949 197.446 581.935 197.446C581.921 197.446 581.907 197.446 581.892 197.446C581.878 197.446 581.864 197.446 581.85 197.446C581.836 197.446 581.822 197.446 581.808 197.446C581.793 197.446 581.779 197.446 581.765 197.446C581.751 197.446 581.737 197.446 581.723 197.446C581.709 197.446 581.695 197.446 581.681 197.446C581.667 197.446 581.653 197.446 581.639 197.446C581.625 197.446 581.611 197.446 581.597 197.446C581.583 197.446 581.569 197.446 581.555 197.446C581.541 197.446 581.527 197.446 581.513 197.446C581.499 197.446 581.485 197.446 581.471 197.446C581.457 197.446 581.443 197.446 581.429 197.446C581.415 197.446 581.401 197.446 581.387 197.446C581.373 197.446 581.359 197.446 581.345 197.446C581.331 197.446 581.317 197.446 581.304 197.446C581.29 197.446 581.276 197.446 581.262 197.446C581.248 197.446 581.234 197.446 581.22 197.446C581.206 197.446 581.193 197.446 581.179 197.446C581.165 197.446 581.151 197.446 581.137 197.446C581.123 197.446 581.11 197.446 581.096 197.446C581.082 197.446 581.068 197.446 581.054 197.446C581.041 197.446 581.027 197.446 581.013 197.446C580.999 197.446 580.986 197.446 580.972 197.446C580.958 197.446 580.944 197.446 580.931 197.446C580.917 197.446 580.903 197.446 580.889 197.446C580.876 197.446 580.862 197.446 580.848 197.446C580.835 197.446 580.821 197.446 580.807 197.446C580.794 197.446 580.78 197.446 580.766 197.446C580.753 197.446 580.739 197.446 580.725 197.446C580.712 197.446 580.698 197.446 580.684 197.446C580.671 197.446 580.657 197.446 580.643 197.446C580.63 197.446 580.616 197.446 580.603 197.446C580.589 197.446 580.575 197.446 580.562 197.446C580.548 197.446 580.535 197.446 580.521 197.446C580.507 197.446 580.494 197.446 580.48 197.446C580.467 197.446 580.453 197.446 580.44 197.446C580.426 197.446 580.412 197.446 580.399 197.446C580.385 197.446 580.372 197.446 580.358 197.446C580.345 197.446 580.331 197.446 580.318 197.446C580.304 197.446 580.291 197.446 580.277 197.446C580.264 197.446 580.25 197.446 580.237 197.446C580.223 197.446 580.21 197.446 580.196 197.446C580.183 197.446 580.169 197.446 580.156 197.446C580.143 197.446 580.129 197.446 580.116 197.446C580.102 197.446 580.089 197.446 580.075 197.446C580.062 197.446 580.049 197.446 580.035 197.446C580.022 197.446 580.008 197.446 579.995 197.446C579.981 197.446 579.968 197.446 579.955 197.446C579.941 197.446 579.928 197.446 579.915 197.446C579.901 197.446 579.888 197.446 579.874 197.446C579.861 197.446 579.848 197.446 579.834 197.446C579.821 197.446 579.808 197.446 579.794 197.446C579.781 197.446 579.768 197.446 579.754 197.446C579.741 197.446 579.728 197.446 579.714 197.446C579.701 197.446 579.688 197.446 579.674 197.446C579.661 197.446 579.648 197.446 579.634 197.446C579.621 197.446 579.608 197.446 579.595 197.446C579.581 197.446 579.568 197.446 579.555 197.446C579.542 197.446 579.528 197.446 579.515 197.446C579.502 197.446 579.488 197.446 579.475 197.446C579.462 197.446 579.449 197.446 579.435 197.446C579.422 197.446 579.409 197.446 579.396 197.446C579.383 197.446 579.369 197.446 579.356 197.446C579.343 197.446 579.33 197.446 579.316 197.446C579.303 197.446 579.29 197.446 579.277 197.446C579.264 197.446 579.25 197.446 579.237 197.446C579.224 197.446 579.211 197.446 579.198 197.446C579.184 197.446 579.171 197.446 579.158 197.446C579.145 197.446 579.132 197.446 579.119 197.446C579.105 197.446 579.092 197.446 579.079 197.446C579.066 197.446 579.053 197.446 579.04 197.446C579.026 197.446 579.013 197.446 579 197.446C578.987 197.446 578.974 197.446 578.961 197.446C578.948 197.446 578.934 197.446 578.921 197.446C578.908 197.446 578.895 197.446 578.882 197.446C578.869 197.446 578.856 197.446 578.843 197.446C578.83 197.446 578.816 197.446 578.803 197.446C578.79 197.446 578.777 197.446 578.764 197.446C578.751 197.446 578.738 197.446 578.725 197.446C578.712 197.446 578.699 197.446 578.685 197.446C578.672 197.446 578.659 197.446 578.646 197.446C578.633 197.446 578.62 197.446 578.607 197.446C578.594 197.446 578.581 197.446 578.568 197.446C578.555 197.446 578.542 197.446 578.529 197.446C578.516 197.446 578.503 197.446 578.49 197.446C578.476 197.446 578.463 197.446 578.45 197.446C578.437 197.446 578.424 197.446 578.411 197.446C578.398 197.446 578.385 197.446 578.372 197.446C578.359 197.446 578.346 197.446 578.333 197.446C578.32 197.446 578.307 197.446 578.294 197.446C578.281 197.446 578.268 197.446 578.255 197.446C578.242 197.446 578.229 197.446 578.216 197.446C578.203 197.446 578.19 197.446 578.177 197.446C578.164 197.446 578.151 197.446 578.138 197.446C578.125 197.446 578.112 197.446 578.099 197.446C578.086 197.446 578.073 197.446 578.06 197.446C578.047 197.446 578.034 197.446 578.021 197.446C578.008 197.446 577.995 197.446 577.982 197.446C577.969 197.446 577.956 197.446 577.943 197.446C577.93 197.446 577.917 197.446 577.904 197.446C577.891 197.446 577.878 197.446 577.865 197.446C577.852 197.446 577.839 197.446 577.826 197.446C577.813 197.446 577.8 197.446 577.787 197.446C577.774 197.446 577.761 197.446 577.748 197.446C577.735 197.446 577.723 197.446 577.71 197.446C577.697 197.446 577.684 197.446 577.671 197.446C577.658 197.446 577.645 197.446 577.632 197.446C577.619 197.446 577.606 197.446 577.593 197.446C577.58 197.446 577.567 197.446 577.554 197.446C577.541 197.446 577.528 197.446 577.515 197.446C577.502 197.446 577.489 197.446 577.476 197.446C577.463 197.446 577.451 197.446 577.438 197.446C577.425 197.446 577.412 197.446 577.399 197.446C577.386 197.446 577.373 197.446 577.36 197.446C577.347 197.446 577.334 197.446 577.321 197.446C577.308 197.446 577.295 197.446 577.282 197.446C577.269 197.446 577.256 197.446 577.243 197.446C577.23 197.446 577.218 197.446 577.205 197.446C577.192 197.446 577.179 197.446 577.166 197.446C577.153 197.446 577.14 197.446 577.127 197.446C577.114 197.446 577.101 197.446 577.088 197.446C577.075 197.446 577.062 197.446 577.049 197.446C577.036 197.446 577.023 197.446 577.011 197.446C576.998 197.446 576.985 197.446 576.972 197.446C576.959 197.446 576.946 197.446 576.933 197.446C576.92 197.446 576.907 197.446 576.894 197.446C576.881 197.446 576.868 197.446 576.855 197.446C576.842 197.446 576.829 197.446 576.816 197.446C576.803 197.446 576.791 197.446 576.778 197.446C576.765 197.446 576.752 197.446 576.739 197.446C576.726 197.446 576.713 197.446 576.7 197.446C576.687 197.446 576.674 197.446 576.661 197.446C576.648 197.446 576.635 197.446 576.622 197.446C576.609 197.446 576.596 197.446 576.583 197.446C576.57 197.446 576.557 197.446 576.544 197.446C576.532 197.446 576.519 197.446 576.506 197.446C576.493 197.446 576.48 197.446 576.467 197.446C576.454 197.446 576.441 197.446 576.428 197.446C576.415 197.446 576.402 197.446 576.389 197.446C576.376 197.446 576.363 197.446 576.35 197.446C576.337 197.446 576.324 197.446 576.311 197.446C576.298 197.446 576.285 197.446 576.272 197.446C576.259 197.446 576.246 197.446 576.233 197.446C576.22 197.446 576.207 197.446 576.194 197.446C576.181 197.446 576.168 197.446 576.155 197.446C576.142 197.446 576.129 197.446 576.116 197.446C576.103 197.446 576.09 197.446 576.077 197.446C576.064 197.446 576.051 197.446 576.038 197.446C576.025 197.446 576.012 197.446 575.999 197.446C575.986 197.446 575.973 197.446 575.96 197.446C575.947 197.446 575.934 197.446 575.921 197.446C575.908 197.446 575.895 197.446 575.882 197.446C575.869 197.446 575.856 197.446 575.843 197.446C575.83 197.446 575.817 197.446 575.804 197.446C575.791 197.446 575.778 197.446 575.765 197.446C575.752 197.446 575.739 197.446 575.726 197.446C575.713 197.446 575.7 197.446 575.687 197.446C575.674 197.446 575.661 197.446 575.648 197.446C575.635 197.446 575.622 197.446 575.608 197.446C575.595 197.446 575.582 197.446 575.569 197.446C575.556 197.446 575.543 197.446 575.53 197.446C575.517 197.446 575.504 197.446 575.491 197.446C575.478 197.446 575.465 197.446 575.452 197.446C575.438 197.446 575.425 197.446 575.412 197.446C575.399 197.446 575.386 197.446 575.373 197.446C575.36 197.446 575.347 197.446 575.334 197.446C575.321 197.446 575.307 197.446 575.294 197.446C575.281 197.446 575.268 197.446 575.255 197.446C575.242 197.446 575.229 197.446 575.216 197.446C575.202 197.446 575.189 197.446 575.176 197.446C575.163 197.446 575.15 197.446 575.137 197.446C575.124 197.446 575.11 197.446 575.097 197.446C575.084 197.446 575.071 197.446 575.058 197.446C575.045 197.446 575.031 197.446 575.018 197.446C575.005 197.446 574.992 197.446 574.979 197.446C574.966 197.446 574.952 197.446 574.939 197.446C574.926 197.446 574.913 197.446 574.9 197.446C574.886 197.446 574.873 197.446 574.86 197.446C574.847 197.446 574.833 197.446 574.82 197.446C574.807 197.446 574.794 197.446 574.781 197.446C574.767 197.446 574.754 197.446 574.741 197.446C574.728 197.446 574.714 197.446 574.701 197.446C574.688 197.446 574.675 197.446 574.661 197.446C574.648 197.446 574.635 197.446 574.622 197.446C574.608 197.446 574.595 197.446 574.582 197.446C574.568 197.446 574.555 197.446 574.542 197.446C574.529 197.446 574.515 197.446 574.502 197.446C574.489 197.446 574.475 197.446 574.462 197.446C574.449 197.446 574.435 197.446 574.422 197.446C574.409 197.446 574.395 197.446 574.382 197.446C574.369 197.446 574.355 197.446 574.342 197.446C574.329 197.446 574.315 197.446 574.302 197.446C574.289 197.446 574.275 197.446 574.262 197.446C574.248 197.446 574.235 197.446 574.222 197.446C574.208 197.446 574.195 197.446 574.181 197.446C574.168 197.446 574.155 197.446 574.141 197.446C574.128 197.446 574.114 197.446 574.101 197.446C574.088 197.446 574.074 197.446 574.061 197.446C574.047 197.446 574.034 197.446 574.02 197.446C574.007 197.446 573.993 197.446 573.98 197.446C573.966 197.446 573.953 197.446 573.939 197.446C573.926 197.446 573.913 197.446 573.899 197.446C573.886 197.446 573.872 197.446 573.859 197.446C573.845 197.446 573.831 197.446 573.818 197.446C573.804 197.446 573.791 197.446 573.777 197.446C573.764 197.446 573.75 197.446 573.737 197.446C573.723 197.446 573.71 197.446 573.696 197.446C573.683 197.446 573.669 197.446 573.655 197.446C573.642 197.446 573.628 197.446 573.615 197.446C573.601 197.446 573.587 197.446 573.574 197.446C573.56 197.446 573.547 197.446 573.533 197.446C573.519 197.446 573.506 197.446 573.492 197.446C573.478 197.446 573.465 197.446 573.451 197.446C573.437 197.446 573.424 197.446 573.41 197.446C573.396 197.446 573.383 197.446 573.369 197.446C573.355 197.446 573.342 197.446 573.328 197.446C573.314 197.446 573.301 197.446 573.287 197.446C573.273 197.446 573.259 197.446 573.246 197.446C573.232 197.446 573.218 197.446 573.204 197.446C573.191 197.446 573.177 197.446 573.163 197.446C573.149 197.446 573.136 197.446 573.122 197.446C573.108 197.446 573.094 197.446 573.08 197.446C573.067 197.446 573.053 197.446 573.039 197.446C573.025 197.446 573.011 197.446 572.998 197.446C572.984 197.446 572.97 197.446 572.956 197.446C572.942 197.446 572.928 197.446 572.914 197.446C572.901 197.446 572.887 197.446 572.873 197.446C572.859 197.446 572.845 197.446 572.831 197.446C572.817 197.446 572.803 197.446 572.789 197.446C572.775 197.446 572.761 197.446 572.748 197.446C572.734 197.446 572.72 197.446 572.706 197.446C572.692 197.446 572.678 197.446 572.664 197.446C572.65 197.446 572.636 197.446 572.622 197.446C572.608 197.446 572.594 197.446 572.58 197.446C572.566 197.446 572.552 197.446 572.538 197.446C572.524 197.446 572.51 197.446 572.496 197.446C572.481 197.446 572.467 197.446 572.453 197.446C572.439 197.446 572.425 197.446 572.411 197.446C572.397 197.446 572.383 197.446 572.369 197.446C572.355 197.446 572.34 197.446 572.326 197.446C572.312 197.446 572.298 197.446 572.284 197.446C572.27 197.446 572.256 197.446 572.241 197.446C572.227 197.446 572.213 197.446 572.199 197.446C572.185 197.446 572.17 197.446 572.156 197.446C572.142 197.446 572.128 197.446 572.114 197.446C572.099 197.446 572.085 197.446 572.071 197.446C572.057 197.446 572.042 197.446 572.028 197.446C572.014 197.446 571.999 197.446 571.985 197.446C571.971 197.446 571.956 197.446 571.942 197.446C571.928 197.446 571.913 197.446 571.899 197.446C571.885 197.446 571.87 197.446 571.856 197.446C571.842 197.446 571.827 197.446 571.813 197.446C571.799 197.446 571.784 197.446 571.77 197.446C571.755 197.446 571.741 197.446 571.726 197.446C571.712 197.446 571.698 197.446 571.683 197.446C571.669 197.446 571.654 197.446 571.64 197.446C571.625 197.446 571.611 197.446 571.596 197.446C571.582 197.446 571.567 197.446 571.553 197.446C571.538 197.446 571.524 197.446 571.509 197.446C571.495 197.446 571.48 197.446 571.465 197.446C571.451 197.446 571.436 197.446 571.422 197.446C571.407 197.446 571.392 197.446 571.378 197.446C571.363 197.446 571.349 197.446 571.334 197.446C571.319 197.446 571.305 197.446 571.29 197.446C571.275 197.446 571.261 197.446 571.246 197.446C571.231 197.446 571.216 197.446 571.202 197.446C571.187 197.446 571.172 197.446 571.158 197.446C571.143 197.446 571.128 197.446 571.113 197.446C571.099 197.446 571.084 197.446 571.069 197.446C571.054 197.446 571.039 197.446 571.025 197.446C571.01 197.446 570.995 197.446 570.98 197.446C570.965 197.446 570.95 197.446 570.935 197.446C570.921 197.446 570.906 197.446 570.891 197.446C570.876 197.446 570.861 197.446 570.846 197.446C570.831 197.446 570.816 197.446 570.801 197.446C570.786 197.446 570.771 197.446 570.756 197.446C570.741 197.446 570.726 197.446 570.711 197.446C570.696 197.446 570.681 197.446 570.666 197.446C570.651 197.446 570.636 197.446 570.621 197.446C570.606 197.446 570.591 197.446 570.576 197.446C570.561 197.446 570.546 197.446 570.531 197.446C570.516 197.446 570.501 197.446 570.486 197.446C570.47 197.446 570.455 197.446 570.44 197.446C570.425 197.446 570.41 197.446 570.395 197.446C570.379 197.446 570.364 197.446 570.349 197.446C570.334 197.446 570.319 197.446 570.303 197.446C570.288 197.446 570.273 197.446 570.258 197.446C570.242 197.446 570.227 197.446 570.212 197.446C570.196 197.446 570.181 197.446 570.166 197.446C570.15 197.446 570.135 197.446 570.12 197.446C570.104 197.446 570.089 197.446 570.074 197.446C570.058 197.446 570.043 197.446 570.027 197.446C570.012 197.446 569.997 197.446 569.981 197.446C569.966 197.446 569.95 197.446 569.935 197.446C569.919 197.446 569.904 197.446 569.888 197.446C569.873 197.446 569.857 197.446 569.842 197.446C569.826 197.446 569.811 197.446 569.795 197.446C569.78 197.446 569.764 197.446 569.748 197.446C569.733 197.446 569.717 197.446 569.702 197.446C569.686 197.446 569.67 197.446 569.655 197.446C569.639 197.446 569.623 197.446 569.608 197.446C569.592 197.446 569.576 197.446 569.561 197.446C569.545 197.446 569.529 197.446 569.513 197.446C569.498 197.446 569.482 197.446 569.466 197.446C569.45 197.446 569.435 197.446 569.419 197.446C569.403 197.446 569.387 197.446 569.371 197.446C569.355 197.446 569.34 197.446 569.324 197.446C569.308 197.446 569.292 197.446 569.276 197.446C569.26 197.446 569.244 197.446 569.228 197.446C569.212 197.446 569.196 197.446 569.181 197.446C569.165 197.446 569.149 197.446 569.133 197.446C569.117 197.446 569.101 197.446 569.085 197.446C569.069 197.446 569.052 197.446 569.036 197.446C569.02 197.446 569.004 197.446 568.988 197.446C568.972 197.446 568.956 197.446 568.94 197.446C568.924 197.446 568.908 197.446 568.891 197.446C568.875 197.446 568.859 197.446 568.843 197.446C568.827 197.446 568.811 197.446 568.794 197.446C568.778 197.446 568.762 197.446 568.746 197.446C568.729 197.446 568.713 197.446 568.697 197.446C568.68 197.446 568.664 197.446 568.648 197.446C568.632 197.446 568.615 197.446 568.599 197.446C568.582 197.446 568.566 197.446 568.55 197.446C568.533 197.446 568.517 197.446 568.5 197.446C568.484 197.446 568.468 197.446 568.451 197.446C568.435 197.446 568.418 197.446 568.402 197.446C568.385 197.446 568.369 197.446 568.352 197.446C568.336 197.446 568.319 197.446 568.303 197.446C568.286 197.446 568.269 197.446 568.253 197.446C568.236 197.446 568.22 197.446 568.203 197.446C568.186 197.446 568.17 197.446 568.153 197.446C568.136 197.446 568.12 197.446 568.103 197.446C568.086 197.446 568.07 197.446 568.053 197.446C568.036 197.446 568.019 197.446 568.002 197.446C567.986 197.446 567.969 197.446 567.952 197.446C567.935 197.446 567.918 197.446 567.902 197.446C567.885 197.446 567.868 197.446 567.851 197.446C567.834 197.446 567.817 197.446 567.8 197.446C567.783 197.446 567.766 197.446 567.749 197.446C567.732 197.446 567.716 197.446 567.699 197.446C567.682 197.446 567.665 197.446 567.647 197.446C567.63 197.446 567.613 197.446 567.596 197.446C567.579 197.446 567.562 197.446 567.545 197.446C567.528 197.446 567.511 197.446 567.494 197.446C567.477 197.446 567.459 197.446 567.442 197.446C567.425 197.446 567.408 197.446 567.391 197.446C567.373 197.446 567.356 197.446 567.339 197.446C567.322 197.446 567.304 197.446 567.287 197.446C567.27 197.446 567.252 197.446 567.235 197.446C567.218 197.446 567.2 197.446 567.183 197.446C567.166 197.446 567.148 197.446 567.131 197.446C567.113 197.446 567.096 197.446 567.078 197.446C567.061 197.446 567.044 197.446 567.026 197.446C567.009 197.446 566.991 197.446 566.974 197.446C566.956 197.446 566.938 197.446 566.921 197.446C566.903 197.446 566.886 197.446 566.868 197.446C566.85 197.446 566.833 197.446 566.815 197.446C566.798 197.446 566.78 197.446 566.762 197.446C566.744 197.446 566.727 197.446 566.709 197.446C566.691 197.446 566.674 197.446 566.656 197.446C566.638 197.446 566.62 197.446 566.602 197.446C566.585 197.446 566.567 197.446 566.549 197.446C566.531 197.446 566.513 197.446 566.495 197.446C566.477 197.446 566.459 197.446 566.442 197.446C566.424 197.446 566.406 197.446 566.388 197.446C566.37 197.446 566.352 197.446 566.334 197.446C566.316 197.446 566.298 197.446 566.28 197.446C566.261 197.446 566.243 197.446 566.225 197.446C566.207 197.446 566.189 197.446 566.171 197.446C566.153 197.446 566.135 197.446 566.116 197.446C566.098 197.446 566.08 197.446 566.062 197.446C566.044 197.446 566.025 197.446 566.007 197.446C565.989 197.446 565.971 197.446 565.952 197.446C565.934 197.446 565.916 197.446 565.897 197.446C565.879 197.446 565.86 197.446 565.842 197.446C565.824 197.446 565.805 197.446 565.787 197.446C565.768 197.446 565.75 197.446 565.731 197.446V198.446Z" fill="#0066FF"/>
<path d="M477.502 198.299C477.698 198.104 477.698 197.788 477.502 197.592L474.32 194.41C474.125 194.215 473.809 194.215 473.613 194.41C473.418 194.606 473.418 194.922 473.613 195.118L476.442 197.946L473.613 200.774C473.418 200.97 473.418 201.286 473.613 201.481C473.809 201.677 474.125 201.677 474.32 201.481L477.502 198.299ZM218.216 130.306C274.881 130.306 311.137 147.297 347.47 164.329C383.82 181.367 420.247 198.446 477.149 198.446V197.446C420.483 197.446 384.228 180.454 347.895 163.423C311.545 146.384 275.117 129.306 218.216 129.306V130.306Z" fill="#0066FF"/>
<path d="M406.385 333.873C406.189 334.068 406.189 334.385 406.385 334.58L409.567 337.762C409.762 337.957 410.079 337.957 410.274 337.762C410.469 337.567 410.469 337.25 410.274 337.055L407.445 334.226L410.274 331.398C410.469 331.203 410.469 330.886 410.274 330.691C410.079 330.496 409.762 330.496 409.567 330.691L406.385 333.873ZM406.738 334.726C417.252 334.726 424.312 325.914 429.647 313.125C434.998 300.298 438.721 283.213 442.433 266.193C446.15 249.143 449.856 232.158 455.164 219.432C460.488 206.669 467.316 198.446 477.15 198.446V197.446C466.637 197.446 459.576 206.258 454.241 219.047C448.891 231.874 445.167 248.959 441.456 265.98C437.738 283.03 434.032 300.015 428.724 312.74C423.4 325.504 416.572 333.726 406.738 333.726V334.726Z" fill="#0066FF"/>
<path d="M588.799 360.47C588.995 360.275 588.995 359.958 588.799 359.763L585.617 356.581C585.422 356.386 585.105 356.386 584.91 356.581C584.715 356.776 584.715 357.093 584.91 357.288L587.739 360.116L584.91 362.945C584.715 363.14 584.715 363.457 584.91 363.652C585.105 363.847 585.422 363.847 585.617 363.652L588.799 360.47ZM406.738 334.727C450.681 334.727 474.055 341.186 497.459 347.653C520.901 354.131 544.374 360.616 588.446 360.616V359.616C544.503 359.616 521.129 353.157 497.725 346.69C474.283 340.212 450.81 333.727 406.738 333.727V334.727Z" fill="#0066FF"/>
<defs>
<linearGradient id="paint0_linear_240_14446" x1="44.4582" y1="82.1074" x2="44.4582" y2="104.821" gradientUnits="userSpaceOnUse">
<stop offset="0.0985204" stop-color="#EBF3FA"/>
<stop offset="0.539209" stop-color="#DDE7F3"/>
<stop offset="1" stop-color="#E6F0F9"/>
</linearGradient>
<linearGradient id="paint1_linear_240_14446" x1="173.924" y1="118.449" x2="173.924" y2="141.162" gradientUnits="userSpaceOnUse">
<stop offset="0.0985204" stop-color="#EBF3FA"/>
<stop offset="0.539209" stop-color="#DDE7F3"/>
<stop offset="1" stop-color="#E6F0F9"/>
</linearGradient>
<linearGradient id="paint2_linear_240_14446" x1="521.44" y1="0.338867" x2="521.44" y2="23.0523" gradientUnits="userSpaceOnUse">
<stop offset="0.0985204" stop-color="white"/>
<stop offset="0.539209" stop-color="#D5EDE7"/>
<stop offset="1" stop-color="#F0F8FF"/>
</linearGradient>
<linearGradient id="paint3_linear_240_14446" x1="521.44" y1="93.4639" x2="521.44" y2="116.177" gradientUnits="userSpaceOnUse">
<stop offset="0.0985204" stop-color="white"/>
<stop offset="0.539209" stop-color="#D5EDE7"/>
<stop offset="1" stop-color="#F0F8FF"/>
</linearGradient>
<linearGradient id="paint4_linear_240_14446" x1="521.44" y1="186.589" x2="521.44" y2="209.302" gradientUnits="userSpaceOnUse">
<stop offset="0.0985204" stop-color="white"/>
<stop offset="0.539209" stop-color="#D5EDE7"/>
<stop offset="1" stop-color="#F0F8FF"/>
</linearGradient>
<linearGradient id="paint5_linear_240_14446" x1="632.736" y1="186.589" x2="632.736" y2="209.302" gradientUnits="userSpaceOnUse">
<stop offset="0.0985204" stop-color="white"/>
<stop offset="0.539209" stop-color="#CBF7EC"/>
<stop offset="1" stop-color="#F0F8FF"/>
</linearGradient>
<linearGradient id="paint6_linear_240_14446" x1="632.736" y1="348.286" x2="632.736" y2="371" gradientUnits="userSpaceOnUse">
<stop offset="0.0985204" stop-color="white"/>
<stop offset="0.539209" stop-color="#CBF7EC"/>
<stop offset="1" stop-color="#F0F8FF"/>
</linearGradient>
<linearGradient id="paint7_linear_240_14446" x1="362.446" y1="322.869" x2="362.446" y2="345.583" gradientUnits="userSpaceOnUse">
<stop offset="0.0985204" stop-color="#EBF3FA"/>
<stop offset="0.539209" stop-color="#DDE7F3"/>
<stop offset="1" stop-color="#E6F0F9"/>
</linearGradient>
<linearGradient id="paint8_linear_240_14446" x1="305.662" y1="48.0366" x2="305.662" y2="70.75" gradientUnits="userSpaceOnUse">
<stop offset="0.0985204" stop-color="white"/>
<stop offset="0.539209" stop-color="#CBF7EC"/>
<stop offset="1" stop-color="#F0F8FF"/>
</linearGradient>
</defs>
</svg>
