<svg width="172" height="65" viewBox="0 0 172 65" fill="none" xmlns="http://www.w3.org/2000/svg">
<g filter="url(#filter0_d_428_46649)">
<mask id="path-1-inside-1_428_46649" fill="white">
<path fill-rule="evenodd" clip-rule="evenodd" d="M148.031 14.4355C152.45 14.4355 156.031 18.0173 156.031 22.4355V38.4355C156.031 42.8538 152.45 46.4355 148.031 46.4355L36.576 46.4355L31.5796 46.4355L29.9574 46.4355C27.4377 46.4355 25.129 45.0287 23.9739 42.7894L17.8907 30.9966C17.7431 30.7107 17.7422 30.3712 17.8882 30.0845L23.9822 18.1138C25.1312 15.8568 27.4496 14.4355 29.9822 14.4355H31.5796H36.5762H148.031Z"/>
</mask>
<path fill-rule="evenodd" clip-rule="evenodd" d="M148.031 14.4355C152.45 14.4355 156.031 18.0173 156.031 22.4355V38.4355C156.031 42.8538 152.45 46.4355 148.031 46.4355L36.576 46.4355L31.5796 46.4355L29.9574 46.4355C27.4377 46.4355 25.129 45.0287 23.9739 42.7894L17.8907 30.9966C17.7431 30.7107 17.7422 30.3712 17.8882 30.0845L23.9822 18.1138C25.1312 15.8568 27.4496 14.4355 29.9822 14.4355H31.5796H36.5762H148.031Z" fill="white"/>
<path d="M148.031 46.4355V48.1187V46.4355ZM36.576 46.4355V44.7524V46.4355ZM31.5796 46.4355V48.1187L31.5796 48.1187L31.5796 46.4355ZM29.9574 46.4355V44.7524H29.9574L29.9574 46.4355ZM23.9739 42.7894L25.4697 42.0177L25.4698 42.0177L23.9739 42.7894ZM17.8907 30.9966L19.3865 30.225V30.225L17.8907 30.9966ZM17.8882 30.0845L19.3882 30.8481L17.8882 30.0845ZM23.9822 18.1138L22.4822 17.3502V17.3502L23.9822 18.1138ZM154.348 22.4355C154.348 18.9469 151.52 16.1187 148.031 16.1187V12.7524C153.379 12.7524 157.714 17.0877 157.714 22.4355H154.348ZM154.348 38.4355V22.4355H157.714V38.4355H154.348ZM148.031 44.7524C151.52 44.7524 154.348 41.9242 154.348 38.4355H157.714C157.714 43.7834 153.379 48.1187 148.031 48.1187V44.7524ZM36.576 44.7524L148.031 44.7524V48.1187H36.576V44.7524ZM31.5796 44.7524L36.576 44.7524V48.1187H31.5796V44.7524ZM29.9574 44.7524L31.5796 44.7524L31.5796 48.1187L29.9574 48.1187L29.9574 44.7524ZM25.4698 42.0177C26.3361 43.6972 28.0677 44.7524 29.9574 44.7524V48.1187C26.8078 48.1187 23.9219 46.3601 22.478 43.561L25.4698 42.0177ZM19.3865 30.225L25.4697 42.0177L22.478 43.561L16.3948 31.7683L19.3865 30.225ZM19.3882 30.8481C19.4879 30.6523 19.4873 30.4203 19.3865 30.225L16.3948 31.7683C15.999 31.001 15.9966 30.0902 16.3882 29.3209L19.3882 30.8481ZM25.4822 18.8774L19.3882 30.8481L16.3882 29.3209L22.4822 17.3502L25.4822 18.8774ZM29.9822 16.1187C28.0827 16.1187 26.3439 17.1847 25.4822 18.8774L22.4822 17.3502C23.9184 14.529 26.8164 12.7524 29.9822 12.7524V16.1187ZM31.5796 16.1187H29.9822V12.7524H31.5796V16.1187ZM36.5762 16.1187H31.5796V12.7524H36.5762V16.1187ZM148.031 16.1187H36.5762V12.7524H148.031V16.1187Z" fill="url(#paint0_linear_428_46649)" fill-opacity="0.47" mask="url(#path-1-inside-1_428_46649)"/>
</g>
<path d="M29.0827 35.5078L32.3587 25.4278H34.4657L37.7417 35.5078H36.2227L33.2057 26.3098H33.5837L30.6017 35.5078H29.0827ZM30.7837 33.2328V31.8608H36.0477V33.2328H30.7837ZM42.9106 35.7178C42.1686 35.7178 41.5012 35.5988 40.9086 35.3608C40.3206 35.1181 39.8212 34.7588 39.4106 34.2828C39.0046 33.8068 38.7036 33.2188 38.5076 32.5188L39.9426 32.1548C40.1432 32.8128 40.4956 33.3425 40.9996 33.7438C41.5082 34.1405 42.1172 34.3341 42.8266 34.3248C43.3166 34.3155 43.7786 34.2221 44.2126 34.0448C44.6466 33.8628 45.0036 33.5828 45.2836 33.2048C45.5216 32.8968 45.6919 32.5701 45.7946 32.2248C45.9019 31.8795 45.9719 31.5225 46.0046 31.1538H42.3926V29.7748H46.0116C45.9462 29.1448 45.7806 28.5918 45.5146 28.1158C45.2532 27.6398 44.8962 27.2688 44.4436 27.0028C43.9956 26.7321 43.4566 26.6015 42.8266 26.6108C42.0799 26.6201 41.4522 26.8301 40.9436 27.2408C40.4349 27.6468 40.0919 28.1975 39.9146 28.8928L38.4376 28.6828C38.6896 27.5815 39.2052 26.7298 39.9846 26.1278C40.7686 25.5211 41.7439 25.2178 42.9106 25.2178C43.8906 25.2178 44.7282 25.4395 45.4236 25.8828C46.1189 26.3215 46.6509 26.9351 47.0196 27.7238C47.3929 28.5078 47.5842 29.4225 47.5936 30.4678C47.6029 31.4478 47.4232 32.3345 47.0546 33.1278C46.6906 33.9211 46.1562 34.5511 45.4516 35.0178C44.7516 35.4845 43.9046 35.7178 42.9106 35.7178ZM53.1987 35.7178C52.1907 35.7178 51.3321 35.4985 50.6227 35.0598C49.9134 34.6165 49.3697 34.0005 48.9917 33.2118C48.6184 32.4231 48.4317 31.5085 48.4317 30.4678C48.4317 29.4271 48.6184 28.5125 48.9917 27.7238C49.3697 26.9351 49.9134 26.3215 50.6227 25.8828C51.3321 25.4395 52.1907 25.2178 53.1987 25.2178C54.3607 25.2178 55.3221 25.5118 56.0827 26.0998C56.8481 26.6878 57.3801 27.4788 57.6787 28.4728L56.1947 28.8718C55.9987 28.1671 55.6487 27.6141 55.1447 27.2128C54.6454 26.8115 53.9967 26.6108 53.1987 26.6108C52.4847 26.6108 51.8897 26.7718 51.4137 27.0938C50.9377 27.4158 50.5784 27.8661 50.3357 28.4448C50.0977 29.0235 49.9787 29.6978 49.9787 30.4678C49.9741 31.2378 50.0907 31.9121 50.3287 32.4908C50.5714 33.0695 50.9307 33.5198 51.4067 33.8418C51.8874 34.1638 52.4847 34.3248 53.1987 34.3248C53.9967 34.3248 54.6454 34.1241 55.1447 33.7228C55.6487 33.3168 55.9987 32.7638 56.1947 32.0638L57.6787 32.4628C57.3801 33.4568 56.8481 34.2478 56.0827 34.8358C55.3221 35.4238 54.3607 35.7178 53.1987 35.7178ZM62.021 35.5078V25.4278H68.594V26.8068H63.484V29.2358H66.095C66.1883 29.2358 66.3073 29.2405 66.452 29.2498C66.6013 29.2545 66.7413 29.2661 66.872 29.2848C67.418 29.3501 67.8777 29.5275 68.251 29.8168C68.629 30.1061 68.9137 30.4725 69.105 30.9158C69.301 31.3591 69.399 31.8445 69.399 32.3718C69.399 32.8991 69.3033 33.3845 69.112 33.8278C68.9207 34.2711 68.636 34.6375 68.258 34.9268C67.8847 35.2161 67.4227 35.3935 66.872 35.4588C66.7413 35.4775 66.6037 35.4915 66.459 35.5008C66.3143 35.5055 66.193 35.5078 66.095 35.5078H62.021ZM63.484 34.1288H66.039C66.1323 34.1288 66.235 34.1241 66.347 34.1148C66.4637 34.1055 66.5733 34.0915 66.676 34.0728C67.1287 33.9795 67.446 33.7648 67.628 33.4288C67.8147 33.0928 67.908 32.7405 67.908 32.3718C67.908 31.9985 67.8147 31.6461 67.628 31.3148C67.446 30.9788 67.1287 30.7641 66.676 30.6708C66.5733 30.6475 66.4637 30.6335 66.347 30.6288C66.235 30.6195 66.1323 30.6148 66.039 30.6148H63.484V34.1288ZM72.9334 35.7178C72.3734 35.7178 71.9044 35.6151 71.5264 35.4098C71.1484 35.1998 70.8614 34.9245 70.6654 34.5838C70.474 34.2385 70.3784 33.8605 70.3784 33.4498C70.3784 33.0671 70.446 32.7311 70.5814 32.4418C70.7167 32.1525 70.9174 31.9075 71.1834 31.7068C71.4494 31.5015 71.776 31.3358 72.1634 31.2098C72.4994 31.1118 72.8797 31.0255 73.3044 30.9508C73.729 30.8761 74.1747 30.8061 74.6414 30.7408C75.1127 30.6755 75.5794 30.6101 76.0414 30.5448L75.5094 30.8388C75.5187 30.2461 75.3927 29.8075 75.1314 29.5228C74.8747 29.2335 74.4314 29.0888 73.8014 29.0888C73.4047 29.0888 73.0407 29.1821 72.7094 29.3688C72.378 29.5508 72.147 29.8541 72.0164 30.2788L70.6514 29.8588C70.838 29.2101 71.1927 28.6945 71.7154 28.3118C72.2427 27.9291 72.9427 27.7378 73.8154 27.7378C74.492 27.7378 75.08 27.8545 75.5794 28.0878C76.0834 28.3165 76.452 28.6805 76.6854 29.1798C76.8067 29.4271 76.8814 29.6885 76.9094 29.9638C76.9374 30.2391 76.9514 30.5355 76.9514 30.8528V35.5078H75.6564V33.7788L75.9084 34.0028C75.5957 34.5815 75.1967 35.0131 74.7114 35.2978C74.2307 35.5778 73.638 35.7178 72.9334 35.7178ZM73.1924 34.5208C73.6077 34.5208 73.9647 34.4485 74.2634 34.3038C74.562 34.1545 74.8024 33.9655 74.9844 33.7368C75.1664 33.5081 75.2854 33.2701 75.3414 33.0228C75.4207 32.7988 75.465 32.5468 75.4744 32.2668C75.4884 31.9868 75.4954 31.7628 75.4954 31.5948L75.9714 31.7698C75.5094 31.8398 75.0894 31.9028 74.7114 31.9588C74.3334 32.0148 73.9904 32.0708 73.6824 32.1268C73.379 32.1781 73.1084 32.2411 72.8704 32.3158C72.6697 32.3858 72.49 32.4698 72.3314 32.5678C72.1774 32.6658 72.0537 32.7848 71.9604 32.9248C71.8717 33.0648 71.8274 33.2351 71.8274 33.4358C71.8274 33.6318 71.8764 33.8138 71.9744 33.9818C72.0724 34.1451 72.2217 34.2758 72.4224 34.3738C72.623 34.4718 72.8797 34.5208 73.1924 34.5208ZM78.0691 35.5078V34.2688C78.3491 34.3201 78.5614 34.3131 78.7061 34.2478C78.8554 34.1778 78.9651 34.0518 79.0351 33.8698C79.1097 33.6878 79.1727 33.4521 79.2241 33.1628C79.3034 32.7381 79.3711 32.2551 79.4271 31.7138C79.4877 31.1678 79.5414 30.5775 79.5881 29.9428C79.6347 29.3081 79.6767 28.6431 79.7141 27.9478H85.1461V35.5078H83.6761V29.3268H81.0301C81.0021 29.6955 80.9694 30.0875 80.9321 30.5028C80.8994 30.9135 80.8621 31.3218 80.8201 31.7278C80.7781 32.1338 80.7337 32.5141 80.6871 32.8688C80.6404 33.2235 80.5914 33.5268 80.5401 33.7788C80.4467 34.2828 80.3091 34.6841 80.1271 34.9828C79.9497 35.2768 79.6977 35.4658 79.3711 35.5498C79.0444 35.6385 78.6104 35.6245 78.0691 35.5078ZM89.2439 35.7178C88.6839 35.7178 88.2149 35.6151 87.8369 35.4098C87.4589 35.1998 87.1719 34.9245 86.9759 34.5838C86.7846 34.2385 86.6889 33.8605 86.6889 33.4498C86.6889 33.0671 86.7566 32.7311 86.8919 32.4418C87.0272 32.1525 87.2279 31.9075 87.4939 31.7068C87.7599 31.5015 88.0866 31.3358 88.4739 31.2098C88.8099 31.1118 89.1902 31.0255 89.6149 30.9508C90.0396 30.8761 90.4852 30.8061 90.9519 30.7408C91.4232 30.6755 91.8899 30.6101 92.3519 30.5448L91.8199 30.8388C91.8292 30.2461 91.7032 29.8075 91.4419 29.5228C91.1852 29.2335 90.7419 29.0888 90.1119 29.0888C89.7152 29.0888 89.3512 29.1821 89.0199 29.3688C88.6886 29.5508 88.4576 29.8541 88.3269 30.2788L86.9619 29.8588C87.1486 29.2101 87.5032 28.6945 88.0259 28.3118C88.5532 27.9291 89.2532 27.7378 90.1259 27.7378C90.8026 27.7378 91.3906 27.8545 91.8899 28.0878C92.3939 28.3165 92.7626 28.6805 92.9959 29.1798C93.1172 29.4271 93.1919 29.6885 93.2199 29.9638C93.2479 30.2391 93.2619 30.5355 93.2619 30.8528V35.5078H91.9669V33.7788L92.2189 34.0028C91.9062 34.5815 91.5072 35.0131 91.0219 35.2978C90.5412 35.5778 89.9486 35.7178 89.2439 35.7178ZM89.5029 34.5208C89.9182 34.5208 90.2752 34.4485 90.5739 34.3038C90.8726 34.1545 91.1129 33.9655 91.2949 33.7368C91.4769 33.5081 91.5959 33.2701 91.6519 33.0228C91.7312 32.7988 91.7756 32.5468 91.7849 32.2668C91.7989 31.9868 91.8059 31.7628 91.8059 31.5948L92.2819 31.7698C91.8199 31.8398 91.3999 31.9028 91.0219 31.9588C90.6439 32.0148 90.3009 32.0708 89.9929 32.1268C89.6896 32.1781 89.4189 32.2411 89.1809 32.3158C88.9802 32.3858 88.8006 32.4698 88.6419 32.5678C88.4879 32.6658 88.3642 32.7848 88.2709 32.9248C88.1822 33.0648 88.1379 33.2351 88.1379 33.4358C88.1379 33.6318 88.1869 33.8138 88.2849 33.9818C88.3829 34.1451 88.5322 34.2758 88.7329 34.3738C88.9336 34.4718 89.1902 34.5208 89.5029 34.5208ZM95.0726 35.5078L95.0796 27.9478H96.5636V31.5878L99.5316 27.9478H101.394L98.2576 31.7278L101.716 35.5078H99.7276L96.5636 31.8678V35.5078H95.0726ZM105.568 35.7178C104.812 35.7178 104.156 35.5475 103.601 35.2068C103.045 34.8661 102.616 34.3971 102.313 33.7998C102.014 33.1978 101.865 32.5048 101.865 31.7208C101.865 30.9321 102.019 30.2391 102.327 29.6418C102.635 29.0398 103.066 28.5731 103.622 28.2418C104.177 27.9058 104.826 27.7378 105.568 27.7378C106.324 27.7378 106.979 27.9081 107.535 28.2488C108.09 28.5895 108.519 29.0585 108.823 29.6558C109.126 30.2531 109.278 30.9415 109.278 31.7208C109.278 32.5095 109.124 33.2048 108.816 33.8068C108.512 34.4041 108.083 34.8731 107.528 35.2138C106.972 35.5498 106.319 35.7178 105.568 35.7178ZM105.568 34.3388C106.291 34.3388 106.83 34.0961 107.185 33.6108C107.544 33.1208 107.724 32.4908 107.724 31.7208C107.724 30.9321 107.542 30.3021 107.178 29.8308C106.818 29.3548 106.282 29.1168 105.568 29.1168C105.078 29.1168 104.674 29.2288 104.357 29.4528C104.039 29.6721 103.804 29.9778 103.65 30.3698C103.496 30.7571 103.419 31.2075 103.419 31.7208C103.419 32.5141 103.601 33.1488 103.965 33.6248C104.329 34.1008 104.863 34.3388 105.568 34.3388ZM110.809 35.5078V27.9478H114.134C114.353 27.9478 114.573 27.9618 114.792 27.9898C115.011 28.0131 115.205 28.0481 115.373 28.0948C115.756 28.2021 116.082 28.4168 116.353 28.7388C116.624 29.0561 116.759 29.4808 116.759 30.0128C116.759 30.3161 116.712 30.5728 116.619 30.7828C116.526 30.9881 116.397 31.1655 116.234 31.3148C116.159 31.3801 116.08 31.4385 115.996 31.4898C115.912 31.5411 115.828 31.5808 115.744 31.6088C115.917 31.6368 116.087 31.6975 116.255 31.7908C116.512 31.9261 116.722 32.1221 116.885 32.3788C117.053 32.6308 117.137 32.9691 117.137 33.3938C117.137 33.9025 117.013 34.3295 116.766 34.6748C116.519 35.0155 116.169 35.2488 115.716 35.3748C115.539 35.4261 115.338 35.4611 115.114 35.4798C114.895 35.4985 114.675 35.5078 114.456 35.5078H110.809ZM112.293 34.3528H114.365C114.463 34.3528 114.575 34.3435 114.701 34.3248C114.827 34.3061 114.939 34.2805 115.037 34.2478C115.247 34.1825 115.396 34.0635 115.485 33.8908C115.578 33.7181 115.625 33.5338 115.625 33.3378C115.625 33.0718 115.555 32.8595 115.415 32.7008C115.275 32.5375 115.098 32.4325 114.883 32.3858C114.79 32.3531 114.687 32.3345 114.575 32.3298C114.463 32.3251 114.367 32.3228 114.288 32.3228H112.293V34.3528ZM112.293 31.1468H113.931C114.066 31.1468 114.204 31.1398 114.344 31.1258C114.484 31.1071 114.605 31.0768 114.708 31.0348C114.89 30.9648 115.025 30.8481 115.114 30.6848C115.203 30.5168 115.247 30.3348 115.247 30.1388C115.247 29.9241 115.198 29.7328 115.1 29.5648C115.002 29.3968 114.855 29.2801 114.659 29.2148C114.524 29.1681 114.367 29.1425 114.19 29.1378C114.017 29.1285 113.908 29.1238 113.861 29.1238H112.293V31.1468ZM121.775 35.7178C121 35.7178 120.342 35.5451 119.801 35.1998C119.259 34.8545 118.844 34.3808 118.555 33.7788C118.27 33.1768 118.125 32.4931 118.121 31.7278C118.125 30.9485 118.275 30.2601 118.569 29.6628C118.863 29.0608 119.283 28.5895 119.829 28.2488C120.375 27.9081 121.03 27.7378 121.796 27.7378C122.622 27.7378 123.326 27.9431 123.91 28.3538C124.498 28.7645 124.885 29.3268 125.072 30.0408L123.616 30.4608C123.471 30.0361 123.233 29.7071 122.902 29.4738C122.575 29.2358 122.199 29.1168 121.775 29.1168C121.294 29.1168 120.9 29.2311 120.592 29.4598C120.284 29.6838 120.055 29.9918 119.906 30.3838C119.756 30.7758 119.679 31.2238 119.675 31.7278C119.679 32.5071 119.857 33.1371 120.207 33.6178C120.561 34.0985 121.084 34.3388 121.775 34.3388C122.246 34.3388 122.626 34.2315 122.916 34.0168C123.21 33.7975 123.434 33.4848 123.588 33.0788L125.072 33.4288C124.824 34.1661 124.416 34.7331 123.847 35.1298C123.277 35.5218 122.587 35.7178 121.775 35.7178ZM126.491 35.5078L126.498 27.9478H127.982V31.5878L130.95 27.9478H132.812L129.676 31.7278L133.134 35.5078H131.146L127.982 31.8678V35.5078H126.491ZM135.974 35.7178C135.414 35.7178 134.945 35.6151 134.567 35.4098C134.189 35.1998 133.902 34.9245 133.706 34.5838C133.515 34.2385 133.419 33.8605 133.419 33.4498C133.419 33.0671 133.487 32.7311 133.622 32.4418C133.758 32.1525 133.958 31.9075 134.224 31.7068C134.49 31.5015 134.817 31.3358 135.204 31.2098C135.54 31.1118 135.921 31.0255 136.345 30.9508C136.77 30.8761 137.216 30.8061 137.682 30.7408C138.154 30.6755 138.62 30.6101 139.082 30.5448L138.55 30.8388C138.56 30.2461 138.434 29.8075 138.172 29.5228C137.916 29.2335 137.472 29.0888 136.842 29.0888C136.446 29.0888 136.082 29.1821 135.75 29.3688C135.419 29.5508 135.188 29.8541 135.057 30.2788L133.692 29.8588C133.879 29.2101 134.234 28.6945 134.756 28.3118C135.284 27.9291 135.984 27.7378 136.856 27.7378C137.533 27.7378 138.121 27.8545 138.62 28.0878C139.124 28.3165 139.493 28.6805 139.726 29.1798C139.848 29.4271 139.922 29.6885 139.95 29.9638C139.978 30.2391 139.992 30.5355 139.992 30.8528V35.5078H138.697V33.7788L138.949 34.0028C138.637 34.5815 138.238 35.0131 137.752 35.2978C137.272 35.5778 136.679 35.7178 135.974 35.7178ZM136.233 34.5208C136.649 34.5208 137.006 34.4485 137.304 34.3038C137.603 34.1545 137.843 33.9655 138.025 33.7368C138.207 33.5081 138.326 33.2701 138.382 33.0228C138.462 32.7988 138.506 32.5468 138.515 32.2668C138.529 31.9868 138.536 31.7628 138.536 31.5948L139.012 31.7698C138.55 31.8398 138.13 31.9028 137.752 31.9588C137.374 32.0148 137.031 32.0708 136.723 32.1268C136.42 32.1781 136.149 32.2411 135.911 32.3158C135.711 32.3858 135.531 32.4698 135.372 32.5678C135.218 32.6658 135.095 32.7848 135.001 32.9248C134.913 33.0648 134.868 33.2351 134.868 33.4358C134.868 33.6318 134.917 33.8138 135.015 33.9818C135.113 34.1451 135.263 34.2758 135.463 34.3738C135.664 34.4718 135.921 34.5208 136.233 34.5208ZM146.409 35.5078V32.8828H144.911C144.734 32.8828 144.521 32.8758 144.274 32.8618C144.031 32.8478 143.803 32.8221 143.588 32.7848C143.023 32.6821 142.552 32.4371 142.174 32.0498C141.796 31.6578 141.607 31.1188 141.607 30.4328C141.607 29.7701 141.784 29.2381 142.139 28.8368C142.498 28.4308 142.953 28.1695 143.504 28.0528C143.742 27.9968 143.985 27.9665 144.232 27.9618C144.484 27.9525 144.696 27.9478 144.869 27.9478H147.872L147.879 35.5078H146.409ZM141.39 35.5078L143.301 32.5188H144.848L142.951 35.5078H141.39ZM144.785 31.7068H146.409V29.1238H144.785C144.682 29.1238 144.556 29.1285 144.407 29.1378C144.258 29.1471 144.113 29.1728 143.973 29.2148C143.828 29.2568 143.688 29.3315 143.553 29.4388C143.422 29.5461 143.315 29.6838 143.231 29.8518C143.147 30.0151 143.105 30.2041 143.105 30.4188C143.105 30.7408 143.196 31.0068 143.378 31.2168C143.56 31.4221 143.777 31.5575 144.029 31.6228C144.164 31.6601 144.3 31.6835 144.435 31.6928C144.57 31.7021 144.687 31.7068 144.785 31.7068Z" fill="#505B67"/>
<defs>
<filter id="filter0_d_428_46649" x="0.779297" y="0.435547" width="170.252" height="64" filterUnits="userSpaceOnUse" color-interpolation-filters="sRGB">
<feFlood flood-opacity="0" result="BackgroundImageFix"/>
<feColorMatrix in="SourceAlpha" type="matrix" values="0 0 0 0 0 0 0 0 0 0 0 0 0 0 0 0 0 0 127 0" result="hardAlpha"/>
<feOffset dx="-1" dy="2"/>
<feGaussianBlur stdDeviation="8"/>
<feColorMatrix type="matrix" values="0 0 0 0 0.0984375 0 0 0 0 0.269062 0 0 0 0 0.525 0 0 0 0.22 0"/>
<feBlend mode="normal" in2="BackgroundImageFix" result="effect1_dropShadow_428_46649"/>
<feBlend mode="normal" in="SourceGraphic" in2="effect1_dropShadow_428_46649" result="shape"/>
</filter>
<linearGradient id="paint0_linear_428_46649" x1="86.9053" y1="14.4355" x2="86.9053" y2="46.4355" gradientUnits="userSpaceOnUse">
<stop stop-color="#ABD1E9"/>
<stop offset="1" stop-color="#A8BBFF" stop-opacity="0.68"/>
</linearGradient>
</defs>
</svg>
