<svg width="153" height="65" viewBox="0 0 153 65" fill="none" xmlns="http://www.w3.org/2000/svg">
<g filter="url(#filter0_d_428_46634)">
<mask id="path-1-inside-1_428_46634" fill="white">
<path fill-rule="evenodd" clip-rule="evenodd" d="M25.5898 14.4033C21.1716 14.4033 17.5898 17.985 17.5898 22.4033V38.4033C17.5898 42.8216 21.1716 46.4033 25.5898 46.4033L118.358 46.4033L123.354 46.4033L124.976 46.4033C127.496 46.4033 129.805 44.9964 130.96 42.7571L137.043 30.9644C137.19 30.6785 137.191 30.339 137.045 30.0523L130.951 18.0816C129.802 15.8246 127.484 14.4033 124.951 14.4033H123.354H118.357H25.5898Z"/>
</mask>
<path fill-rule="evenodd" clip-rule="evenodd" d="M25.5898 14.4033C21.1716 14.4033 17.5898 17.985 17.5898 22.4033V38.4033C17.5898 42.8216 21.1716 46.4033 25.5898 46.4033L118.358 46.4033L123.354 46.4033L124.976 46.4033C127.496 46.4033 129.805 44.9964 130.96 42.7571L137.043 30.9644C137.19 30.6785 137.191 30.339 137.045 30.0523L130.951 18.0816C129.802 15.8246 127.484 14.4033 124.951 14.4033H123.354H118.357H25.5898Z" fill="white"/>
<path d="M25.5898 46.4033V48.0865V46.4033ZM118.358 46.4033V44.7201V46.4033ZM123.354 46.4033V48.0865L123.354 48.0865L123.354 46.4033ZM124.976 46.4033V44.7201H124.976L124.976 46.4033ZM130.96 42.7571L129.464 41.9855L130.96 42.7571ZM137.043 30.9644L138.539 31.736V31.736L137.043 30.9644ZM137.045 30.0523L135.545 30.8159L137.045 30.0523ZM130.951 18.0816L132.451 17.318V17.318L130.951 18.0816ZM19.273 22.4033C19.273 18.9146 22.1012 16.0865 25.5898 16.0865V12.7201C20.242 12.7201 15.9067 17.0554 15.9067 22.4033H19.273ZM19.273 38.4033V22.4033H15.9067V38.4033H19.273ZM25.5898 44.7201C22.1012 44.7201 19.273 41.892 19.273 38.4033H15.9067C15.9067 43.7512 20.242 48.0865 25.5898 48.0865V44.7201ZM118.358 44.7201L25.5898 44.7201V48.0865H118.358V44.7201ZM123.354 44.7201L118.358 44.7201V48.0865H123.354V44.7201ZM124.976 44.7201L123.354 44.7201L123.354 48.0865L124.976 48.0865L124.976 44.7201ZM129.464 41.9855C128.598 43.665 126.866 44.7201 124.976 44.7201V48.0865C128.126 48.0865 131.012 46.3279 132.456 43.5288L129.464 41.9855ZM135.547 30.1928L129.464 41.9855L132.456 43.5288L138.539 31.736L135.547 30.1928ZM135.545 30.8159C135.446 30.62 135.446 30.3881 135.547 30.1928L138.539 31.736C138.935 30.9688 138.937 30.058 138.545 29.2887L135.545 30.8159ZM129.451 18.8452L135.545 30.8159L138.545 29.2887L132.451 17.318L129.451 18.8452ZM124.951 16.0865C126.851 16.0865 128.59 17.1525 129.451 18.8452L132.451 17.318C131.015 14.4967 128.117 12.7201 124.951 12.7201V16.0865ZM123.354 16.0865H124.951V12.7201H123.354V16.0865ZM118.357 16.0865H123.354V12.7201H118.357V16.0865ZM25.5898 16.0865H118.357V12.7201H25.5898V16.0865Z" fill="url(#paint0_linear_428_46634)" fill-opacity="0.47" mask="url(#path-1-inside-1_428_46634)"/>
</g>
<path d="M30.155 35.4756L33.431 25.3956H35.538L38.814 35.4756H37.295L34.278 26.2776H34.656L31.674 35.4756H30.155ZM31.856 33.2006V31.8286H37.12V33.2006H31.856ZM43.9828 35.6856C43.2408 35.6856 42.5735 35.5666 41.9808 35.3286C41.3928 35.0859 40.8935 34.7266 40.4828 34.2506C40.0768 33.7746 39.7758 33.1866 39.5798 32.4866L41.0148 32.1226C41.2155 32.7806 41.5678 33.3103 42.0718 33.7116C42.5805 34.1083 43.1895 34.3019 43.8988 34.2926C44.3888 34.2833 44.8508 34.1899 45.2848 34.0126C45.7188 33.8306 46.0758 33.5506 46.3558 33.1726C46.5938 32.8646 46.7642 32.5379 46.8668 32.1926C46.9742 31.8473 47.0442 31.4903 47.0768 31.1216H43.4648V29.7426H47.0838C47.0185 29.1126 46.8528 28.5596 46.5868 28.0836C46.3255 27.6076 45.9685 27.2366 45.5158 26.9706C45.0678 26.6999 44.5288 26.5693 43.8988 26.5786C43.1522 26.5879 42.5245 26.7979 42.0158 27.2086C41.5072 27.6146 41.1642 28.1653 40.9868 28.8606L39.5098 28.6506C39.7618 27.5493 40.2775 26.6976 41.0568 26.0956C41.8408 25.4889 42.8162 25.1856 43.9828 25.1856C44.9628 25.1856 45.8005 25.4073 46.4958 25.8506C47.1912 26.2893 47.7232 26.9029 48.0918 27.6916C48.4652 28.4756 48.6565 29.3903 48.6658 30.4356C48.6752 31.4156 48.4955 32.3023 48.1268 33.0956C47.7628 33.8889 47.2285 34.5189 46.5238 34.9856C45.8238 35.4523 44.9768 35.6856 43.9828 35.6856ZM54.271 35.6856C53.263 35.6856 52.4043 35.4663 51.695 35.0276C50.9857 34.5843 50.442 33.9683 50.064 33.1796C49.6907 32.3909 49.504 31.4763 49.504 30.4356C49.504 29.3949 49.6907 28.4803 50.064 27.6916C50.442 26.9029 50.9857 26.2893 51.695 25.8506C52.4043 25.4073 53.263 25.1856 54.271 25.1856C55.433 25.1856 56.3943 25.4796 57.155 26.0676C57.9203 26.6556 58.4523 27.4466 58.751 28.4406L57.267 28.8396C57.071 28.1349 56.721 27.5819 56.217 27.1806C55.7177 26.7793 55.069 26.5786 54.271 26.5786C53.557 26.5786 52.962 26.7396 52.486 27.0616C52.01 27.3836 51.6507 27.8339 51.408 28.4126C51.17 28.9913 51.051 29.6656 51.051 30.4356C51.0463 31.2056 51.163 31.8799 51.401 32.4586C51.6437 33.0373 52.003 33.4876 52.479 33.8096C52.9597 34.1316 53.557 34.2926 54.271 34.2926C55.069 34.2926 55.7177 34.0919 56.217 33.6906C56.721 33.2846 57.071 32.7316 57.267 32.0316L58.751 32.4306C58.4523 33.4246 57.9203 34.2156 57.155 34.8036C56.3943 35.3916 55.433 35.6856 54.271 35.6856ZM63.0933 35.4756V25.3956H69.6663V26.7746H64.5563V29.2036H67.1673C67.2606 29.2036 67.3796 29.2083 67.5243 29.2176C67.6736 29.2223 67.8136 29.2339 67.9443 29.2526C68.4903 29.3179 68.9499 29.4953 69.3233 29.7846C69.7013 30.0739 69.9859 30.4403 70.1773 30.8836C70.3733 31.3269 70.4713 31.8123 70.4713 32.3396C70.4713 32.8669 70.3756 33.3523 70.1843 33.7956C69.9929 34.2389 69.7083 34.6053 69.3303 34.8946C68.9569 35.1839 68.4949 35.3613 67.9443 35.4266C67.8136 35.4453 67.6759 35.4593 67.5313 35.4686C67.3866 35.4733 67.2653 35.4756 67.1673 35.4756H63.0933ZM64.5563 34.0966H67.1113C67.2046 34.0966 67.3073 34.0919 67.4193 34.0826C67.5359 34.0733 67.6456 34.0593 67.7483 34.0406C68.2009 33.9473 68.5183 33.7326 68.7003 33.3966C68.8869 33.0606 68.9803 32.7083 68.9803 32.3396C68.9803 31.9663 68.8869 31.6139 68.7003 31.2826C68.5183 30.9466 68.2009 30.7319 67.7483 30.6386C67.6456 30.6153 67.5359 30.6013 67.4193 30.5966C67.3073 30.5873 67.2046 30.5826 67.1113 30.5826H64.5563V34.0966ZM75.2236 35.6856C74.4723 35.6856 73.812 35.5223 73.2426 35.1956C72.678 34.8643 72.237 34.4046 71.9196 33.8166C71.607 33.2239 71.4506 32.5379 71.4506 31.7586C71.4506 30.9326 71.6046 30.2163 71.9126 29.6096C72.2253 29.0029 72.6593 28.5339 73.2146 28.2026C73.77 27.8713 74.4163 27.7056 75.1536 27.7056C75.9236 27.7056 76.5793 27.8853 77.1206 28.2446C77.662 28.5993 78.0656 29.1056 78.3316 29.7636C78.6023 30.4216 78.7096 31.2033 78.6536 32.1086H77.1906V31.5766C77.1813 30.6993 77.0133 30.0506 76.6866 29.6306C76.3646 29.2106 75.8723 29.0006 75.2096 29.0006C74.477 29.0006 73.9263 29.2316 73.5576 29.6936C73.189 30.1556 73.0046 30.8229 73.0046 31.6956C73.0046 32.5263 73.189 33.1703 73.5576 33.6276C73.9263 34.0803 74.4583 34.3066 75.1536 34.3066C75.611 34.3066 76.0053 34.2039 76.3366 33.9986C76.6726 33.7886 76.934 33.4899 77.1206 33.1026L78.5556 33.5576C78.2616 34.2343 77.816 34.7593 77.2186 35.1326C76.6213 35.5013 75.9563 35.6856 75.2236 35.6856ZM72.5286 32.1086V30.9676H77.9256V32.1086H72.5286ZM79.5241 35.4756V34.2366C79.8041 34.2879 80.0165 34.2809 80.1611 34.2156C80.3105 34.1456 80.4201 34.0196 80.4901 33.8376C80.5648 33.6556 80.6278 33.4199 80.6791 33.1306C80.7585 32.7059 80.8261 32.2229 80.8821 31.6816C80.9428 31.1356 80.9965 30.5453 81.0431 29.9106C81.0898 29.2759 81.1318 28.6109 81.1691 27.9156H86.6011V35.4756H85.1311V29.2946H82.4851C82.4571 29.6633 82.4245 30.0553 82.3871 30.4706C82.3545 30.8813 82.3171 31.2896 82.2751 31.6956C82.2331 32.1016 82.1888 32.4819 82.1421 32.8366C82.0955 33.1913 82.0465 33.4946 81.9951 33.7466C81.9018 34.2506 81.7641 34.6519 81.5821 34.9506C81.4048 35.2446 81.1528 35.4336 80.8261 35.5176C80.4995 35.6063 80.0655 35.5923 79.5241 35.4756ZM90.699 35.6856C90.139 35.6856 89.67 35.5829 89.292 35.3776C88.914 35.1676 88.627 34.8923 88.431 34.5516C88.2397 34.2063 88.144 33.8283 88.144 33.4176C88.144 33.0349 88.2117 32.6989 88.347 32.4096C88.4823 32.1203 88.683 31.8753 88.949 31.6746C89.215 31.4693 89.5417 31.3036 89.929 31.1776C90.265 31.0796 90.6453 30.9933 91.07 30.9186C91.4947 30.8439 91.9403 30.7739 92.407 30.7086C92.8783 30.6433 93.345 30.5779 93.807 30.5126L93.275 30.8066C93.2843 30.2139 93.1583 29.7753 92.897 29.4906C92.6403 29.2013 92.197 29.0566 91.567 29.0566C91.1703 29.0566 90.8063 29.1499 90.475 29.3366C90.1437 29.5186 89.9127 29.8219 89.782 30.2466L88.417 29.8266C88.6037 29.1779 88.9583 28.6623 89.481 28.2796C90.0083 27.8969 90.7083 27.7056 91.581 27.7056C92.2577 27.7056 92.8457 27.8223 93.345 28.0556C93.849 28.2843 94.2177 28.6483 94.451 29.1476C94.5723 29.3949 94.647 29.6563 94.675 29.9316C94.703 30.2069 94.717 30.5033 94.717 30.8206V35.4756H93.422V33.7466L93.674 33.9706C93.3613 34.5493 92.9623 34.9809 92.477 35.2656C91.9963 35.5456 91.4037 35.6856 90.699 35.6856ZM90.958 34.4886C91.3733 34.4886 91.7303 34.4163 92.029 34.2716C92.3277 34.1223 92.568 33.9333 92.75 33.7046C92.932 33.4759 93.051 33.2379 93.107 32.9906C93.1863 32.7666 93.2307 32.5146 93.24 32.2346C93.254 31.9546 93.261 31.7306 93.261 31.5626L93.737 31.7376C93.275 31.8076 92.855 31.8706 92.477 31.9266C92.099 31.9826 91.756 32.0386 91.448 32.0946C91.1447 32.1459 90.874 32.2089 90.636 32.2836C90.4353 32.3536 90.2557 32.4376 90.097 32.5356C89.943 32.6336 89.8193 32.7526 89.726 32.8926C89.6373 33.0326 89.593 33.2029 89.593 33.4036C89.593 33.5996 89.642 33.7816 89.74 33.9496C89.838 34.1129 89.9873 34.2436 90.188 34.3416C90.3887 34.4396 90.6453 34.4886 90.958 34.4886ZM100.084 35.6856C99.3604 35.6856 98.7537 35.5106 98.2637 35.1606C97.7737 34.8059 97.4027 34.3276 97.1507 33.7256C96.8987 33.1236 96.7727 32.4446 96.7727 31.6886C96.7727 30.9326 96.8964 30.2536 97.1437 29.6516C97.3957 29.0496 97.7644 28.5759 98.2497 28.2306C98.7397 27.8806 99.3417 27.7056 100.056 27.7056C100.765 27.7056 101.376 27.8806 101.89 28.2306C102.408 28.5759 102.807 29.0496 103.087 29.6516C103.367 30.2489 103.507 30.9279 103.507 31.6886C103.507 32.4446 103.367 33.1259 103.087 33.7326C102.811 34.3346 102.417 34.8106 101.904 35.1606C101.395 35.5106 100.788 35.6856 100.084 35.6856ZM96.5277 38.8356V27.9156H97.8297V33.3546H97.9977V38.8356H96.5277ZM99.8807 34.3626C100.347 34.3626 100.732 34.2436 101.036 34.0056C101.344 33.7676 101.572 33.4479 101.722 33.0466C101.876 32.6406 101.953 32.1879 101.953 31.6886C101.953 31.1939 101.876 30.7459 101.722 30.3446C101.572 29.9433 101.341 29.6236 101.029 29.3856C100.716 29.1476 100.317 29.0286 99.8317 29.0286C99.3744 29.0286 98.9964 29.1406 98.6977 29.3646C98.4037 29.5886 98.1844 29.9013 98.0397 30.3026C97.8997 30.7039 97.8297 31.1659 97.8297 31.6886C97.8297 32.2113 97.8997 32.6733 98.0397 33.0746C98.1797 33.4759 98.4014 33.7909 98.7047 34.0196C99.008 34.2483 99.4 34.3626 99.8807 34.3626ZM105.801 38.8356L107.264 34.8526L107.285 36.0286L103.988 27.9156H105.514L107.978 34.1806H107.53L109.882 27.9156H111.366L107.194 38.8356H105.801ZM115.423 35.6856C114.648 35.6856 113.99 35.5129 113.449 35.1676C112.908 34.8223 112.492 34.3486 112.203 33.7466C111.918 33.1446 111.774 32.4609 111.769 31.6956C111.774 30.9163 111.923 30.2279 112.217 29.6306C112.511 29.0286 112.931 28.5573 113.477 28.2166C114.023 27.8759 114.679 27.7056 115.444 27.7056C116.27 27.7056 116.975 27.9109 117.558 28.3216C118.146 28.7323 118.533 29.2946 118.72 30.0086L117.264 30.4286C117.119 30.0039 116.881 29.6749 116.55 29.4416C116.223 29.2036 115.848 29.0846 115.423 29.0846C114.942 29.0846 114.548 29.1989 114.24 29.4276C113.932 29.6516 113.703 29.9596 113.554 30.3516C113.405 30.7436 113.328 31.1916 113.323 31.6956C113.328 32.4749 113.505 33.1049 113.855 33.5856C114.21 34.0663 114.732 34.3066 115.423 34.3066C115.894 34.3066 116.275 34.1993 116.564 33.9846C116.858 33.7653 117.082 33.4526 117.236 33.0466L118.72 33.3966C118.473 34.1339 118.064 34.7009 117.495 35.0976C116.926 35.4896 116.235 35.6856 115.423 35.6856ZM120.139 35.4756V27.9156H121.609V30.5406H123.1C123.315 30.5406 123.543 30.5453 123.786 30.5546C124.033 30.5639 124.246 30.5873 124.423 30.6246C124.829 30.7086 125.179 30.8486 125.473 31.0446C125.772 31.2406 126.003 31.5019 126.166 31.8286C126.329 32.1506 126.411 32.5473 126.411 33.0186C126.411 33.6766 126.238 34.2016 125.893 34.5936C125.552 34.9809 125.09 35.2423 124.507 35.3776C124.32 35.4196 124.099 35.4476 123.842 35.4616C123.59 35.4709 123.359 35.4756 123.149 35.4756H120.139ZM121.609 34.2996H123.233C123.35 34.2996 123.483 34.2949 123.632 34.2856C123.781 34.2763 123.919 34.2553 124.045 34.2226C124.269 34.1573 124.47 34.0243 124.647 33.8236C124.824 33.6229 124.913 33.3546 124.913 33.0186C124.913 32.6733 124.824 32.3979 124.647 32.1926C124.474 31.9873 124.255 31.8543 123.989 31.7936C123.863 31.7609 123.735 31.7399 123.604 31.7306C123.473 31.7213 123.35 31.7166 123.233 31.7166H121.609V34.2996Z" fill="#505B67"/>
<defs>
<filter id="filter0_d_428_46634" x="0.589844" y="0.40332" width="151.564" height="64" filterUnits="userSpaceOnUse" color-interpolation-filters="sRGB">
<feFlood flood-opacity="0" result="BackgroundImageFix"/>
<feColorMatrix in="SourceAlpha" type="matrix" values="0 0 0 0 0 0 0 0 0 0 0 0 0 0 0 0 0 0 127 0" result="hardAlpha"/>
<feOffset dx="-1" dy="2"/>
<feGaussianBlur stdDeviation="8"/>
<feColorMatrix type="matrix" values="0 0 0 0 0.0984375 0 0 0 0 0.269062 0 0 0 0 0.525 0 0 0 0.22 0"/>
<feBlend mode="normal" in2="BackgroundImageFix" result="effect1_dropShadow_428_46634"/>
<feBlend mode="normal" in="SourceGraphic" in2="effect1_dropShadow_428_46634" result="shape"/>
</filter>
<linearGradient id="paint0_linear_428_46634" x1="77.372" y1="14.4033" x2="77.372" y2="46.4033" gradientUnits="userSpaceOnUse">
<stop stop-color="#ABD1E9"/>
<stop offset="1" stop-color="#A8BBFF" stop-opacity="0.68"/>
</linearGradient>
</defs>
</svg>
