<svg width="171" height="65" viewBox="0 0 171 65" fill="none" xmlns="http://www.w3.org/2000/svg">
<g filter="url(#filter0_d_428_46654)">
<mask id="path-1-inside-1_428_46654" fill="white">
<path fill-rule="evenodd" clip-rule="evenodd" d="M147.881 14.4355C152.299 14.4355 155.881 18.0173 155.881 22.4355V38.4355C155.881 42.8538 152.299 46.4355 147.881 46.4355L36.4256 46.4355L31.4292 46.4355L29.807 46.4355C27.2874 46.4355 24.9786 45.0287 23.8235 42.7894L17.7403 30.9966C17.5928 30.7107 17.5919 30.3712 17.7378 30.0845L23.8318 18.1138C24.9808 15.8568 27.2992 14.4355 29.8318 14.4355H31.4292H36.4258H147.881Z"/>
</mask>
<path fill-rule="evenodd" clip-rule="evenodd" d="M147.881 14.4355C152.299 14.4355 155.881 18.0173 155.881 22.4355V38.4355C155.881 42.8538 152.299 46.4355 147.881 46.4355L36.4256 46.4355L31.4292 46.4355L29.807 46.4355C27.2874 46.4355 24.9786 45.0287 23.8235 42.7894L17.7403 30.9966C17.5928 30.7107 17.5919 30.3712 17.7378 30.0845L23.8318 18.1138C24.9808 15.8568 27.2992 14.4355 29.8318 14.4355H31.4292H36.4258H147.881Z" fill="white"/>
<path d="M147.881 46.4355V48.1187V46.4355ZM36.4256 46.4355V44.7524V46.4355ZM31.4292 46.4355V48.1187L31.4292 48.1187L31.4292 46.4355ZM29.807 46.4355V44.7524H29.807L29.807 46.4355ZM23.8235 42.7894L25.3194 42.0177L25.3194 42.0177L23.8235 42.7894ZM17.7403 30.9966L19.2361 30.225V30.225L17.7403 30.9966ZM17.7378 30.0845L19.2378 30.8481L17.7378 30.0845ZM23.8318 18.1138L22.3318 17.3502V17.3502L23.8318 18.1138ZM154.198 22.4355C154.198 18.9469 151.37 16.1187 147.881 16.1187V12.7524C153.229 12.7524 157.564 17.0877 157.564 22.4355H154.198ZM154.198 38.4355V22.4355H157.564V38.4355H154.198ZM147.881 44.7524C151.37 44.7524 154.198 41.9242 154.198 38.4355H157.564C157.564 43.7834 153.229 48.1187 147.881 48.1187V44.7524ZM36.4256 44.7524L147.881 44.7524V48.1187H36.4256V44.7524ZM31.4292 44.7524L36.4256 44.7524V48.1187H31.4292V44.7524ZM29.807 44.7524L31.4292 44.7524L31.4292 48.1187L29.807 48.1187L29.807 44.7524ZM25.3194 42.0177C26.1857 43.6972 27.9173 44.7524 29.807 44.7524V48.1187C26.6574 48.1187 23.7715 46.3601 22.3276 43.561L25.3194 42.0177ZM19.2361 30.225L25.3194 42.0177L22.3276 43.561L16.2444 31.7683L19.2361 30.225ZM19.2378 30.8481C19.3375 30.6523 19.3369 30.4203 19.2361 30.225L16.2444 31.7683C15.8486 31.001 15.8462 30.0902 16.2378 29.3209L19.2378 30.8481ZM25.3318 18.8774L19.2378 30.8481L16.2378 29.3209L22.3318 17.3502L25.3318 18.8774ZM29.8318 16.1187C27.9323 16.1187 26.1935 17.1847 25.3318 18.8774L22.3318 17.3502C23.768 14.529 26.666 12.7524 29.8318 12.7524V16.1187ZM31.4292 16.1187H29.8318V12.7524H31.4292V16.1187ZM36.4258 16.1187H31.4292V12.7524H36.4258V16.1187ZM147.881 16.1187H36.4258V12.7524H147.881V16.1187Z" fill="url(#paint0_linear_428_46654)" fill-opacity="0.47" mask="url(#path-1-inside-1_428_46654)"/>
</g>
<path d="M28.9323 35.5078L32.2083 25.4278H34.3153L37.5913 35.5078H36.0723L33.0553 26.3098H33.4333L30.4513 35.5078H28.9323ZM30.6333 33.2328V31.8608H35.8973V33.2328H30.6333ZM42.7602 35.7178C42.0182 35.7178 41.3509 35.5988 40.7582 35.3608C40.1702 35.1181 39.6709 34.7588 39.2602 34.2828C38.8542 33.8068 38.5532 33.2188 38.3572 32.5188L39.7922 32.1548C39.9929 32.8128 40.3452 33.3425 40.8492 33.7438C41.3579 34.1405 41.9669 34.3341 42.6762 34.3248C43.1662 34.3155 43.6282 34.2221 44.0622 34.0448C44.4962 33.8628 44.8532 33.5828 45.1332 33.2048C45.3712 32.8968 45.5415 32.5701 45.6442 32.2248C45.7515 31.8795 45.8215 31.5225 45.8542 31.1538H42.2422V29.7748H45.8612C45.7959 29.1448 45.6302 28.5918 45.3642 28.1158C45.1029 27.6398 44.7459 27.2688 44.2932 27.0028C43.8452 26.7321 43.3062 26.6015 42.6762 26.6108C41.9295 26.6201 41.3019 26.8301 40.7932 27.2408C40.2845 27.6468 39.9415 28.1975 39.7642 28.8928L38.2872 28.6828C38.5392 27.5815 39.0549 26.7298 39.8342 26.1278C40.6182 25.5211 41.5935 25.2178 42.7602 25.2178C43.7402 25.2178 44.5779 25.4395 45.2732 25.8828C45.9685 26.3215 46.5005 26.9351 46.8692 27.7238C47.2425 28.5078 47.4339 29.4225 47.4432 30.4678C47.4525 31.4478 47.2729 32.3345 46.9042 33.1278C46.5402 33.9211 46.0059 34.5511 45.3012 35.0178C44.6012 35.4845 43.7542 35.7178 42.7602 35.7178ZM53.0483 35.7178C52.0403 35.7178 51.1817 35.4985 50.4723 35.0598C49.763 34.6165 49.2193 34.0005 48.8413 33.2118C48.468 32.4231 48.2813 31.5085 48.2813 30.4678C48.2813 29.4271 48.468 28.5125 48.8413 27.7238C49.2193 26.9351 49.763 26.3215 50.4723 25.8828C51.1817 25.4395 52.0403 25.2178 53.0483 25.2178C54.2103 25.2178 55.1717 25.5118 55.9323 26.0998C56.6977 26.6878 57.2297 27.4788 57.5283 28.4728L56.0443 28.8718C55.8483 28.1671 55.4983 27.6141 54.9943 27.2128C54.495 26.8115 53.8463 26.6108 53.0483 26.6108C52.3343 26.6108 51.7393 26.7718 51.2633 27.0938C50.7873 27.4158 50.428 27.8661 50.1853 28.4448C49.9473 29.0235 49.8283 29.6978 49.8283 30.4678C49.8237 31.2378 49.9403 31.9121 50.1783 32.4908C50.421 33.0695 50.7803 33.5198 51.2563 33.8418C51.737 34.1638 52.3343 34.3248 53.0483 34.3248C53.8463 34.3248 54.495 34.1241 54.9943 33.7228C55.4983 33.3168 55.8483 32.7638 56.0443 32.0638L57.5283 32.4628C57.2297 33.4568 56.6977 34.2478 55.9323 34.8358C55.1717 35.4238 54.2103 35.7178 53.0483 35.7178ZM61.8706 35.5078V25.4278H68.4436V26.8068H63.3336V29.2358H65.9446C66.038 29.2358 66.157 29.2405 66.3016 29.2498C66.451 29.2545 66.591 29.2661 66.7216 29.2848C67.2676 29.3501 67.7273 29.5275 68.1006 29.8168C68.4786 30.1061 68.7633 30.4725 68.9546 30.9158C69.1506 31.3591 69.2486 31.8445 69.2486 32.3718C69.2486 32.8991 69.153 33.3845 68.9616 33.8278C68.7703 34.2711 68.4856 34.6375 68.1076 34.9268C67.7343 35.2161 67.2723 35.3935 66.7216 35.4588C66.591 35.4775 66.4533 35.4915 66.3086 35.5008C66.164 35.5055 66.0426 35.5078 65.9446 35.5078H61.8706ZM63.3336 34.1288H65.8886C65.982 34.1288 66.0846 34.1241 66.1966 34.1148C66.3133 34.1055 66.423 34.0915 66.5256 34.0728C66.9783 33.9795 67.2956 33.7648 67.4776 33.4288C67.6643 33.0928 67.7576 32.7405 67.7576 32.3718C67.7576 31.9985 67.6643 31.6461 67.4776 31.3148C67.2956 30.9788 66.9783 30.7641 66.5256 30.6708C66.423 30.6475 66.3133 30.6335 66.1966 30.6288C66.0846 30.6195 65.982 30.6148 65.8886 30.6148H63.3336V34.1288ZM74.001 35.7178C73.2496 35.7178 72.5893 35.5545 72.02 35.2278C71.4553 34.8965 71.0143 34.4368 70.697 33.8488C70.3843 33.2561 70.228 32.5701 70.228 31.7908C70.228 30.9648 70.382 30.2485 70.69 29.6418C71.0026 29.0351 71.4366 28.5661 71.992 28.2348C72.5473 27.9035 73.1936 27.7378 73.931 27.7378C74.701 27.7378 75.3566 27.9175 75.898 28.2768C76.4393 28.6315 76.843 29.1378 77.109 29.7958C77.3796 30.4538 77.487 31.2355 77.431 32.1408H75.968V31.6088C75.9586 30.7315 75.7906 30.0828 75.464 29.6628C75.142 29.2428 74.6496 29.0328 73.987 29.0328C73.2543 29.0328 72.7036 29.2638 72.335 29.7258C71.9663 30.1878 71.782 30.8551 71.782 31.7278C71.782 32.5585 71.9663 33.2025 72.335 33.6598C72.7036 34.1125 73.2356 34.3388 73.931 34.3388C74.3883 34.3388 74.7826 34.2361 75.114 34.0308C75.45 33.8208 75.7113 33.5221 75.898 33.1348L77.333 33.5898C77.039 34.2665 76.5933 34.7915 75.996 35.1648C75.3986 35.5335 74.7336 35.7178 74.001 35.7178ZM71.306 32.1408V30.9998H76.703V32.1408H71.306ZM78.3015 35.5078V34.2688C78.5815 34.3201 78.7938 34.3131 78.9385 34.2478C79.0878 34.1778 79.1975 34.0518 79.2675 33.8698C79.3422 33.6878 79.4052 33.4521 79.4565 33.1628C79.5358 32.7381 79.6035 32.2551 79.6595 31.7138C79.7202 31.1678 79.7738 30.5775 79.8205 29.9428C79.8672 29.3081 79.9092 28.6431 79.9465 27.9478H85.3785V35.5078H83.9085V29.3268H81.2625C81.2345 29.6955 81.2018 30.0875 81.1645 30.5028C81.1318 30.9135 81.0945 31.3218 81.0525 31.7278C81.0105 32.1338 80.9662 32.5141 80.9195 32.8688C80.8728 33.2235 80.8238 33.5268 80.7725 33.7788C80.6792 34.2828 80.5415 34.6841 80.3595 34.9828C80.1822 35.2768 79.9302 35.4658 79.6035 35.5498C79.2768 35.6385 78.8428 35.6245 78.3015 35.5078ZM90.6243 35.7178C89.8683 35.7178 89.2127 35.5475 88.6573 35.2068C88.102 34.8661 87.6727 34.3971 87.3693 33.7998C87.0707 33.1978 86.9213 32.5048 86.9213 31.7208C86.9213 30.9321 87.0753 30.2391 87.3833 29.6418C87.6913 29.0398 88.123 28.5731 88.6783 28.2418C89.2337 27.9058 89.8823 27.7378 90.6243 27.7378C91.3803 27.7378 92.036 27.9081 92.5913 28.2488C93.1467 28.5895 93.576 29.0585 93.8793 29.6558C94.1827 30.2531 94.3343 30.9415 94.3343 31.7208C94.3343 32.5095 94.1803 33.2048 93.8723 33.8068C93.569 34.4041 93.1397 34.8731 92.5843 35.2138C92.029 35.5498 91.3757 35.7178 90.6243 35.7178ZM90.6243 34.3388C91.3477 34.3388 91.8867 34.0961 92.2413 33.6108C92.6007 33.1208 92.7803 32.4908 92.7803 31.7208C92.7803 30.9321 92.5983 30.3021 92.2343 29.8308C91.875 29.3548 91.3383 29.1168 90.6243 29.1168C90.1343 29.1168 89.7307 29.2288 89.4133 29.4528C89.096 29.6721 88.8603 29.9778 88.7063 30.3698C88.5523 30.7571 88.4753 31.2075 88.4753 31.7208C88.4753 32.5141 88.6573 33.1488 89.0213 33.6248C89.3853 34.1008 89.9197 34.3388 90.6243 34.3388ZM100.472 35.5078V32.8828H98.9736C98.7962 32.8828 98.5839 32.8758 98.3366 32.8618C98.0939 32.8478 97.8652 32.8221 97.6506 32.7848C97.0859 32.6821 96.6146 32.4371 96.2366 32.0498C95.8586 31.6578 95.6696 31.1188 95.6696 30.4328C95.6696 29.7701 95.8469 29.2381 96.2016 28.8368C96.5609 28.4308 97.0159 28.1695 97.5666 28.0528C97.8046 27.9968 98.0472 27.9665 98.2946 27.9618C98.5466 27.9525 98.7589 27.9478 98.9316 27.9478H101.935L101.942 35.5078H100.472ZM95.4526 35.5078L97.3636 32.5188H98.9106L97.0136 35.5078H95.4526ZM98.8476 31.7068H100.472V29.1238H98.8476C98.7449 29.1238 98.6189 29.1285 98.4696 29.1378C98.3202 29.1471 98.1756 29.1728 98.0356 29.2148C97.8909 29.2568 97.7509 29.3315 97.6156 29.4388C97.4849 29.5461 97.3776 29.6838 97.2936 29.8518C97.2096 30.0151 97.1676 30.2041 97.1676 30.4188C97.1676 30.7408 97.2586 31.0068 97.4406 31.2168C97.6226 31.4221 97.8396 31.5575 98.0916 31.6228C98.2269 31.6601 98.3622 31.6835 98.4976 31.6928C98.6329 31.7021 98.7496 31.7068 98.8476 31.7068ZM107.447 35.7178C106.724 35.7178 106.117 35.5428 105.627 35.1928C105.137 34.8381 104.766 34.3598 104.514 33.7578C104.262 33.1558 104.136 32.4768 104.136 31.7208C104.136 30.9648 104.26 30.2858 104.507 29.6838C104.759 29.0818 105.128 28.6081 105.613 28.2628C106.103 27.9128 106.705 27.7378 107.419 27.7378C108.128 27.7378 108.74 27.9128 109.253 28.2628C109.771 28.6081 110.17 29.0818 110.45 29.6838C110.73 30.2811 110.87 30.9601 110.87 31.7208C110.87 32.4768 110.73 33.1581 110.45 33.7648C110.175 34.3668 109.78 34.8428 109.267 35.1928C108.758 35.5428 108.152 35.7178 107.447 35.7178ZM103.891 38.8678V27.9478H105.193V33.3868H105.361V38.8678H103.891ZM107.244 34.3948C107.711 34.3948 108.096 34.2758 108.399 34.0378C108.707 33.7998 108.936 33.4801 109.085 33.0788C109.239 32.6728 109.316 32.2201 109.316 31.7208C109.316 31.2261 109.239 30.7781 109.085 30.3768C108.936 29.9755 108.705 29.6558 108.392 29.4178C108.079 29.1798 107.68 29.0608 107.195 29.0608C106.738 29.0608 106.36 29.1728 106.061 29.3968C105.767 29.6208 105.548 29.9335 105.403 30.3348C105.263 30.7361 105.193 31.1981 105.193 31.7208C105.193 32.2435 105.263 32.7055 105.403 33.1068C105.543 33.5081 105.765 33.8231 106.068 34.0518C106.371 34.2805 106.763 34.3948 107.244 34.3948ZM115.65 35.7178C114.875 35.7178 114.217 35.5451 113.676 35.1998C113.134 34.8545 112.719 34.3808 112.43 33.7788C112.145 33.1768 112 32.4931 111.996 31.7278C112 30.9485 112.15 30.2601 112.444 29.6628C112.738 29.0608 113.158 28.5895 113.704 28.2488C114.25 27.9081 114.905 27.7378 115.671 27.7378C116.497 27.7378 117.201 27.9431 117.785 28.3538C118.373 28.7645 118.76 29.3268 118.947 30.0408L117.491 30.4608C117.346 30.0361 117.108 29.7071 116.777 29.4738C116.45 29.2358 116.074 29.1168 115.65 29.1168C115.169 29.1168 114.775 29.2311 114.467 29.4598C114.159 29.6838 113.93 29.9918 113.781 30.3838C113.631 30.7758 113.554 31.2238 113.55 31.7278C113.554 32.5071 113.732 33.1371 114.082 33.6178C114.436 34.0985 114.959 34.3388 115.65 34.3388C116.121 34.3388 116.501 34.2315 116.791 34.0168C117.085 33.7975 117.309 33.4848 117.463 33.0788L118.947 33.4288C118.699 34.1661 118.291 34.7331 117.722 35.1298C117.152 35.5218 116.462 35.7178 115.65 35.7178ZM120.366 35.5078L120.373 27.9478H121.857V31.5878L124.825 27.9478H126.687L123.551 31.7278L127.009 35.5078H125.021L121.857 31.8678V35.5078H120.366ZM129.849 35.7178C129.289 35.7178 128.82 35.6151 128.442 35.4098C128.064 35.1998 127.777 34.9245 127.581 34.5838C127.39 34.2385 127.294 33.8605 127.294 33.4498C127.294 33.0671 127.362 32.7311 127.497 32.4418C127.633 32.1525 127.833 31.9075 128.099 31.7068C128.365 31.5015 128.692 31.3358 129.079 31.2098C129.415 31.1118 129.796 31.0255 130.22 30.9508C130.645 30.8761 131.091 30.8061 131.557 30.7408C132.029 30.6755 132.495 30.6101 132.957 30.5448L132.425 30.8388C132.435 30.2461 132.309 29.8075 132.047 29.5228C131.791 29.2335 131.347 29.0888 130.717 29.0888C130.321 29.0888 129.957 29.1821 129.625 29.3688C129.294 29.5508 129.063 29.8541 128.932 30.2788L127.567 29.8588C127.754 29.2101 128.109 28.6945 128.631 28.3118C129.159 27.9291 129.859 27.7378 130.731 27.7378C131.408 27.7378 131.996 27.8545 132.495 28.0878C132.999 28.3165 133.368 28.6805 133.601 29.1798C133.723 29.4271 133.797 29.6885 133.825 29.9638C133.853 30.2391 133.867 30.5355 133.867 30.8528V35.5078H132.572V33.7788L132.824 34.0028C132.512 34.5815 132.113 35.0131 131.627 35.2978C131.147 35.5778 130.554 35.7178 129.849 35.7178ZM130.108 34.5208C130.524 34.5208 130.881 34.4485 131.179 34.3038C131.478 34.1545 131.718 33.9655 131.9 33.7368C132.082 33.5081 132.201 33.2701 132.257 33.0228C132.337 32.7988 132.381 32.5468 132.39 32.2668C132.404 31.9868 132.411 31.7628 132.411 31.5948L132.887 31.7698C132.425 31.8398 132.005 31.9028 131.627 31.9588C131.249 32.0148 130.906 32.0708 130.598 32.1268C130.295 32.1781 130.024 32.2411 129.786 32.3158C129.586 32.3858 129.406 32.4698 129.247 32.5678C129.093 32.6658 128.97 32.7848 128.876 32.9248C128.788 33.0648 128.743 33.2351 128.743 33.4358C128.743 33.6318 128.792 33.8138 128.89 33.9818C128.988 34.1451 129.138 34.2758 129.338 34.3738C129.539 34.4718 129.796 34.5208 130.108 34.5208ZM140.284 35.5078V32.8828H138.786C138.609 32.8828 138.396 32.8758 138.149 32.8618C137.906 32.8478 137.678 32.8221 137.463 32.7848C136.898 32.6821 136.427 32.4371 136.049 32.0498C135.671 31.6578 135.482 31.1188 135.482 30.4328C135.482 29.7701 135.659 29.2381 136.014 28.8368C136.373 28.4308 136.828 28.1695 137.379 28.0528C137.617 27.9968 137.86 27.9665 138.107 27.9618C138.359 27.9525 138.571 27.9478 138.744 27.9478H141.747L141.754 35.5078H140.284ZM135.265 35.5078L137.176 32.5188H138.723L136.826 35.5078H135.265ZM138.66 31.7068H140.284V29.1238H138.66C138.557 29.1238 138.431 29.1285 138.282 29.1378C138.133 29.1471 137.988 29.1728 137.848 29.2148C137.703 29.2568 137.563 29.3315 137.428 29.4388C137.297 29.5461 137.19 29.6838 137.106 29.8518C137.022 30.0151 136.98 30.2041 136.98 30.4188C136.98 30.7408 137.071 31.0068 137.253 31.2168C137.435 31.4221 137.652 31.5575 137.904 31.6228C138.039 31.6601 138.175 31.6835 138.31 31.6928C138.445 31.7021 138.562 31.7068 138.66 31.7068Z" fill="#505B67"/>
<defs>
<filter id="filter0_d_428_46654" x="0.628906" y="0.435547" width="170.252" height="64" filterUnits="userSpaceOnUse" color-interpolation-filters="sRGB">
<feFlood flood-opacity="0" result="BackgroundImageFix"/>
<feColorMatrix in="SourceAlpha" type="matrix" values="0 0 0 0 0 0 0 0 0 0 0 0 0 0 0 0 0 0 127 0" result="hardAlpha"/>
<feOffset dx="-1" dy="2"/>
<feGaussianBlur stdDeviation="8"/>
<feColorMatrix type="matrix" values="0 0 0 0 0.0984375 0 0 0 0 0.269062 0 0 0 0 0.525 0 0 0 0.22 0"/>
<feBlend mode="normal" in2="BackgroundImageFix" result="effect1_dropShadow_428_46654"/>
<feBlend mode="normal" in="SourceGraphic" in2="effect1_dropShadow_428_46654" result="shape"/>
</filter>
<linearGradient id="paint0_linear_428_46654" x1="86.7549" y1="14.4355" x2="86.7549" y2="46.4355" gradientUnits="userSpaceOnUse">
<stop stop-color="#ABD1E9"/>
<stop offset="1" stop-color="#A8BBFF" stop-opacity="0.68"/>
</linearGradient>
</defs>
</svg>
