<svg width="57" height="57" viewBox="0 0 57 57" fill="none" xmlns="http://www.w3.org/2000/svg">
<g filter="url(#filter0_dd_240_14623)">
<path d="M8.55176 15.7486C8.55176 13.5084 8.55176 12.3883 8.98773 11.5327C9.37123 10.78 9.98315 10.1681 10.7358 9.78461C11.5914 9.34863 12.7115 9.34863 14.9518 9.34863H38.1518C40.392 9.34863 41.5121 9.34863 42.3677 9.78461C43.1204 10.1681 43.7323 10.78 44.1158 11.5327C44.5518 12.3883 44.5518 13.5084 44.5518 15.7486V38.9486C44.5518 41.1888 44.5518 42.3089 44.1158 43.1646C43.7323 43.9172 43.1204 44.5292 42.3677 44.9127C41.5121 45.3486 40.392 45.3486 38.1518 45.3486H14.9518C12.7115 45.3486 11.5914 45.3486 10.7358 44.9127C9.98315 44.5292 9.37123 43.9172 8.98773 43.1646C8.55176 42.3089 8.55176 41.1888 8.55176 38.9486V15.7486Z" fill="white" fill-opacity="0.8"/>
<path d="M8.55176 15.7486C8.55176 13.5084 8.55176 12.3883 8.98773 11.5327C9.37123 10.78 9.98315 10.1681 10.7358 9.78461C11.5914 9.34863 12.7115 9.34863 14.9518 9.34863H38.1518C40.392 9.34863 41.5121 9.34863 42.3677 9.78461C43.1204 10.1681 43.7323 10.78 44.1158 11.5327C44.5518 12.3883 44.5518 13.5084 44.5518 15.7486V38.9486C44.5518 41.1888 44.5518 42.3089 44.1158 43.1646C43.7323 43.9172 43.1204 44.5292 42.3677 44.9127C41.5121 45.3486 40.392 45.3486 38.1518 45.3486H14.9518C12.7115 45.3486 11.5914 45.3486 10.7358 44.9127C9.98315 44.5292 9.37123 43.9172 8.98773 43.1646C8.55176 42.3089 8.55176 41.1888 8.55176 38.9486V15.7486Z" fill="url(#paint0_linear_240_14623)" fill-opacity="0.4" style="mix-blend-mode:soft-light"/>
<path d="M37.8479 32.2286V22.6286C37.8487 22.4312 37.7955 22.2374 37.694 22.0681C37.5924 21.8989 37.4464 21.7607 37.2719 21.6686L28.0639 16.7646C27.9059 16.6819 27.7302 16.6387 27.5519 16.6387C27.3735 16.6387 27.1979 16.6819 27.0399 16.7646L17.8319 21.6526C17.6573 21.7447 17.5113 21.8829 17.4098 22.0521C17.3082 22.2214 17.255 22.4152 17.2559 22.6126V32.2126C17.255 32.41 17.3082 32.6038 17.4098 32.773C17.5113 32.9423 17.6573 33.0805 17.8319 33.1726L27.0399 38.0606C27.1979 38.1433 27.3735 38.1865 27.5519 38.1865C27.7302 38.1865 27.9059 38.1433 28.0639 38.0606L37.2719 33.1886C37.4464 33.0965 37.5924 32.9583 37.694 32.789C37.7955 32.6198 37.8487 32.426 37.8479 32.2286Z" fill="#6DACDE"/>
<path d="M22.3593 31.2684L26.8793 33.8684C27.0805 33.9827 27.308 34.0428 27.5393 34.0428C27.7707 34.0428 27.9982 33.9827 28.1993 33.8684L32.8473 31.2604C33.0542 31.1457 33.2265 30.9775 33.3461 30.7735C33.4657 30.5694 33.5283 30.3369 33.5273 30.1004V25.3484C33.5274 25.1209 33.4694 24.8971 33.3588 24.6983C33.2482 24.4995 33.0887 24.3323 32.8953 24.2124L28.2473 21.9644C28.0507 21.8677 27.8345 21.8174 27.6153 21.8174C27.3962 21.8174 27.18 21.8677 26.9833 21.9644L22.3193 24.2764C22.1276 24.3954 21.9695 24.5616 21.8603 24.759C21.751 24.9565 21.6943 25.1787 21.6953 25.4044V30.1084C21.6936 30.3432 21.7541 30.5742 21.8708 30.778C21.9874 30.9818 22.156 31.151 22.3593 31.2684V31.2684Z" stroke="white" stroke-miterlimit="10"/>
<path d="M21.7676 24.9728L27.6076 28.0048L33.3356 24.6528" stroke="white" stroke-miterlimit="10"/>
<path d="M27.6074 28.0044V34.0444" stroke="white" stroke-miterlimit="10"/>
<path d="M27.6074 16.4927V21.8207" stroke="white" stroke-miterlimit="10"/>
<path d="M33.5273 30.6768L37.8473 32.9168" stroke="white" stroke-miterlimit="10"/>
<path d="M21.696 30.6768L17.376 32.9168" stroke="white" stroke-miterlimit="10"/>
<path d="M9.05176 15.7486C9.05176 14.6203 9.05215 13.8041 9.10459 13.1622C9.15656 12.5261 9.25715 12.1053 9.43324 11.7597C9.76879 11.1011 10.3042 10.5657 10.9628 10.2301C11.3084 10.054 11.7292 9.95344 12.3653 9.90147C13.0072 9.84902 13.8234 9.84863 14.9518 9.84863H38.1518C39.2801 9.84863 40.0963 9.84902 40.7382 9.90147C41.3743 9.95344 41.7951 10.054 42.1407 10.2301C42.7993 10.5657 43.3347 11.1011 43.6703 11.7597C43.8464 12.1053 43.947 12.5261 43.9989 13.1622C44.0514 13.8041 44.0518 14.6203 44.0518 15.7486V38.9486C44.0518 40.077 44.0514 40.8932 43.9989 41.5351C43.947 42.1712 43.8464 42.592 43.6703 42.9376C43.3347 43.5962 42.7993 44.1316 42.1407 44.4672C41.7951 44.6432 41.3743 44.7438 40.7382 44.7958C40.0963 44.8482 39.2801 44.8486 38.1518 44.8486H14.9518C13.8234 44.8486 13.0072 44.8482 12.3653 44.7958C11.7292 44.7438 11.3084 44.6432 10.9628 44.4672C10.3042 44.1316 9.76879 43.5962 9.43323 42.9376C9.25715 42.592 9.15656 42.1712 9.10459 41.5351C9.05215 40.8932 9.05176 40.077 9.05176 38.9486V15.7486Z" stroke="#D8D8D8" stroke-opacity="0.42"/>
</g>
<defs>
<filter id="filter0_dd_240_14623" x="0.551758" y="0.348633" width="56" height="56" filterUnits="userSpaceOnUse" color-interpolation-filters="sRGB">
<feFlood flood-opacity="0" result="BackgroundImageFix"/>
<feColorMatrix in="SourceAlpha" type="matrix" values="0 0 0 0 0 0 0 0 0 0 0 0 0 0 0 0 0 0 127 0" result="hardAlpha"/>
<feOffset dx="2" dy="1"/>
<feGaussianBlur stdDeviation="5"/>
<feColorMatrix type="matrix" values="0 0 0 0 0.290486 0 0 0 0 0.310722 0 0 0 0 0.391667 0 0 0 0.28 0"/>
<feBlend mode="normal" in2="BackgroundImageFix" result="effect1_dropShadow_240_14623"/>
<feColorMatrix in="SourceAlpha" type="matrix" values="0 0 0 0 0 0 0 0 0 0 0 0 0 0 0 0 0 0 127 0" result="hardAlpha"/>
<feMorphology radius="3" operator="erode" in="SourceAlpha" result="effect2_dropShadow_240_14623"/>
<feOffset dx="-2"/>
<feGaussianBlur stdDeviation="4"/>
<feColorMatrix type="matrix" values="0 0 0 0 0.933333 0 0 0 0 0.933333 0 0 0 0 0.933333 0 0 0 1 0"/>
<feBlend mode="normal" in2="effect1_dropShadow_240_14623" result="effect2_dropShadow_240_14623"/>
<feBlend mode="normal" in="SourceGraphic" in2="effect2_dropShadow_240_14623" result="shape"/>
</filter>
<linearGradient id="paint0_linear_240_14623" x1="-6.57397" y1="27.3505" x2="26.083" y2="60.4323" gradientUnits="userSpaceOnUse">
<stop/>
<stop offset="1" stop-color="white"/>
</linearGradient>
</defs>
</svg>
