<svg width="75" height="75" viewBox="0 0 75 75" fill="none" xmlns="http://www.w3.org/2000/svg">
<g filter="url(#filter0_dd_240_14627)">
<path d="M10.9238 20.9987C10.9238 18.0442 10.9238 16.567 11.4988 15.4385C12.0046 14.4459 12.8116 13.6389 13.8042 13.1331C14.9327 12.5581 16.41 12.5581 19.3645 12.5581H49.9617C52.9162 12.5581 54.3935 12.5581 55.5219 13.1331C56.5146 13.6389 57.3216 14.4459 57.8274 15.4385C58.4023 16.567 58.4023 18.0442 58.4023 20.9987V51.596C58.4023 54.5505 58.4023 56.0277 57.8274 57.1562C57.3216 58.1488 56.5146 58.9559 55.5219 59.4616C54.3935 60.0366 52.9162 60.0366 49.9617 60.0366H19.3645C16.41 60.0366 14.9327 60.0366 13.8042 59.4616C12.8116 58.9559 12.0046 58.1488 11.4988 57.1562C10.9238 56.0277 10.9238 54.5505 10.9238 51.596V20.9987Z" fill="white" fill-opacity="0.8"/>
<path d="M10.9238 20.9987C10.9238 18.0442 10.9238 16.567 11.4988 15.4385C12.0046 14.4459 12.8116 13.6389 13.8042 13.1331C14.9327 12.5581 16.41 12.5581 19.3645 12.5581H49.9617C52.9162 12.5581 54.3935 12.5581 55.5219 13.1331C56.5146 13.6389 57.3216 14.4459 57.8274 15.4385C58.4023 16.567 58.4023 18.0442 58.4023 20.9987V51.596C58.4023 54.5505 58.4023 56.0277 57.8274 57.1562C57.3216 58.1488 56.5146 58.9559 55.5219 59.4616C54.3935 60.0366 52.9162 60.0366 49.9617 60.0366H19.3645C16.41 60.0366 14.9327 60.0366 13.8042 59.4616C12.8116 58.9559 12.0046 58.1488 11.4988 57.1562C10.9238 56.0277 10.9238 54.5505 10.9238 51.596V20.9987Z" fill="url(#paint0_linear_240_14627)" fill-opacity="0.4" style="mix-blend-mode:soft-light"/>
<path d="M17.7822 52.1235H52.5998" stroke="#C0C0C0" stroke-width="1.31885" stroke-miterlimit="10"/>
<path d="M17.7822 35.77C20.2722 35.77 20.2722 46.3208 22.7516 46.3208C25.2311 46.3208 25.2416 35.77 27.7211 35.77C30.2005 35.77 30.211 41.0454 32.701 41.0454C35.191 41.0454 35.1805 30.4946 37.6705 30.4946C40.1604 30.4946 40.1604 35.77 42.6399 35.77C45.1193 35.77 45.1299 25.2192 47.6198 25.2192C50.1098 25.2192 50.1098 35.77 52.5998 35.77" stroke="url(#paint1_linear_240_14627)" stroke-width="1.31885" stroke-miterlimit="10"/>
<path d="M22.7084 47.3753C23.2911 47.3753 23.7635 46.9029 23.7635 46.3202C23.7635 45.7375 23.2911 45.2651 22.7084 45.2651C22.1257 45.2651 21.6533 45.7375 21.6533 46.3202C21.6533 46.9029 22.1257 47.3753 22.7084 47.3753Z" fill="#1FD7FF" fill-opacity="0.28"/>
<path d="M32.9018 41.9842C33.4845 41.9842 33.9568 41.5118 33.9568 40.9291C33.9568 40.3464 33.4845 39.874 32.9018 39.874C32.3191 39.874 31.8467 40.3464 31.8467 40.9291C31.8467 41.5118 32.3191 41.9842 32.9018 41.9842Z" fill="#1FD7FF" fill-opacity="0.28"/>
<path d="M42.7553 36.8245C43.338 36.8245 43.8103 36.3521 43.8103 35.7694C43.8103 35.1867 43.338 34.7144 42.7553 34.7144C42.1726 34.7144 41.7002 35.1867 41.7002 35.7694C41.7002 36.3521 42.1726 36.8245 42.7553 36.8245Z" fill="#1FD7FF" fill-opacity="0.28"/>
<path d="M47.7357 26.2737C48.3184 26.2737 48.7908 25.8014 48.7908 25.2187C48.7908 24.6359 48.3184 24.1636 47.7357 24.1636C47.153 24.1636 46.6807 24.6359 46.6807 25.2187C46.6807 25.8014 47.153 26.2737 47.7357 26.2737Z" fill="#1FD7FF" fill-opacity="0.28"/>
<path d="M27.7416 36.8245C28.3243 36.8245 28.7967 36.3521 28.7967 35.7694C28.7967 35.1867 28.3243 34.7144 27.7416 34.7144C27.1589 34.7144 26.6865 35.1867 26.6865 35.7694C26.6865 36.3521 27.1589 36.8245 27.7416 36.8245Z" fill="#1FD7FF" fill-opacity="0.28"/>
<path d="M37.4799 31.6131C38.0626 31.6131 38.535 31.1407 38.535 30.558C38.535 29.9753 38.0626 29.5029 37.4799 29.5029C36.8972 29.5029 36.4248 29.9753 36.4248 30.558C36.4248 31.1407 36.8972 31.6131 37.4799 31.6131Z" fill="#1FD7FF" fill-opacity="0.28"/>
<path d="M11.5833 20.9987C11.5833 19.5106 11.5838 18.4342 11.6529 17.5876C11.7215 16.7487 11.8541 16.1937 12.0864 15.7379C12.5289 14.8693 13.2351 14.1632 14.1036 13.7206C14.5594 13.4884 15.1144 13.3558 15.9533 13.2872C16.7999 13.218 17.8763 13.2175 19.3645 13.2175H49.9617C51.4498 13.2175 52.5263 13.218 53.3729 13.2872C54.2118 13.3558 54.7668 13.4884 55.2226 13.7206C56.0911 14.1632 56.7973 14.8693 57.2398 15.7379C57.472 16.1937 57.6047 16.7487 57.6732 17.5876C57.7424 18.4342 57.7429 19.5106 57.7429 20.9987V51.596C57.7429 53.0841 57.7424 54.1606 57.6732 55.0072C57.6047 55.8461 57.472 56.4011 57.2398 56.8568C56.7973 57.7254 56.0911 58.4315 55.2226 58.8741C54.7668 59.1063 54.2118 59.239 53.3729 59.3075C52.5263 59.3767 51.4498 59.3772 49.9617 59.3772H19.3645C17.8763 59.3772 16.7999 59.3767 15.9533 59.3075C15.1144 59.239 14.5594 59.1063 14.1036 58.8741C13.2351 58.4315 12.5289 57.7254 12.0864 56.8568C11.8541 56.4011 11.7215 55.8461 11.6529 55.0072C11.5838 54.1606 11.5833 53.0841 11.5833 51.596V20.9987Z" stroke="#D8D8D8" stroke-opacity="0.42" stroke-width="1.31885"/>
</g>
<defs>
<filter id="filter0_dd_240_14627" x="0.373047" y="0.688477" width="73.8555" height="73.8555" filterUnits="userSpaceOnUse" color-interpolation-filters="sRGB">
<feFlood flood-opacity="0" result="BackgroundImageFix"/>
<feColorMatrix in="SourceAlpha" type="matrix" values="0 0 0 0 0 0 0 0 0 0 0 0 0 0 0 0 0 0 127 0" result="hardAlpha"/>
<feOffset dx="2.6377" dy="1.31885"/>
<feGaussianBlur stdDeviation="6.59424"/>
<feColorMatrix type="matrix" values="0 0 0 0 0.290486 0 0 0 0 0.310722 0 0 0 0 0.391667 0 0 0 0.28 0"/>
<feBlend mode="normal" in2="BackgroundImageFix" result="effect1_dropShadow_240_14627"/>
<feColorMatrix in="SourceAlpha" type="matrix" values="0 0 0 0 0 0 0 0 0 0 0 0 0 0 0 0 0 0 127 0" result="hardAlpha"/>
<feMorphology radius="3.95654" operator="erode" in="SourceAlpha" result="effect2_dropShadow_240_14627"/>
<feOffset dx="-2.6377"/>
<feGaussianBlur stdDeviation="5.27539"/>
<feColorMatrix type="matrix" values="0 0 0 0 0.933333 0 0 0 0 0.933333 0 0 0 0 0.933333 0 0 0 1 0"/>
<feBlend mode="normal" in2="effect1_dropShadow_240_14627" result="effect2_dropShadow_240_14627"/>
<feBlend mode="normal" in="SourceGraphic" in2="effect2_dropShadow_240_14627" result="shape"/>
</filter>
<linearGradient id="paint0_linear_240_14627" x1="-9.0247" y1="36.2998" x2="34.0449" y2="79.9297" gradientUnits="userSpaceOnUse">
<stop/>
<stop offset="1" stop-color="white"/>
</linearGradient>
<linearGradient id="paint1_linear_240_14627" x1="53.1273" y1="36.2974" x2="16.1996" y2="34.9786" gradientUnits="userSpaceOnUse">
<stop stop-color="#6DACDE" stop-opacity="0"/>
<stop offset="0.125" stop-color="#6DACDE"/>
<stop offset="0.822917" stop-color="#6DACDE"/>
<stop offset="1" stop-color="#6DACDE" stop-opacity="0"/>
</linearGradient>
</defs>
</svg>
