<svg width="49" height="52" viewBox="0 0 49 52" fill="none" xmlns="http://www.w3.org/2000/svg">
<g clip-path="url(#clip0_240_7422)">
<path fill-rule="evenodd" clip-rule="evenodd" d="M7.38348 38.3986C7.38348 38.2395 7.34797 37.9918 7.20596 37.868C6.97519 38.2925 6.47815 38.2748 6.22963 38.151C6.17638 38.2748 6.21188 38.6286 6.37164 38.717C6.67342 38.8762 7.17046 38.8762 7.38348 38.3986ZM6.69117 38.9469C6.22963 40.3619 8.53732 39.9197 7.36573 38.7347C7.18821 38.8408 6.83318 38.9823 6.69117 38.9469ZM4.96928 31.9252C4.96928 31.8014 4.84502 31.7306 4.703 31.7129C4.48999 31.9782 4.25922 31.9252 4.17046 31.8898C4.0462 31.9782 4.0462 32.0844 4.1172 32.2435C4.34797 32.3143 4.703 32.4027 4.96928 31.9252ZM4.20596 31.6068C4.20596 31.6952 4.29472 31.7837 4.38348 31.7837C4.47223 31.7837 4.56099 31.6952 4.56099 31.6068C4.56099 31.5184 4.47223 31.4299 4.38348 31.4299C4.29472 31.4299 4.20596 31.5184 4.20596 31.6068ZM7.09945 37.7088L4.84502 32.2789C4.73851 32.385 4.59649 32.4027 4.48999 32.4027L6.24738 37.9211C6.58466 38.2218 6.93969 38.0272 7.09945 37.7088ZM6.83318 39.9905C6.62016 40.0966 6.67342 40.4857 6.97519 40.5742C7.52549 40.6095 7.72076 40.5388 8.2533 40.1673C8.30655 39.8313 8.2533 39.6721 7.91602 39.6367C7.77401 39.902 7.0817 40.0966 6.83318 39.9905ZM27.7622 27.8748C27.6912 27.8748 27.4782 27.8218 27.3184 27.7687L27.4071 27.9633C27.5314 27.981 27.7089 28.0517 27.7977 28.0517L27.7622 27.8748ZM41.6438 38.0626L41.5728 39.9905L43.5255 40.2381C43.2947 39.3184 42.5314 38.151 41.6438 38.0626ZM8.92786 45.9864C8.89235 46.3048 8.96336 46.8531 9.44265 46.8531C9.99294 46.9415 10.4545 46.6762 10.6675 46.4816C10.8805 46.2871 10.6853 45.8095 10.4545 45.5796C9.97519 46.4463 9.54916 46.2163 8.92786 45.9864ZM9.74442 47.0476C10.1172 47.8082 10.9338 47.3306 10.6497 46.7293C10.4545 46.8884 9.97519 47.0476 9.74442 47.0476ZM42.3716 43.0327C42.0699 42.8558 41.8391 42.9619 41.7326 43.4395C41.6083 43.5986 41.3776 43.7048 40.8805 43.8639C40.3835 44.0054 40.1527 44.2531 39.9219 44.4122C39.9219 44.4122 40.0107 44.5537 40.1882 44.483C40.3657 44.3946 41.0758 44.3415 41.271 44.1823C41.4486 44.0408 41.7326 43.8109 41.9456 43.6871C42.2119 43.7578 42.6912 43.2095 42.3716 43.0327ZM4.50774 31.3238C4.61425 31.2354 4.68525 31.0762 4.68525 30.9347C4.68525 30.6517 4.45448 30.4218 4.17046 30.4218C3.90419 30.4218 3.67342 30.6517 3.67342 30.9347C3.67342 31.2177 3.90419 31.4476 4.13496 31.4299C4.17046 31.3061 4.38348 31.2 4.50774 31.3238ZM19.561 31.4299C19.7385 31.4476 20.0225 30.7048 20.0225 30.7048C20.0225 30.7048 20.0935 31.1646 19.9693 31.4299C20.2711 31.3238 20.5196 30.6694 20.5196 30.6694C20.5196 30.6694 20.5728 31.1293 20.4663 31.3946C21.0876 31.2 21.0521 29.6966 21.4782 29.4136C21.2119 29.6435 22.0462 31.1646 21.1054 31.4122C21.2119 31.766 21.0166 32.951 20.7503 33.2694C20.5196 33.6054 20.7503 33.6585 20.7681 33.7293C20.8213 33.7646 20.6793 34.1537 20.6793 34.2952C21.1764 34.6844 21.4959 34.2776 21.4959 34.2422C21.4959 34.2068 21.4249 33.9769 21.3539 33.8531C21.1586 33.0395 21.7267 32.2612 21.8154 32.1374C21.9042 31.9959 22.8273 31.6422 22.9338 31.5891C23.0225 31.5361 23.2 31.766 23.2178 31.8721C23.2355 32.0136 23.0403 32.0844 23.0758 32.2789C23.0935 32.4735 23.7681 32.8803 23.7681 32.8803C23.7681 32.8803 24.1764 33.2163 24.2119 33.3755C24.2474 33.517 24.3539 33.5347 24.4426 33.5524C24.5137 33.5701 24.7089 33.7469 24.7267 33.8531C25.0462 34.1184 25.3302 34.083 25.348 34.0476C25.348 34.0476 25.3125 33.6939 25.3125 33.6585C25.2592 33.4993 24.9397 33.3224 24.6734 33.1986C24.5847 33.0218 24.0699 32.385 23.9456 32.2435C23.7858 32.102 23.8746 31.9959 23.9634 31.9429C24.0521 31.8898 24.4071 31.4476 24.5137 31.2707L25.3302 33.1633C25.3657 33.234 25.3657 33.4463 25.348 33.5347C25.8628 34.7197 24.6202 34.0653 24.6202 33.9415C24.6202 33.8354 24.5137 33.6762 24.3539 33.6762C22.348 32.3497 21.8687 33.5524 22.0995 34.1361C21.9574 34.2068 21.7089 34.3306 21.5847 34.3306C21.0876 34.8259 20.6438 34.4898 20.5551 34.366C19.9693 34.3837 19.9693 33.7469 20.0403 33.0395C18.7089 35.4272 21.6734 35.0912 22.1882 34.702C22.1172 34.7551 22.2415 34.9673 22.348 34.985C22.4722 35.1088 22.703 35.1973 22.8983 35.1973C22.845 35.2503 22.8805 35.3741 22.987 35.4449L23.2 35.3565C23.3243 35.3565 23.7858 35.4626 23.8213 35.6041L23.6438 35.7279C23.6261 35.7633 23.6616 35.9048 23.8213 35.9932L24.0521 35.8517C24.0876 35.8871 24.5137 35.9755 24.5492 36.117L24.4426 36.2585C24.4604 36.3293 24.5314 36.4177 24.6912 36.4177L25.7918 35.4626C26.129 35.7279 26.6261 35.6041 26.5906 35.3388L27.6202 36.1701C27.7089 36.1701 27.8509 36.0639 27.9042 35.9048L27.6912 35.7102C27.6557 35.5156 27.9929 35.3211 28.1882 35.3565L28.4545 35.5333C28.5077 35.5333 28.6142 35.3918 28.632 35.2327L28.4012 35.0735C28.4367 34.8612 28.5077 34.7905 28.6675 34.7551L28.916 34.8258C28.9515 34.8082 29.0048 34.649 28.987 34.5429L28.7563 34.4898C28.703 34.3837 28.845 34.1184 28.9338 33.8884C28.9338 33.8884 29.0935 33.9061 29.0935 33.8531C29.1113 33.8 29.1113 33.6585 29.0403 33.5701L28.0639 33.7116C28.0639 33.8 28.1882 34.1007 28.2415 34.1361C28.277 34.1891 28.49 34.5605 28.5077 34.702L27.5847 34.7197C27.4959 34.6844 27.5314 34.3306 27.5669 34.1891L27.4426 33.7823L26.2 33.9592C26.2 33.9592 26.0758 33.3578 26.0048 33.4463C25.9338 33.5347 25.6675 32.3673 25.3657 32.5796L25.1172 31.9605C25.2415 31.9075 25.9693 32.049 26.2355 32.0136C26.1823 31.8014 25.8273 31.5361 25.5255 31.4122C24.9752 31.4299 25.0995 31.2 25.1172 31.2C25.0995 31.2 25.6142 31.0939 25.916 31.0054C26.2355 31.0939 26.6971 31.9252 26.8213 32.1905C26.7681 32.7388 27.0521 32.7742 27.1941 32.8626C27.3361 32.951 27.6024 34.2245 27.6024 34.2245C27.6024 34.2422 27.5314 34.4898 27.6024 34.6667H28.3302C28.3302 34.6667 28.206 34.3483 28.0284 34.2068L27.6024 32.668C27.7267 32.2435 27.6024 31.9429 27.4249 31.8544C27.2474 31.766 27.3539 31.6245 27.3006 31.1646C27.6024 30.8639 28.3125 30.7048 28.7208 30.581C28.7208 30.581 28.8983 30.7578 28.916 30.7578C28.8983 30.7578 28.703 31.3769 28.632 31.6952L28.348 31.4122L28.0107 32.1197C28.8095 32.6327 29.2 31.5361 29.2533 30.7401C29.7858 30.3864 29.4841 29.6612 28.8095 30.015C28.8095 30.015 28.206 30.0327 27.8864 30.0503C27.9042 28.9184 26.6793 27.3088 27.2474 26.6898C26.9811 27.5388 27.9752 27.5211 27.8332 28.0871C28.7385 28.4939 28.7208 27.8571 28.7385 27.7333C28.7563 27.6272 28.632 27.0259 28.5077 26.8313C28.419 26.6367 28.5787 26.2299 28.3835 25.9293L28.7385 25.6109L28.1527 25.4163L28.2415 25.151L27.9752 25.1333C27.3894 24.0898 26.4486 24.5673 26.4486 24.5673C26.4486 24.5673 26.6616 24.6381 26.8391 24.7796C26.6083 24.7442 25.5432 25.1864 25.5432 25.1864C25.5432 25.1864 25.8628 25.2395 26.1645 25.3456L25.3125 25.9116L25.5077 25.9823L25.1527 26.3537C25.1527 26.3537 24.9219 26.3007 24.6557 26.3537C24.3894 25.8408 24.0166 25.3102 24.3539 25.2748L24.8509 25.3633C26.0935 23.1701 23.5906 23.6476 23.1645 24.1782C22.7208 24.7088 23.058 24.7973 23.3421 24.6912L23.5906 24.9741C23.3066 25.2041 22.4545 24.7442 22.2237 24.7442C21.9929 24.7442 21.9929 24.5673 22.0462 24.3728C22.0817 24.1782 21.9929 23.683 21.6024 23.6122L21.3716 23.1701L21.1586 23.2762L21.3716 23.7714C21.1764 23.8599 21.1586 24.2313 21.4071 24.7265C21.4071 24.7265 20.2178 25.4517 19.7208 25.9646L20.0758 26.3361L20.9279 25.5578L21.0521 25.6109L19.8983 26.7605L20.4486 27.132L21.2651 26.3714H21.4249L20.4131 27.4327L20.9634 27.698L21.9397 26.5129L22.0639 26.5306L21.2651 27.5565L22.0462 27.6803L22.3835 27.2558L22.845 27.415L22.9693 27.751L22.5787 27.8041L22.703 28.5646C22.703 28.5646 22.135 28.7238 21.7444 28.9537C20.3066 27.2027 19.6497 30.351 19.561 31.4299ZM21.2296 34.649C21.4959 34.5959 21.7799 34.4367 21.9397 34.3483L21.9929 34.5252C21.9042 34.5605 21.6202 34.649 21.2296 34.649ZM26.7148 35.3034L26.7681 35.0558L27.6734 35.9932L26.7148 35.3034ZM28.3657 35.3211L26.7858 34.8258L26.6971 34.5782L28.3657 35.3211ZM26.7148 34.5075L26.6971 34.3306L27.4249 34.4367L27.4604 34.5605L26.7148 34.5075ZM27.4071 33.9238L27.4249 34.0476L26.6971 34.2245L26.6438 34.0299L27.4071 33.9238ZM26.5196 35.2327C26.5906 35.0558 26.4131 34.5605 26.2888 34.1891C26.4486 34.2952 26.7503 35.1088 26.5196 35.2327ZM22.703 34.0476C22.703 34.0476 22.7208 34.3129 22.8095 34.5075L22.6497 34.5252C22.1882 33.3048 23.1823 33.7116 23.9279 34.1537C22.5077 33.8708 22.703 34.0476 22.703 34.0476ZM23.4308 34.1537V34.2952C23.4308 34.2952 23.0758 34.2775 22.8628 34.2952L22.845 34.1184C22.987 34.1184 23.3953 34.1361 23.4308 34.1537ZM22.916 33.2163L22.9515 33.3401C22.8095 33.3401 22.5432 33.4109 22.5077 33.4639L22.4012 33.3401C22.49 33.2694 22.6675 33.181 22.916 33.2163ZM22.2592 34.702C22.206 34.6667 22.1705 34.4014 22.1705 34.2599H22.277C22.277 34.4014 22.3657 34.649 22.3657 34.649L22.2592 34.702ZM22.3125 34.0122L22.1882 34.0476C22.135 33.8884 22.206 33.6762 22.277 33.6054L22.3657 33.6939L22.3125 34.0122ZM22.3835 34.8435C22.9338 34.5252 23.9634 34.2422 24.3716 34.2952L24.4782 34.4544C24.3716 34.4367 23.3421 34.5075 22.3835 34.8435ZM23.0048 35.2857L24.7089 34.6313L24.8332 34.7905L23.0048 35.2857ZM23.8036 35.7456L25.0995 34.8966L25.2415 35.0204L23.8036 35.7456ZM25.6497 35.3741L24.6379 36.1878L25.5255 35.2503L25.6497 35.3741ZM27.9574 26.7252C27.9219 26.7429 27.8687 26.7075 27.8332 26.6367C27.7977 26.5483 27.7977 26.4952 27.8332 26.4599C27.8864 26.4599 27.9397 26.4952 27.9752 26.566C28.0107 26.6367 28.0107 26.7075 27.9574 26.7252ZM28.3835 26.5306C27.8332 26.2122 28.064 26.0177 27.9929 25.7878C28.3302 26.3714 28.1172 26.2122 28.3835 26.5306ZM28.0995 25.2041L27.9574 25.5755L27.6024 25.2571L28.0995 25.2041ZM27.3894 30.8639H27.1409L26.9634 30.3333L27.1764 30.298L27.3184 30.5633L27.6912 30.0327L27.8509 30.1742L27.3894 30.8639ZM27.5847 29.219C27.6734 29.2544 27.8332 29.5905 27.7444 29.6259C27.6379 29.6612 27.5669 29.6259 27.3716 29.449C27.1764 29.2721 26.7503 29.1129 25.845 29.3075L25.7918 29.1306C26.2 29.0422 26.7148 28.9537 27.2119 29.1306C27.3006 29.0599 27.5314 29.0776 27.5847 29.219ZM25.6497 26.3891C25.703 26.3007 25.916 25.9823 26.1645 25.8408L25.987 25.7878C26.0403 25.6993 26.3953 25.4694 26.5728 25.4163L26.4131 25.381C26.5906 25.2218 27.0521 25.098 27.3539 25.151V25.2748C26.3776 25.3633 26.058 26.0884 25.7208 27.0259L25.632 26.9197C25.6142 26.7959 25.6675 26.6014 25.8095 26.4422L25.6497 26.3891ZM25.561 27.0259C25.9338 27.2027 26.6971 27.6449 27.0521 27.6449L27.1409 27.8395C26.8924 27.8571 25.9515 27.415 25.4722 27.1497L25.561 27.0259ZM25.419 27.2027C26.1468 27.698 27.0521 28.1755 27.3006 28.1932L27.3539 28.3701C27.1586 28.3701 26.1823 27.8748 25.4012 27.3619L25.419 27.2027ZM24.7977 26.8844C24.9042 26.9905 25.1172 27.0082 25.206 26.9197C25.2947 26.849 25.4012 26.9728 25.3835 27.0259C25.3657 27.1143 25.3657 27.415 25.206 27.3796C25.0639 27.3796 24.7267 27.5918 24.7444 27.5211C24.7799 27.468 24.7799 26.8667 24.7977 26.8844ZM24.8509 27.7687L24.9752 27.698C25.0107 27.9986 25.2237 28.6531 25.5787 29.219C25.9338 29.8027 25.774 30.3333 25.2415 30.4041L25.1705 30.1742C25.4545 30.1034 25.845 30.068 25.3835 29.2367C25.3835 29.5728 25.348 29.8204 25.064 29.7673L24.9929 29.5551C25.2415 29.5374 25.3657 29.2367 24.9397 28.4762C24.8332 28.4585 24.8332 28.4762 24.7799 28.4762L24.7089 28.1401C24.8687 28.3347 25.0284 28.4939 24.8509 27.7687ZM24.5314 28.034C24.5847 28.1932 24.9574 29.5728 24.9219 29.9265C25.0817 30.0503 25.1705 30.7224 25.1882 31.0762L24.9929 31.1116C25.0107 30.5102 24.8687 30.1388 24.6912 29.9619C24.9219 29.6435 24.5847 28.8299 24.3361 28.2286C23.6616 28.0517 24.0166 27.9986 24.3184 27.9986C23.7148 27.6626 23.8924 27.6272 24.2474 27.8041C24.6024 27.9986 24.2296 27.4327 24.2296 27.4327C24.2296 27.4503 24.5137 27.468 24.6202 27.3442C24.5314 27.5388 24.4604 27.6095 24.4604 27.6095C24.4604 27.6095 24.5314 27.8925 24.5314 28.034ZM24.2829 25.0449C24.2296 25.0095 24.1941 24.9565 24.2119 24.9565C24.2119 24.9388 24.2829 24.9388 24.3361 24.9565C24.4071 24.9918 24.4249 25.0449 24.4071 25.0626C24.3894 25.098 24.3361 25.0803 24.2829 25.0449ZM24.8864 24.4612C24.9929 24.5497 24.7799 25.0272 24.6379 25.1156C24.5847 25.1333 24.4782 25.1333 24.5492 25.0272C24.5847 24.9211 24.8332 24.6912 24.7977 24.585C24.7444 24.4789 24.4782 24.2844 24.3894 24.3374C24.2651 24.3728 24.1054 24.7973 24.0344 24.8857C23.9634 24.9565 23.8924 24.868 23.8746 24.868C24.1231 24.302 24.2474 23.8245 24.8864 24.4612ZM24.3361 25.8408C24.2474 25.6639 23.9101 25.381 23.7503 25.2041C24.0166 25.3102 24.2296 25.381 24.3361 25.8408ZM23.5728 25.3102C23.9811 26.3361 23.8568 27.3973 23.5196 27.6449L23.4841 27.4503C23.8036 27.3796 23.7503 25.8585 23.5728 25.3102ZM23.5373 26.2476L23.3953 26.283C23.271 25.9293 23.1823 26.0707 22.774 26.0884L22.7385 25.9469C23.2533 25.8762 23.4308 25.8054 23.5373 26.2476ZM23.0403 25.0803L23.2 25.1687C23.0048 25.151 22.7208 25.3102 22.5255 25.3986L22.49 25.2571C22.632 25.1333 22.9515 25.0626 23.0403 25.0803ZM21.4604 24.9565L21.5492 25.0449C21.5492 25.6463 21.5137 26.0354 22.277 25.9116L22.3125 26.0707C21.3539 26.1061 21.3894 25.6993 21.4604 24.9565ZM21.9397 24.6381L22.2237 24.9211L25.0462 31.819L24.5492 31.0762L21.9397 24.6381ZM23.0403 28.7061C23.2355 29.8558 23.3421 30.0327 23.9101 29.8912L23.9811 30.068C23.9811 30.068 23.4841 30.0857 23.3243 30.0327C23.1823 29.9796 23.2178 30.3333 23.2533 30.4218C23.2711 30.5279 23.8036 30.5102 24.1409 30.4395L24.1941 30.581C24.1231 30.634 23.4841 30.6517 23.3598 30.634C23.2533 30.6163 23.3066 30.8109 23.3421 30.917C23.3953 31.0054 23.8213 31.0939 24.3539 31.0939L24.4071 31.2354C24.2651 31.2884 23.6971 31.2 23.4841 31.1116C23.271 31.0408 23.1823 31.1116 23.058 31.4122L22.9515 31.3238C23.3598 30.7932 23.058 29.732 22.8273 28.6707L23.0403 28.7061ZM48.8154 19.2082C47.9989 18.8367 47.3598 18.7837 45.9042 19.102C46.5432 18.6422 47.8391 17.068 48.0876 16.0776C46.632 15.9714 45.6912 16.4667 44.8924 16.7673C47.3953 14.8218 47.5018 13.6367 47.2355 11.9211C45.9574 13.2122 41.9811 16.3429 41.9989 16.3429C41.9811 16.3429 44.0048 14.2558 45.4604 12.5224C46.9338 10.7714 46.277 9.07347 45.3539 7.81769C45.1764 8.70204 42.7799 12.381 40.845 14.0435L40.7208 13.7075C40.6497 14.1673 39.3361 15.9714 38.5373 16.6259L38.3953 16.3075C37.987 16.9442 35.5906 18.9959 34.5787 20.0218C33.5847 21.0653 33.9574 22.0735 34.561 22.6218C35.1823 23.1701 35.4486 23.7537 34.7385 24.7088C34.0639 25.6993 32.1645 25.5578 31.3125 24.4435C33.0876 23.7361 32.9101 22.6395 32.4841 21.7728C31.419 23.3116 30.7622 22.6571 29.8569 21.8259C30.8332 21.8082 31.3835 21.3129 31.7563 20.6054C29.9456 20.8354 29.3776 20.1279 29.1113 19.0136C28.8273 17.917 29.9634 16.6435 31.2947 15.7592C31.3302 15.7592 31.632 15.9361 31.845 15.9007C32.0758 15.9007 32.3421 15.5469 32.6438 15.4054C33.9752 15.1932 34.6497 15.7592 34.5077 17.1388C34.987 16.8912 35.058 16.1129 34.8983 15.6177C34.7208 15.1401 34.2947 15.0694 34.348 14.9986C34.419 14.9279 34.9515 15.2816 35.4308 15.7238C35.8924 16.1837 36.9574 16.1837 37.4012 15.9891C37.845 15.7769 38.0935 15.1048 38.2178 14.468C37.8983 15.034 37.0817 15.317 36.5847 15.2816C36.1231 15.2286 35.1823 14.5388 34.348 14.3619C35.0403 13.7605 35.9989 14.185 36.6202 14.6626C37.8983 12.9469 36.9397 12.2041 36.2829 11.8857C35.6261 11.5497 35.4486 11.815 35.2888 11.7265C35.1468 11.6558 34.9515 11.3905 34.6142 11.2844V11.0898C35.9279 11.0721 36.6024 10.5061 37.206 10.0109C37.8273 9.51565 37.6142 8.2068 37.3835 7.55238C37.1705 6.88027 37.6142 6.79184 37.845 6.91565C38.058 7.03946 39.2474 7.46395 39.2474 7.46395C39.2474 7.46395 39.3539 7.55238 39.4782 7.95918C39.5847 8.36599 39.5314 8.59592 39.3539 8.84354C39.1764 9.09116 38.6971 9.65714 38.6616 10.3646C38.6261 11.1075 39.1586 11.4966 39.2119 11.9918C39.2829 12.5224 38.6616 12.8054 38.6616 12.8054C38.6616 12.8054 38.8746 12.9823 39.2119 12.9469C39.5669 12.9293 40.2237 12.4871 40.4367 11.9388C40.632 11.4082 39.9752 10.7184 39.9752 10.7184C39.9752 10.7184 40.4012 10.966 40.7385 10.9837C41.0758 11.0367 41.0403 10.8599 41.3421 10.9483C41.6261 11.0367 41.6616 11.4612 41.6616 11.4612C41.6616 11.4612 41.9279 11.2667 42.0344 10.9306C42.1231 10.5946 42.2296 9.8517 41.3243 9.79864C40.4012 9.72789 40.5965 9.40952 41.0758 8.82585C41.5906 8.22449 41.6083 7.2517 40.6142 7.02177C39.6379 6.80952 39.1764 6.31429 38.8213 5.71292C38.4486 5.07619 37.5077 5.00544 36.2829 5.37687C35.0935 5.7483 35.6971 7.35782 36.0699 8.27755C36.4604 9.17959 36.4426 9.48027 36.2119 9.94014C35.9634 10.3823 35.0225 10.6476 34.4367 10.6476V10.2408C34.916 9.49796 35.1823 8.40136 35.0048 7.95918C34.845 7.51701 34.0639 7.28707 33.6024 7.30476C33.1231 7.32245 33.1231 7.32245 33.1231 7.32245C33.4426 7.14558 33.4959 6.7034 33.1586 6.50884V6.1551H33.4604V5.53605H33.1764V5.21769H32.4841V5.51837H32.2355V6.1551H32.5196V6.50884C32.2178 6.7034 32.2711 7.12789 32.5551 7.32245C32.5551 7.32245 32.5551 7.32245 32.0935 7.30476C31.632 7.30476 30.8332 7.51701 30.6734 7.95918C30.5137 8.40136 30.7622 9.49796 31.2237 10.2408L31.1882 10.7714C29.5196 10.4707 29.058 10.2585 27.2119 8.36599L27.2296 8.02993C28.3302 5.50068 28.4367 5.58912 28.4722 4.95238C28.49 4.31565 28.4722 2.90068 26.0225 2.68844C26.0225 2.97143 25.6497 3.27211 25.3835 2.56463C25.774 2.26395 25.8095 1.57415 25.4012 1.48571L25.3125 1.02585L25.7563 1.18503V0.353741L25.2947 0.512925L25.4722 0H24.5314L24.6734 0.495238L24.2296 0.318367V1.14966L24.6557 1.02585L24.5314 1.43265C24.1409 1.55646 24.1231 2.24626 24.5314 2.51156C24.2651 3.23673 23.8924 2.91837 23.8924 2.63537C21.4604 2.81224 21.3716 4.19184 21.3716 4.82857C21.4071 5.46531 21.4959 5.39456 22.5432 7.9415V8.29524C20.6616 10.117 20.2888 10.3116 18.6202 10.5769V10.0463C19.0817 9.32109 19.3657 8.22449 19.2237 7.78231C19.0817 7.35782 18.2829 7.09252 17.8213 7.09252C17.3598 7.09252 17.3598 7.09252 17.3598 7.09252C17.6261 6.91565 17.6971 6.54422 17.3776 6.27891V5.90748H17.6971V5.27075H17.4131V4.97007H16.774V5.27075H16.4367V5.90748H16.7208V6.26122C16.348 6.50884 16.3835 6.91565 16.7208 7.09252C16.7208 7.09252 16.6853 7.09252 16.277 7.05714C15.7977 7.02177 14.9989 7.23401 14.8391 7.6585C14.6616 8.11837 14.8924 9.21497 15.3539 9.97551L15.3361 10.3646C14.7326 10.3646 13.8095 10.0639 13.5787 9.62177C13.348 9.17959 13.348 8.87891 13.7563 7.95918C14.1645 7.05714 14.8213 5.46531 13.6142 5.07619C12.4249 4.68708 11.4663 4.72245 11.0758 5.3415C10.703 5.96054 10.2415 6.40272 9.22963 6.61497C8.2533 6.80952 8.23555 7.78231 8.71484 8.40136C9.21188 9.00272 9.38939 9.3034 8.46632 9.35646C7.54324 9.39184 7.61425 10.1347 7.72076 10.4707C7.80951 10.8245 8.07579 11.019 8.07579 11.019C8.07579 11.019 8.11129 10.5946 8.43081 10.5061C8.73259 10.4177 8.69709 10.5946 9.03436 10.5769C9.37164 10.5592 9.77993 10.3293 9.77993 10.3293C9.77993 10.3293 9.08762 10.9837 9.30064 11.532C9.47815 12.0803 10.135 12.5224 10.49 12.5401C10.845 12.5932 11.0403 12.434 11.0403 12.434C11.0403 12.434 10.4367 12.1333 10.49 11.6204C10.5787 11.1252 11.129 10.7537 11.1113 10.0109C11.0758 9.28571 10.632 8.73742 10.4545 8.47211C10.2947 8.2068 10.2237 7.99456 10.3657 7.58776C10.49 7.16327 10.6142 7.09252 10.6142 7.09252C10.6142 7.09252 11.8036 6.7034 12.0166 6.57959C12.2296 6.47347 12.6912 6.54422 12.4604 7.21633C12.2119 7.88844 11.9811 9.16191 12.5669 9.7102C13.1705 10.2054 13.8095 10.7714 15.1054 10.8422V11.0544C14.7681 11.1429 14.5906 11.4082 14.4308 11.4612C14.2888 11.5497 14.1113 11.2844 13.4545 11.585C12.7799 11.9034 11.8213 12.5755 13.0284 14.2558C13.6853 13.7959 14.6261 13.4068 15.3006 14.0082C14.4841 14.1673 13.5255 14.8395 13.0284 14.8925C12.5492 14.9279 11.7326 14.6095 11.4486 14.0435C11.5551 14.6095 11.8036 15.3347 12.2296 15.5646C12.6734 15.7769 13.7208 15.8122 14.2 15.3524C14.6793 14.9102 15.2119 14.6095 15.2829 14.6449C15.3361 14.7156 14.9101 14.7864 14.7503 15.2639C14.5551 15.7238 14.6261 16.5374 15.0876 16.7673C15.0166 15.3878 15.7089 14.8218 17.0403 15.0694C17.3243 15.2109 17.6083 15.5823 17.8213 15.6C18.0344 15.6177 18.3361 15.4762 18.3716 15.4762C19.6675 16.3959 20.6793 17.6871 20.3598 18.8014C20.0758 19.9156 19.5965 20.5878 17.7858 20.3224C18.1231 21.0476 18.6557 21.5429 19.6142 21.5959C18.6912 22.3918 17.9989 23.0286 17.0048 21.4544C16.561 22.3211 16.3657 23.4177 18.1054 24.1782C17.2178 25.2571 15.3184 25.3279 14.6793 24.3374C14.0048 23.3646 14.2711 22.7986 14.8924 22.268C15.4959 21.7374 15.9042 20.7293 14.9456 19.6503C13.9693 18.5891 11.6261 16.502 11.2178 15.8476L11.1113 16.166C10.348 15.4408 9.03436 13.619 8.99886 13.1592L8.8391 13.4952C6.95744 11.8857 4.68525 8.15374 4.50774 7.26939C3.56691 8.50748 2.85685 10.1701 4.27697 11.9565C5.69709 13.6014 7.64975 15.7592 7.64975 15.7592C7.6675 15.7769 3.81543 12.5578 2.55507 11.3197C2.2533 12.9116 2.32431 14.0966 4.75626 16.1129C3.97519 15.7769 3.03436 15.2639 1.57874 15.317C1.82726 16.3252 3.05212 17.9347 3.69117 18.4122C2.27105 18.0585 1.632 18.0762 0.81543 18.4476C1.17046 19.1728 2.35981 20.4993 3.21188 20.8884C2.2178 20.9946 1.0107 21.5429 0.850933 21.702C1.27697 22.3565 1.98703 22.9401 2.9101 23.2762C1.84502 23.7714 1.54324 24.1075 1.38348 24.3551C1.86277 25.0803 2.44857 25.5755 3.26513 25.7347C3.14087 25.8408 3.01661 25.9646 2.89235 26.0884C3.05212 26.3007 3.63791 26.566 3.67342 26.7075C3.70892 26.8313 3.92194 26.566 3.97519 26.3891C3.95744 26.4952 4.59649 26.7605 4.36573 27.0789C4.47223 27.751 4.96928 26.9905 5.14679 26.6367C6.35389 27.8395 5.23555 29.2544 5.2533 29.3075C5.2533 29.3605 5.55507 29.6082 5.66158 29.8204C6.30064 29.4844 7.80951 28.4939 7.80951 28.4939C7.80951 28.4939 6.19413 29.6789 5.82135 30.1742C5.46632 30.7225 5.66158 31.6599 5.73259 31.7306C5.8036 31.8721 6.85093 32.1374 7.20596 31.7837C7.59649 31.4122 9.38939 29.2544 9.37164 29.3252C9.37164 29.3959 8.39531 30.7048 8.05803 31.4299C7.73851 32.1551 8.20005 33.234 8.35981 33.3401C8.59058 33.4463 9.81543 33.3401 10.0107 32.9687C10.1882 32.5973 11.4663 30.0857 11.4663 30.0857C11.4841 30.0857 10.561 31.9959 10.5077 32.6327C10.4545 33.2694 11.0935 34.1537 11.2888 34.1714C11.4841 34.2245 12.6024 33.9238 12.7267 33.4639C12.8687 33.0218 13.4722 30.581 13.4545 30.581C13.4545 30.581 13.1527 32.2612 13.2415 32.7565C13.277 33.3224 14.0758 33.7116 14.2355 33.9061C14.3776 34.2245 14.5018 34.1184 14.6793 33.9061C14.8391 33.7293 15.7267 33.5878 15.6734 32.5796C15.6379 31.5714 15.6734 30.8109 15.6734 30.8109C15.6734 30.8109 16.277 30.8463 16.5787 30.5633C16.8628 30.298 17.0403 30.2095 17.0403 30.2095C17.0403 30.2095 17.2888 30.7578 17.6438 30.7755C18.0166 30.8109 18.3184 30.917 18.3184 30.917L18.3716 34.1891C17.5551 34.8082 16.8983 35.1973 15.7977 34.8966L16.0284 35.1619C14.3776 35.2857 13.3302 35.8871 13.5432 37.9211C13.7563 39.902 12.7267 39.3361 12.7089 39.3184C12.7267 39.3184 13.2237 40.6803 14.7681 39.619C14.9989 40.2027 14.7858 40.9986 14.6616 41.2286C15.0876 41.0517 15.4426 40.7333 15.5847 40.5565C15.6912 40.3973 15.7089 40.8571 15.6379 41.0694C15.5847 41.2816 16.1172 40.5034 16.1705 40.3265C16.2415 40.132 16.845 40.7333 16.2237 41.2463C15.5847 41.7769 13.5432 42.4313 12.6734 42.5551C11.5728 42.732 10.4722 42.8912 10.4722 41.8122C10.4722 40.7687 9.24738 40.6626 8.75034 41.1932C8.44857 40.9102 8.2178 40.415 8.2178 40.415C8.2178 40.5034 7.34797 40.8041 7.31247 40.751C7.27697 40.8218 7.56099 41.6 7.40123 41.7769C7.24147 41.9891 6.44265 42.3605 6.51365 42.7143C6.4604 43.2626 7.0462 43.4395 7.13496 43.4571C6.95744 43.9701 7.50774 44.483 7.86277 44.3592C7.82726 45.332 7.5965 45.0667 8.69709 45.6503C8.89235 45.7565 9.17638 45.7034 9.28289 45.8095C9.38939 45.9156 10.0995 46.4286 10.3835 44.8721C10.8095 44.483 11.7858 43.8286 12.8154 43.634C13.9693 43.4395 18.1586 42.502 19.0995 42.4313C19.1527 41.7415 18.8332 41.0694 18.8332 41.0694C18.8332 41.0694 19.916 40.8395 20.3243 40.0082C19.6497 40.1497 18.9752 40.0435 18.9397 39.2653C18.9042 38.4871 19.49 37.815 20.3421 37.9211C21.3361 38.0095 22.348 38.8231 22.277 39.7429C22.2415 40.6449 21.5669 41.034 21.0699 41.3524C20.6083 41.7061 20.6438 42.4136 20.6261 42.4136C20.6438 42.4136 20.5906 42.166 20.9634 42.0245C21.3361 41.8653 22.0462 41.8476 22.0462 41.8299C22.0462 41.8476 22.0462 42.0422 21.6734 42.2898C21.3006 42.5728 19.9515 43.1211 19.4012 43.3864C18.7267 43.6517 17.7148 44.5537 17.3421 44.5184C16.9693 44.5361 16.632 44.4299 16.5965 44.1293C16.5787 43.8463 16.7563 43.4571 16.7563 43.4571C16.7563 43.4571 15.9219 43.6163 15.6379 44.0762C15.3539 44.5537 15.2119 45.5442 15.8154 45.898C15.2651 46.5347 15.0699 47.7374 15.3539 48.3918C15.6379 49.0463 15.5847 49.6299 15.5847 49.6122C15.5847 49.6122 16.1882 49.4177 16.2237 48.9932C16.2592 48.6041 16.703 48.0558 16.6853 48.0558C16.703 48.0558 16.6853 49.2054 17.3776 49.683C18.0521 50.1605 18.7622 50.4435 19.774 49.5061C20.7503 50.6204 21.3716 51.3102 23.0225 50.7442C23.2533 51.1156 23.9279 51.8054 24.3006 51.9116C24.6734 51.8231 25.3835 51.2748 25.6497 50.9034C27.2829 51.5048 27.9042 50.8503 28.916 49.7361C30.0166 50.6912 30.7267 50.4082 31.419 49.9483C32.0935 49.5061 32.129 48.3565 32.129 48.3565C32.129 48.3565 32.5373 48.8871 32.5906 49.2939C32.6261 49.7184 33.2296 49.9483 33.2296 49.9306C33.2296 49.9306 33.1764 49.3646 33.4959 48.7102C33.8154 48.0735 33.6379 46.8531 33.1054 46.1986C33.7089 45.8803 33.5847 44.8544 33.3006 44.3769C33.0344 43.917 32.2 43.7401 32.2 43.7401C32.2 43.7401 32.3776 44.1116 32.3421 44.4122C32.3066 44.7306 31.9693 44.819 31.5965 44.7837C31.2237 44.7837 30.2296 43.8639 29.5728 43.581C28.9338 43.298 27.6024 42.7497 27.2119 42.4667C26.8391 42.1837 26.8568 41.9714 26.8568 41.9714C26.8568 41.9714 27.5492 42.0422 27.9397 42.1837C28.3125 42.3605 28.2415 42.5728 28.2592 42.5728C28.2415 42.5728 28.3125 41.883 27.8332 41.5293C27.3539 41.1755 26.7148 40.751 26.6793 39.8667C26.6261 38.9646 27.6734 38.151 28.6497 38.098C29.6083 38.0449 30.1764 38.6993 30.1054 39.4776C30.0521 40.2381 29.2888 40.3442 28.632 40.2027C28.987 41.034 30.1764 41.2993 30.1764 41.2993C30.1764 41.2993 29.8391 41.9537 29.8924 42.6259C30.8332 42.7497 35.0048 43.7225 36.3539 44.0408C36.8864 44.3415 38.1113 45.102 38.6438 45.1197C39.1586 45.1551 39.6379 44.7837 40.0107 44.6776C40.3835 44.5891 40.7918 44.6422 41.0935 44.5184C41.3776 44.4299 41.6793 44.0054 42.2829 43.8463C42.8509 43.6694 42.8509 43.1918 42.7799 42.9265C43.0284 42.7497 43.5255 41.9891 43.632 41.8476C43.703 41.7238 43.7208 41.8476 44.0225 41.8122C44.3421 41.7769 44.5196 40.5565 44.2 40.3796C43.845 40.2027 44.0935 40.2381 43.8983 40.0966C43.703 39.1769 42.9929 37.7619 41.5728 37.4612L41.3243 37.019L41.9989 37.2844V35.7986L41.3243 36.1347L41.6083 35.4626H40.0639L40.2592 36.1347L39.5492 35.7986V37.2844L40.2947 37.019L40.0462 37.4966C38.6261 37.7973 37.8628 38.9293 37.6497 39.849C37.6497 39.9197 37.4722 39.9374 37.277 40.0966C37.0817 40.2735 37.0817 41.5293 37.277 41.6C37.4545 41.6884 37.7563 41.6354 37.8095 41.7415C37.8628 41.8653 38.058 42.2721 38.058 42.2721C38.058 42.2721 37.3125 42.9442 36.3716 42.9088C35.4486 42.9088 33.4071 42.0952 32.8036 41.5293C32.1645 40.9986 32.8036 40.4327 32.8746 40.6095C32.9279 40.7864 33.4249 41.6 33.4071 41.3878C33.3539 41.1578 33.3539 40.7156 33.4781 40.8748C33.5847 41.034 33.9397 41.3878 34.3657 41.5823C34.2237 41.3701 34.0284 40.5565 34.277 39.9551C35.8036 41.0517 36.3539 39.7075 36.3539 39.6898C36.3539 39.7075 35.2888 40.2558 35.5728 38.2748C35.8391 36.2762 34.8095 35.6041 33.1586 35.4626L33.3894 35.215C32.3066 35.498 31.632 35.0735 30.8509 34.4544L30.9574 31.1646C30.9574 31.1646 31.2947 31.0762 31.6497 31.0585C32.0225 31.0231 32.271 30.5102 32.271 30.5102C32.271 30.5102 32.4486 30.5986 32.7326 30.8816C33.0166 31.1469 33.6202 31.1469 33.6202 31.1469C33.6202 31.1469 33.6379 31.9252 33.5847 32.9156C33.5137 33.9238 34.4012 34.1007 34.561 34.2775C34.7385 34.4721 34.8628 34.5782 35.0048 34.2775C35.129 33.9946 35.9456 33.6585 36.0521 33.1633C36.1409 32.6503 35.8746 30.9701 35.8746 30.9701C35.8746 30.9701 36.4071 33.4286 36.5314 33.8707C36.6557 34.3129 37.7563 34.6313 37.9515 34.5959C38.129 34.5782 38.8036 33.7293 38.7681 33.0748C38.7326 32.4381 37.8628 30.4925 37.8805 30.4925C37.8628 30.4925 39.0699 33.0395 39.2474 33.4286C39.4249 33.7823 40.6497 33.9415 40.8805 33.8354C41.058 33.7469 41.5373 32.668 41.2355 31.9252C40.916 31.2 39.9929 29.8735 39.9752 29.8027C39.9752 29.732 41.6971 31.9252 42.0699 32.3143C42.4426 32.6857 43.4722 32.4204 43.5787 32.3143C43.6497 32.2258 43.8628 31.3061 43.5255 30.7578C43.1527 30.2272 41.5728 29.0068 41.5728 29.0068C41.5728 29.0068 42.3006 29.449 43.3835 30.2272C44.3953 31.0054 44.7503 30.6871 45.5847 30.5102C45.6912 30.1918 45.5847 29.3075 45.0876 28.5469C46.4012 28.6 46.7385 28.317 47.2533 27.9456C47.2178 27.6803 46.8095 26.8136 46.2237 26.3361C47.0403 26.1769 47.6261 25.717 48.1231 25.0095C47.9811 24.7442 47.6793 24.4082 46.6497 23.8952C47.5728 23.5769 48.2829 23.0463 48.7444 22.3741C48.5847 22.2327 47.3953 21.6313 46.3835 21.5075C47.1823 21.2068 48.4426 19.9156 48.8154 19.2082ZM40.1172 12.098C40.0817 11.4082 39.2119 11.1782 39.5669 10.4C39.5669 11.0721 40.419 11.1252 40.1172 12.098ZM36.4249 8.43674C35.8036 6.95102 35.4841 5.65986 36.5492 5.92517C37.6142 6.19048 39.6912 7.03946 40.49 7.21633C41.2888 7.3932 41.4308 8.15374 40.916 8.70204C40.419 9.25034 39.8509 9.78095 41.6616 10.2054C41.3243 10.2054 40.7563 10.2762 40.4722 10.0286C40.1882 9.78095 39.7267 9.35646 40.632 8.47211C41.5551 7.60544 40.0995 7.41088 39.7267 7.30476C39.3184 7.21633 37.916 6.59728 37.206 6.42041C36.5137 6.24354 35.9634 5.99592 36.4781 7.41088C36.9574 8.80816 37.3125 9.81633 36.3716 10.4707L35.6616 10.5946C36.3006 10.3293 37.0462 9.95782 36.4249 8.43674ZM9.63791 11.6912C9.35389 10.7184 10.2237 10.7007 10.2415 10.0109C10.5965 10.7891 9.69117 11.0014 9.63791 11.6912ZM13.4722 10.1701C12.5492 9.46259 12.9219 8.47211 13.4545 7.09252C14.0048 5.71292 13.4545 5.92517 12.7444 6.10204C12.0344 6.27891 10.632 6.8449 10.206 6.91565C9.81543 7.00408 8.35981 7.16327 9.22963 8.04762C10.1172 8.94966 9.65567 9.37415 9.33614 9.60408C9.05212 9.8517 8.50182 9.78095 8.16454 9.76327C9.97519 9.39184 9.44265 8.86122 8.94561 8.27755C8.44857 7.71156 8.60833 6.95102 9.40715 6.79184C10.206 6.63265 12.3006 5.87211 13.3657 5.62449C14.4486 5.37687 14.0758 6.65034 13.4367 8.11837C12.7799 9.60408 13.5077 10.0286 14.1823 10.2939L13.4722 10.1701ZM17.0048 22.1796C17.2533 22.3565 17.8213 22.6748 18.1941 22.7456C17.9811 22.8694 17.5018 22.7279 17.2355 22.5864C17.3421 23.2585 17.7326 23.5238 18.1586 23.7714C17.2178 23.6653 16.8095 22.6571 17.0048 22.1796ZM17.271 25.9823C17.3776 26 17.5728 27.0435 17.4308 26.9374C17.2711 26.8136 17.0048 25.9646 17.271 25.9823ZM15.8332 26.0354C15.9219 26.0707 15.5847 27.0966 15.5137 26.9374C15.4426 26.7782 15.5847 25.8939 15.8332 26.0354ZM14.4131 25.5048C14.4486 25.5755 13.8273 26.4422 13.8273 26.2653C13.8273 26.0707 14.2355 25.2925 14.4131 25.5048ZM14.5196 20.5347C14.5728 20.6585 14.7503 20.7646 14.5196 20.8884C14.2533 21.0299 14.2533 20.6939 14.2533 20.6408C14.2533 20.5878 12.9397 18.9075 12.4959 18.5537C12.8332 18.6599 14.4131 20.3932 14.5196 20.5347ZM11.5018 21.3837C11.5018 21.0476 11.2888 20.4993 11.2888 20.5347C11.2888 20.5347 12.0344 20.2517 12.1231 20.1986C12.1764 20.1456 12.4071 20.0571 12.5669 20.0571C11.7681 19.1374 11.3598 18.0585 11.2711 16.785L11.3243 16.7497C11.3776 18.2531 12.4604 19.898 13.7385 20.9061C13.3835 20.6408 12.7977 20.234 12.4959 20.3755C12.2119 20.517 11.6616 20.6939 11.6793 20.6939C11.6793 20.6762 11.8036 21.2422 11.8391 21.5429C11.8568 21.8612 12.5847 22.1442 13.064 22.268C12.6202 22.1619 11.8924 22.0558 11.7148 22.3388C11.5018 22.5864 11.1113 23.0109 11.1113 23.0109C11.0935 22.9932 11.4486 23.4354 11.6616 23.7007C11.8391 23.9837 12.5669 23.9129 12.9397 23.8422C12.4604 24.0367 11.8568 24.4435 11.8568 24.7619C11.8568 25.0803 11.8568 25.6286 11.8213 25.6286C11.8213 25.6286 12.3716 25.7347 12.7089 25.8231C13.0107 25.9293 13.5255 25.4163 13.8273 25.098C13.5432 25.434 13.1705 25.9646 13.277 26.1946C13.3835 26.4245 13.5432 26.9197 13.5432 26.9197C13.5255 26.9197 14.0403 26.8313 14.3066 26.8313C14.6083 26.8313 14.8568 26.2122 15.0344 25.8762C14.8924 26.2653 14.7503 26.8667 14.9634 27.0612C15.1764 27.2558 15.5137 27.6272 15.5137 27.6272C15.4959 27.6272 15.9219 27.3619 16.1882 27.2381C16.419 27.0966 16.4367 26.4422 16.419 26.2299C16.4545 26.566 16.5965 27.2027 16.8805 27.2735C17.129 27.3619 17.6083 27.5565 17.6083 27.5741C17.6083 27.5741 17.8391 27.132 18.0521 26.9374C18.2296 26.7075 17.9634 26.1238 17.7681 25.8054C17.7858 25.8054 18.2296 26.3891 18.2651 26.6544C18.3361 26.9197 18.2829 27.0966 18.1054 27.2558C17.9101 27.4327 17.6793 27.9102 17.6971 27.8925C17.6971 27.8748 17.2711 27.6272 17.0225 27.5565C16.7918 27.4857 16.561 27.415 16.49 27.132C16.419 27.3796 16.3835 27.4857 16.1172 27.5388C15.8687 27.6095 15.4604 27.9456 15.4604 27.9279C15.4604 27.9279 15.1941 27.5211 14.9989 27.3796C14.8213 27.2027 14.6616 27.0966 14.6793 26.7959C14.5373 27.0082 14.3953 27.0435 14.1113 27.0435C13.8273 27.0435 13.3657 27.2027 13.3657 27.2027C13.3835 27.2027 13.2592 26.7252 13.135 26.4952C13.0284 26.2653 12.9752 26.1592 13.0995 25.9469C12.8154 26.1061 12.7444 26.0354 12.4426 25.9469C12.1586 25.8408 11.6083 25.8054 11.6261 25.8054C11.6438 25.8054 11.6616 25.151 11.6438 24.7619C11.6261 24.4082 11.7148 24.3374 12.0166 24.0544C11.7326 24.0544 11.5373 24.0014 11.3598 23.7007C11.1823 23.4177 10.7563 23.0286 10.7563 23.0286C10.7563 23.0463 11.1468 22.6218 11.3243 22.3565C11.5018 22.0735 11.6083 21.9673 11.9456 22.0204C11.6616 21.8789 11.5196 21.7197 11.5018 21.3837ZM13.5432 24.532C13.561 24.6204 12.5492 25.2218 12.6202 25.0095C12.7089 24.8327 13.4722 24.2136 13.5432 24.532ZM12.1764 23.0109C12.3361 22.8871 13.419 22.8517 13.3125 23.117C13.2947 23.2054 11.9989 23.1347 12.1764 23.0109ZM12.6379 21.3129C12.8154 21.2422 13.7563 21.4544 13.5965 21.702C13.5255 21.7728 12.4782 21.3837 12.6379 21.3129ZM17.9101 29.6259C17.8746 29.4667 17.5373 28.2463 17.5373 28.2463C17.5196 28.0871 17.7326 27.9986 17.7503 28.1755C17.7858 28.3701 18.0876 29.449 18.1054 29.5905C18.1586 29.7497 17.9279 29.7673 17.9101 29.6259ZM16.206 28.0163C16.1882 28.2109 16.135 29.3252 16.1172 29.4667C16.1172 29.6259 15.9042 29.5728 15.9219 29.4313C15.9397 29.2898 15.9752 27.9986 15.9752 27.9986C15.9929 27.8395 16.2237 27.8218 16.206 28.0163ZM14.7326 27.8218C14.6971 27.9986 14.4131 29.0776 14.3776 29.219C14.3243 29.3605 14.1468 29.2898 14.1823 29.1306C14.2355 28.9891 14.5551 27.751 14.5551 27.751C14.5728 27.5918 14.8036 27.6272 14.7326 27.8218ZM13.1882 27.3796C13.0995 27.4857 12.5847 28.4054 12.4959 28.5293C12.4249 28.6531 12.2474 28.5293 12.3184 28.4054C12.4249 28.2639 13.0107 27.2735 13.0107 27.2735C13.0995 27.132 13.2947 27.2381 13.1882 27.3796ZM10.5965 22.6041C10.4012 22.5864 9.28289 22.551 9.12312 22.5333C8.96336 22.5333 8.99886 22.3388 9.14087 22.3388C9.30064 22.3565 10.5965 22.3918 10.5965 22.3918C10.7563 22.3918 10.7918 22.6218 10.5965 22.6041ZM9.26513 20.5347C9.10537 20.4993 9.21188 20.3048 9.35389 20.3578C9.4959 20.4286 10.7385 20.8 10.7385 20.8C10.8805 20.8531 10.8628 21.083 10.6675 21.0122C10.49 20.9592 9.40715 20.6054 9.26513 20.5347ZM10.7918 23.8599C10.9515 23.8422 11.0225 24.0721 10.8095 24.0721C10.632 24.1075 9.4959 24.249 9.35389 24.249C9.21188 24.249 9.21188 24.0367 9.35389 24.0367C9.53141 24.0367 10.7918 23.8599 10.7918 23.8599ZM9.90419 25.7524C10.064 25.717 11.2 25.151 11.2 25.151C11.3421 25.0803 11.4841 25.2748 11.2888 25.3279C11.1113 25.4163 10.1172 25.8939 9.93969 25.9469C9.83318 26.0177 9.76218 25.8231 9.90419 25.7524ZM10.8805 27.2735C10.987 27.1673 11.9811 26.1946 11.9811 26.1946C12.0699 26.0707 12.2651 26.2122 12.1409 26.3361C11.9989 26.4422 11.0935 27.3265 11.0225 27.415C10.916 27.5565 10.774 27.3796 10.8805 27.2735ZM11.129 19.3497C11.2355 19.4204 11.1468 19.615 11.0048 19.5265C10.8628 19.4204 9.60241 18.6952 9.4604 18.5891C9.33614 18.5184 9.4604 18.3592 9.60241 18.4476C9.70892 18.5184 11.129 19.3497 11.129 19.3497ZM10.8805 17.2803C11.0935 17.4925 10.9515 17.6694 10.7563 17.5279C10.561 17.3864 9.35389 16.1306 9.31839 15.2993C9.54916 15.9007 10.4722 16.9619 10.8805 17.2803ZM4.36573 8.43674C4.47223 8.80816 6.51365 11.8503 7.98703 13.3714C7.22371 12.7878 5.04028 10.6299 4.703 9.83401C4.6675 11.2844 6.22963 13.283 7.15271 14.5034C5.99886 13.3184 3.54916 10.8068 4.36573 8.43674ZM5.73259 11.8327C5.98111 12.3102 7.57874 14.1143 8.23555 14.6272L8.07579 14.9986C7.31247 14.2027 5.82135 12.381 5.73259 11.8327ZM6.62016 24.1075L6.69117 24.5143C5.59058 24.5673 4.20596 24.5497 3.60241 24.4435C4.1172 24.302 5.59058 24.2313 6.62016 24.1075ZM6.44265 22.7456C5.34206 22.5687 3.74442 22.3211 3.19413 22.1088C3.77993 22.0912 5.46632 22.2327 6.47815 22.3565L6.44265 22.7456ZM6.60241 20.8354C5.55507 20.5347 3.60241 19.8272 3.14087 19.4735C3.62016 19.615 5.8746 20.2694 6.69117 20.4463L6.60241 20.8354ZM2.9101 12.381C3.12312 12.5578 5.2888 14.5742 7.0107 15.7061C6.19413 15.3524 4.06395 14.0435 3.56691 13.3891C3.88644 14.7156 5.37756 15.9891 6.51365 16.8735C5.16454 16.0599 2.75034 14.5565 2.9101 12.381ZM7.43673 16.6966L7.34797 17.0857C6.4604 16.449 4.59649 14.9986 4.43673 14.5034C4.73851 14.9102 6.69117 16.3252 7.43673 16.6966ZM6.99294 18.6245L6.86868 19.0136C5.89235 18.5537 4.17046 17.3333 3.90419 16.8912C4.29472 17.2449 6.19413 18.3769 6.99294 18.6245ZM2.2533 15.8299C3.67342 15.7061 5.16454 16.7143 6.24738 17.4925C5.30655 17.015 3.76218 16.3605 3.03436 16.3605C3.24738 17.0857 5.02253 18.4653 5.73259 18.9782C4.41898 18.3769 2.59058 17.068 2.2533 15.8299ZM1.41898 18.6599C2.78584 18.3238 4.43673 19.1197 5.60833 19.7388C4.59649 19.4204 2.98111 18.9782 2.27105 19.0667C2.57283 19.7742 4.632 20.6939 5.41306 21.1007C4.02845 20.6762 1.93377 19.8272 1.41898 18.6599ZM1.48999 21.8789C2.69709 21.1361 4.0107 21.5075 5.30655 21.702C4.25922 21.7197 2.96336 21.6667 2.32431 21.985C2.85685 22.5333 4.72075 23.0109 5.57283 23.1524C4.15271 23.1878 2.34206 22.8163 1.48999 21.8789ZM1.96928 24.3728C3.08762 23.5238 4.27697 23.6299 5.60833 23.7361C4.56099 23.8422 3.30064 24.0544 2.69709 24.4612C3.26513 24.9741 4.72076 25.2041 5.60833 25.1333C4.1172 25.3633 2.9101 25.381 1.96928 24.3728ZM4.18821 26.2653L3.58466 26.2299C4.13496 25.8762 4.84502 25.7701 5.64383 25.5755C5.2178 25.7878 4.80951 25.8939 4.18821 26.2653ZM4.61425 26.5837C5.12904 26.3184 5.98111 26.0707 6.95744 25.717L7.09945 26.0707C6.05212 26.4245 5.23555 26.5129 4.61425 26.5837ZM6.4249 27.0612L5.8746 27.5388L5.76809 27.2735L6.4249 27.0612ZM5.67934 29.3782L5.55507 29.0952C5.78584 29.1306 6.47815 28.9184 7.24147 28.5116C6.35389 29.2367 5.99886 29.449 5.67934 29.3782ZM5.85685 28.5116C6.30064 28.1401 6.70892 27.8218 7.57874 27.2735L7.80951 27.6095C6.83318 28.1401 6.4249 28.317 5.85685 28.5116ZM6.01661 31.5361C5.85685 30.4571 6.62016 29.7497 7.6675 28.9714C6.95744 29.7497 6.33614 30.5102 6.53141 31.0231C7.13496 31.2884 7.91602 30.2803 8.60833 29.7497C7.61425 30.917 7.22371 31.8544 6.01661 31.5361ZM6.90419 30.6871C7.20596 30.1918 8.07578 29.3605 8.76809 28.6L9.06987 28.8653C8.2888 29.6435 7.40123 30.351 6.90419 30.6871ZM8.55507 33.0925C8.05803 32.102 8.53732 31.2884 9.26513 30.1918C8.8391 31.1469 8.51957 32.0313 8.8746 32.4558C9.51365 32.5265 10.206 31.4653 10.6675 30.7578C10.1172 32.1551 9.79768 33.0041 8.55507 33.0925ZM10.277 29.6966L10.6497 29.8558C10.1705 30.8463 9.53141 31.5714 9.15862 32.0313C9.31839 31.4653 9.86868 30.6163 10.277 29.6966ZM11.3776 33.8354C10.6497 33.0218 11.0225 32.2082 11.4663 30.9701C11.2888 31.9959 11.1113 32.9687 11.5728 33.2871C12.2119 33.1633 12.6379 32.0313 12.8864 31.2177C12.7089 32.7034 12.5492 33.4463 11.3776 33.8354ZM11.7148 32.7742C11.7326 32.2082 12.0344 31.5714 12.1586 30.5456L12.5669 30.6163C12.3361 31.6952 11.9279 32.2082 11.7148 32.7742ZM14.3953 33.7469C13.348 32.9864 13.6675 32.5265 13.8095 31.2531C13.8628 32.2789 13.8095 32.7565 14.4486 33.1633C15.2829 32.668 15.1764 32.0313 15.2651 31.1823C15.4071 32.7034 15.6202 33.1279 14.3953 33.7469ZM14.3066 30.8639L14.7148 30.8286C14.7148 31.9252 14.6793 32.1197 14.5551 32.7034C14.4663 32.1551 14.3776 31.8898 14.3066 30.8639ZM18.3539 30.6163C17.7503 30.6517 17.4308 30.4925 17.058 29.8027C16.7563 30.298 16.5255 30.5102 15.8509 30.634C15.2651 30.298 15.1764 29.9796 15.0876 29.732C14.8568 30.1211 14.5728 30.3687 13.8273 30.3864C13.5077 30.0503 13.0817 29.7673 13.0462 29.3075C12.6024 29.5728 12.1941 29.732 11.7503 29.5374C11.5018 29.166 11.4308 28.8653 11.4131 28.4408C10.845 28.6531 10.2237 28.7592 9.93969 28.5293C9.72667 27.9456 9.65567 27.4857 9.72667 27.0789C8.94561 27.0435 8.39531 26.7075 8.30655 26.3714C8.34206 25.9646 8.46632 25.4694 8.57283 25.2925C7.86277 24.9741 7.68525 24.6204 7.632 24.4435C7.72076 24.0367 7.86277 23.5946 8.05803 23.4177C7.632 23.1878 7.18821 22.8163 7.06395 22.3034C7.27697 21.8082 7.61425 21.4721 7.89827 21.2422C7.41898 20.6762 7.0462 19.898 7.18821 19.615C7.31247 19.2966 8.11129 18.9782 8.43081 19.049C7.68525 18.3592 7.36573 17.4218 7.59649 17.1388C7.82726 16.8204 8.9101 16.9265 9.17638 17.068C8.67933 16.2014 8.39531 15.4585 8.8746 14.132C8.8036 15.2463 8.55507 16.6435 10.8273 18.3946C10.1882 17.9878 8.75034 16.8558 7.88052 17.351C7.80951 18.0408 8.48407 18.9782 9.95744 19.8803C8.98111 19.385 8.46632 19.0313 7.47223 19.7388C7.64975 20.8531 8.11129 21.1891 9.33614 21.4721C8.48407 21.3306 8.12904 21.1714 7.36573 22.3918C7.91602 23.2585 8.51957 23.4 9.4604 23.3116C8.55507 23.3823 8.18229 23.5061 7.91602 24.3728C8.48407 25.2571 8.99886 25.151 9.85093 24.9565C8.92786 25.2218 8.66158 25.5048 8.62608 26.2653C9.38939 27.0259 9.81543 26.8313 10.561 26.4245C10.064 26.9197 9.81543 27.2558 10.1705 28.317C11.129 28.4939 11.4486 28.2463 12.0521 27.3619C11.7326 28.1401 11.5018 28.6 11.9456 29.2721C12.9042 29.3252 13.135 28.9537 13.5255 28.2993C13.2947 29.0422 13.1527 29.449 13.8983 30.0857C14.6083 30.0327 14.9634 29.6966 15.2296 28.9184C15.2296 29.9442 15.5314 30.1741 15.9397 30.3687C16.6675 30.1388 16.845 29.732 17.0048 29.0599C17.3598 30.0327 17.8924 30.5102 18.3894 30.3864L18.3539 30.6163ZM6.99294 43.2626C6.35389 42.8204 6.77993 42.4844 7.18821 42.2721C6.69117 42.732 6.83318 42.9442 6.99294 43.2626ZM10.348 44.5714C10.3835 44.7129 10.348 44.8014 10.2415 44.8544C9.99294 43.5102 9.60241 43.4748 9.51365 42.8027C9.40715 42.0952 9.24738 42.8027 9.24738 42.8027C9.22963 42.8027 9.22963 43.015 9.35389 43.1918C9.37164 43.2095 9.14087 43.1211 8.99886 42.9442C8.96336 42.9442 9.14087 43.1918 8.96336 43.2803C8.96336 43.298 9.03436 43.4571 9.03436 43.6163C8.8391 43.8286 9.03436 43.917 9.19413 43.917C9.37164 43.917 9.44265 43.7755 9.47815 43.6517C9.54916 43.8109 9.51365 44.0408 9.37164 44.2707C9.19413 44.6245 9.51365 44.7483 9.60241 44.7129C9.69117 44.6776 9.77993 44.5714 9.77993 44.3769C9.92194 44.5184 9.88644 44.819 9.79768 44.9959C9.76217 45.1905 9.77993 45.2435 9.76218 45.385C9.74442 45.5265 9.35389 45.8626 9.35389 45.8626C9.35389 45.8626 9.21188 45.8095 9.08762 45.7034C10.0995 45.2966 9.51365 44.766 9.05212 44.9605C8.59058 45.1905 8.53732 45.1197 8.27105 45.1197C8.00478 45.1551 8.00478 44.766 8.09354 44.5184C8.18229 44.5891 8.18229 44.8014 8.2533 44.8367C8.73259 45.0667 9.21188 44.6068 9.21188 44.4299C9.21188 44.1469 8.32431 44.1823 8.18229 44.2354C8.04028 44.3061 7.61425 43.917 7.45448 43.8463C7.31247 43.8109 7.20596 43.634 7.24147 43.4041C7.50774 43.4571 7.91602 43.917 8.23555 43.9878C9.28289 43.8109 8.66158 43.1918 8.55507 43.1565C8.44857 43.1565 8.16454 43.351 8.07579 43.3864C7.96928 43.4571 7.95152 43.1211 7.86277 43.1742C7.75626 43.2449 7.50774 43.1034 7.33022 42.9973C7.15271 42.9088 7.47223 42.6082 7.50774 42.4313C7.56099 42.2898 7.40123 42.3429 7.40123 42.3429C7.38348 42.3429 7.43673 42.0776 7.54324 41.9361C7.703 43.3156 8.11129 43.0503 8.43081 42.9088C7.86277 42.2014 8.23555 41.8476 8.66158 41.5116C8.82135 41.4054 9.19413 41.2993 9.21188 41.2993C9.26513 41.2993 9.17638 41.4408 8.75034 41.7946C8.2888 42.166 8.34206 42.166 8.46632 42.502C8.57283 42.8735 8.85685 42.8381 9.05212 42.6789C9.24738 42.5197 9.22963 42.2721 8.98111 42.1129C9.14087 42.0776 9.19413 41.8299 9.35389 41.8476C9.4604 41.883 9.26513 42.0599 9.26513 42.0599C9.26513 42.0599 9.35389 42.1837 9.62016 42.1306C9.88644 42.0952 9.72667 42.3605 9.58466 42.502C9.4604 42.6435 10.0817 43.3687 10.1882 43.5102C10.277 43.6694 10.7385 43.4925 10.7563 43.634C10.774 43.7755 10.277 43.7755 10.1882 43.8639C10.1172 43.9701 10.3125 44.4299 10.348 44.5714ZM10.632 44.6245C11.129 44.0585 12.0344 43.634 12.2296 43.6517C12.0344 43.6517 11.0225 44.3061 10.632 44.6245ZM11.3598 43.0503C10.9338 43.0503 10.6853 43.068 10.3835 42.3252C10.3835 42.3252 10.7385 42.732 11.0048 42.8912C11.2711 43.0327 12.2829 42.9442 12.2829 42.9442C12.2829 42.9442 11.7681 43.0503 11.3598 43.0503ZM42.1231 43.8286C41.8036 43.9347 41.6616 44.0408 41.3066 44.3061C40.9515 44.5714 40.3125 44.6068 39.9574 44.6245C39.3361 45.0667 38.6971 45.0667 38.3243 45.0136C37.9338 44.9782 36.6912 44.0939 36.7267 44.0585C36.7444 44.0762 38.1823 44.8014 38.5728 44.8721C38.9279 44.9252 39.4782 44.6599 39.5669 44.5007C39.6202 44.3238 40.2237 43.9524 40.49 43.8463C41.2178 43.015 39.8864 42.5551 39.8154 43.3333C40.4367 43.2803 39.9752 43.7225 39.9752 43.7048C39.9752 43.7225 40.1527 43.8286 40.0639 43.9347C39.9752 44.0408 39.5847 43.8463 39.4959 43.9701C39.4071 44.1116 39.5847 44.0939 39.4249 44.1293C39.2651 44.1469 39.1586 44.3061 39.1941 44.4122C39.2296 44.5184 38.9811 44.6422 38.8746 44.483C38.7681 44.3415 38.058 44.1646 38.058 44.0231C38.058 43.8993 38.9634 44.1823 39.0699 43.9701C39.1941 43.7932 37.8983 43.7401 37.8983 43.5986C37.8983 43.4395 38.3598 43.4925 38.4486 43.4925C38.5373 43.4925 38.5728 43.2626 38.5728 43.0857C38.5906 43.0857 38.9101 43.298 38.9101 43.298C38.9101 43.298 38.7503 43.4925 38.7858 43.5986C38.7858 43.7225 39.0344 43.634 39.1941 43.7578C39.3361 43.8993 39.5137 43.8286 39.6202 43.5279C39.4604 43.1565 39.7799 42.8027 40.0639 42.6789C40.1172 42.5374 40.1172 42.3605 39.9929 42.2367C40.2415 42.2721 40.348 42.4136 40.5077 42.6789C41.0758 42.9442 40.9515 43.4041 40.8983 43.5456C40.8628 43.7225 41.3243 43.5102 41.5373 43.3864C41.5906 43.1211 41.7148 42.8735 42.0344 42.732C42.0876 42.5551 41.9989 42.4136 41.8568 42.2721C42.1941 42.2721 42.2651 42.4313 42.4604 42.7143C42.8332 43.3687 42.4426 43.6871 42.1231 43.8286ZM43.9515 41.3347C43.9515 41.5293 43.7918 41.6884 43.5965 41.6884C43.419 41.6884 43.2415 41.5293 43.2415 41.3347C43.2415 41.1578 43.4012 40.981 43.5965 40.981C43.7918 40.981 43.9515 41.1401 43.9515 41.3347ZM41.4308 37.8327C42.4959 37.6912 43.703 39.3537 43.7385 40.415L41.3243 40.1673L41.4308 37.8327ZM43.0107 41.2286C43.0107 41.4231 42.8332 41.5823 42.6557 41.5823C42.4781 41.5823 42.3006 41.4231 42.3006 41.2286C42.3006 41.034 42.4781 40.8748 42.6557 40.8748C42.8332 40.8748 43.0107 41.0517 43.0107 41.2286ZM42.0521 41.1224C42.0521 41.317 41.8924 41.4762 41.6971 41.4762C41.5018 41.4762 41.3421 41.317 41.3421 41.1224C41.3421 40.9279 41.5196 40.7687 41.6971 40.7687C41.8924 40.7687 42.0521 40.9279 42.0521 41.1224ZM39.7622 37.0898V36.3293L40.5432 36.4884L40.4012 35.8871H41.1645L41.0048 36.5061L41.7326 36.3469V37.019L40.9338 36.8952L41.1113 37.5497H40.3125L40.5432 36.8776L39.7622 37.0898ZM40.7208 39.6898C40.916 39.6898 41.0758 39.849 41.0758 40.0435C41.0758 40.2381 40.916 40.3973 40.7208 40.3973C40.5255 40.3973 40.3657 40.2381 40.3657 40.0435C40.3657 39.849 40.5255 39.6898 40.7208 39.6898ZM40.3835 39.1769C40.3835 38.9823 40.5432 38.8231 40.7385 38.8231C40.9515 38.8231 41.1113 38.9823 41.1113 39.1769C41.1113 39.3537 40.9515 39.5306 40.7385 39.5306C40.5432 39.5129 40.3835 39.3537 40.3835 39.1769ZM40.7563 40.7156C40.9515 40.7156 41.1113 40.8748 41.1113 41.0694C41.1113 41.2639 40.9515 41.4231 40.7563 41.4231C40.561 41.4231 40.4012 41.2463 40.4012 41.0694C40.4012 40.8748 40.561 40.7156 40.7563 40.7156ZM40.7918 38.6109C40.5965 38.6109 40.4367 38.4517 40.4367 38.2571C40.4367 38.0626 40.5965 37.9034 40.7918 37.9034C40.987 37.9034 41.1468 38.0626 41.1468 38.2571C41.1468 38.4517 40.987 38.6109 40.7918 38.6109ZM43.2415 42.0422C43.1172 42.3252 42.8332 42.6259 42.7267 42.732L42.5847 42.5374C42.7622 42.3959 42.7977 42.1837 42.7977 42.1837C42.0876 42.0422 39.7977 41.9537 38.4486 42.0068C38.5551 42.2721 38.9101 42.6789 39.4426 43.015L39.3361 43.2095C38.6971 42.9796 38.2355 42.3075 38.0403 41.8122C39.4604 41.7061 41.6438 41.7592 43.2415 42.0422ZM38.5196 41.1401C38.5196 40.9456 38.6793 40.7864 38.8746 40.7864C39.0521 40.7864 39.2296 40.9456 39.2296 41.1401C39.2296 41.3347 39.0699 41.4939 38.8746 41.4939C38.6793 41.4939 38.5196 41.3347 38.5196 41.1401ZM39.4782 41.1048C39.4782 40.9102 39.6379 40.751 39.8332 40.751C40.0284 40.751 40.1882 40.9102 40.1882 41.1048C40.1882 41.2816 40.0284 41.4585 39.8332 41.4585C39.6557 41.4408 39.4782 41.2816 39.4782 41.1048ZM40.277 37.8503L40.206 40.1143L37.774 40.1497C37.916 39.0884 39.2829 37.585 40.277 37.8503ZM37.845 41.5469C37.6675 41.5469 37.49 41.3878 37.49 41.1932C37.49 40.9986 37.6497 40.8395 37.845 40.8395C38.0403 40.8395 38.2 40.9986 38.2 41.1932C38.2 41.3878 38.0403 41.5469 37.845 41.5469ZM38.0225 42.6259L38.129 42.7143C37.703 43.0857 37.0995 43.3687 36.2829 43.1565C36.8687 43.1211 37.561 43.0327 38.0225 42.6259ZM31.1172 21.0122C30.8509 21.3306 30.0166 21.5429 29.5728 21.4898C29.5196 21.7728 29.5551 22.0912 29.9279 22.5864C29.5373 22.5864 29.0403 22.2327 28.5787 21.5252C28.4722 21.6136 28.561 22.2503 28.6142 22.5333C28.2415 22.3388 27.1586 21.083 27.0876 20.517C26.6083 20.8177 26.5196 22.0204 26.4663 22.5156C26.0048 22.1973 25.8983 21.1537 25.845 20.6231C25.5787 20.8 25.0817 21.5782 24.8864 22.0912C24.8332 19.5442 25.2415 18.0762 25.9693 17.6517C25.5432 18.1293 25.2237 19.7211 25.135 21.0299C25.135 21.1361 25.4722 20.3224 26.0225 19.5442C25.9693 19.7565 26.0758 20.5347 26.2888 21.5429C26.2888 21.2952 26.5906 20.4463 27.1409 19.8449C27.1941 20.4463 27.8509 21.3306 28.1705 21.7905C28.135 21.6844 28.135 20.8707 28.3125 20.517C28.348 20.9946 28.9693 21.6136 29.3243 22.0027C29.2355 21.9143 29.2888 21.4544 29.2533 21.0476C29.5728 21.2952 29.8213 21.2245 30.1409 21.1537C29.7326 20.9769 28.9515 20.2694 28.8983 19.668C29.2888 20.6585 30.7444 21.0299 31.1172 21.0122ZM27.8509 22.5864H27.5314C27.4959 22.4626 27.2296 22.1088 27.2296 22.1088C27.2296 22.1088 27.2119 22.3741 27.2119 22.5864H26.8924C26.9279 22.3211 26.9279 21.419 27.1586 21.2245C27.2296 21.5075 27.6734 22.4803 27.8509 22.5864ZM26.0225 22.5864H25.6853C25.6675 22.4449 25.5965 22.0381 25.5965 22.0381C25.5965 22.0381 25.3835 22.3741 25.3835 22.5864H25.0462C25.0817 22.3211 25.4367 21.5959 25.6675 21.4014C25.7563 21.6667 25.8628 22.4803 26.0225 22.5864ZM30.5847 15.9184C29.271 16.9265 28.1172 19.2435 27.9929 20.3578C27.6024 18.3769 28.2237 16.8912 28.7208 15.9361C28.1172 16.3429 26.9811 18.3061 26.5196 20.0925C26.4131 17.6694 26.9989 16.5551 27.9752 15.2639C27.1941 15.5293 25.8273 17.2626 25.4367 17.6871C27.0876 14.5388 27.4604 14.1497 28.987 13.8844L28.703 14.1497C27.7089 14.2027 26.7858 15.7061 26.7858 15.7061C26.7681 15.7238 27.3539 15.1932 28.5432 14.6803C28.1527 15.1401 27.2651 16.9088 26.9456 17.7755C27.0521 17.4218 28.064 16.0599 29.1823 15.2109C28.9693 15.6531 28.2947 17.6694 28.2947 18.3238C28.5965 17.5986 29.129 16.8558 30.5847 15.9184C30.7444 15.7946 30.9219 15.6884 31.0817 15.6C30.9042 15.7061 30.7444 15.8122 30.5847 15.9184ZM29.4841 13.0884C28.703 14.0435 27.4604 14.0789 26.3598 13.8667C27.1054 13.7959 28.5077 13.0884 28.8273 12.8762C28.5965 13.2476 27.7977 13.6544 27.4426 13.7959C28.135 13.7959 28.9338 13.4422 29.4841 13.0884ZM30.9929 14.6626C31.0995 14.4327 31.419 14.0259 31.4545 13.9374C31.0995 14.1143 29.8746 14.9633 29.6261 15.2109C29.6793 14.9102 30.0699 14.0789 30.2474 13.9197C29.8746 14.1497 29.0935 14.7333 28.8805 14.9456C28.8983 14.468 29.6793 13.1592 30.0521 12.8762C29.5373 12.8762 28.7208 12.5401 28.703 12.5224C29.0935 12.6286 30.1586 12.6639 30.6734 12.6286C30.1764 12.9293 29.4308 13.7429 29.2888 14.3619C30.0166 13.6721 31.0284 13.0354 31.4722 12.9469C30.9752 13.2653 30.1231 14.3088 30.0521 14.6803C30.4249 14.415 31.8095 13.3891 32.3776 13.3184C32.0048 13.7252 31.0817 14.468 30.9929 14.6626ZM30.3184 12.0449C30.4959 12.0626 32.9811 11.8327 33.7799 11.6735C33.9219 11.8503 33.6024 12.381 33.3539 12.4694C33.0876 12.0449 30.7089 12.1864 30.3184 12.0449ZM34.6497 15.8653C34.2947 15.317 33.7977 15.1578 33.0876 15.0871C33.7977 14.8395 34.4012 15.0871 34.6497 15.8653ZM36.5669 13.9197C36.8154 13.4068 36.8509 12.9823 36.6734 12.717C36.5137 12.4694 36.0699 12.1333 35.3953 12.0626C35.9989 12.0095 36.9397 12.2748 36.9929 12.9823C37.0284 13.619 36.6024 14.2558 36.5847 14.2558C36.5492 14.2381 35.4841 13.5483 34.1705 14.1143C33.2474 14.5034 32.7681 14.8041 32.5551 14.9633C32.9101 14.6803 33.9397 13.8844 34.5787 13.7605C35.3953 13.6014 35.6261 13.619 36.5669 13.9197ZM35.5196 13.4068C35.8391 13.1592 36.1231 13.1592 36.2296 13.619C36.0699 13.5483 35.7858 13.4952 35.5196 13.4068ZM35.0935 12.0449C34.0995 13.6367 31.8983 15.2993 31.561 15.4585C31.2237 15.6354 31.4367 15.4762 31.4367 15.4408C33.3539 14.1497 34.8628 12.1864 34.916 12.0803C34.9515 11.7088 34.7208 11.7265 34.5432 11.8327C33.5492 13.7429 32.4841 14.2204 31.2237 14.8218C33.4426 13.566 34.2947 11.9741 34.4012 11.6912C34.703 11.4435 35.1468 11.5143 35.0935 12.0449ZM34.277 9.42721C34.1172 9.42721 34.0107 9.3034 34.0107 9.1619C34.0107 9.00272 34.135 8.91429 34.277 8.91429C34.419 8.91429 34.5432 9.00272 34.5432 9.1619C34.5432 9.32109 34.419 9.42721 34.277 9.42721ZM34.1882 10.6653C33.5492 10.8422 32.1645 10.7891 31.5255 10.6653V10.3293L34.1705 10.3646L34.1882 10.6653ZM34.6142 7.60544C34.774 7.60544 34.8805 7.71156 34.8805 7.87075C34.8805 8.01225 34.7563 8.13605 34.6142 8.13605C34.4722 8.13605 34.348 8.02993 34.348 7.87075C34.348 7.71156 34.4722 7.60544 34.6142 7.60544ZM34.5255 8.25986C34.6852 8.25986 34.7918 8.38367 34.7918 8.52517C34.7918 8.66667 34.6852 8.79048 34.5255 8.79048C34.3835 8.79048 34.2592 8.66667 34.2592 8.52517C34.2592 8.38367 34.3835 8.25986 34.5255 8.25986ZM33.8864 7.72925C34.0284 7.72925 34.135 7.85306 34.135 7.99456C34.135 8.15374 34.0284 8.25986 33.8864 8.25986C33.7267 8.25986 33.6202 8.15374 33.6202 7.99456C33.6024 7.85306 33.7267 7.72925 33.8864 7.72925ZM33.7444 8.41905C33.8864 8.41905 33.9929 8.54286 33.9929 8.68435C33.9929 8.82585 33.8864 8.94966 33.7444 8.94966C33.5847 8.94966 33.4781 8.82585 33.4781 8.68435C33.4604 8.54286 33.5847 8.41905 33.7444 8.41905ZM33.5492 9.46259C33.6379 9.35646 33.7622 9.28571 33.7977 9.3034C33.8154 9.33878 33.7799 9.46258 33.6379 9.56871C33.5492 9.67483 33.4249 9.74558 33.3894 9.72789C33.3539 9.69252 33.4249 9.56871 33.5492 9.46259ZM33.3006 9.46259C33.2119 9.63946 33.1231 9.76327 33.0699 9.72789C33.0166 9.7102 33.0344 9.53333 33.1231 9.35646C33.2119 9.17959 33.3006 9.05578 33.3716 9.09116C33.4071 9.14422 33.3894 9.28571 33.3006 9.46259ZM33.2651 7.55238L33.5137 7.49932L33.2474 8.82585H33.1409L33.2651 7.55238ZM32.3953 5.97823V5.65986H32.6793V5.35918H33.0166V5.65986H33.3006V5.97823H33.0166V6.26122H32.6793V5.97823H32.3953ZM32.5373 6.88027C32.5373 6.7034 32.6971 6.54422 32.8924 6.54422C33.0699 6.54422 33.2119 6.7034 33.2119 6.88027C33.2119 7.05714 33.0699 7.21633 32.8924 7.21633C32.6793 7.21633 32.5373 7.05714 32.5373 6.88027ZM32.8213 8.86122C32.7326 8.86122 32.6793 8.80816 32.6793 8.73742C32.6793 8.64898 32.7326 8.61361 32.8213 8.61361C32.8924 8.61361 32.9456 8.66667 32.9456 8.73742C32.9456 8.80816 32.8924 8.86122 32.8213 8.86122ZM32.8924 9.35646C32.8924 9.56871 32.8568 9.74558 32.7858 9.74558C32.7148 9.74558 32.6793 9.56871 32.6793 9.35646C32.6793 9.14422 32.7148 8.98503 32.7858 8.98503C32.8568 8.96735 32.8924 9.14422 32.8924 9.35646ZM32.8391 8.41905C32.7503 8.41905 32.6793 8.36599 32.6793 8.25986C32.6793 8.17143 32.7503 8.10068 32.8391 8.10068C32.9279 8.10068 33.0166 8.17143 33.0166 8.25986C33.0166 8.36599 32.9279 8.41905 32.8391 8.41905ZM32.8391 7.92381C32.7326 7.92381 32.6438 7.83537 32.6438 7.72925C32.6438 7.62313 32.7326 7.53469 32.8391 7.53469C32.9456 7.53469 33.0344 7.62313 33.0344 7.72925C33.0344 7.83537 32.9456 7.92381 32.8391 7.92381ZM32.7858 9.92245C33.3894 9.92245 33.8864 9.9932 33.8864 10.0639C33.8864 10.1347 33.4071 10.2054 32.7858 10.2054C32.1468 10.2054 31.6675 10.1347 31.6675 10.0639C31.6675 9.9932 32.1645 9.92245 32.7858 9.92245ZM32.1645 9.74558C32.129 9.76326 32.0048 9.7102 31.8983 9.58639C31.7918 9.46259 31.7208 9.35646 31.7385 9.32109C31.7918 9.28571 31.916 9.35646 32.0048 9.48027C32.129 9.56871 32.2 9.69252 32.1645 9.74558ZM32.2 9.10884C32.2533 9.09116 32.3598 9.19728 32.4308 9.37415C32.5196 9.55102 32.5551 9.7102 32.5018 9.74558C32.4308 9.76326 32.3243 9.65714 32.2533 9.48027C32.1645 9.28571 32.1468 9.14422 32.2 9.10884ZM32.3953 7.55238L32.5196 8.82585H32.4131L32.1468 7.49932L32.3953 7.55238ZM31.6675 8.25986H31.8805V8.47211H32.0935V8.71973H31.8805V8.91429H31.6675V8.71973H31.4545V8.47211H31.6675V8.25986ZM30.9752 7.87075H31.1882V7.6585H31.419V7.87075H31.632V8.10068H31.419V8.31293H31.1882V8.10068H30.9752V7.87075ZM31.135 9.49796V9.3034H30.9219V9.07347H31.135V8.84354H31.3657V9.05578H31.561V9.28571H31.3657V9.48027H31.135V9.49796ZM34.3657 10.8599C34.49 10.8245 34.49 10.9129 34.49 11.0014H34.4367C33.8509 11.1605 29.7858 11.2136 28.2947 11.1429C28.3125 11.3374 28.9338 11.815 29.058 11.9211C28.8273 11.9741 28.4367 12.151 28.277 12.2571C28.3302 12.2218 28.5787 12.0272 28.7918 11.8857C28.4367 11.6381 28.0995 11.2667 28.0462 11.019C30.1409 11.2313 34.2415 10.8776 34.3657 10.8599ZM28.7208 10.4707H28.6853C28.6497 10.4531 28.632 10.4354 28.5965 10.4177C27.4959 9.97551 26.3421 9.10884 25.7385 8.33061C25.916 8.40136 26.1645 8.43674 26.3776 8.43674C26.7681 8.96735 27.7267 9.90476 28.6142 10.4177C28.632 10.4354 28.6853 10.4531 28.7208 10.4707ZM24.3716 8.73742C24.5314 8.77279 24.6557 8.79048 24.9219 8.80816C25.0995 8.80816 25.2415 8.80816 25.419 8.77279C25.5965 8.73741 25.7208 8.80816 25.5965 8.87891C25.49 8.93197 25.2592 8.96735 24.8687 8.94966C24.4959 8.93197 24.2651 8.91429 24.1586 8.86122C24.0344 8.77279 24.1764 8.70204 24.3716 8.73742ZM24.2829 8.3483C24.2829 8.22449 24.5492 8.27755 24.8509 8.29524C25.1882 8.29524 25.4545 8.25986 25.4545 8.36599C25.4545 8.4898 25.2592 8.4898 24.8509 8.47211C24.4781 8.47211 24.2829 8.47211 24.2829 8.3483ZM24.8687 8.02993C24.2296 8.02993 23.3776 8.10068 22.845 8.18912L22.774 8.01225C23.0225 7.92381 24.1409 7.8 24.8687 7.8C25.6142 7.8 26.7503 7.97687 26.9989 8.06531L26.9279 8.24218C26.3953 8.15374 25.5432 8.02993 24.8687 8.02993ZM24.8687 7.42857C25.6142 7.42857 26.8391 7.60544 27.0699 7.67619L27.0344 7.85306C26.4841 7.76463 25.5077 7.64082 24.8687 7.64082C24.2474 7.60544 23.2888 7.71156 22.7385 7.78231L22.703 7.60544C22.9515 7.51701 24.1764 7.3932 24.8687 7.42857ZM23.3243 6.79184C23.3421 6.7034 23.5728 6.7034 23.8391 6.79184C24.0876 6.88027 24.2829 7.00408 24.2474 7.09252C24.2296 7.18095 23.9989 7.18095 23.7503 7.1102C23.5018 7.02177 23.2888 6.88027 23.3243 6.79184ZM24.9219 3.8381C24.9929 3.8381 25.0817 3.90884 25.0817 3.99728C25.0817 4.08571 24.9929 4.15646 24.9219 4.15646C24.8332 4.15646 24.7799 4.08571 24.7799 3.99728C24.7622 3.90884 24.8332 3.8381 24.9219 3.8381ZM24.7267 3.44898C24.7267 3.34286 24.8154 3.25442 24.9042 3.25442C25.0107 3.25442 25.0817 3.34286 25.0817 3.44898C25.0817 3.5551 24.9929 3.64354 24.9042 3.64354C24.8154 3.62585 24.7267 3.5551 24.7267 3.44898ZM25.0284 4.59864C25.0284 4.66939 24.9574 4.74014 24.8864 4.74014C24.8154 4.74014 24.7622 4.66939 24.7622 4.59864C24.7622 4.54558 24.8154 4.47483 24.8864 4.47483C24.9752 4.45714 25.0284 4.52789 25.0284 4.59864ZM24.8687 5.69524C24.9574 5.69524 25.0462 6.01361 25.0462 6.40272C25.0462 6.79184 24.9574 7.1102 24.8687 7.1102C24.7799 7.1102 24.6912 6.79184 24.6912 6.40272C24.6912 6.01361 24.7799 5.69524 24.8687 5.69524ZM26.3421 5.35918C26.2 5.35918 26.0935 5.23537 26.0935 5.09388C26.0935 4.93469 26.2 4.82857 26.3421 4.82857C26.5018 4.82857 26.6083 4.93469 26.6083 5.09388C26.6261 5.23537 26.5018 5.35918 26.3421 5.35918ZM26.6438 5.46531C26.8036 5.46531 26.9279 5.57143 26.9279 5.73061C26.9279 5.8898 26.8036 6.01361 26.6438 6.01361C26.5018 6.01361 26.3953 5.8898 26.3953 5.73061C26.3953 5.57143 26.5018 5.46531 26.6438 5.46531ZM26.4486 6.8449C26.4663 6.93333 26.2888 7.05714 26.0225 7.1102C25.7563 7.19864 25.5255 7.18095 25.5077 7.07483C25.49 7.00408 25.6853 6.88027 25.9338 6.80952C26.1823 6.73878 26.4131 6.75646 26.4486 6.8449ZM28.3835 9.94014C27.9929 9.76327 27.0699 8.87891 26.8213 8.50748C26.8924 8.47211 26.9989 8.4898 27.0344 8.50748C27.3361 8.8966 28.1882 9.78095 28.3835 9.94014ZM27.3006 6.63265C27.1409 6.63265 27.0344 6.50884 27.0344 6.36735C27.0344 6.22585 27.1586 6.10204 27.3006 6.10204C27.4426 6.10204 27.5492 6.20816 27.5492 6.36735C27.5492 6.52653 27.4426 6.63265 27.3006 6.63265ZM27.3716 5.80136C27.2119 5.80136 27.1231 5.67755 27.1231 5.51837C27.1231 5.37687 27.2119 5.27075 27.3716 5.27075C27.5137 5.27075 27.6379 5.37687 27.6379 5.51837C27.6379 5.67755 27.5314 5.80136 27.3716 5.80136ZM28.0817 4.98776C28.0817 5.12925 27.9929 5.23537 27.8332 5.23537C27.6912 5.23537 27.5669 5.12925 27.5669 4.98776C27.5669 4.82857 27.6912 4.72245 27.8332 4.72245C27.9752 4.72245 28.0817 4.84626 28.0817 4.98776ZM27.6379 3.8381C27.7977 3.8381 27.9042 3.94422 27.9042 4.1034C27.9042 4.2449 27.7977 4.36871 27.6379 4.36871C27.4959 4.36871 27.3716 4.26259 27.3716 4.1034C27.3716 3.96191 27.4959 3.8381 27.6379 3.8381ZM27.4071 4.7932C27.4071 4.93469 27.3006 5.0585 27.1586 5.0585C26.9989 5.0585 26.8924 4.95238 26.8924 4.7932C26.8924 4.63401 26.9989 4.52789 27.1586 4.52789C27.2829 4.52789 27.4071 4.63401 27.4071 4.7932ZM27.0521 3.16599C27.2119 3.16599 27.3184 3.2898 27.3184 3.43129C27.3184 3.59048 27.1941 3.6966 27.0521 3.6966C26.9101 3.6966 26.8036 3.59048 26.8036 3.43129C26.8036 3.2898 26.9101 3.16599 27.0521 3.16599ZM26.7326 3.82041C26.8746 3.82041 26.9989 3.94422 26.9989 4.08571C26.9989 4.2449 26.8924 4.35102 26.7326 4.35102C26.5906 4.35102 26.4663 4.2449 26.4663 4.08571C26.4663 3.94422 26.5906 3.82041 26.7326 3.82041ZM26.129 2.98912L26.4486 3.04218L25.8095 5.48299L25.6497 5.46531L26.129 2.98912ZM25.6497 5.94286C25.7385 5.97823 25.7208 6.26122 25.632 6.5619C25.5432 6.86258 25.4012 7.1102 25.2947 7.09252C25.2237 7.05714 25.2237 6.79184 25.3125 6.47347C25.4012 6.17279 25.561 5.90748 25.6497 5.94286ZM24.3716 0.972789V0.548299L24.8154 0.689796L24.7267 0.159184H25.206L25.0995 0.672109L25.5255 0.583673V0.990476L25.0817 0.831293L25.1882 1.30884H24.7089L24.8154 0.831293L24.3716 0.972789ZM24.4249 1.9102C24.4249 1.6449 24.6734 1.39728 24.9574 1.39728C25.2415 1.39728 25.4722 1.6449 25.4722 1.9102C25.4722 2.21088 25.2415 2.44082 24.9574 2.44082C24.6557 2.44082 24.4249 2.21088 24.4249 1.9102ZM24.9219 2.86531H25.4367L25.2237 5.21769H25.064L25.2592 3.05986L24.9219 3.04218H24.6024L24.7444 5.2L24.6024 5.21769L24.4249 2.86531H24.9219ZM24.4604 6.4381C24.5314 6.75646 24.5492 7.03946 24.4426 7.07483C24.3539 7.09252 24.2296 6.8449 24.1409 6.52653C24.0699 6.24354 24.0699 5.96054 24.1409 5.90748C24.2474 5.8898 24.3716 6.1551 24.4604 6.4381ZM23.7326 2.95374L24.1586 5.42993L24.0166 5.44762L23.4131 2.97143L23.7326 2.95374ZM22.8095 4.12109H23.0225V3.90884H23.2355V4.12109H23.4486V4.35102H23.2355V4.54558H23.0225V4.35102H22.8095V4.12109ZM22.7385 5.14694H22.9515V4.93469H23.1645V5.14694H23.3776V5.35918H23.1823V5.57143H22.9693V5.35918H22.7563V5.14694H22.7385ZM21.9219 3.80272H22.135V3.59048H22.3657V3.80272H22.561V4.01497H22.3657V4.22721H22.1172V4.01497H21.9042V3.80272H21.9219ZM21.6557 5.09388V4.86395H21.8687V4.6517H22.0995V4.86395H22.3125V5.09388H22.0995V5.30612H21.8687V5.09388H21.6557ZM22.5255 6.11973V6.31429H22.2947V6.11973H22.0817V5.87211H22.2947V5.65986H22.5255V5.87211H22.7385V6.11973H22.5255ZM22.7385 8.43674C22.7563 8.43674 22.8805 8.40136 22.9515 8.43674C22.6853 8.79048 21.7622 9.67483 21.3539 9.83401C21.5314 9.69252 22.419 8.82585 22.7385 8.43674ZM23.4663 8.36599C23.6616 8.33061 23.8213 8.31293 24.0344 8.29524C23.3953 9.09116 22.135 9.95782 21.0344 10.4C21.9219 9.94014 23.1645 8.82585 23.4663 8.36599ZM23.8746 9.03809C24.2474 9.19728 24.3361 9.21497 24.8509 9.25034C25.4012 9.25034 25.5077 9.25034 25.8805 9.07347C26.5906 9.74558 28.0995 10.5061 29.4663 10.8422C28.7208 10.9306 27.7267 10.7361 27.1941 10.3646C27.1764 10.9129 28.3835 11.8503 28.3835 11.8503C28.3835 11.8503 27.9397 11.9741 27.6734 11.9741C27.3894 11.9741 27.5137 12.1687 27.6557 12.2748C27.7622 12.381 28.2415 12.4871 28.5255 12.7347C27.5137 13.6014 26.4486 13.5306 25.49 13.3537C25.5787 13.902 26.6616 14.2558 27.1054 14.3442C26.6971 14.8571 25.5432 16.7143 24.7977 18.3946C24.0521 16.5728 22.9693 14.6803 22.561 14.185C23.0048 14.0789 24.0876 13.7429 24.1941 13.2122C23.2178 13.3537 22.1527 13.3891 21.1586 12.6109C21.4426 12.3633 21.9219 12.2925 22.0639 12.1687C22.1882 12.0803 22.3302 11.8857 22.0462 11.8857C21.7799 11.868 21.3361 11.7265 21.3184 11.7265C21.3361 11.7265 22.561 10.8245 22.561 10.2762C22.0107 10.6476 21.0166 10.8068 20.3243 10.7007C21.6024 10.4177 23.129 9.69252 23.8746 9.03809ZM20.0403 14.9456C19.8095 14.7333 18.6024 13.849 18.2474 13.6544C18.3184 13.7252 18.6024 14.132 18.7089 14.3973C18.6202 14.185 17.7148 13.4068 17.3421 13.0354C17.9101 13.1061 19.277 14.1497 19.632 14.4503C19.5787 14.0789 18.7444 13.0354 18.2296 12.7878C18.6734 12.8762 19.6853 13.4422 20.3066 14.1497C20.2178 13.5129 19.561 12.8054 19.064 12.4871C19.561 12.5224 20.5373 12.4871 20.9101 12.4163C20.9101 12.4163 20.1823 12.7347 19.6675 12.717C20.0403 12.9823 20.7148 14.2381 20.6793 14.7156C20.4841 14.468 19.8273 13.902 19.4367 13.6367C19.6497 13.8136 20.0225 14.6449 20.0403 14.9456ZM16.4012 12.2395C16.1882 12.1333 15.8509 11.6027 16.0107 11.4258C16.8095 11.6204 19.2592 11.9211 19.4545 11.9034C19.0639 12.0272 16.6853 11.815 16.4012 12.2395ZM20.2533 12.9646C20.7148 13.1946 21.4959 13.5483 22.206 13.6014C21.8332 13.4422 21.0521 13.0177 20.8391 12.7524C21.1586 12.9823 22.5432 13.619 23.2888 13.6721C22.1705 13.902 20.9101 13.8136 20.2533 12.9646ZM18.5137 9.28571C18.3539 9.28571 18.2474 9.1619 18.2474 9.02041C18.2296 8.87891 18.3361 8.7551 18.4959 8.7551C18.6379 8.7551 18.7444 8.84354 18.7622 9.00272C18.7622 9.16191 18.6379 9.28571 18.5137 9.28571ZM17.0403 9.7102C17.6616 9.7102 18.1409 9.79864 18.1409 9.88708C18.1409 9.97551 17.6261 10.0109 17.0225 10.0109C16.419 9.9932 15.9219 9.90476 15.9219 9.83401C15.9219 9.74558 16.4367 9.69252 17.0403 9.7102ZM15.9929 9.07347C16.0284 9.0381 16.1527 9.10884 16.2592 9.23265C16.348 9.33878 16.4367 9.46259 16.4012 9.49796C16.3657 9.53333 16.2415 9.46258 16.135 9.33878C16.0284 9.23265 15.9752 9.10884 15.9929 9.07347ZM17.0048 8.64898C16.9338 8.64898 16.8805 8.57823 16.8805 8.50748C16.8805 8.43673 16.9515 8.40136 17.0048 8.40136C17.0935 8.40136 17.1468 8.45442 17.1468 8.54286C17.1468 8.59592 17.0935 8.64898 17.0048 8.64898ZM17.1468 9.14422C17.129 9.35646 17.0935 9.53333 17.0048 9.53333C16.9515 9.53333 16.916 9.35646 16.916 9.14422C16.916 8.93197 16.987 8.77279 17.0403 8.77279C17.0935 8.77279 17.1468 8.93197 17.1468 9.14422ZM16.987 8.2068C16.916 8.2068 16.8273 8.13605 16.8273 8.04762C16.8273 7.95918 16.916 7.87075 17.0048 7.88843C17.0935 7.88843 17.1645 7.95918 17.1645 8.04762C17.1468 8.13605 17.0935 8.2068 16.987 8.2068ZM17.0048 7.71156C16.916 7.71156 16.8095 7.60544 16.8095 7.49932C16.8095 7.3932 16.8983 7.28707 17.0048 7.30476C17.129 7.30476 17.2 7.3932 17.2 7.49932C17.2 7.62313 17.1113 7.71156 17.0048 7.71156ZM17.5906 9.26803C17.4841 9.4449 17.3776 9.55102 17.3243 9.53333C17.2711 9.51565 17.2888 9.35646 17.3776 9.1619C17.4663 8.98503 17.5728 8.87891 17.6438 8.8966C17.6616 8.93197 17.6438 9.09116 17.5906 9.26803ZM17.7858 9.28571C17.8924 9.1619 18.0166 9.09116 18.0521 9.12653C18.0699 9.1619 18.0344 9.28571 17.8924 9.39184C17.7858 9.49796 17.6616 9.55102 17.6261 9.51565C17.6083 9.49796 17.6616 9.37415 17.7858 9.28571ZM18.3184 10.1524V10.4884C17.6438 10.5946 16.2592 10.6122 15.6379 10.4177L15.6557 10.117L18.3184 10.1524ZM18.7267 8.63129C18.5847 8.64898 18.4604 8.54286 18.4604 8.38367C18.4604 8.24218 18.5492 8.11837 18.7089 8.11837C18.8509 8.11837 18.9752 8.22449 18.9752 8.36599C18.9929 8.50748 18.8687 8.61361 18.7267 8.63129ZM18.6379 7.46395C18.7622 7.46395 18.9042 7.57007 18.9042 7.71156C18.9042 7.87075 18.7977 7.97687 18.6557 7.99456C18.4959 8.01225 18.3894 7.90612 18.3716 7.74694C18.3716 7.60544 18.4782 7.48163 18.6379 7.46395ZM18.0166 7.60544C18.1586 7.60544 18.2829 7.71157 18.3006 7.85306C18.3006 7.99456 18.1764 8.11837 18.0344 8.11837C17.8924 8.13605 17.7858 8.02993 17.7681 7.87075C17.7681 7.72925 17.8746 7.60544 18.0166 7.60544ZM17.9101 8.29524C18.0521 8.29524 18.1764 8.38367 18.1764 8.56054C18.1941 8.68435 18.0699 8.82585 17.9456 8.82585C17.7858 8.84354 17.6793 8.73742 17.6616 8.57823C17.6616 8.41905 17.7681 8.31293 17.9101 8.29524ZM17.4663 7.34014L17.6793 7.28708L17.3953 8.61361H17.3066L17.4663 7.34014ZM16.5787 5.76599V5.42993H16.8805V5.14694H17.2V5.42993H17.5018V5.76599H17.2V6.04898H16.8805V5.76599H16.5787ZM16.6675 6.65034C16.6675 6.45578 16.8273 6.2966 17.0048 6.31429C17.1823 6.31429 17.3598 6.47347 17.3421 6.65034C17.3421 6.82721 17.1823 6.98639 16.987 6.98639C16.7918 6.98639 16.6497 6.8449 16.6675 6.65034ZM16.7385 9.51565C16.6853 9.53333 16.5787 9.42721 16.5077 9.25034C16.419 9.07347 16.419 8.91429 16.4545 8.87891C16.5077 8.86122 16.6142 9.00272 16.6675 9.17959C16.7563 9.33878 16.7918 9.49796 16.7385 9.51565ZM16.5965 7.32245L16.6853 8.63129L16.5787 8.61361L16.348 7.28708L16.5965 7.32245ZM15.8509 8.24218H16.0817V8.45442L16.2947 8.43674V8.66667H16.0995L16.1172 8.87891L15.8864 8.8966V8.68435H15.6734L15.6557 8.45442H15.8687V8.24218H15.8509ZM15.3184 7.64082H15.5492L15.5669 7.85306L15.7622 7.83537L15.7799 8.06531L15.5669 8.08299L15.5847 8.27755H15.3539L15.3361 8.06531L15.1231 8.08299V7.85306H15.3361L15.3184 7.64082ZM15.1409 9.28571L15.1231 9.05578L15.3361 9.03809V8.82585L15.5669 8.80816V9.03809L15.7799 9.02041V9.26803H15.5847V9.48027L15.3716 9.49796V9.28571H15.1409ZM15.4426 10.5946C15.5847 10.6476 19.632 11.1075 21.6379 10.9483C21.5669 11.1782 21.2296 11.5497 20.8568 11.7973C21.0344 11.9034 21.2296 12.0626 21.3361 12.1333C21.3716 12.151 21.3894 12.1687 21.4071 12.1864C21.4071 12.1864 21.3716 12.1687 21.3361 12.1333C21.1586 12.0272 20.8213 11.868 20.6083 11.815C20.7503 11.7265 21.3716 11.2667 21.4071 11.0544C20.0403 11.0898 15.9574 10.9306 15.3716 10.7537H15.3184C15.3006 10.6476 15.3006 10.5592 15.4426 10.5946ZM15.0166 15.4762C15.2829 14.7333 15.9219 14.4857 16.632 14.751C15.9042 14.7864 15.3894 14.9102 15.0166 15.4762ZM17.129 14.6626C16.9515 14.5211 16.49 14.185 15.5137 13.7605C14.2355 13.1415 13.1527 13.8136 13.1172 13.849C13.1172 13.8313 12.6912 13.1946 12.7444 12.6639C12.8154 11.9741 13.7385 11.7442 14.3598 11.7973C13.703 11.8327 13.2592 12.1687 13.0817 12.4163C12.9042 12.6816 12.9219 13 13.1705 13.5129C14.129 13.2299 14.3421 13.2299 15.1054 13.4068C15.7799 13.5306 16.8273 14.3973 17.129 14.6626C17.1823 14.7156 17.2178 14.7333 17.2178 14.7333C17.2178 14.7333 17.1823 14.698 17.129 14.6626ZM14.2 13.0354C13.9338 13.0884 13.6497 13.1238 13.5077 13.2122C13.6142 12.7878 13.8983 12.8054 14.2 13.0354ZM15.2296 11.5673C15.0521 11.4612 14.8213 11.4258 14.8391 11.7973C14.8924 11.9211 16.3657 13.7959 18.2296 15.1224C18.2296 15.1755 18.4426 15.3347 18.1054 15.1578C17.7858 14.981 15.6202 13.283 14.6793 11.7619C14.6438 11.249 15.0699 11.1959 15.3539 11.4258C15.4782 11.6912 16.2592 13.1946 18.4604 14.5034C17.2178 13.8844 16.1882 13.3891 15.2296 11.5673ZM19.1705 15.7061C18.9929 15.5823 18.8154 15.4585 18.6202 15.317C18.7977 15.4054 18.9752 15.5469 19.1705 15.7061C20.4486 16.6435 20.9279 17.3864 21.1941 18.0762C21.2296 17.4218 20.5906 15.3878 20.3776 14.9279C21.3894 15.7769 22.3125 17.0327 22.5077 17.4925C22.1882 16.5551 21.4071 14.8748 21.0344 14.4327C22.2237 14.981 22.7563 15.5116 22.7563 15.5116C22.7563 15.5116 21.9042 13.9728 20.9101 13.8844L20.6261 13.619C22.1705 13.9551 22.5077 14.3619 24.0876 17.5279C23.7148 17.0857 22.419 15.3347 21.6379 15.0517C22.561 16.3782 23.129 17.4925 22.9515 19.9156C22.5432 18.1293 21.4604 16.1483 20.8568 15.7238C21.3184 16.6789 21.9042 18.2 21.4604 20.1456C21.3539 19.0313 20.3776 16.7673 19.1705 15.7061ZM19.9515 21.2422C19.4722 21.3129 18.6557 21.0653 18.4071 20.7116C18.7799 20.7293 20.1468 20.3932 20.5551 19.4381C20.4841 20.0571 19.7918 20.7646 19.3657 20.9061C19.6853 20.9769 19.9338 21.0476 20.1645 20.8354C20.129 21.2422 20.1645 21.6844 20.058 21.7728C20.4308 21.4014 21.0521 20.8 21.1409 20.3224C21.3006 20.6585 21.2651 21.5075 21.2296 21.6136C21.5847 21.1714 22.2415 20.2694 22.348 19.6857C22.8805 20.2871 23.1468 21.1361 23.1468 21.3837C23.3598 20.3932 23.5018 19.615 23.4663 19.4027C23.9989 20.1986 24.3006 21.0299 24.3184 20.9061C24.2651 19.5973 23.9989 18.0054 23.5728 17.5102C24.3006 17.9524 24.6557 19.4204 24.5492 21.9673C24.3716 21.4367 23.9101 20.6585 23.6261 20.4816C23.5906 20.9769 23.4308 22.0381 22.987 22.3388C22.9515 21.8259 22.8805 20.6231 22.4012 20.3048C22.3302 20.8884 21.2296 22.1088 20.8391 22.2857C20.9279 22.0027 21.0166 21.3837 20.9101 21.2952C20.4308 22.0027 20.0403 22.3034 19.6497 22.3034C19.916 21.8258 19.987 21.5429 19.9515 21.2422ZM24.3184 22.4449L23.9811 22.4272C23.9811 22.215 23.8036 21.8789 23.8036 21.8789C23.8036 21.8789 23.6971 22.2857 23.6971 22.4272H23.3598C23.5373 22.3388 23.6616 21.5252 23.7681 21.2422C23.9634 21.4544 24.2829 22.1796 24.3184 22.4449ZM22.1705 21.9143C22.1705 21.9143 21.8864 22.2503 21.8687 22.3741H21.5492C21.7089 22.2857 22.1705 21.3129 22.277 21.0476C22.5077 21.2422 22.49 22.1442 22.5077 22.3918H22.1705C22.1882 22.1796 22.1705 21.9143 22.1705 21.9143ZM18.6557 22.834H30.5669L30.5847 33.3401C30.4782 34.6844 30.6024 36.4354 27.5669 36.4707C24.5314 36.5061 24.5847 37.5497 24.4959 39.0177C24.4071 37.4258 24.4959 36.4884 21.4426 36.3646C18.5137 36.2585 18.7089 34.3837 18.6379 33.0571L18.6557 22.834ZM26.6083 45.3143C28.064 47.2952 27.9219 47.9673 27.2296 49.6653C27.8509 47.8435 27.1586 46.5524 26.6083 45.3143ZM25.3657 41.9184C26.4663 44.1823 28.135 45.3673 28.49 46.2871H28.1705C27.1941 44.8898 25.419 43.0503 25.3657 41.9184ZM24.6202 42.219C24.7977 41.883 25.2592 40.3265 25.3302 39.6898L25.6675 39.6544C25.6497 39.9197 25.064 41.7592 24.6202 42.219ZM24.8154 39.8136C25.1527 39.283 25.845 37.9388 26.0403 36.8599L26.3776 36.8422C26.3243 37.0721 25.5787 38.9293 24.8154 39.8136ZM21.4604 49.4707C20.8213 47.7374 20.6793 47.0476 22.206 45.1197C21.6024 46.3578 20.8568 47.6136 21.4604 49.4707ZM20.6083 46.0571H20.2888C20.6438 45.1374 22.3835 44.0054 23.5196 41.7415C23.4308 42.8912 21.6024 44.6776 20.6083 46.0571ZM23.2711 39.4776L23.5906 39.5483C23.6438 40.185 24.0876 41.7415 24.2474 42.0952C23.8213 41.6 23.2711 39.7605 23.2711 39.4776ZM22.6497 36.6476L22.987 36.6653C23.1645 37.7796 23.8036 39.1415 24.1231 39.6544C23.3776 38.7701 22.6853 36.8776 22.6497 36.6476ZM24.2829 42.5197L24.5847 42.502C24.6202 44.4476 24.3894 49.2762 24.3716 49.2585C24.3361 49.2231 24.1941 44.4653 24.2829 42.5197ZM24.3361 40.2558L24.6024 40.2912C24.5669 40.7156 24.4782 41.2286 24.4604 41.2109C24.4426 41.2109 24.3716 40.6803 24.3361 40.2558ZM17.8924 34.9143C17.5551 35.0912 16.5432 35.3034 16.277 35.834C17.1468 35.4803 17.6438 35.3741 17.9811 35.5687C17.4486 35.9755 17.3598 36.0816 17.3953 36.2054C17.9634 36.0639 18.4604 36.117 18.7267 36.3293C17.7858 36.5415 17.0048 36.6476 16.632 36.8776C16.6675 36.5061 16.7208 36.2231 16.9338 35.9932C15.9752 36.2762 15.4071 36.683 15.1409 36.966C15.4426 36.1701 15.6912 35.3565 17.8924 34.9143ZM14.7503 38.098C15.0344 37.7796 15.1409 37.585 15.4959 37.4612C15.4959 37.7442 15.4959 38.0095 15.6379 38.2748C15.7799 38.0095 16.1705 37.532 16.206 37.4966C15.9752 37.9388 15.7089 38.7347 15.6734 38.9646C15.4782 38.6993 15.3361 38.3456 15.2474 38.0095C15.0876 38.0626 14.6616 38.4871 14.4841 38.6993C14.4308 38.3279 14.3953 37.302 14.6971 36.6653C14.6793 37.1252 14.6616 37.9211 14.7503 38.098ZM18.2296 42.219C17.9101 42.2544 16.9693 42.3252 16.774 42.2721C17.0758 42.1837 17.8746 42.0068 18.0166 41.9537C17.9811 41.7769 17.9811 41.4408 18.1231 41.4408C18.3184 41.6354 18.4604 42.0952 18.2296 42.219ZM19.49 40.4327C18.5669 40.5742 18.3894 40.4503 18.1231 39.5837C18.0699 39.7605 18.1231 40.5211 17.7681 40.9986C17.5018 40.7156 17.3598 40.1497 17.2355 39.5129C17.1645 39.7252 17.1468 40.4503 16.9515 41.0694C16.8095 40.5918 16.5255 40.1673 16.1527 39.5306C15.9574 39.9197 15.6557 40.2027 15.1941 40.5211C15.3184 40.2558 15.2119 39.4422 15.0166 39C14.5551 39.4245 14.2 39.6721 13.4722 39.6367C14.6083 39.4245 12.7267 36.0109 15.2651 35.6748C13.3302 36.3116 14.4841 38.6816 14.129 39.1592C14.3421 39.1769 14.7858 38.9292 15.1586 38.4517C15.2829 38.7347 15.4249 39.2299 15.5314 39.902C15.6557 39.849 15.8687 39.6014 16.064 39.1769C16.2415 39.2653 16.6497 39.619 16.845 40.132C16.845 39.6721 17.058 39.0354 17.2888 38.8054C17.3776 39.0884 17.4841 39.5306 17.7503 39.849C17.8924 39.7252 17.9279 39.3537 17.9989 38.7524C18.0521 38.8585 18.1409 39.1238 18.4249 39.4599C18.4249 39.1061 18.5847 38.6109 19.1527 38.0449C18.4604 38.9823 18.5492 39.902 19.49 40.4327ZM16.3302 38.5932C16.2947 37.6204 17.1113 36.8775 19.0995 36.5061C17.9279 37.1252 17.1823 37.3905 16.9693 37.9211C17.8924 37.532 19.9515 37.2667 20.6971 37.585C19.6142 37.4082 17.1823 37.8503 16.3302 38.5932ZM18.5669 37.1605C19.7385 36.7537 20.2178 36.3469 21.6734 37.7973C21.0699 37.3905 20.2711 36.8068 18.5669 37.1605ZM21.5492 36.6476L21.8864 36.6653C22.1527 37.4612 22.7918 38.3986 23.0935 39.0707C22.2415 38.2395 21.7799 37.2136 21.5492 36.6476ZM21.4426 41.6177C21.7089 41.5469 22.703 40.3619 22.5077 39.4068C22.6853 39.8844 22.561 40.8571 22.4545 40.9279C22.6853 40.7864 23.0935 40.2912 23.0935 40.2558C22.9515 40.8218 22.6142 41.6707 21.4426 41.6177ZM18.6024 49.9129C17.8568 49.8245 17.1823 49.5769 16.7563 47.7374C16.4012 47.9497 15.9397 48.6395 15.8687 48.8694C15.6024 48.2503 14.9634 46.9061 16.4012 45.9864C15.6202 45.3673 15.4426 44.6599 16.2237 44.1646C16.3657 44.6952 17.0403 45.4027 18.1231 44.6245C19.2415 43.8816 19.9338 43.4041 20.3243 43.4041C19.6142 43.8639 18.3361 44.9959 17.5728 45.1728C16.8273 45.3673 16.3835 45.1197 16.1527 45.0313C16.3302 45.5796 16.632 45.898 17.0048 46.0395C16.2947 46.5347 15.7267 47.1184 16.0995 47.702C16.49 47.2422 16.987 47.1184 17.1823 47.2245C17.4486 48.6218 18.0699 49.8422 18.9042 49.3469C19.632 48.834 19.6675 48.7986 19.7563 48.7986C19.135 48.6571 18.0344 48.6218 18.5669 46.8531C19.2415 47.1537 19.6497 47.0299 19.9515 46.7293C19.4545 46.2517 19.206 45.385 19.4545 45.049C19.845 44.6952 22.8983 42.0422 23.0048 41.8122C22.5077 42.7143 20.3776 44.4122 19.8805 45.049C19.3835 45.6857 20.2355 46.7293 20.6616 46.5878C20.0935 47.2775 19.5787 47.6667 18.8332 47.419C18.4604 48.5864 21.1941 48.0027 20.8391 49.5592C19.2947 48.7456 19.277 50.0014 18.6024 49.9129ZM16.8095 46.7116C17.1645 46.4816 19.4722 44.3946 20.1468 43.9701C17.9811 45.8803 17.9634 47.4367 17.8924 48.1442C17.6083 47.8435 17.6261 47.1184 17.8568 46.4639C17.6793 46.3578 17.4131 46.4816 16.8095 46.7116ZM20.0935 48.1796L19.7563 48.1265L19.7208 47.6136L20.058 47.4898C20.0758 47.702 20.0048 47.8435 20.0935 48.1796ZM20.129 49.5592L20.4841 49.5238C21.1764 50.2136 22.0817 50.6558 22.703 50.1075C21.9929 49.7007 21.4071 48.9755 21.8332 47.8082C22.2237 46.6408 23.7503 42.5905 23.8036 42.5197C23.5728 43.9701 22.4367 46.8 22.1882 47.7374C21.9042 48.7102 22.277 50.0898 23.6616 49.5946C23.1645 50.4612 21.8509 51.717 20.129 49.5592ZM23.1645 49.3646L22.7208 49.2762C22.6142 48.9048 22.8805 47.8082 23.0225 47.4721C23.0225 47.9143 23.0225 49.0463 23.1645 49.3646ZM24.3361 51.6639C23.9101 51.434 23.3421 50.6735 23.3598 50.6735L23.5728 50.3197C23.7148 50.6204 24.0699 50.9918 24.3184 51.1687C24.5847 50.9565 24.9219 50.6027 25.064 50.3197L25.2947 50.6735C25.3302 50.6735 24.7444 51.4163 24.3361 51.6639ZM24.9929 49.6653C26.3953 50.1782 26.7858 48.8871 26.5373 47.9497C26.2888 46.9592 25.2415 44.1293 25.0462 42.6789C25.0817 42.732 26.4841 46.8531 26.8746 48.0204C27.2474 49.2054 26.6616 49.9129 25.9515 50.2844C26.5551 50.868 27.4782 50.4612 28.1705 49.7537L28.5255 49.8068C26.7681 51.9116 25.49 50.5673 24.9929 49.6653ZM25.5077 49.5238C25.6497 49.2231 25.6853 48.0735 25.6853 47.6313C25.8628 47.9673 26.0758 49.0463 25.9515 49.4354L25.5077 49.5238ZM29.3243 45.3143C29.6793 45.6503 29.2888 46.517 28.774 46.9592C29.058 47.2952 29.5728 47.4014 30.2474 47.1361C30.7622 48.9048 29.6438 48.9048 28.916 49.0463C29.0048 49.0463 29.058 49.0816 29.8569 49.5946C30.6912 50.1252 31.3657 48.9048 31.632 47.5075C31.845 47.4014 32.3066 47.5429 32.7148 48.0204C33.0876 47.4367 32.5373 46.8708 31.845 46.3578C32.2178 46.2517 32.5728 45.9156 32.7326 45.385C32.5196 45.4735 32.0935 45.6857 31.3302 45.4735C30.5669 45.2966 29.2178 44.1293 28.5077 43.6517C28.8983 43.6517 29.6971 44.1293 30.7799 44.9252C31.8628 45.7388 32.5373 45.0313 32.6971 44.5184C33.4426 45.049 33.2829 45.7388 32.4663 46.3224C33.8687 47.2952 33.2119 48.6218 32.9456 49.2408C32.8746 48.9932 32.3953 48.3034 32.0935 48.0912C31.6142 49.8952 30.9042 50.1429 30.1764 50.2136C29.4663 50.2844 29.4308 49.0463 27.8509 49.7714C27.5314 48.2327 30.3361 48.8694 29.9989 47.702C29.1645 47.9497 28.632 47.5252 28.0817 46.8177C28.49 46.9769 29.3953 45.951 28.8983 45.2966C28.419 44.6599 26.3243 42.9088 25.845 41.9714C25.9515 42.2014 28.9338 44.9429 29.3243 45.3143ZM30.9219 48.4449C30.8687 47.7374 30.9042 46.1633 28.6853 44.2C29.3598 44.6422 31.703 46.8 32.058 47.0122C31.4722 46.7823 31.1882 46.6408 31.0107 46.7469C31.206 47.419 31.206 48.1973 30.9219 48.4449ZM28.6497 47.7374L28.987 47.8435L28.9338 48.3741L28.5965 48.4095C28.7208 48.0912 28.6497 47.9497 28.6497 47.7374ZM27.4604 41.8122C26.2888 41.8476 25.9515 40.9986 25.8273 40.415C25.8273 40.4327 26.2178 40.9633 26.4486 41.1048C26.3421 41.034 26.2533 40.0789 26.4131 39.6014C26.2178 40.5211 27.1764 41.7592 27.4604 41.8122ZM25.8273 39.2476C26.1823 38.5755 26.8213 37.6558 27.1054 36.8776L27.4426 36.8599C27.2119 37.4258 26.7326 38.434 25.8273 39.2476ZM30.5314 37.4612C28.7208 37.0721 27.9219 37.6204 27.3006 38.0272C28.7918 36.5946 29.271 37.019 30.5314 37.4612ZM28.277 37.8327C29.0225 37.5143 31.1705 37.8327 32.0935 38.2571C31.916 37.7088 31.1705 37.4258 30.0166 36.7891C31.987 37.1959 32.7858 37.9565 32.7326 38.9469C31.916 38.1687 29.3953 37.6735 28.277 37.8327ZM30.7444 42.5197C30.5314 42.3782 30.6734 41.9184 30.8509 41.7415C31.0107 41.7769 30.9929 42.0775 30.9574 42.2544C31.0995 42.3075 31.8805 42.4844 32.2 42.6082C32.0048 42.6612 31.0462 42.5905 30.7444 42.5197ZM35.6083 40.0612C34.8805 40.0966 34.5255 39.8136 34.0639 39.3891C33.8864 39.8136 33.7444 40.6449 33.8509 40.8925C33.4071 40.5742 33.1231 40.2912 32.9279 39.8844C32.5373 40.5211 32.2533 40.9279 32.1113 41.4231C31.8983 40.7864 31.8983 40.0612 31.845 39.849C31.6853 40.4857 31.5432 41.034 31.277 41.317C30.9219 40.8395 30.9929 40.0789 30.9219 39.902C30.6557 40.7864 30.4781 40.8748 29.5551 40.7156C30.4959 40.2027 30.6202 39.283 30.0166 38.3279C30.5492 38.9293 30.6912 39.4068 30.6912 39.7605C30.9574 39.4599 31.064 39.1946 31.135 39.1061C31.1705 39.6898 31.206 40.0789 31.348 40.2027C31.632 39.8667 31.7208 39.4245 31.8273 39.1592C32.0403 39.4068 32.2533 40.0435 32.2355 40.3796C32.4486 39.9728 32.8746 39.6544 33.0521 39.566C33.2296 39.9728 33.4249 40.2381 33.5847 40.2912C33.6912 39.6014 33.8509 39.1238 33.9752 38.8408C34.3302 39.3184 34.774 39.5837 34.987 39.566C34.632 39.0884 35.8924 36.7537 33.9397 36.0639C36.4426 36.4531 34.4722 39.8136 35.6083 40.0612ZM34.3835 37.0367C34.6853 37.6912 34.6142 38.6993 34.561 39.0884C34.3835 38.8762 33.9574 38.4163 33.8154 38.3633C33.7089 38.6993 33.5492 39.0354 33.3539 39.3184C33.3184 39.0884 33.0876 38.2925 32.8746 37.8327C32.8924 37.868 33.2829 38.3633 33.4249 38.6109C33.5492 38.3456 33.6024 38.1156 33.5847 37.7973C33.9397 37.9741 34.0462 38.151 34.3302 38.4517C34.4012 38.3102 34.4367 37.4966 34.3835 37.0367ZM31.7208 36.5061C31.7385 36.4 31.6675 36.2762 31.135 35.8694C31.5077 35.6925 31.9693 35.781 32.8568 36.1701C32.5906 35.6395 31.5787 35.3741 31.2592 35.215C33.4426 35.7102 33.6557 36.5238 33.9397 37.3197C33.6912 37.0367 33.1409 36.6122 32.2 36.3116C32.4131 36.5415 32.4486 36.8422 32.4841 37.1959C32.0935 36.966 31.3302 36.8245 30.3894 36.5946C30.6734 36.4 31.1527 36.3469 31.7208 36.5061ZM48.1764 19.385C47.6261 20.5524 45.5137 21.366 44.1113 21.7374C44.9279 21.366 46.987 20.4639 47.3066 19.7742C46.5965 19.668 44.9634 20.0571 43.9338 20.3755C45.1586 19.7565 46.8095 19.0136 48.1764 19.385ZM45.2829 27.4857C44.6616 27.3796 43.3302 27.0435 42.2829 26.6544L42.4426 26.283C43.4012 26.6721 44.7858 27.185 45.2829 27.4857ZM42.5847 19.2258C43.4012 18.9782 45.3361 17.8993 45.7267 17.5633C45.4604 18.0231 43.703 19.1728 42.7089 19.6327L42.5847 19.2258ZM42.8332 24.7088C43.8628 24.8503 45.3006 24.9741 45.8687 25.151C45.2651 25.2218 43.8628 25.2218 42.7622 25.1156L42.8332 24.7088ZM42.8332 21.0476C43.6497 20.9061 45.9574 20.3048 46.4367 20.1633C45.9574 20.4993 43.987 21.1537 42.9219 21.4367L42.8332 21.0476ZM43.0107 22.9401C44.058 22.8517 45.7444 22.7633 46.3125 22.7986C45.7444 22.9755 44.129 23.1878 43.0462 23.3469L43.0107 22.9401ZM47.4131 16.5374C47.0403 17.7755 45.1941 19.0136 43.8628 19.5796C44.5906 19.102 46.4012 17.7755 46.632 17.0503C45.9042 17.0503 44.3598 17.6694 43.3835 18.1116C44.4663 17.3333 46.0107 16.3959 47.4131 16.5374ZM46.845 12.9646C46.9515 15.2463 44.4841 16.6966 43.135 17.4748C44.2888 16.6259 45.7799 15.3878 46.1527 14.0789C45.6379 14.7156 43.4722 15.9537 42.6379 16.2898C44.4131 15.1932 46.632 13.2476 46.845 12.9646ZM45.2651 15.1401C45.0876 15.6354 43.1882 17.0327 42.2829 17.6694L42.2119 17.2803C42.9574 16.9265 44.9456 15.5823 45.2651 15.1401ZM45.5137 9.00272C46.277 11.3728 43.7385 13.9374 42.5314 15.0871C43.5077 13.902 45.1231 11.815 45.1231 10.3646C44.7681 11.1605 42.5137 13.3714 41.7503 13.9374C43.2592 12.3456 45.3716 9.37415 45.5137 9.00272ZM44.0403 12.3456C43.9338 12.8762 42.3894 14.7687 41.6083 15.5469L41.4486 15.1755C42.1409 14.6626 43.8095 12.8231 44.0403 12.3456ZM38.7326 17.7755C39.1586 17.4571 40.0995 16.4136 40.3657 15.8122C40.2947 16.6259 39.0699 17.8463 38.8746 17.9878C38.6616 18.1293 38.5373 17.9701 38.7326 17.7755ZM38.4486 19.8272C38.4486 19.8272 39.8864 19.0136 39.9929 18.9605C40.135 18.8721 40.2592 19.0136 40.135 19.1197C39.9929 19.2082 38.6971 19.9156 38.5728 20.0041C38.4308 20.0925 38.3243 19.898 38.4486 19.8272ZM38.1113 25.8054C37.9338 25.7524 38.0758 25.5401 38.2178 25.6286C38.2178 25.6286 39.3539 26.2122 39.4959 26.2653C39.6379 26.3361 39.5669 26.5306 39.4249 26.4599C39.2829 26.4068 38.2888 25.8939 38.1113 25.8054ZM38.3598 27.9102C38.271 27.8218 37.4012 26.9197 37.2592 26.7959C37.1527 26.6721 37.3302 26.5306 37.4367 26.6544C37.4367 26.6544 38.3953 27.6449 38.5196 27.751C38.5906 27.8748 38.4486 28.0163 38.3598 27.9102ZM38.6261 24.5673C38.4308 24.5497 38.5018 24.3197 38.6438 24.3551C38.6438 24.3551 39.9219 24.5497 40.0817 24.5673C40.2237 24.585 40.2237 24.7973 40.0817 24.7796C39.9219 24.7619 38.8213 24.585 38.6261 24.5673ZM38.8924 22.8871C38.8924 22.8871 40.1882 22.8871 40.3302 22.8871C40.49 22.8871 40.5255 23.0816 40.3835 23.0816C40.2237 23.0993 39.0876 23.0993 38.8924 23.117C38.6971 23.117 38.7326 22.8871 38.8924 22.8871ZM38.8568 21.5075C38.6793 21.5782 38.6438 21.3483 38.8036 21.3129C38.8036 21.3129 40.0284 20.9415 40.1705 20.8884C40.3125 20.8354 40.4012 21.0299 40.2592 21.0653C40.1172 21.1361 39.0344 21.4544 38.8568 21.5075ZM35.0225 21.2776C34.774 21.1361 34.9515 21.0476 35.0403 20.9238C35.129 20.8 36.7622 19.102 37.0817 19.0136C36.6379 19.3497 35.2888 20.9946 35.2888 21.0476C35.2888 21.1007 35.271 21.419 35.0225 21.2776ZM35.0048 25.8939C35.1823 25.6816 35.5906 26.4952 35.5728 26.6721C35.5551 26.8313 34.9338 25.9646 35.0048 25.8939ZM33.5669 26.3891C33.7977 26.2476 33.9219 27.1497 33.8509 27.3088C33.7977 27.4503 33.4781 26.4422 33.5669 26.3891ZM32.1113 26.283C32.3776 26.2653 32.0758 27.1143 31.9338 27.2204C31.7918 27.3442 32.0048 26.283 32.1113 26.283ZM31.277 23.0639C31.6675 22.9932 32.2355 22.6748 32.4663 22.5156C32.6971 22.9932 32.2533 24.0014 31.277 24.0898C31.703 23.8422 32.129 23.5946 32.2355 22.9048C31.9515 23.0286 31.49 23.1701 31.277 23.0639ZM31.0995 26.9374C31.1705 26.6721 31.6142 26.1061 31.632 26.0884C31.4367 26.4068 31.1705 26.9905 31.3302 27.2204C31.5077 27.4503 31.7385 27.8925 31.7385 27.8748C31.7385 27.8748 32.2178 27.6803 32.4841 27.6095C32.7503 27.5388 32.9279 26.902 32.9634 26.4599C32.9456 26.7959 32.9279 27.4503 33.1941 27.6095C33.4426 27.7156 33.8509 28.034 33.8509 27.9986C33.8332 27.9986 34.1882 27.6449 34.3835 27.468C34.6142 27.2912 34.49 26.6544 34.3657 26.2476C34.5255 26.6014 34.7918 27.2204 35.058 27.2204C35.3421 27.2381 35.8746 27.3619 35.8391 27.3619C35.8391 27.3619 35.9989 26.8667 36.1054 26.6367C36.2296 26.3891 35.8746 25.8585 35.6083 25.5401C35.8746 25.8408 36.3894 26.3714 36.7089 26.2653C37.0284 26.1769 37.5965 26.0884 37.5787 26.0884C37.5787 26.1061 37.561 25.5578 37.5787 25.2218C37.6142 24.9034 37.0107 24.4966 36.5137 24.2667C36.9042 24.3551 37.632 24.4435 37.8273 24.1782C38.0225 23.8952 38.3953 23.4707 38.3776 23.4884C38.3776 23.4884 38.0225 23.0639 37.8095 22.8163C37.632 22.551 36.9042 22.6218 36.4781 22.7279C36.9397 22.5864 37.6675 22.3565 37.6853 22.0558C37.7208 21.7374 37.8805 21.1714 37.8805 21.1714C37.8805 21.1891 37.348 20.9946 37.0639 20.8177C36.7799 20.6762 36.1586 21.0653 35.8036 21.3306C37.1172 20.3401 38.2178 18.7129 38.3066 17.2095L38.3421 17.2803C38.2355 18.5537 37.7918 19.6327 36.9752 20.4816C37.1172 20.517 37.348 20.5878 37.4367 20.6585C37.49 20.6939 38.2355 21.0122 38.2355 21.0122C38.2355 20.9946 38.0225 21.5429 38.0048 21.8612C37.987 22.215 37.845 22.3388 37.5432 22.498C37.8805 22.4449 37.9693 22.5687 38.1645 22.8694C38.3421 23.1347 38.7148 23.5769 38.7148 23.5592C38.7148 23.5415 38.2888 23.9306 38.0758 24.2136C37.8983 24.4966 37.703 24.5497 37.419 24.5497C37.703 24.815 37.7918 24.9034 37.7563 25.2748C37.7563 25.6463 37.7563 26.283 37.7563 26.283C37.774 26.283 37.2237 26.3007 36.9397 26.3891C36.6557 26.4776 36.5669 26.5483 36.2651 26.3537C36.3894 26.6014 36.3361 26.7075 36.2296 26.9374C36.1231 27.1497 35.9811 27.6272 35.9811 27.6272C36.0166 27.6272 35.5196 27.4327 35.2355 27.4327C34.9693 27.4327 34.8095 27.3973 34.6675 27.185C34.703 27.5034 34.5255 27.5741 34.348 27.751C34.1705 27.9102 33.8509 28.317 33.8687 28.317C33.8687 28.317 33.4782 27.9633 33.2296 27.8925C32.9634 27.8218 32.9101 27.7156 32.8746 27.468C32.7858 27.751 32.5551 27.8218 32.3243 27.8925C32.0758 27.9456 31.6497 28.1755 31.6497 28.1932C31.6497 28.1932 31.4367 27.698 31.2592 27.5388C31.0995 27.3796 31.0284 27.2027 31.0995 26.9374ZM35.9279 22.1088C35.7681 21.8789 36.7089 21.6844 36.8687 21.7551C37.0462 21.8258 35.9634 22.1973 35.9279 22.1088ZM37.3125 23.4531C37.4722 23.5769 36.1941 23.6299 36.1586 23.5238C36.0699 23.2762 37.135 23.3469 37.3125 23.4531ZM36.7977 25.4694C36.8687 25.6816 35.8746 25.0626 35.8924 24.9741C35.9634 24.6381 36.7444 25.2571 36.7977 25.4694ZM36.8332 28.9714C36.7622 28.8653 36.2651 27.9279 36.1941 27.8041C36.0876 27.6803 36.2829 27.5565 36.3539 27.6803C36.3539 27.6803 36.9219 28.7061 37.0284 28.8653C37.0817 28.9714 36.9042 29.0952 36.8332 28.9714ZM34.9693 29.6082C34.916 29.4667 34.6675 28.3524 34.6142 28.1932C34.5432 27.9986 34.7918 27.981 34.8095 28.1224C34.8095 28.1224 35.0935 29.3959 35.1468 29.5374C35.2 29.6789 35.0048 29.7673 34.9693 29.6082ZM33.3716 29.7673C33.3894 29.9442 33.1764 29.9796 33.1764 29.8027C33.1764 29.6612 33.1764 28.5293 33.1409 28.3524C33.1409 28.1578 33.3539 28.1932 33.3539 28.3524C33.3539 28.3524 33.3716 29.6435 33.3716 29.7673ZM31.774 28.5293C31.774 28.5293 31.419 29.7673 31.3835 29.9265C31.3657 30.068 31.135 30.0327 31.1882 29.9088C31.1882 29.7673 31.5255 28.6707 31.5787 28.4762C31.5965 28.2816 31.8273 28.3878 31.774 28.5293ZM34.7918 34.1537C33.5847 33.4993 33.8154 33.0925 33.9929 31.5714C34.0639 32.4381 33.9397 33.0395 34.774 33.5701C35.4486 33.181 35.3776 32.7034 35.4663 31.6599C35.5728 32.951 35.8568 33.4109 34.7918 34.1537ZM34.5432 31.2177L34.9515 31.2884C34.8805 32.2966 34.774 32.5619 34.6675 33.1102C34.561 32.5265 34.5255 32.332 34.5432 31.2177ZM37.8095 34.3129C36.6379 33.9061 36.5137 33.1633 36.3539 31.6776C36.6024 32.4912 36.9929 33.6408 37.6497 33.7646C38.1113 33.4286 37.9338 32.4912 37.8095 31.4299C38.2178 32.7034 38.5728 33.517 37.8095 34.3129ZM36.7267 31.0585L37.135 31.0231C37.2415 32.0313 37.5255 32.668 37.5077 33.234C37.3125 32.668 36.9042 32.1374 36.7267 31.0585ZM40.6497 33.6408C39.4249 33.5347 39.1231 32.668 38.5906 31.2531C39.0521 31.9959 39.7089 33.0395 40.348 33.0041C40.7208 32.5796 40.419 31.6952 40.0107 30.7224C40.7208 31.8367 41.1645 32.668 40.6497 33.6408ZM40.0817 32.5619C39.7444 32.0844 39.1231 31.3415 38.6438 30.351L39.0344 30.1918C39.4071 31.1469 39.9397 31.9959 40.0817 32.5619ZM43.2237 32.1728C42.0166 32.4381 41.6616 31.483 40.703 30.3156C41.3421 30.8639 42.1054 31.8898 42.7267 31.6422C42.9397 31.1293 42.3006 30.351 41.6438 29.5374C42.6912 30.3687 43.4012 31.0762 43.2237 32.1728ZM42.3716 31.2884C41.8746 30.9347 41.0048 30.1918 40.2592 29.3782L40.5787 29.1306C41.2355 29.9088 42.0699 30.7932 42.3716 31.2884ZM41.0935 26.9197C40.987 27.2558 40.4367 27.5918 39.6379 27.5918C39.7089 27.9986 39.6379 28.4408 39.3894 29.0422C39.1054 29.2544 38.4841 29.1483 37.916 28.9184C37.8983 29.3075 37.8095 29.6082 37.561 29.9973C37.1172 30.1742 36.7089 29.9973 36.2474 29.7143C36.2119 30.1918 35.7858 30.4571 35.4663 30.7755C34.703 30.7401 34.4545 30.4925 34.206 30.0857C34.1172 30.3333 34.0107 30.6517 33.4249 30.9701C32.7503 30.8286 32.5196 30.6163 32.2355 30.1211C31.845 30.7932 31.5077 30.9701 30.9219 30.8816V30.6871C31.4545 30.8286 31.9693 30.3687 32.3421 29.4136C32.4663 30.0857 32.6438 30.4925 33.3894 30.7224C33.7977 30.5633 34.0995 30.3333 34.1172 29.3075C34.3657 30.1034 34.7208 30.4395 35.4131 30.5279C36.1941 29.9088 36.0521 29.4844 35.8391 28.7061C36.2296 29.3959 36.4426 29.7673 37.3835 29.732C37.8628 29.0599 37.6497 28.6 37.348 27.8571C37.916 28.7238 38.2355 28.9714 39.1764 28.7946C39.5847 27.751 39.3361 27.3973 38.8391 26.902C39.5847 27.3442 39.9929 27.5388 40.7918 26.7959C40.774 26.0177 40.5077 25.7347 39.5847 25.434C40.419 25.6816 40.9515 25.7701 41.5373 24.9388C41.3066 24.0544 40.9338 23.8952 40.0284 23.8599C40.9693 23.9306 41.5728 23.8068 42.1231 22.9578C41.4131 21.6844 41.0403 21.8612 40.206 21.9673C41.4308 21.702 41.8924 21.3837 42.0876 20.3048C41.1468 19.5619 40.5965 19.8803 39.6202 20.3755C41.1113 19.5088 41.8213 18.5891 41.7326 17.8993C40.8983 17.3864 39.4071 18.4476 38.7503 18.8898C41.0758 17.1918 40.8628 15.7946 40.8273 14.6626C41.2888 16.0245 40.9515 16.7497 40.4367 17.5986C40.703 17.4748 41.8036 17.3864 42.0166 17.6871C42.2474 17.9878 41.9101 18.9252 41.1468 19.5973C41.4663 19.5265 42.2474 19.8803 42.3894 20.1986C42.5137 20.4993 42.1231 21.2422 41.6438 21.8082C41.9101 22.0381 42.2296 22.3741 42.4426 22.8871C42.3006 23.4 41.8391 23.7714 41.4131 23.966C41.5906 24.1782 41.7326 24.6027 41.8213 25.0095C41.7326 25.1864 41.5551 25.5401 40.845 25.8585C40.9515 26.0177 41.0935 26.5129 41.0935 26.9197ZM41.7858 27.8395C42.6379 28.4054 43.6675 29.1306 44.0935 29.502C43.5255 29.2898 42.5137 28.7238 41.5551 28.1578L41.7858 27.8395ZM45.1941 30.1742C44.058 30.6871 43.2415 30.0503 42.0876 29.0776C42.8332 29.502 44.0048 30.1388 44.5551 29.7673C44.6616 29.219 43.8273 28.5293 42.9929 27.8925C44.1823 28.5116 45.1586 29.0952 45.1941 30.1742ZM46.6142 27.8925C45.3716 28.5116 44.4841 28.1224 43.206 27.415C44.0403 27.6626 45.2651 27.9279 45.9574 27.6272C45.4959 27.0789 44.7148 26.619 43.774 26.1769C45.0521 26.5306 45.9929 26.6367 46.6142 27.8925ZM47.4663 25.098C46.5077 26.0707 45.2829 26.0354 43.8273 25.7524C44.6793 25.7347 46.1882 25.6463 46.7563 25.151C46.1705 24.7619 44.9279 24.4789 43.845 24.3374C45.1941 24.2667 46.3835 24.2136 47.4663 25.098ZM48.0344 22.5864C47.1468 23.5238 45.3361 23.8599 43.8983 23.7714C44.7503 23.6653 46.632 23.2408 47.1823 22.6925C46.5432 22.3388 45.2474 22.3565 44.2 22.3388C45.5137 22.1619 46.8273 21.8435 48.0344 22.5864ZM38.0225 39.9905L39.9929 39.9374L40.0639 38.0626C39.1764 38.0626 38.3243 39.0884 38.0225 39.9905ZM4.56099 30.4041C4.93377 30.4041 5.39531 30.3687 5.32431 29.9973C5.2533 29.6259 4.96928 29.5905 4.96928 29.4136C5.30655 28.7238 5.60833 28.2463 5.02253 27.185C4.89827 27.4503 4.36573 28.2816 4.18821 27.468C4.41898 27.1673 3.93969 27.132 3.95744 26.9905C3.99294 27.132 3.54916 27.1673 3.76218 27.468L3.54916 27.4503C3.60241 26.9197 3.12312 26.9905 3.01661 26.8313C2.99886 27.0612 2.55507 27.2381 2.8746 27.6626L2.69709 27.7687C2.71484 27.415 2.32431 27.6095 2.2533 27.468C2.35981 27.5918 1.96928 27.8571 2.34206 27.9986C2.59058 28.7769 1.703 28.3524 1.45448 28.1755C1.48999 29.3782 2.00478 29.6258 2.66158 30.0503C2.75034 30.2095 2.50182 30.3864 2.64383 30.7401C2.76809 31.0939 3.19413 30.8993 3.4959 30.6871C3.54916 30.5456 3.72667 30.351 3.95744 30.298C4.20596 30.2449 4.45448 30.298 4.56099 30.4041ZM4.45448 29.4844C4.632 29.4667 4.73851 29.5374 4.88052 29.502C5.07578 29.9796 4.13496 30.5279 4.34797 29.732C4.40123 29.6612 4.41898 29.5374 4.45448 29.4844ZM4.0817 28.1048C4.09945 27.981 4.27697 27.8925 4.38348 27.9102C4.45448 28.0871 4.29472 28.8122 4.06395 28.5823C4.02845 28.4585 4.06395 28.1401 4.0817 28.1048ZM3.26513 27.6803C3.47815 27.5918 4.17046 27.3442 3.44265 28.2816C2.34206 27.8748 3.03436 27.751 3.26513 27.6803ZM2.43081 28.4585C2.51957 28.3878 2.71484 28.4054 2.8036 28.4939C2.82135 28.4939 2.99886 28.7769 3.01661 28.9007C2.92786 29.2014 2.43081 28.6354 2.43081 28.4585ZM2.82135 29.9973C2.94561 29.9973 3.03436 29.8558 3.17638 29.8204C3.21188 29.8558 3.30064 29.9796 3.37164 29.9973C3.93969 30.6163 2.82135 30.5102 2.82135 29.9973ZM3.12312 28.9891L4.0107 28.7415C4.20596 29.2544 4.31247 29.5905 3.88644 29.9442C3.30064 29.8912 3.21188 29.5374 3.12312 28.9891ZM3.97519 28.8299L3.22963 29.0422C3.30064 29.502 3.38939 29.785 3.86868 29.8381C4.22371 29.5374 4.13496 29.2544 3.97519 28.8299ZM27.9219 28.2109L27.8154 28.1401C27.8154 28.1755 27.6202 28.2286 27.5314 28.2286L27.5847 28.4054C27.7267 28.3878 27.8509 28.2993 27.9219 28.2109Z" fill="#202020"/>
</g>
<defs>
<clipPath id="clip0_240_7422">
<rect width="48" height="52" fill="white" transform="translate(0.81543)"/>
</clipPath>
</defs>
</svg>
