<svg width="57" height="56" viewBox="0 0 57 56" fill="none" xmlns="http://www.w3.org/2000/svg">
<g filter="url(#filter0_dd_240_14628)">
<path d="M8.37109 15.4C8.37109 13.1598 8.37109 12.0397 8.80707 11.184C9.19056 10.4314 9.80248 9.81947 10.5551 9.43597C11.4108 9 12.5309 9 14.7711 9H37.9711C40.2113 9 41.3314 9 42.1871 9.43597C42.9397 9.81947 43.5516 10.4314 43.9351 11.184C44.3711 12.0397 44.3711 13.1598 44.3711 15.4V38.6C44.3711 40.8402 44.3711 41.9603 43.9351 42.816C43.5516 43.5686 42.9397 44.1805 42.1871 44.564C41.3314 45 40.2113 45 37.9711 45H14.7711C12.5309 45 11.4108 45 10.5551 44.564C9.80248 44.1805 9.19056 43.5686 8.80707 42.816C8.37109 41.9603 8.37109 40.8402 8.37109 38.6V15.4Z" fill="white" fill-opacity="0.8"/>
<path d="M8.37109 15.4C8.37109 13.1598 8.37109 12.0397 8.80707 11.184C9.19056 10.4314 9.80248 9.81947 10.5551 9.43597C11.4108 9 12.5309 9 14.7711 9H37.9711C40.2113 9 41.3314 9 42.1871 9.43597C42.9397 9.81947 43.5516 10.4314 43.9351 11.184C44.3711 12.0397 44.3711 13.1598 44.3711 15.4V38.6C44.3711 40.8402 44.3711 41.9603 43.9351 42.816C43.5516 43.5686 42.9397 44.1805 42.1871 44.564C41.3314 45 40.2113 45 37.9711 45H14.7711C12.5309 45 11.4108 45 10.5551 44.564C9.80248 44.1805 9.19056 43.5686 8.80707 42.816C8.37109 41.9603 8.37109 40.8402 8.37109 38.6V15.4Z" fill="url(#paint0_linear_240_14628)" fill-opacity="0.4" style="mix-blend-mode:soft-light"/>
<path d="M14.3711 19L14.3711 35" stroke="#C0C0C0"/>
<path d="M14.3711 23.5V24.5C14.3711 26.7091 16.162 28.5 18.3711 28.5H21.8711" stroke="#C0C0C0"/>
<path d="M21.3711 22.4444V33.7111H37.043V25.0444V23.4444C37.043 22.8922 36.5953 22.4444 36.043 22.4444H27.4805L26.9492 21H22.168L21.3711 22.4444Z" fill="url(#paint1_radial_240_14628)"/>
<path d="M22.6992 24.7559L21.3711 33.7114L37.043 34.0003L38.207 25.8981C38.2936 25.2954 37.826 24.7559 37.2172 24.7559H22.6992Z" fill="url(#paint2_linear_240_14628)"/>
<path d="M8.87109 15.4C8.87109 14.2716 8.87148 13.4554 8.92393 12.8135C8.9759 12.1774 9.07648 11.7566 9.25257 11.411C9.58813 10.7525 10.1236 10.217 10.7821 9.88148C11.1277 9.70539 11.5485 9.60481 12.1846 9.55284C12.8265 9.50039 13.6427 9.5 14.7711 9.5H37.9711C39.0994 9.5 39.9156 9.50039 40.5576 9.55284C41.1937 9.60481 41.6145 9.70539 41.9601 9.88148C42.6186 10.217 43.1541 10.7525 43.4896 11.411C43.6657 11.7566 43.7663 12.1774 43.8183 12.8135C43.8707 13.4554 43.8711 14.2716 43.8711 15.4V38.6C43.8711 39.7284 43.8707 40.5446 43.8183 41.1865C43.7663 41.8226 43.6657 42.2434 43.4896 42.589C43.1541 43.2475 42.6186 43.783 41.9601 44.1185C41.6145 44.2946 41.1937 44.3952 40.5576 44.4472C39.9156 44.4996 39.0994 44.5 37.9711 44.5H14.7711C13.6427 44.5 12.8265 44.4996 12.1846 44.4472C11.5485 44.3952 11.1277 44.2946 10.7821 44.1185C10.1236 43.783 9.58813 43.2475 9.25257 42.589C9.07648 42.2434 8.9759 41.8226 8.92393 41.1865C8.87148 40.5446 8.87109 39.7284 8.87109 38.6V15.4Z" stroke="#D8D8D8" stroke-opacity="0.42"/>
</g>
<defs>
<filter id="filter0_dd_240_14628" x="0.371094" y="0" width="56" height="56" filterUnits="userSpaceOnUse" color-interpolation-filters="sRGB">
<feFlood flood-opacity="0" result="BackgroundImageFix"/>
<feColorMatrix in="SourceAlpha" type="matrix" values="0 0 0 0 0 0 0 0 0 0 0 0 0 0 0 0 0 0 127 0" result="hardAlpha"/>
<feOffset dx="2" dy="1"/>
<feGaussianBlur stdDeviation="5"/>
<feColorMatrix type="matrix" values="0 0 0 0 0.290486 0 0 0 0 0.310722 0 0 0 0 0.391667 0 0 0 0.28 0"/>
<feBlend mode="normal" in2="BackgroundImageFix" result="effect1_dropShadow_240_14628"/>
<feColorMatrix in="SourceAlpha" type="matrix" values="0 0 0 0 0 0 0 0 0 0 0 0 0 0 0 0 0 0 127 0" result="hardAlpha"/>
<feMorphology radius="3" operator="erode" in="SourceAlpha" result="effect2_dropShadow_240_14628"/>
<feOffset dx="-2"/>
<feGaussianBlur stdDeviation="4"/>
<feColorMatrix type="matrix" values="0 0 0 0 0.933333 0 0 0 0 0.933333 0 0 0 0 0.933333 0 0 0 1 0"/>
<feBlend mode="normal" in2="effect1_dropShadow_240_14628" result="effect2_dropShadow_240_14628"/>
<feBlend mode="normal" in="SourceGraphic" in2="effect2_dropShadow_240_14628" result="shape"/>
</filter>
<linearGradient id="paint0_linear_240_14628" x1="-6.75463" y1="27.0018" x2="25.9023" y2="60.0837" gradientUnits="userSpaceOnUse">
<stop/>
<stop offset="1" stop-color="white"/>
</linearGradient>
<radialGradient id="paint1_radial_240_14628" cx="0" cy="0" r="1" gradientUnits="userSpaceOnUse" gradientTransform="translate(22.4336 28.5111) rotate(-31.3737) scale(8.26177 11.5437)">
<stop stop-color="#A85222"/>
<stop offset="1" stop-color="#FDC065"/>
</radialGradient>
<linearGradient id="paint2_linear_240_14628" x1="29.8711" y1="24.7559" x2="29.8711" y2="34.0003" gradientUnits="userSpaceOnUse">
<stop stop-color="#FCDA8C"/>
<stop offset="1" stop-color="#FEC065"/>
</linearGradient>
</defs>
</svg>
