<svg width="137" height="372" viewBox="0 0 137 372" fill="none" xmlns="http://www.w3.org/2000/svg">
<rect x="1.29297" y="0.5" width="135" height="371" rx="19.5" fill="white" fill-opacity="0.32"/>
<rect x="33.1045" y="41.3535" width="71.3746" height="36.4923" rx="8.77161" fill="#9CA9B7"/>
<path d="M53.198 65.9023V63.7358H55.3646V65.9023H53.198ZM62.2891 66.1655C61.3125 66.1655 60.4792 65.9491 59.7892 65.5164C59.0992 65.0778 58.57 64.4813 58.2016 63.727C57.839 62.9726 57.6548 62.1189 57.6489 61.1657C57.6548 60.1949 57.8448 59.3353 58.2191 58.5868C58.5992 57.8325 59.1372 57.2418 59.8331 56.815C60.529 56.3822 61.3564 56.1659 62.3154 56.1659C63.3914 56.1659 64.3007 56.4378 65.0434 56.9816C65.7919 57.5196 66.2802 58.2564 66.5083 59.1921L64.4031 59.7622C64.2393 59.2535 63.9674 58.8587 63.5873 58.578C63.2072 58.2915 62.7745 58.1482 62.2891 58.1482C61.7394 58.1482 61.2862 58.2798 60.9295 58.543C60.5728 58.8003 60.3097 59.157 60.1401 59.6131C59.9705 60.0692 59.8857 60.5867 59.8857 61.1657C59.8857 62.0662 60.0874 62.7943 60.4909 63.3498C60.8944 63.9053 61.4938 64.1831 62.2891 64.1831C62.8505 64.1831 63.292 64.0545 63.6136 63.7972C63.9411 63.5399 64.1867 63.1685 64.3505 62.6832L66.5083 63.1656C66.2159 64.1305 65.7042 64.8731 64.9732 65.3936C64.2423 65.9082 63.3476 66.1655 62.2891 66.1655ZM71.9238 66.1655C70.7542 66.1655 69.804 65.9023 69.073 65.376C68.342 64.8498 67.8976 64.11 67.7397 63.1568L69.8975 62.8235C70.0086 63.2913 70.2542 63.6597 70.6344 63.9287C71.0145 64.1977 71.494 64.3322 72.0729 64.3322C72.5816 64.3322 72.9734 64.2328 73.2483 64.034C73.529 63.8293 73.6693 63.5516 73.6693 63.2007C73.6693 62.9843 73.6167 62.8118 73.5114 62.6832C73.412 62.5487 73.1898 62.42 72.8448 62.2972C72.4998 62.1744 71.9706 62.0194 71.2571 61.8323C70.4618 61.6218 69.8303 61.3967 69.3625 61.1569C68.8946 60.9113 68.5584 60.6218 68.3537 60.2885C68.1491 59.9552 68.0467 59.5517 68.0467 59.078C68.0467 58.4874 68.2017 57.9728 68.5116 57.5342C68.8216 57.0956 69.2543 56.7594 69.8098 56.5255C70.3654 56.2857 71.0203 56.1659 71.7747 56.1659C72.5115 56.1659 73.1635 56.2799 73.7307 56.5079C74.3038 56.736 74.7658 57.0606 75.1166 57.4816C75.4675 57.9026 75.6839 58.3968 75.7657 58.964L73.6079 59.3499C73.5553 58.9465 73.3711 58.6278 73.0553 58.3938C72.7454 58.1599 72.3302 58.0284 71.8097 57.9991C71.3127 57.9699 70.9121 58.0459 70.608 58.2272C70.304 58.4026 70.1519 58.6511 70.1519 58.9728C70.1519 59.154 70.2133 59.309 70.3361 59.4377C70.4589 59.5663 70.7045 59.695 71.0729 59.8236C71.4472 59.9523 72.0027 60.1102 72.7395 60.2973C73.4939 60.4903 74.0962 60.7125 74.5465 60.9639C75.0026 61.2095 75.3301 61.5048 75.5289 61.8499C75.7336 62.1949 75.8359 62.613 75.8359 63.1042C75.8359 64.0574 75.488 64.8059 74.7921 65.3497C74.1021 65.8936 73.146 66.1655 71.9238 66.1655ZM79.9758 65.9023L76.5374 56.429H78.6513L81.0372 63.2972L83.4143 56.429H85.537L82.0986 65.9023H79.9758Z" fill="white"/>
<rect x="33.1045" y="91.8457" width="71.3746" height="36.4923" rx="8.77161" fill="#9CA9B7"/>
<path d="M58.0293 116.627C57.1053 116.627 56.272 116.467 55.5294 116.145C54.7925 115.823 54.1844 115.364 53.7049 114.768C53.2312 114.166 52.93 113.452 52.8014 112.628L54.9943 112.294C55.1814 113.043 55.5644 113.622 56.1434 114.031C56.7281 114.44 57.4006 114.645 58.1608 114.645C58.6111 114.645 59.0351 114.575 59.4327 114.435C59.8304 114.294 60.152 114.089 60.3976 113.82C60.6491 113.551 60.7748 113.221 60.7748 112.829C60.7748 112.654 60.7455 112.493 60.6871 112.347C60.6286 112.195 60.5409 112.06 60.4239 111.943C60.3128 111.826 60.1666 111.721 59.9853 111.628C59.8099 111.528 59.6052 111.443 59.3713 111.373L56.1083 110.408C55.8276 110.326 55.5235 110.218 55.196 110.084C54.8744 109.943 54.5674 109.753 54.275 109.514C53.9885 109.268 53.7516 108.958 53.5645 108.584C53.3832 108.204 53.2926 107.736 53.2926 107.18C53.2926 106.368 53.4973 105.686 53.9066 105.137C54.3218 104.581 54.8773 104.166 55.5732 103.891C56.2749 103.616 57.0527 103.482 57.9065 103.488C58.7719 103.493 59.5438 103.642 60.2222 103.935C60.9005 104.221 61.4677 104.64 61.9239 105.189C62.38 105.739 62.7016 106.403 62.8887 107.18L60.6169 107.575C60.5233 107.131 60.3421 106.753 60.0731 106.444C59.8099 106.128 59.4854 105.888 59.0994 105.724C58.7193 105.561 58.3129 105.473 57.8802 105.461C57.4591 105.455 57.0673 105.52 56.7048 105.654C56.348 105.783 56.0586 105.97 55.8364 106.216C55.62 106.461 55.5118 106.748 55.5118 107.075C55.5118 107.385 55.6054 107.639 55.7925 107.838C55.9796 108.031 56.2106 108.186 56.4855 108.303C56.7662 108.414 57.0498 108.508 57.3363 108.584L59.5994 109.215C59.9093 109.297 60.2573 109.408 60.6432 109.549C61.0292 109.689 61.4005 109.885 61.7572 110.136C62.1139 110.388 62.4063 110.718 62.6344 111.128C62.8683 111.537 62.9852 112.057 62.9852 112.689C62.9852 113.344 62.8478 113.92 62.573 114.417C62.304 114.908 61.9385 115.318 61.4765 115.645C61.0145 115.972 60.4853 116.218 59.8889 116.382C59.2982 116.546 58.6784 116.627 58.0293 116.627ZM74.7695 116.627L71.1644 113.04L72.4889 111.715L76.0765 115.303L74.7695 116.627ZM70.2258 116.627C68.9627 116.627 67.8808 116.353 66.9803 115.803C66.0797 115.247 65.3868 114.475 64.9014 113.487C64.4219 112.499 64.1821 111.353 64.1821 110.049C64.1821 108.745 64.4219 107.598 64.9014 106.61C65.3868 105.622 66.0797 104.853 66.9803 104.303C67.8808 103.748 68.9627 103.47 70.2258 103.47C71.4889 103.47 72.5707 103.748 73.4713 104.303C74.3777 104.853 75.0706 105.622 75.5502 106.61C76.0355 107.598 76.2782 108.745 76.2782 110.049C76.2782 111.353 76.0355 112.499 75.5502 113.487C75.0706 114.475 74.3777 115.247 73.4713 115.803C72.5707 116.353 71.4889 116.627 70.2258 116.627ZM70.2258 114.636C71.0737 114.642 71.7784 114.455 72.3397 114.075C72.907 113.695 73.3309 113.16 73.6116 112.47C73.8982 111.78 74.0414 110.973 74.0414 110.049C74.0414 109.125 73.8982 108.324 73.6116 107.645C73.3309 106.961 72.907 106.429 72.3397 106.049C71.7784 105.669 71.0737 105.473 70.2258 105.461C69.3779 105.455 68.6732 105.642 68.1118 106.023C67.5504 106.403 67.1265 106.938 66.8399 107.628C66.5593 108.318 66.4189 109.125 66.4189 110.049C66.4189 110.973 66.5593 111.777 66.8399 112.461C67.1206 113.139 67.5417 113.668 68.1031 114.049C68.6703 114.429 69.3779 114.625 70.2258 114.636ZM78.1996 116.364V103.733H80.3136V114.382H85.8923V116.364H78.1996Z" fill="white"/>
<rect x="33.1045" y="142.338" width="71.3746" height="36.4923" rx="8.77161" fill="#9CA9B7"/>
<path d="M50.783 165.742V163.576H52.9496V165.742H50.783ZM54.7076 165.742L58.1724 160.953L54.7778 156.269H57.2689L59.4004 159.295L61.4968 156.269H63.988L60.5934 160.953L64.0757 165.742H61.5845L59.4004 162.611L57.1987 165.742H54.7076ZM65.6495 165.742V152.848H67.7635V165.742H65.6495ZM74.0487 166.005C72.8792 166.005 71.9289 165.742 71.198 165.216C70.467 164.69 70.0226 163.95 69.8647 162.997L72.0225 162.663C72.1336 163.131 72.3792 163.5 72.7593 163.769C73.1394 164.038 73.6189 164.172 74.1979 164.172C74.7066 164.172 75.0984 164.073 75.3732 163.874C75.6539 163.669 75.7943 163.391 75.7943 163.041C75.7943 162.824 75.7417 162.652 75.6364 162.523C75.537 162.389 75.3148 162.26 74.9698 162.137C74.6247 162.014 74.0955 161.859 73.3821 161.672C72.5868 161.462 71.9552 161.237 71.4874 160.997C71.0196 160.751 70.6834 160.462 70.4787 160.128C70.274 159.795 70.1717 159.392 70.1717 158.918C70.1717 158.327 70.3266 157.813 70.6366 157.374C70.9465 156.935 71.3792 156.599 71.9348 156.365C72.4903 156.126 73.1453 156.006 73.8996 156.006C74.6364 156.006 75.2885 156.12 75.8557 156.348C76.4288 156.576 76.8907 156.9 77.2416 157.321C77.5925 157.742 77.8088 158.237 77.8907 158.804L75.7329 159.19C75.6803 158.786 75.496 158.468 75.1803 158.234C74.8703 158 74.4552 157.868 73.9347 157.839C73.4376 157.81 73.0371 157.886 72.733 158.067C72.4289 158.242 72.2769 158.491 72.2769 158.813C72.2769 158.994 72.3383 159.149 72.4611 159.278C72.5839 159.406 72.8295 159.535 73.1979 159.663C73.5721 159.792 74.1277 159.95 74.8645 160.137C75.6189 160.33 76.2212 160.552 76.6714 160.804C77.1276 161.049 77.455 161.345 77.6539 161.69C77.8585 162.035 77.9609 162.453 77.9609 162.944C77.9609 163.897 77.6129 164.646 76.9171 165.19C76.227 165.733 75.2709 166.005 74.0487 166.005ZM78.4869 165.742L81.9517 160.953L78.5571 156.269H81.0482L83.1797 159.295L85.2761 156.269H87.7673L84.3726 160.953L87.855 165.742H85.3638L83.1797 162.611L80.978 165.742H78.4869Z" fill="white"/>
<rect x="33.1045" y="192.83" width="71.3746" height="37.0289" rx="8.77161" fill="#9CA9B7"/>
<path d="M54.2713 215.543V213.376H56.4379V215.543H54.2713ZM64.8009 215.543C64.1752 215.66 63.5612 215.71 62.9589 215.692C62.3624 215.68 61.8273 215.572 61.3537 215.368C60.88 215.157 60.5204 214.827 60.2748 214.376C60.0584 213.967 59.9444 213.549 59.9327 213.122C59.921 212.695 59.9151 212.213 59.9151 211.675V203.438H62.0203V211.552C62.0203 211.932 62.0232 212.265 62.0291 212.552C62.0408 212.838 62.1022 213.072 62.2133 213.254C62.4238 213.604 62.76 213.8 63.222 213.841C63.684 213.882 64.2103 213.859 64.8009 213.771V215.543ZM58.1959 207.727V206.07H64.8009V207.727H58.1959ZM70.4957 215.806C69.3262 215.806 68.3759 215.543 67.645 215.017C66.914 214.49 66.4696 213.751 66.3117 212.797L68.4695 212.464C68.5806 212.932 68.8262 213.3 69.2063 213.569C69.5864 213.838 70.0659 213.973 70.6449 213.973C71.1536 213.973 71.5454 213.873 71.8203 213.675C72.1009 213.47 72.2413 213.192 72.2413 212.841C72.2413 212.625 72.1887 212.452 72.0834 212.324C71.984 212.189 71.7618 212.061 71.4168 211.938C71.0717 211.815 70.5425 211.66 69.8291 211.473C69.0338 211.262 68.4022 211.037 67.9344 210.798C67.4666 210.552 67.1304 210.262 66.9257 209.929C66.721 209.596 66.6187 209.192 66.6187 208.719C66.6187 208.128 66.7737 207.613 67.0836 207.175C67.3935 206.736 67.8262 206.4 68.3818 206.166C68.9373 205.926 69.5923 205.806 70.3466 205.806C71.0834 205.806 71.7355 205.921 72.3027 206.149C72.8758 206.377 73.3377 206.701 73.6886 207.122C74.0395 207.543 74.2558 208.037 74.3377 208.605L72.1799 208.991C72.1273 208.587 71.9431 208.268 71.6273 208.034C71.3173 207.801 70.9022 207.669 70.3817 207.64C69.8847 207.611 69.4841 207.687 69.18 207.868C68.8759 208.043 68.7239 208.292 68.7239 208.613C68.7239 208.795 68.7853 208.95 68.9081 209.078C69.0309 209.207 69.2765 209.336 69.6449 209.464C70.0192 209.593 70.5747 209.751 71.3115 209.938C72.0659 210.131 72.6682 210.353 73.1185 210.605C73.5746 210.85 73.9021 211.145 74.1009 211.49C74.3055 211.836 74.4079 212.254 74.4079 212.745C74.4079 213.698 74.0599 214.447 73.3641 214.99C72.674 215.534 71.7179 215.806 70.4957 215.806ZM78.5478 215.543L75.1093 206.07H77.2233L79.6092 212.938L81.9863 206.07H84.109L80.6705 215.543H78.5478Z" fill="white"/>
<rect x="33.1045" y="243.859" width="71.3746" height="37.0289" rx="8.77161" fill="#9CA9B7"/>
<path d="M55.076 269.543V267.376H57.2425V269.543H55.076ZM65.6056 269.543C64.9799 269.66 64.3659 269.71 63.7636 269.692C63.1671 269.68 62.632 269.572 62.1584 269.368C61.6847 269.157 61.325 268.827 61.0794 268.376C60.8631 267.967 60.749 267.549 60.7374 267.122C60.7257 266.695 60.7198 266.213 60.7198 265.675V257.438H62.825V265.552C62.825 265.932 62.8279 266.265 62.8338 266.552C62.8455 266.838 62.9069 267.072 63.018 267.254C63.2285 267.604 63.5647 267.8 64.0267 267.841C64.4887 267.882 65.015 267.859 65.6056 267.771V269.543ZM59.0006 261.727V260.07H65.6056V261.727H59.0006ZM66.5901 269.543L70.0549 264.754L66.6602 260.07H69.1514L71.2829 263.096L73.3793 260.07H75.8704L72.4758 264.754L75.9582 269.543H73.467L71.2829 266.412L69.0812 269.543H66.5901ZM82.909 269.543C82.2833 269.66 81.6693 269.71 81.0669 269.692C80.4705 269.68 79.9354 269.572 79.4617 269.368C78.9881 269.157 78.6284 268.827 78.3828 268.376C78.1665 267.967 78.0524 267.549 78.0407 267.122C78.029 266.695 78.0232 266.213 78.0232 265.675V257.438H80.1284V265.552C80.1284 265.932 80.1313 266.265 80.1371 266.552C80.1488 266.838 80.2102 267.072 80.3213 267.254C80.5319 267.604 80.8681 267.8 81.3301 267.841C81.7921 267.882 82.3184 267.859 82.909 267.771V269.543ZM76.3039 261.727V260.07H82.909V261.727H76.3039Z" fill="white"/>
<rect x="33.1045" y="294.888" width="71.3746" height="36.4923" rx="8.77161" fill="#9CA9B7"/>
<path d="M55.2414 319.975C54.3467 319.975 53.5573 319.785 52.8731 319.405C52.1889 319.019 51.6539 318.484 51.2679 317.8C50.8878 317.116 50.6978 316.326 50.6978 315.431V311.361C50.6978 310.467 50.8878 309.677 51.2679 308.993C51.6539 308.309 52.1889 307.777 52.8731 307.397C53.5573 307.011 54.3467 306.818 55.2414 306.818C56.1362 306.818 56.9227 307.011 57.601 307.397C58.2852 307.777 58.8203 308.309 59.2062 308.993C59.5922 309.677 59.7851 310.467 59.7851 311.361V315.431C59.7851 316.326 59.5922 317.116 59.2062 317.8C58.8203 318.484 58.2852 319.019 57.601 319.405C56.9227 319.785 56.1362 319.975 55.2414 319.975ZM55.2414 317.966C55.6859 317.966 56.0894 317.861 56.4519 317.651C56.8145 317.434 57.101 317.148 57.3115 316.791C57.5221 316.428 57.6273 316.025 57.6273 315.58V311.203C57.6273 310.753 57.5221 310.35 57.3115 309.993C57.101 309.63 56.8145 309.344 56.4519 309.133C56.0894 308.917 55.6859 308.809 55.2414 308.809C54.797 308.809 54.3935 308.917 54.031 309.133C53.6684 309.344 53.3819 309.63 53.1713 309.993C52.9608 310.35 52.8556 310.753 52.8556 311.203V315.58C52.8556 316.025 52.9608 316.428 53.1713 316.791C53.3819 317.148 53.6684 317.434 54.031 317.651C54.3935 317.861 54.797 317.966 55.2414 317.966ZM64.4377 319.712V309.388L62.0693 310.835V308.502L64.4377 307.081H66.5955V319.712H64.4377ZM72.13 319.712V309.388L69.7616 310.835V308.502L72.13 307.081H74.2878V319.712H72.13ZM82.173 319.975C81.2783 319.975 80.4889 319.785 79.8047 319.405C79.1205 319.019 78.5854 318.484 78.1995 317.8C77.8194 317.116 77.6293 316.326 77.6293 315.431V311.361C77.6293 310.467 77.8194 309.677 78.1995 308.993C78.5854 308.309 79.1205 307.777 79.8047 307.397C80.4889 307.011 81.2783 306.818 82.173 306.818C83.0677 306.818 83.8543 307.011 84.5326 307.397C85.2168 307.777 85.7519 308.309 86.1378 308.993C86.5238 309.677 86.7167 310.467 86.7167 311.361V315.431C86.7167 316.326 86.5238 317.116 86.1378 317.8C85.7519 318.484 85.2168 319.019 84.5326 319.405C83.8543 319.785 83.0677 319.975 82.173 319.975ZM82.173 317.966C82.6175 317.966 83.021 317.861 83.3835 317.651C83.7461 317.434 84.0326 317.148 84.2431 316.791C84.4537 316.428 84.5589 316.025 84.5589 315.58V311.203C84.5589 310.753 84.4537 310.35 84.2431 309.993C84.0326 309.63 83.7461 309.344 83.3835 309.133C83.021 308.917 82.6175 308.809 82.173 308.809C81.7286 308.809 81.3251 308.917 80.9626 309.133C80.6 309.344 80.3135 309.63 80.1029 309.993C79.8924 310.35 79.7872 310.753 79.7872 311.203V315.58C79.7872 316.025 79.8924 316.428 80.1029 316.791C80.3135 317.148 80.6 317.434 80.9626 317.651C81.3251 317.861 81.7286 317.966 82.173 317.966Z" fill="white"/>
<rect x="1.29297" y="0.5" width="135" height="371" rx="19.5" stroke="white"/>
</svg>
