<svg width="1440" height="712" viewBox="0 0 1440 712" fill="none" xmlns="http://www.w3.org/2000/svg">
<ellipse cx="954.5" cy="394.5" rx="312.5" ry="137.5" fill="url(#paint0_radial_202_618)" fill-opacity="0.38"/>
<path d="M1167.5 102C1167.5 274.582 1025.58 414.5 850.5 414.5C675.419 414.5 533.5 274.582 533.5 102C533.5 -70.5823 675.419 -210.5 850.5 -210.5C1025.58 -210.5 1167.5 -70.5823 1167.5 102Z" fill="url(#paint1_linear_202_618)"/>
<path d="M1167.5 102C1167.5 274.582 1025.58 414.5 850.5 414.5C675.419 414.5 533.5 274.582 533.5 102C533.5 -70.5823 675.419 -210.5 850.5 -210.5C1025.58 -210.5 1167.5 -70.5823 1167.5 102Z" fill="url(#paint2_radial_202_618)"/>
<path d="M1167.5 102C1167.5 274.582 1025.58 414.5 850.5 414.5C675.419 414.5 533.5 274.582 533.5 102C533.5 -70.5823 675.419 -210.5 850.5 -210.5C1025.58 -210.5 1167.5 -70.5823 1167.5 102Z" stroke="url(#paint3_linear_202_618)"/>
<ellipse cx="1002.17" cy="33.586" rx="344.124" ry="113.631" transform="rotate(3.36669 1002.17 33.586)" fill="url(#paint4_radial_202_618)"/>
<g clip-path="url(#clip0_202_618)">
<ellipse cx="497.841" cy="219.736" rx="343.807" ry="308.596" fill="url(#paint5_radial_202_618)"/>
</g>
<defs>
<radialGradient id="paint0_radial_202_618" cx="0" cy="0" r="1" gradientUnits="userSpaceOnUse" gradientTransform="translate(954.5 394.5) rotate(90) scale(119.072 270.619)">
<stop stop-color="#569CC4" stop-opacity="0.9"/>
<stop offset="1" stop-color="#9DD8F9" stop-opacity="0"/>
</radialGradient>
<linearGradient id="paint1_linear_202_618" x1="894.293" y1="216.552" x2="605.674" y2="-88.8445" gradientUnits="userSpaceOnUse">
<stop stop-color="#B0E9F6"/>
<stop offset="1" stop-color="#075AA6"/>
</linearGradient>
<radialGradient id="paint2_radial_202_618" cx="0" cy="0" r="1" gradientUnits="userSpaceOnUse" gradientTransform="translate(958.523 -48.8531) rotate(58.3582) scale(285.216 306.958)">
<stop stop-color="#626DD4"/>
<stop offset="1" stop-color="#D7EEFF" stop-opacity="0.39"/>
</radialGradient>
<linearGradient id="paint3_linear_202_618" x1="547.5" y1="30" x2="1095" y2="495.5" gradientUnits="userSpaceOnUse">
<stop offset="0.213542" stop-color="#8CC0E2"/>
<stop offset="1" stop-color="white" stop-opacity="0"/>
</linearGradient>
<radialGradient id="paint4_radial_202_618" cx="0" cy="0" r="1" gradientUnits="userSpaceOnUse" gradientTransform="translate(1002.17 33.586) rotate(90) scale(98.4025 298.004)">
<stop stop-color="white"/>
<stop offset="1" stop-color="#9DD8F9" stop-opacity="0"/>
</radialGradient>
<radialGradient id="paint5_radial_202_618" cx="0" cy="0" r="1" gradientUnits="userSpaceOnUse" gradientTransform="translate(497.841 219.736) rotate(90) scale(267.238 297.73)">
<stop stop-color="white" stop-opacity="0.9"/>
<stop offset="1" stop-color="#ECF3F7" stop-opacity="0"/>
</radialGradient>
<clipPath id="clip0_202_618">
<rect width="1440" height="600" fill="white" transform="translate(0 112)"/>
</clipPath>
</defs>
</svg>
