<svg width="175" height="69" viewBox="0 0 175 69" fill="none" xmlns="http://www.w3.org/2000/svg">
<g filter="url(#filter0_d_428_46609)">
<mask id="path-1-inside-1_428_46609" fill="white">
<path fill-rule="evenodd" clip-rule="evenodd" d="M25.4316 14.2012C21.0134 14.2012 17.4316 17.7829 17.4316 22.2012V38.1858C17.4316 42.6041 21.0134 46.1858 25.4316 46.1858H80.6698L87.8956 50.6709C88.2168 50.8703 88.623 50.8715 88.9454 50.674L96.2723 46.1858H151.57C155.989 46.1858 159.57 42.6041 159.57 38.1858V22.2012C159.57 17.7829 155.989 14.2012 151.57 14.2012H25.4316Z"/>
</mask>
<path fill-rule="evenodd" clip-rule="evenodd" d="M25.4316 14.2012C21.0134 14.2012 17.4316 17.7829 17.4316 22.2012V38.1858C17.4316 42.6041 21.0134 46.1858 25.4316 46.1858H80.6698L87.8956 50.6709C88.2168 50.8703 88.623 50.8715 88.9454 50.674L96.2723 46.1858H151.57C155.989 46.1858 159.57 42.6041 159.57 38.1858V22.2012C159.57 17.7829 155.989 14.2012 151.57 14.2012H25.4316Z" fill="white"/>
<path d="M80.6698 46.1858L81.5575 44.7557L81.1497 44.5026H80.6698V46.1858ZM87.8956 50.6709L88.7833 49.2409L88.7833 49.2409L87.8956 50.6709ZM88.9454 50.674L88.0662 49.2387L88.0662 49.2387L88.9454 50.674ZM96.2723 46.1858V44.5026H95.7978L95.3931 44.7505L96.2723 46.1858ZM19.1148 22.2012C19.1148 18.7125 21.943 15.8844 25.4316 15.8844V12.518C20.0838 12.518 15.7485 16.8533 15.7485 22.2012H19.1148ZM19.1148 38.1858V22.2012H15.7485V38.1858H19.1148ZM25.4316 44.5026C21.943 44.5026 19.1148 41.6745 19.1148 38.1858H15.7485C15.7485 43.5337 20.0838 47.869 25.4316 47.869V44.5026ZM80.6698 44.5026H25.4316V47.869H80.6698V44.5026ZM88.7833 49.2409L81.5575 44.7557L79.7821 47.6159L87.008 52.101L88.7833 49.2409ZM88.0662 49.2387C88.2864 49.1038 88.5639 49.1047 88.7833 49.2409L87.008 52.101C87.8698 52.636 88.9596 52.6392 89.8246 52.1093L88.0662 49.2387ZM95.3931 44.7505L88.0662 49.2387L89.8246 52.1093L97.1515 47.6211L95.3931 44.7505ZM151.57 44.5026H96.2723V47.869H151.57V44.5026ZM157.887 38.1858C157.887 41.6745 155.059 44.5026 151.57 44.5026V47.869C156.918 47.869 161.253 43.5337 161.253 38.1858H157.887ZM157.887 22.2012V38.1858H161.253V22.2012H157.887ZM151.57 15.8844C155.059 15.8844 157.887 18.7125 157.887 22.2012H161.253C161.253 16.8533 156.918 12.518 151.57 12.518V15.8844ZM25.4316 15.8844H151.57V12.518H25.4316V15.8844Z" fill="url(#paint0_linear_428_46609)" fill-opacity="0.47" mask="url(#path-1-inside-1_428_46609)"/>
</g>
<path d="M28.0525 35.1396L31.3285 25.0596H33.4355L36.7115 35.1396H35.1925L32.1755 25.9416H32.5535L29.5715 35.1396H28.0525ZM29.7535 32.8646V31.4926H35.0175V32.8646H29.7535ZM41.8803 35.3496C41.1383 35.3496 40.471 35.2306 39.8783 34.9926C39.2903 34.75 38.791 34.3906 38.3803 33.9146C37.9743 33.4386 37.6733 32.8506 37.4773 32.1506L38.9123 31.7866C39.113 32.4446 39.4653 32.9743 39.9693 33.3756C40.478 33.7723 41.087 33.966 41.7963 33.9566C42.2863 33.9473 42.7483 33.854 43.1823 33.6766C43.6163 33.4946 43.9733 33.2146 44.2533 32.8366C44.4913 32.5286 44.6616 32.202 44.7643 31.8566C44.8716 31.5113 44.9416 31.1543 44.9743 30.7856H41.3623V29.4066H44.9813C44.916 28.7766 44.7503 28.2236 44.4843 27.7476C44.223 27.2716 43.866 26.9006 43.4133 26.6346C42.9653 26.364 42.4263 26.2333 41.7963 26.2426C41.0496 26.252 40.422 26.462 39.9133 26.8726C39.4046 27.2786 39.0616 27.8293 38.8843 28.5246L37.4073 28.3146C37.6593 27.2133 38.175 26.3616 38.9543 25.7596C39.7383 25.153 40.7136 24.8496 41.8803 24.8496C42.8603 24.8496 43.698 25.0713 44.3933 25.5146C45.0886 25.9533 45.6206 26.567 45.9893 27.3556C46.3626 28.1396 46.554 29.0543 46.5633 30.0996C46.5726 31.0796 46.393 31.9663 46.0243 32.7596C45.6603 33.553 45.126 34.183 44.4213 34.6496C43.7213 35.1163 42.8743 35.3496 41.8803 35.3496ZM52.1684 35.3496C51.1604 35.3496 50.3018 35.1303 49.5924 34.6916C48.8831 34.2483 48.3394 33.6323 47.9614 32.8436C47.5881 32.055 47.4014 31.1403 47.4014 30.0996C47.4014 29.059 47.5881 28.1443 47.9614 27.3556C48.3394 26.567 48.8831 25.9533 49.5924 25.5146C50.3018 25.0713 51.1604 24.8496 52.1684 24.8496C53.3304 24.8496 54.2918 25.1436 55.0524 25.7316C55.8178 26.3196 56.3498 27.1106 56.6484 28.1046L55.1644 28.5036C54.9684 27.799 54.6184 27.246 54.1144 26.8446C53.6151 26.4433 52.9664 26.2426 52.1684 26.2426C51.4544 26.2426 50.8594 26.4036 50.3834 26.7256C49.9074 27.0476 49.5481 27.498 49.3054 28.0766C49.0674 28.6553 48.9484 29.3296 48.9484 30.0996C48.9438 30.8696 49.0604 31.544 49.2984 32.1226C49.5411 32.7013 49.9004 33.1516 50.3764 33.4736C50.8571 33.7956 51.4544 33.9566 52.1684 33.9566C52.9664 33.9566 53.6151 33.756 54.1144 33.3546C54.6184 32.9486 54.9684 32.3956 55.1644 31.6956L56.6484 32.0946C56.3498 33.0886 55.8178 33.8796 55.0524 34.4676C54.2918 35.0556 53.3304 35.3496 52.1684 35.3496ZM60.9907 35.1396V25.0596H62.4537V29.7636L66.6747 25.0596H68.4947L64.0357 29.9806L68.8237 35.1396H66.9477L62.4537 30.3236V35.1396H60.9907ZM71.9441 35.3496C71.3841 35.3496 70.9151 35.247 70.5371 35.0416C70.1591 34.8316 69.8721 34.5563 69.6761 34.2156C69.4848 33.8703 69.3891 33.4923 69.3891 33.0816C69.3891 32.699 69.4568 32.363 69.5921 32.0736C69.7274 31.7843 69.9281 31.5393 70.1941 31.3386C70.4601 31.1333 70.7868 30.9676 71.1741 30.8416C71.5101 30.7436 71.8904 30.6573 72.3151 30.5826C72.7398 30.508 73.1854 30.438 73.6521 30.3726C74.1234 30.3073 74.5901 30.242 75.0521 30.1766L74.5201 30.4706C74.5294 29.878 74.4034 29.4393 74.1421 29.1546C73.8854 28.8653 73.4421 28.7206 72.8121 28.7206C72.4154 28.7206 72.0514 28.814 71.7201 29.0006C71.3888 29.1826 71.1578 29.486 71.0271 29.9106L69.6621 29.4906C69.8488 28.842 70.2034 28.3263 70.7261 27.9436C71.2534 27.561 71.9534 27.3696 72.8261 27.3696C73.5028 27.3696 74.0908 27.4863 74.5901 27.7196C75.0941 27.9483 75.4628 28.3123 75.6961 28.8116C75.8174 29.059 75.8921 29.3203 75.9201 29.5956C75.9481 29.871 75.9621 30.1673 75.9621 30.4846V35.1396H74.6671V33.4106L74.9191 33.6346C74.6064 34.2133 74.2074 34.645 73.7221 34.9296C73.2414 35.2096 72.6488 35.3496 71.9441 35.3496ZM72.2031 34.1526C72.6184 34.1526 72.9754 34.0803 73.2741 33.9356C73.5728 33.7863 73.8131 33.5973 73.9951 33.3686C74.1771 33.14 74.2961 32.902 74.3521 32.6546C74.4314 32.4306 74.4758 32.1786 74.4851 31.8986C74.4991 31.6186 74.5061 31.3946 74.5061 31.2266L74.9821 31.4016C74.5201 31.4716 74.1001 31.5346 73.7221 31.5906C73.3441 31.6466 73.0011 31.7026 72.6931 31.7586C72.3898 31.81 72.1191 31.873 71.8811 31.9476C71.6804 32.0176 71.5008 32.1016 71.3421 32.1996C71.1881 32.2976 71.0644 32.4166 70.9711 32.5566C70.8824 32.6966 70.8381 32.867 70.8381 33.0676C70.8381 33.2636 70.8871 33.4456 70.9851 33.6136C71.0831 33.777 71.2324 33.9076 71.4331 34.0056C71.6338 34.1036 71.8904 34.1526 72.2031 34.1526ZM77.0798 35.1396V33.9006C77.3598 33.952 77.5721 33.945 77.7168 33.8796C77.8661 33.8096 77.9758 33.6836 78.0458 33.5016C78.1205 33.3196 78.1835 33.084 78.2348 32.7946C78.3141 32.37 78.3818 31.887 78.4378 31.3456C78.4985 30.7996 78.5521 30.2093 78.5988 29.5746C78.6455 28.94 78.6875 28.275 78.7248 27.5796H84.1568V35.1396H82.6868V28.9586H80.0408C80.0128 29.3273 79.9801 29.7193 79.9428 30.1346C79.9101 30.5453 79.8728 30.9536 79.8308 31.3596C79.7888 31.7656 79.7445 32.146 79.6978 32.5006C79.6511 32.8553 79.6021 33.1586 79.5508 33.4106C79.4575 33.9146 79.3198 34.316 79.1378 34.6146C78.9605 34.9086 78.7085 35.0976 78.3818 35.1816C78.0551 35.2703 77.6211 35.2563 77.0798 35.1396ZM92.4896 27.5796V35.1396H91.0826V29.8826L87.3026 35.1396H86.1126V27.5796H87.5196V32.7316L91.3066 27.5796H92.4896ZM94.4388 35.1396V27.5796H95.9018V30.6666H99.5908V27.5796H101.054V35.1396H99.5908V32.0456H95.9018V35.1396H94.4388ZM109.388 27.5796V35.1396H107.981V29.8826L104.201 35.1396H103.011V27.5796H104.418V32.7316L108.205 27.5796H109.388ZM111.337 35.1396V27.5796H112.8V30.6666H116.489V27.5796H117.952V35.1396H116.489V32.0456H112.8V35.1396H111.337ZM123.151 35.3496C122.376 35.3496 121.718 35.177 121.177 34.8316C120.635 34.4863 120.22 34.0126 119.931 33.4106C119.646 32.8086 119.501 32.125 119.497 31.3596C119.501 30.5803 119.651 29.892 119.945 29.2946C120.239 28.6926 120.659 28.2213 121.205 27.8806C121.751 27.54 122.406 27.3696 123.172 27.3696C123.998 27.3696 124.702 27.575 125.286 27.9856C125.874 28.3963 126.261 28.9586 126.448 29.6726L124.992 30.0926C124.847 29.668 124.609 29.339 124.278 29.1056C123.951 28.8676 123.575 28.7486 123.151 28.7486C122.67 28.7486 122.276 28.863 121.968 29.0916C121.66 29.3156 121.431 29.6236 121.282 30.0156C121.132 30.4076 121.055 30.8556 121.051 31.3596C121.055 32.139 121.233 32.769 121.583 33.2496C121.937 33.7303 122.46 33.9706 123.151 33.9706C123.622 33.9706 124.002 33.8633 124.292 33.6486C124.586 33.4293 124.81 33.1166 124.964 32.7106L126.448 33.0606C126.2 33.798 125.792 34.365 125.223 34.7616C124.653 35.1536 123.963 35.3496 123.151 35.3496ZM127.867 35.1396L127.874 27.5796H129.358V31.2196L132.326 27.5796H134.188L131.052 31.3596L134.51 35.1396H132.522L129.358 31.4996V35.1396H127.867ZM137.35 35.3496C136.79 35.3496 136.321 35.247 135.943 35.0416C135.565 34.8316 135.278 34.5563 135.082 34.2156C134.891 33.8703 134.795 33.4923 134.795 33.0816C134.795 32.699 134.863 32.363 134.998 32.0736C135.134 31.7843 135.334 31.5393 135.6 31.3386C135.866 31.1333 136.193 30.9676 136.58 30.8416C136.916 30.7436 137.297 30.6573 137.721 30.5826C138.146 30.508 138.592 30.438 139.058 30.3726C139.53 30.3073 139.996 30.242 140.458 30.1766L139.926 30.4706C139.936 29.878 139.81 29.4393 139.548 29.1546C139.292 28.8653 138.848 28.7206 138.218 28.7206C137.822 28.7206 137.458 28.814 137.126 29.0006C136.795 29.1826 136.564 29.486 136.433 29.9106L135.068 29.4906C135.255 28.842 135.61 28.3263 136.132 27.9436C136.66 27.561 137.36 27.3696 138.232 27.3696C138.909 27.3696 139.497 27.4863 139.996 27.7196C140.5 27.9483 140.869 28.3123 141.102 28.8116C141.224 29.059 141.298 29.3203 141.326 29.5956C141.354 29.871 141.368 30.1673 141.368 30.4846V35.1396H140.073V33.4106L140.325 33.6346C140.013 34.2133 139.614 34.645 139.128 34.9296C138.648 35.2096 138.055 35.3496 137.35 35.3496ZM137.609 34.1526C138.025 34.1526 138.382 34.0803 138.68 33.9356C138.979 33.7863 139.219 33.5973 139.401 33.3686C139.583 33.14 139.702 32.902 139.758 32.6546C139.838 32.4306 139.882 32.1786 139.891 31.8986C139.905 31.6186 139.912 31.3946 139.912 31.2266L140.388 31.4016C139.926 31.4716 139.506 31.5346 139.128 31.5906C138.75 31.6466 138.407 31.7026 138.099 31.7586C137.796 31.81 137.525 31.873 137.287 31.9476C137.087 32.0176 136.907 32.1016 136.748 32.1996C136.594 32.2976 136.471 32.4166 136.377 32.5566C136.289 32.6966 136.244 32.867 136.244 33.0676C136.244 33.2636 136.293 33.4456 136.391 33.6136C136.489 33.777 136.639 33.9076 136.839 34.0056C137.04 34.1036 137.297 34.1526 137.609 34.1526ZM147.785 35.1396V32.5146H146.287C146.11 32.5146 145.897 32.5076 145.65 32.4936C145.407 32.4796 145.179 32.454 144.964 32.4166C144.399 32.314 143.928 32.069 143.55 31.6816C143.172 31.2896 142.983 30.7506 142.983 30.0646C142.983 29.402 143.16 28.87 143.515 28.4686C143.874 28.0626 144.329 27.8013 144.88 27.6846C145.118 27.6286 145.361 27.5983 145.608 27.5936C145.86 27.5843 146.072 27.5796 146.245 27.5796H149.248L149.255 35.1396H147.785ZM142.766 35.1396L144.677 32.1506H146.224L144.327 35.1396H142.766ZM146.161 31.3386H147.785V28.7556H146.161C146.058 28.7556 145.932 28.7603 145.783 28.7696C145.634 28.779 145.489 28.8046 145.349 28.8466C145.204 28.8886 145.064 28.9633 144.929 29.0706C144.798 29.178 144.691 29.3156 144.607 29.4836C144.523 29.647 144.481 29.836 144.481 30.0506C144.481 30.3726 144.572 30.6386 144.754 30.8486C144.936 31.054 145.153 31.1893 145.405 31.2546C145.54 31.292 145.676 31.3153 145.811 31.3246C145.946 31.334 146.063 31.3386 146.161 31.3386Z" fill="#505B67"/>
<defs>
<filter id="filter0_d_428_46609" x="0.431641" y="0.201172" width="174.139" height="68.6201" filterUnits="userSpaceOnUse" color-interpolation-filters="sRGB">
<feFlood flood-opacity="0" result="BackgroundImageFix"/>
<feColorMatrix in="SourceAlpha" type="matrix" values="0 0 0 0 0 0 0 0 0 0 0 0 0 0 0 0 0 0 127 0" result="hardAlpha"/>
<feOffset dx="-1" dy="2"/>
<feGaussianBlur stdDeviation="8"/>
<feColorMatrix type="matrix" values="0 0 0 0 0.0984375 0 0 0 0 0.269062 0 0 0 0 0.525 0 0 0 0.22 0"/>
<feBlend mode="normal" in2="BackgroundImageFix" result="effect1_dropShadow_428_46609"/>
<feBlend mode="normal" in="SourceGraphic" in2="effect1_dropShadow_428_46609" result="shape"/>
</filter>
<linearGradient id="paint0_linear_428_46609" x1="88.501" y1="14.2012" x2="88.501" y2="50.8213" gradientUnits="userSpaceOnUse">
<stop stop-color="#ABD1E9"/>
<stop offset="1" stop-color="#A8BBFF" stop-opacity="0.68"/>
</linearGradient>
</defs>
</svg>
