<svg width="171" height="65" viewBox="0 0 171 65" fill="none" xmlns="http://www.w3.org/2000/svg">
<g filter="url(#filter0_d_428_46639)">
<mask id="path-1-inside-1_428_46639" fill="white">
<path fill-rule="evenodd" clip-rule="evenodd" d="M25.627 14.5C21.2087 14.5 17.627 18.0817 17.627 22.5V38.5C17.627 42.9183 21.2087 46.5 25.627 46.5L137.082 46.5L142.079 46.5L143.701 46.5C146.22 46.5 148.529 45.0931 149.684 42.8538L155.768 31.0611C155.915 30.7751 155.916 30.4357 155.77 30.149L149.676 18.1783C148.527 15.9213 146.209 14.5 143.676 14.5H142.079H137.082H25.627Z"/>
</mask>
<path fill-rule="evenodd" clip-rule="evenodd" d="M25.627 14.5C21.2087 14.5 17.627 18.0817 17.627 22.5V38.5C17.627 42.9183 21.2087 46.5 25.627 46.5L137.082 46.5L142.079 46.5L143.701 46.5C146.22 46.5 148.529 45.0931 149.684 42.8538L155.768 31.0611C155.915 30.7751 155.916 30.4357 155.77 30.149L149.676 18.1783C148.527 15.9213 146.209 14.5 143.676 14.5H142.079H137.082H25.627Z" fill="white"/>
<path d="M25.627 46.5V48.1832V46.5ZM137.082 46.5V44.8168V46.5ZM142.079 46.5V48.1832L142.079 48.1832L142.079 46.5ZM143.701 46.5V44.8168H143.701L143.701 46.5ZM149.684 42.8538L148.188 42.0822L148.188 42.0822L149.684 42.8538ZM155.768 31.0611L154.272 30.2894V30.2894L155.768 31.0611ZM155.77 30.149L154.27 30.9126L155.77 30.149ZM149.676 18.1783L151.176 17.4147V17.4147L149.676 18.1783ZM19.3101 22.5C19.3101 19.0113 22.1383 16.1832 25.627 16.1832V12.8168C20.2791 12.8168 15.9438 17.1521 15.9438 22.5H19.3101ZM19.3101 38.5V22.5H15.9438V38.5H19.3101ZM25.627 44.8168C22.1383 44.8168 19.3101 41.9887 19.3101 38.5H15.9438C15.9438 43.8479 20.2791 48.1832 25.627 48.1832V44.8168ZM137.082 44.8168L25.627 44.8168V48.1832H137.082V44.8168ZM142.079 44.8168L137.082 44.8168V48.1832H142.079V44.8168ZM143.701 44.8168L142.079 44.8168L142.079 48.1832L143.701 48.1832L143.701 44.8168ZM148.188 42.0822C147.322 43.7616 145.591 44.8168 143.701 44.8168V48.1832C146.85 48.1832 149.736 46.4246 151.18 43.6255L148.188 42.0822ZM154.272 30.2894L148.188 42.0822L151.18 43.6255L157.263 31.8327L154.272 30.2894ZM154.27 30.9126C154.17 30.7167 154.171 30.4848 154.272 30.2894L157.263 31.8327C157.659 31.0655 157.662 30.1547 157.27 29.3853L154.27 30.9126ZM148.176 18.9419L154.27 30.9126L157.27 29.3853L151.176 17.4147L148.176 18.9419ZM143.676 16.1832C145.575 16.1832 147.314 17.2491 148.176 18.9419L151.176 17.4147C149.74 14.5934 146.842 12.8168 143.676 12.8168V16.1832ZM142.079 16.1832H143.676V12.8168H142.079V16.1832ZM137.082 16.1832H142.079V12.8168H137.082V16.1832ZM25.627 16.1832H137.082V12.8168H25.627V16.1832Z" fill="url(#paint0_linear_428_46639)" fill-opacity="0.47" mask="url(#path-1-inside-1_428_46639)"/>
</g>
<path d="M30.1355 35.5723L33.4115 25.4923H35.5185L38.7945 35.5723H37.2755L34.2585 26.3743H34.6365L31.6545 35.5723H30.1355ZM31.8365 33.2973V31.9253H37.1005V33.2973H31.8365ZM43.9633 35.7823C43.2213 35.7823 42.554 35.6633 41.9613 35.4253C41.3733 35.1826 40.874 34.8233 40.4633 34.3473C40.0573 33.8713 39.7563 33.2833 39.5603 32.5833L40.9953 32.2193C41.196 32.8773 41.5483 33.4069 42.0523 33.8083C42.561 34.2049 43.17 34.3986 43.8793 34.3893C44.3693 34.3799 44.8313 34.2866 45.2653 34.1093C45.6993 33.9273 46.0563 33.6473 46.3363 33.2693C46.5743 32.9613 46.7446 32.6346 46.8473 32.2893C46.9546 31.9439 47.0246 31.5869 47.0573 31.2183H43.4453V29.8393H47.0643C46.999 29.2093 46.8333 28.6563 46.5673 28.1803C46.306 27.7043 45.949 27.3333 45.4963 27.0673C45.0483 26.7966 44.5093 26.6659 43.8793 26.6753C43.1326 26.6846 42.505 26.8946 41.9963 27.3053C41.4876 27.7113 41.1446 28.2619 40.9673 28.9573L39.4903 28.7473C39.7423 27.6459 40.258 26.7943 41.0373 26.1923C41.8213 25.5856 42.7966 25.2823 43.9633 25.2823C44.9433 25.2823 45.781 25.5039 46.4763 25.9473C47.1716 26.3859 47.7036 26.9996 48.0723 27.7883C48.4456 28.5723 48.637 29.4869 48.6463 30.5323C48.6556 31.5123 48.476 32.3989 48.1073 33.1923C47.7433 33.9856 47.209 34.6156 46.5043 35.0823C45.8043 35.5489 44.9573 35.7823 43.9633 35.7823ZM54.2515 35.7823C53.2435 35.7823 52.3848 35.5629 51.6755 35.1243C50.9661 34.6809 50.4225 34.0649 50.0445 33.2763C49.6711 32.4876 49.4845 31.5729 49.4845 30.5323C49.4845 29.4916 49.6711 28.5769 50.0445 27.7883C50.4225 26.9996 50.9661 26.3859 51.6755 25.9473C52.3848 25.5039 53.2435 25.2823 54.2515 25.2823C55.4135 25.2823 56.3748 25.5763 57.1355 26.1643C57.9008 26.7523 58.4328 27.5433 58.7315 28.5373L57.2475 28.9363C57.0515 28.2316 56.7015 27.6786 56.1975 27.2773C55.6981 26.8759 55.0495 26.6753 54.2515 26.6753C53.5375 26.6753 52.9425 26.8363 52.4665 27.1583C51.9905 27.4803 51.6311 27.9306 51.3885 28.5093C51.1505 29.0879 51.0315 29.7623 51.0315 30.5323C51.0268 31.3023 51.1435 31.9766 51.3815 32.5553C51.6241 33.1339 51.9835 33.5843 52.4595 33.9063C52.9401 34.2283 53.5375 34.3893 54.2515 34.3893C55.0495 34.3893 55.6981 34.1886 56.1975 33.7873C56.7015 33.3813 57.0515 32.8283 57.2475 32.1283L58.7315 32.5273C58.4328 33.5213 57.9008 34.3123 57.1355 34.9003C56.3748 35.4883 55.4135 35.7823 54.2515 35.7823ZM63.0738 35.5723V25.4923H64.5368V30.1963L68.7578 25.4923H70.5778L66.1188 30.4133L70.9068 35.5723H69.0308L64.5368 30.7563V35.5723H63.0738ZM72.2852 38.9323L73.7482 34.9493L73.7692 36.1253L70.4722 28.0123H71.9982L74.4622 34.2773H74.0142L76.3662 28.0123H77.8502L73.6782 38.9323H72.2852ZM78.1134 37.2523V34.3963C78.5287 34.3963 78.825 34.2586 79.0024 33.9833C79.1844 33.7033 79.329 33.2296 79.4364 32.5623C79.5017 32.1563 79.5554 31.7246 79.5974 31.2673C79.644 30.8099 79.6837 30.3153 79.7164 29.7833C79.749 29.2466 79.7817 28.6563 79.8144 28.0123H85.2324V34.3963H85.9744V37.2523H84.5884V35.5723H79.5064V37.2523H78.1134ZM80.2064 34.3963H83.7624V29.1883H81.1164C81.0977 29.4963 81.0767 29.8136 81.0534 30.1403C81.0347 30.4669 81.0114 30.7913 80.9834 31.1133C80.96 31.4353 80.932 31.7433 80.8994 32.0373C80.8667 32.3313 80.8294 32.5973 80.7874 32.8353C80.7314 33.2039 80.6637 33.5119 80.5844 33.7593C80.5097 34.0066 80.3837 34.2189 80.2064 34.3963ZM89.5037 35.7823C88.9437 35.7823 88.4747 35.6796 88.0967 35.4743C87.7187 35.2643 87.4317 34.9889 87.2357 34.6483C87.0443 34.3029 86.9487 33.9249 86.9487 33.5143C86.9487 33.1316 87.0163 32.7956 87.1517 32.5063C87.287 32.2169 87.4877 31.9719 87.7537 31.7713C88.0197 31.5659 88.3463 31.4003 88.7337 31.2743C89.0697 31.1763 89.45 31.0899 89.8747 31.0153C90.2993 30.9406 90.745 30.8706 91.2117 30.8053C91.683 30.7399 92.1497 30.6746 92.6117 30.6093L92.0797 30.9033C92.089 30.3106 91.963 29.8719 91.7017 29.5873C91.445 29.2979 91.0017 29.1533 90.3717 29.1533C89.975 29.1533 89.611 29.2466 89.2797 29.4333C88.9483 29.6153 88.7173 29.9186 88.5867 30.3433L87.2217 29.9233C87.4083 29.2746 87.763 28.7589 88.2857 28.3763C88.813 27.9936 89.513 27.8023 90.3857 27.8023C91.0623 27.8023 91.6503 27.9189 92.1497 28.1523C92.6537 28.3809 93.0223 28.7449 93.2557 29.2443C93.377 29.4916 93.4517 29.7529 93.4797 30.0283C93.5077 30.3036 93.5217 30.5999 93.5217 30.9173V35.5723H92.2267V33.8433L92.4787 34.0673C92.166 34.6459 91.767 35.0776 91.2817 35.3623C90.801 35.6423 90.2083 35.7823 89.5037 35.7823ZM89.7627 34.5853C90.178 34.5853 90.535 34.5129 90.8337 34.3683C91.1323 34.2189 91.3727 34.0299 91.5547 33.8013C91.7367 33.5726 91.8557 33.3346 91.9117 33.0873C91.991 32.8633 92.0353 32.6113 92.0447 32.3313C92.0587 32.0513 92.0657 31.8273 92.0657 31.6593L92.5417 31.8343C92.0797 31.9043 91.6597 31.9673 91.2817 32.0233C90.9037 32.0793 90.5607 32.1353 90.2527 32.1913C89.9493 32.2426 89.6787 32.3056 89.4407 32.3803C89.24 32.4503 89.0603 32.5343 88.9017 32.6323C88.7477 32.7303 88.624 32.8493 88.5307 32.9893C88.442 33.1293 88.3977 33.2996 88.3977 33.5003C88.3977 33.6963 88.4467 33.8783 88.5447 34.0463C88.6427 34.2096 88.792 34.3403 88.9927 34.4383C89.1933 34.5363 89.45 34.5853 89.7627 34.5853ZM95.3324 35.5723V28.0123H96.7954V31.0993H100.484V28.0123H101.947V35.5723H100.484V32.4783H96.7954V35.5723H95.3324ZM103.912 35.5723V25.4923H105.375V30.1963L109.596 25.4923H111.416L106.957 30.4133L111.745 35.5723H109.869L105.375 30.7563V35.5723H103.912ZM113.123 38.9323L114.586 34.9493L114.607 36.1253L111.31 28.0123H112.836L115.3 34.2773H114.852L117.204 28.0123H118.688L114.516 38.9323H113.123ZM118.811 35.5723V34.3333C119.091 34.3846 119.304 34.3776 119.448 34.3123C119.598 34.2423 119.707 34.1163 119.777 33.9343C119.852 33.7523 119.915 33.5166 119.966 33.2273C120.046 32.8026 120.113 32.3196 120.169 31.7783C120.23 31.2323 120.284 30.6419 120.33 30.0073C120.377 29.3726 120.419 28.7076 120.456 28.0123H125.888V35.5723H124.418V29.3913H121.772C121.744 29.7599 121.712 30.1519 121.674 30.5673C121.642 30.9779 121.604 31.3863 121.562 31.7923C121.52 32.1983 121.476 32.5786 121.429 32.9333C121.383 33.2879 121.334 33.5913 121.282 33.8433C121.189 34.3473 121.051 34.7486 120.869 35.0473C120.692 35.3413 120.44 35.5303 120.113 35.6143C119.787 35.7029 119.353 35.6889 118.811 35.5723ZM129.986 35.7823C129.426 35.7823 128.957 35.6796 128.579 35.4743C128.201 35.2643 127.914 34.9889 127.718 34.6483C127.527 34.3029 127.431 33.9249 127.431 33.5143C127.431 33.1316 127.499 32.7956 127.634 32.5063C127.769 32.2169 127.97 31.9719 128.236 31.7713C128.502 31.5659 128.829 31.4003 129.216 31.2743C129.552 31.1763 129.932 31.0899 130.357 31.0153C130.782 30.9406 131.227 30.8706 131.694 30.8053C132.165 30.7399 132.632 30.6746 133.094 30.6093L132.562 30.9033C132.571 30.3106 132.445 29.8719 132.184 29.5873C131.927 29.2979 131.484 29.1533 130.854 29.1533C130.457 29.1533 130.093 29.2466 129.762 29.4333C129.431 29.6153 129.2 29.9186 129.069 30.3433L127.704 29.9233C127.891 29.2746 128.245 28.7589 128.768 28.3763C129.295 27.9936 129.995 27.8023 130.868 27.8023C131.545 27.8023 132.133 27.9189 132.632 28.1523C133.136 28.3809 133.505 28.7449 133.738 29.2443C133.859 29.4916 133.934 29.7529 133.962 30.0283C133.99 30.3036 134.004 30.5999 134.004 30.9173V35.5723H132.709V33.8433L132.961 34.0673C132.648 34.6459 132.249 35.0776 131.764 35.3623C131.283 35.6423 130.691 35.7823 129.986 35.7823ZM130.245 34.5853C130.66 34.5853 131.017 34.5129 131.316 34.3683C131.615 34.2189 131.855 34.0299 132.037 33.8013C132.219 33.5726 132.338 33.3346 132.394 33.0873C132.473 32.8633 132.518 32.6113 132.527 32.3313C132.541 32.0513 132.548 31.8273 132.548 31.6593L133.024 31.8343C132.562 31.9043 132.142 31.9673 131.764 32.0233C131.386 32.0793 131.043 32.1353 130.735 32.1913C130.432 32.2426 130.161 32.3056 129.923 32.3803C129.722 32.4503 129.543 32.5343 129.384 32.6323C129.23 32.7303 129.106 32.8493 129.013 32.9893C128.924 33.1293 128.88 33.2996 128.88 33.5003C128.88 33.6963 128.929 33.8783 129.027 34.0463C129.125 34.2096 129.274 34.3403 129.475 34.4383C129.676 34.5363 129.932 34.5853 130.245 34.5853ZM135.815 35.5723V28.0123H137.04L139.833 33.5563L142.619 28.0123H143.851V35.5723H142.437V31.0083L140.162 35.5723H139.497L137.222 31.0083V35.5723H135.815Z" fill="#505B67"/>
<defs>
<filter id="filter0_d_428_46639" x="0.626953" y="0.5" width="170.252" height="64" filterUnits="userSpaceOnUse" color-interpolation-filters="sRGB">
<feFlood flood-opacity="0" result="BackgroundImageFix"/>
<feColorMatrix in="SourceAlpha" type="matrix" values="0 0 0 0 0 0 0 0 0 0 0 0 0 0 0 0 0 0 127 0" result="hardAlpha"/>
<feOffset dx="-1" dy="2"/>
<feGaussianBlur stdDeviation="8"/>
<feColorMatrix type="matrix" values="0 0 0 0 0.0984375 0 0 0 0 0.269062 0 0 0 0 0.525 0 0 0 0.22 0"/>
<feBlend mode="normal" in2="BackgroundImageFix" result="effect1_dropShadow_428_46639"/>
<feBlend mode="normal" in="SourceGraphic" in2="effect1_dropShadow_428_46639" result="shape"/>
</filter>
<linearGradient id="paint0_linear_428_46639" x1="86.7529" y1="14.5" x2="86.7529" y2="46.5" gradientUnits="userSpaceOnUse">
<stop stop-color="#ABD1E9"/>
<stop offset="1" stop-color="#A8BBFF" stop-opacity="0.68"/>
</linearGradient>
</defs>
</svg>
