<svg width="142" height="65" viewBox="0 0 142 65" fill="none" xmlns="http://www.w3.org/2000/svg">
<g filter="url(#filter0_d_428_46629)">
<mask id="path-1-inside-1_428_46629" fill="white">
<path fill-rule="evenodd" clip-rule="evenodd" d="M25.1777 14.541C20.7595 14.541 17.1777 18.1227 17.1777 22.541V38.541C17.1777 42.9593 20.7595 46.541 25.1777 46.541L107.344 46.541L112.34 46.541L113.963 46.541C116.482 46.541 118.791 45.1341 119.946 42.8948L126.029 31.1021C126.177 30.8161 126.178 30.4767 126.032 30.19L119.938 18.2193C118.789 15.9623 116.47 14.541 113.938 14.541H112.34H107.344H25.1777Z"/>
</mask>
<path fill-rule="evenodd" clip-rule="evenodd" d="M25.1777 14.541C20.7595 14.541 17.1777 18.1227 17.1777 22.541V38.541C17.1777 42.9593 20.7595 46.541 25.1777 46.541L107.344 46.541L112.34 46.541L113.963 46.541C116.482 46.541 118.791 45.1341 119.946 42.8948L126.029 31.1021C126.177 30.8161 126.178 30.4767 126.032 30.19L119.938 18.2193C118.789 15.9623 116.47 14.541 113.938 14.541H112.34H107.344H25.1777Z" fill="white"/>
<path d="M25.1777 46.541V48.2242V46.541ZM107.344 46.541V44.8578V46.541ZM112.34 46.541V48.2242L112.34 48.2242L112.34 46.541ZM113.963 46.541V44.8578H113.963L113.963 46.541ZM119.946 42.8948L118.45 42.1232L119.946 42.8948ZM126.029 31.1021L127.525 31.8737V31.8737L126.029 31.1021ZM126.032 30.19L124.532 30.9536L126.032 30.19ZM119.938 18.2193L121.438 17.4557V17.4557L119.938 18.2193ZM18.8609 22.541C18.8609 19.0523 21.6891 16.2242 25.1777 16.2242V12.8578C19.8299 12.8578 15.4946 17.1931 15.4946 22.541H18.8609ZM18.8609 38.541V22.541H15.4946V38.541H18.8609ZM25.1777 44.8578C21.6891 44.8578 18.8609 42.0297 18.8609 38.541H15.4946C15.4946 43.8889 19.8299 48.2242 25.1777 48.2242V44.8578ZM107.344 44.8578L25.1777 44.8578V48.2242H107.344V44.8578ZM112.34 44.8578L107.344 44.8578V48.2242H112.34V44.8578ZM113.963 44.8578L112.34 44.8578L112.34 48.2242L113.963 48.2242L113.963 44.8578ZM118.45 42.1232C117.584 43.8027 115.852 44.8578 113.963 44.8578V48.2242C117.112 48.2242 119.998 46.4656 121.442 43.6665L118.45 42.1232ZM124.533 30.3304L118.45 42.1232L121.442 43.6665L127.525 31.8737L124.533 30.3304ZM124.532 30.9536C124.432 30.7577 124.433 30.5258 124.533 30.3305L127.525 31.8737C127.921 31.1065 127.923 30.1957 127.532 29.4264L124.532 30.9536ZM118.438 18.9829L124.532 30.9536L127.532 29.4264L121.438 17.4557L118.438 18.9829ZM113.938 16.2242C115.837 16.2242 117.576 17.2902 118.438 18.9829L121.438 17.4557C120.002 14.6344 117.104 12.8578 113.938 12.8578V16.2242ZM112.34 16.2242H113.938V12.8578H112.34V16.2242ZM107.344 16.2242H112.34V12.8578H107.344V16.2242ZM25.1777 16.2242H107.344V12.8578H25.1777V16.2242Z" fill="url(#paint0_linear_428_46629)" fill-opacity="0.47" mask="url(#path-1-inside-1_428_46629)"/>
</g>
<path d="M28.3152 35.6133L31.5912 25.5333H33.6982L36.9742 35.6133H35.4552L32.4382 26.4153H32.8162L29.8342 35.6133H28.3152ZM30.0162 33.3383V31.9663H35.2802V33.3383H30.0162ZM42.143 35.8233C41.401 35.8233 40.7337 35.7043 40.141 35.4663C39.553 35.2236 39.0537 34.8643 38.643 34.3883C38.237 33.9123 37.936 33.3243 37.74 32.6243L39.175 32.2603C39.3757 32.9183 39.728 33.4479 40.232 33.8493C40.7407 34.2459 41.3497 34.4396 42.059 34.4303C42.549 34.4209 43.011 34.3276 43.445 34.1503C43.879 33.9683 44.236 33.6883 44.516 33.3103C44.754 33.0023 44.9243 32.6756 45.027 32.3303C45.1343 31.9849 45.2043 31.6279 45.237 31.2593H41.625V29.8803H45.244C45.1787 29.2503 45.013 28.6973 44.747 28.2213C44.4857 27.7453 44.1287 27.3743 43.676 27.1083C43.228 26.8376 42.689 26.7069 42.059 26.7163C41.3123 26.7256 40.6847 26.9356 40.176 27.3463C39.6673 27.7523 39.3243 28.3029 39.147 28.9983L37.67 28.7883C37.922 27.6869 38.4377 26.8353 39.217 26.2333C40.001 25.6266 40.9763 25.3233 42.143 25.3233C43.123 25.3233 43.9607 25.5449 44.656 25.9883C45.3513 26.4269 45.8833 27.0406 46.252 27.8293C46.6253 28.6133 46.8167 29.5279 46.826 30.5733C46.8353 31.5533 46.6557 32.4399 46.287 33.2333C45.923 34.0266 45.3887 34.6566 44.684 35.1233C43.984 35.5899 43.137 35.8233 42.143 35.8233ZM52.4311 35.8233C51.4231 35.8233 50.5645 35.6039 49.8551 35.1653C49.1458 34.7219 48.6021 34.1059 48.2241 33.3173C47.8508 32.5286 47.6641 31.6139 47.6641 30.5733C47.6641 29.5326 47.8508 28.6179 48.2241 27.8293C48.6021 27.0406 49.1458 26.4269 49.8551 25.9883C50.5645 25.5449 51.4231 25.3233 52.4311 25.3233C53.5931 25.3233 54.5545 25.6173 55.3151 26.2053C56.0805 26.7933 56.6125 27.5843 56.9111 28.5783L55.4271 28.9773C55.2311 28.2726 54.8811 27.7196 54.3771 27.3183C53.8778 26.9169 53.2291 26.7163 52.4311 26.7163C51.7171 26.7163 51.1221 26.8773 50.6461 27.1993C50.1701 27.5213 49.8108 27.9716 49.5681 28.5503C49.3301 29.1289 49.2111 29.8033 49.2111 30.5733C49.2065 31.3433 49.3231 32.0176 49.5611 32.5963C49.8038 33.1749 50.1631 33.6253 50.6391 33.9473C51.1198 34.2693 51.7171 34.4303 52.4311 34.4303C53.2291 34.4303 53.8778 34.2296 54.3771 33.8283C54.8811 33.4223 55.2311 32.8693 55.4271 32.1693L56.9111 32.5683C56.6125 33.5623 56.0805 34.3533 55.3151 34.9413C54.5545 35.5293 53.5931 35.8233 52.4311 35.8233ZM61.2534 35.6133V25.5333H62.7164V30.2373L66.9374 25.5333H68.7574L64.2984 30.4543L69.0864 35.6133H67.2104L62.7164 30.7973V35.6133H61.2534ZM70.4649 38.9733L71.9279 34.9903L71.9489 36.1663L68.6519 28.0533H70.1779L72.6419 34.3183H72.1939L74.5459 28.0533H76.0299L71.8579 38.9733H70.4649ZM80.6755 35.8233C79.9522 35.8233 79.3455 35.6483 78.8555 35.2983C78.3655 34.9436 77.9945 34.4653 77.7425 33.8633C77.4905 33.2613 77.3645 32.5823 77.3645 31.8263C77.3645 31.0703 77.4882 30.3913 77.7355 29.7893C77.9875 29.1873 78.3562 28.7136 78.8415 28.3683C79.3315 28.0183 79.9335 27.8433 80.6475 27.8433C81.3568 27.8433 81.9682 28.0183 82.4815 28.3683C82.9995 28.7136 83.3985 29.1873 83.6785 29.7893C83.9585 30.3866 84.0985 31.0656 84.0985 31.8263C84.0985 32.5823 83.9585 33.2636 83.6785 33.8703C83.4032 34.4723 83.0088 34.9483 82.4955 35.2983C81.9868 35.6483 81.3802 35.8233 80.6755 35.8233ZM77.1195 38.9733V28.0533H78.4215V33.4923H78.5895V38.9733H77.1195ZM80.4725 34.5003C80.9392 34.5003 81.3242 34.3813 81.6275 34.1433C81.9355 33.9053 82.1642 33.5856 82.3135 33.1843C82.4675 32.7783 82.5445 32.3256 82.5445 31.8263C82.5445 31.3316 82.4675 30.8836 82.3135 30.4823C82.1642 30.0809 81.9332 29.7613 81.6205 29.5233C81.3078 29.2853 80.9088 29.1663 80.4235 29.1663C79.9662 29.1663 79.5882 29.2783 79.2895 29.5023C78.9955 29.7263 78.7762 30.0389 78.6315 30.4403C78.4915 30.8416 78.4215 31.3036 78.4215 31.8263C78.4215 32.3489 78.4915 32.8109 78.6315 33.2123C78.7715 33.6136 78.9932 33.9286 79.2965 34.1573C79.5998 34.3859 79.9918 34.5003 80.4725 34.5003ZM88.8781 35.8233C88.1034 35.8233 87.4454 35.6506 86.9041 35.3053C86.3627 34.9599 85.9474 34.4863 85.6581 33.8843C85.3734 33.2823 85.2287 32.5986 85.2241 31.8333C85.2287 31.0539 85.3781 30.3656 85.6721 29.7683C85.9661 29.1663 86.3861 28.6949 86.9321 28.3543C87.4781 28.0136 88.1337 27.8433 88.8991 27.8433C89.7251 27.8433 90.4297 28.0486 91.0131 28.4593C91.6011 28.8699 91.9884 29.4323 92.1751 30.1463L90.7191 30.5663C90.5744 30.1416 90.3364 29.8126 90.0051 29.5793C89.6784 29.3413 89.3027 29.2223 88.8781 29.2223C88.3974 29.2223 88.0031 29.3366 87.6951 29.5653C87.3871 29.7893 87.1584 30.0973 87.0091 30.4893C86.8597 30.8813 86.7827 31.3293 86.7781 31.8333C86.7827 32.6126 86.9601 33.2426 87.3101 33.7233C87.6647 34.2039 88.1874 34.4443 88.8781 34.4443C89.3494 34.4443 89.7297 34.3369 90.0191 34.1223C90.3131 33.9029 90.5371 33.5903 90.6911 33.1843L92.1751 33.5343C91.9277 34.2716 91.5194 34.8386 90.9501 35.2353C90.3807 35.6273 89.6901 35.8233 88.8781 35.8233ZM93.5941 35.6133L93.6011 28.0533H95.0851V31.6933L98.0531 28.0533H99.9151L96.7791 31.8333L100.237 35.6133H98.2491L95.0851 31.9733V35.6133H93.5941ZM103.078 35.8233C102.518 35.8233 102.049 35.7206 101.671 35.5153C101.293 35.3053 101.006 35.0299 100.81 34.6893C100.619 34.3439 100.523 33.9659 100.523 33.5553C100.523 33.1726 100.591 32.8366 100.726 32.5473C100.861 32.2579 101.062 32.0129 101.328 31.8123C101.594 31.6069 101.921 31.4413 102.308 31.3153C102.644 31.2173 103.024 31.1309 103.449 31.0563C103.874 30.9816 104.319 30.9116 104.786 30.8463C105.257 30.7809 105.724 30.7156 106.186 30.6503L105.654 30.9443C105.663 30.3516 105.537 29.9129 105.276 29.6283C105.019 29.3389 104.576 29.1943 103.946 29.1943C103.549 29.1943 103.185 29.2876 102.854 29.4743C102.523 29.6563 102.292 29.9596 102.161 30.3843L100.796 29.9643C100.983 29.3156 101.337 28.7999 101.86 28.4173C102.387 28.0346 103.087 27.8433 103.96 27.8433C104.637 27.8433 105.225 27.9599 105.724 28.1933C106.228 28.4219 106.597 28.7859 106.83 29.2853C106.951 29.5326 107.026 29.7939 107.054 30.0693C107.082 30.3446 107.096 30.6409 107.096 30.9583V35.6133H105.801V33.8843L106.053 34.1083C105.74 34.6869 105.341 35.1186 104.856 35.4033C104.375 35.6833 103.783 35.8233 103.078 35.8233ZM103.337 34.6263C103.752 34.6263 104.109 34.5539 104.408 34.4093C104.707 34.2599 104.947 34.0709 105.129 33.8423C105.311 33.6136 105.43 33.3756 105.486 33.1283C105.565 32.9043 105.61 32.6523 105.619 32.3723C105.633 32.0923 105.64 31.8683 105.64 31.7003L106.116 31.8753C105.654 31.9453 105.234 32.0083 104.856 32.0643C104.478 32.1203 104.135 32.1763 103.827 32.2323C103.524 32.2836 103.253 32.3466 103.015 32.4213C102.814 32.4913 102.635 32.5753 102.476 32.6733C102.322 32.7713 102.198 32.8903 102.105 33.0303C102.016 33.1703 101.972 33.3406 101.972 33.5413C101.972 33.7373 102.021 33.9193 102.119 34.0873C102.217 34.2506 102.366 34.3813 102.567 34.4793C102.768 34.5773 103.024 34.6263 103.337 34.6263ZM113.513 35.6133V32.9883H112.015C111.837 32.9883 111.625 32.9813 111.378 32.9673C111.135 32.9533 110.906 32.9276 110.692 32.8903C110.127 32.7876 109.656 32.5426 109.278 32.1553C108.9 31.7633 108.711 31.2243 108.711 30.5383C108.711 29.8756 108.888 29.3436 109.243 28.9423C109.602 28.5363 110.057 28.2749 110.608 28.1583C110.846 28.1023 111.088 28.0719 111.336 28.0673C111.588 28.0579 111.8 28.0533 111.973 28.0533H114.976L114.983 35.6133H113.513ZM108.494 35.6133L110.405 32.6243H111.952L110.055 35.6133H108.494ZM111.889 31.8123H113.513V29.2293H111.889C111.786 29.2293 111.66 29.2339 111.511 29.2433C111.361 29.2526 111.217 29.2783 111.077 29.3203C110.932 29.3623 110.792 29.4369 110.657 29.5443C110.526 29.6516 110.419 29.7893 110.335 29.9573C110.251 30.1206 110.209 30.3096 110.209 30.5243C110.209 30.8463 110.3 31.1123 110.482 31.3223C110.664 31.5276 110.881 31.6629 111.133 31.7283C111.268 31.7656 111.403 31.7889 111.539 31.7983C111.674 31.8076 111.791 31.8123 111.889 31.8123Z" fill="#505B67"/>
<defs>
<filter id="filter0_d_428_46629" x="0.177734" y="0.541016" width="140.963" height="64" filterUnits="userSpaceOnUse" color-interpolation-filters="sRGB">
<feFlood flood-opacity="0" result="BackgroundImageFix"/>
<feColorMatrix in="SourceAlpha" type="matrix" values="0 0 0 0 0 0 0 0 0 0 0 0 0 0 0 0 0 0 127 0" result="hardAlpha"/>
<feOffset dx="-1" dy="2"/>
<feGaussianBlur stdDeviation="8"/>
<feColorMatrix type="matrix" values="0 0 0 0 0.0984375 0 0 0 0 0.269062 0 0 0 0 0.525 0 0 0 0.22 0"/>
<feBlend mode="normal" in2="BackgroundImageFix" result="effect1_dropShadow_428_46629"/>
<feBlend mode="normal" in="SourceGraphic" in2="effect1_dropShadow_428_46629" result="shape"/>
</filter>
<linearGradient id="paint0_linear_428_46629" x1="71.6591" y1="14.541" x2="71.6591" y2="46.541" gradientUnits="userSpaceOnUse">
<stop stop-color="#ABD1E9"/>
<stop offset="1" stop-color="#A8BBFF" stop-opacity="0.68"/>
</linearGradient>
</defs>
</svg>
