<svg width="16" height="16" viewBox="0 0 16 16" fill="none" xmlns="http://www.w3.org/2000/svg">
<rect x="0.0844639" y="0.192618" width="15.8311" height="15.6149" rx="3.4031" fill="white"/>
<rect x="0.0844639" y="0.192618" width="15.8311" height="15.6149" rx="3.4031" fill="url(#paint0_radial_79_427)"/>
<g clip-path="url(#clip0_79_427)">
<g clip-path="url(#clip1_79_427)">
<path d="M14.6519 7.80129C14.5267 5.2156 12.4041 3.20162 9.78054 3.18213C9.07522 3.18213 8.3633 3.18213 7.65797 3.18213C7.57887 3.18213 7.50636 3.19512 7.42725 3.20162C7.42725 3.22761 7.42726 3.2471 7.43385 3.27308C7.51954 3.27958 7.61183 3.28608 7.69752 3.28608C8.3633 3.28608 9.02907 3.29257 9.69485 3.28608C10.4925 3.27958 11.2373 3.46149 11.9097 3.87728C12.3052 4.12415 12.6612 4.41651 12.9446 4.78682C12.8919 4.77382 12.8523 4.74134 12.8128 4.70886C12.0745 4.04619 11.2044 3.6369 10.209 3.57193C9.37185 3.51996 8.53469 3.55244 7.69752 3.54595C7.67115 3.54595 7.65138 3.57193 7.62501 3.58493C7.72389 3.6369 7.80958 3.6434 7.90187 3.64989C8.51491 3.64989 9.12795 3.64989 9.74099 3.64989C10.8418 3.65639 11.7713 4.07218 12.5359 4.84529C12.5953 4.90376 12.648 4.97522 12.7073 5.04019C12.6282 5.03369 12.5821 4.99471 12.5359 4.95573C11.8636 4.36453 11.0791 3.98772 10.1826 3.93575C9.20046 3.88377 8.21168 3.90976 7.2295 3.90976C7.20313 3.90976 7.18336 3.94224 7.09766 4.00072C7.25587 4.00721 7.34815 4.01371 7.44044 4.01371C8.21168 4.01371 8.97634 4.01371 9.74758 4.01371C10.8352 4.02021 11.7185 4.46198 12.4305 5.24808C12.4568 5.28057 12.47 5.32605 12.4964 5.36503C11.9427 4.88427 11.3296 4.53345 10.6111 4.37103C9.90579 4.20861 9.19387 4.29956 8.48195 4.32555C8.56105 4.38402 8.64016 4.39052 8.71926 4.39052C9.10158 4.39052 9.47732 4.38402 9.85965 4.39052C10.8748 4.423 11.6526 4.89077 12.2525 5.67037C11.7976 5.24159 11.2769 4.92975 10.6639 4.76083C10.0508 4.59192 9.43118 4.65688 8.81154 4.66988C9.39822 4.75433 10.0047 4.76083 10.5782 4.89077C11.178 5.0272 11.6329 5.4235 11.9756 5.93024C11.3955 5.37802 10.71 5.04019 9.8992 5.0142C9.29275 4.99471 8.69289 5.00771 8.08644 5.00771C8.04689 5.00771 8.00734 5.03369 7.96779 5.04669C7.96779 5.06618 7.97438 5.09216 7.97438 5.11165C8.06666 5.11165 8.15236 5.11165 8.24464 5.11165C8.80495 5.11165 9.37185 5.09216 9.92556 5.12465C10.6704 5.16363 11.2373 5.54693 11.6658 6.13813C11.1187 5.65088 10.4925 5.37152 9.74758 5.37152C9.01589 5.37152 8.2776 5.37152 7.54591 5.37152C7.46681 5.37152 7.3877 5.38452 7.3086 5.39101C7.3086 5.417 7.3086 5.43649 7.3086 5.46248C7.3943 5.46897 7.47999 5.48197 7.56568 5.48197C8.29079 5.48197 9.01589 5.49496 9.74099 5.48197C10.2947 5.46897 11.1055 5.83929 11.3824 6.42399C10.9407 6.0082 10.4529 5.77432 9.87942 5.75483C9.3323 5.73534 8.77858 5.74833 8.23146 5.74833C8.23146 5.78082 8.23146 5.8068 8.23146 5.83929C8.31056 5.84578 8.38966 5.85228 8.46877 5.85228C8.90383 5.85228 9.3323 5.84578 9.76736 5.85228C10.7561 5.86527 11.6329 6.56042 11.857 7.49595C12.1866 8.88625 11.1582 10.1401 9.66848 10.1531C8.61379 10.1596 7.55909 10.1531 6.5044 10.1596C6.43848 10.1596 6.37915 10.1726 6.31323 10.1791V10.2635C6.35278 10.27 6.39233 10.2765 6.43189 10.2765C7.51954 10.2765 8.60719 10.2765 9.69485 10.2765C10.1826 10.2765 10.6375 10.1466 11.033 9.87375C11.1582 9.78929 11.2703 9.69184 11.4351 9.55541C10.9869 10.2116 10.354 10.5364 9.62234 10.5364C8.51491 10.5364 7.40748 10.5364 6.30664 10.5364V10.6469C7.44703 10.6469 8.58742 10.6469 9.72122 10.6469C10.3145 10.6469 10.8616 10.4649 11.3362 10.1141C11.389 10.0751 11.4483 10.0362 11.5076 9.99718C11.0396 10.5689 10.4463 10.8937 9.70144 10.9002C8.86428 10.9067 8.02711 10.9002 7.18995 10.9002C7.10425 10.9002 7.01856 10.9132 6.93287 10.9197C6.99878 10.9912 7.05811 11.0107 7.11744 11.0107C8.02711 11.0107 8.9302 11.0172 9.83987 11.0042C10.4595 10.9977 11.0198 10.7898 11.5274 10.426C11.5867 10.387 11.646 10.3415 11.7054 10.3025C11.178 10.9197 10.5122 11.2575 9.68826 11.264C9.00271 11.2705 8.32375 11.264 7.63819 11.264C7.55909 11.264 7.47999 11.277 7.3943 11.29C7.45362 11.355 7.49976 11.3745 7.5525 11.3745C8.32375 11.3745 9.0884 11.3875 9.85965 11.3615C10.1497 11.355 10.4529 11.3095 10.7232 11.2121C11.1319 11.0626 11.5208 10.8548 11.8768 10.6858C11.4483 11.1276 10.9078 11.4784 10.242 11.5629C9.6553 11.6344 9.05544 11.6084 8.46217 11.6214C8.38307 11.6214 8.30397 11.6409 8.21828 11.6474L8.23146 11.7123C9.5762 11.7448 10.9407 11.8812 12.1009 10.9522C11.6724 11.4135 11.1714 11.7578 10.5716 11.8617C9.99148 11.9592 9.39163 11.9462 8.79836 11.9852C8.71267 11.9917 8.63356 11.9982 8.54787 12.0112C8.54787 12.0307 8.55446 12.0566 8.55446 12.0761C9.10818 12.0761 9.66848 12.1086 10.2156 12.0696C10.9869 12.0112 11.6724 11.6993 12.2986 11.2575C11.7647 11.7903 11.1385 12.1801 10.387 12.2775C9.76736 12.3555 9.12795 12.3295 8.50173 12.3555C8.40285 12.362 8.31056 12.3685 8.21168 12.3685C8.21828 12.3945 8.21828 12.4205 8.22487 12.4464C9.74759 12.5244 11.2571 12.5504 12.5491 11.5109C12.5425 11.5629 12.5293 11.5889 12.5096 11.6019C12.47 11.6409 12.4305 11.6733 12.3909 11.7058C11.5801 12.3815 10.6507 12.7323 9.58938 12.7193C9.21365 12.7128 8.83132 12.7193 8.45558 12.7193C8.45558 12.7453 8.45558 12.7713 8.44899 12.7973C8.49513 12.8103 8.54128 12.8298 8.58083 12.8298C9.13454 12.8233 9.68826 12.8492 10.2354 12.7908C12.8523 12.5374 14.7706 10.335 14.6519 7.80129Z" fill="url(#paint1_linear_79_427)"/>
</g>
<path d="M8.30411 4.87899C8.45157 4.87899 8.57111 4.86645 8.57111 4.85099C8.57111 4.83553 8.45157 4.823 8.30411 4.823C8.15665 4.823 8.03711 4.83553 8.03711 4.85099C8.03711 4.86645 8.15665 4.87899 8.30411 4.87899Z" fill="url(#paint2_linear_79_427)"/>
<path d="M7.90625 11.7825C8.03123 11.7825 8.16189 11.7825 8.28686 11.7825C8.28686 11.7993 8.28686 11.8161 8.28686 11.8329C8.16189 11.8329 8.03123 11.8329 7.90625 11.8329C7.90625 11.8105 7.90625 11.7937 7.90625 11.7825Z" fill="url(#paint3_linear_79_427)"/>
<path d="M2.61182 12.1688V3.86011H4.92391V7.01785L7.48595 3.86011H10.0991L7.03717 7.58333L10.315 12.1688H7.65638L5.56584 9.11741L4.92391 9.77247V12.1688H2.61182Z" fill="white"/>
</g>
<rect x="0.0844639" y="0.192618" width="15.8311" height="15.6149" rx="3.4031" stroke="url(#paint4_linear_79_427)" stroke-width="0.168928"/>
<defs>
<radialGradient id="paint0_radial_79_427" cx="0" cy="0" r="1" gradientUnits="userSpaceOnUse" gradientTransform="translate(4.93175 6.96697) rotate(48.9526) scale(9.04995 9.06772)">
<stop stop-color="#1C79CF"/>
<stop offset="0.645833" stop-color="#00497D"/>
</radialGradient>
<linearGradient id="paint1_linear_79_427" x1="11.2524" y1="8.16067" x2="9.1214" y2="8.16067" gradientUnits="userSpaceOnUse">
<stop stop-color="#9CD5FF"/>
<stop offset="1" stop-color="#1A71AF" stop-opacity="0.99"/>
</linearGradient>
<linearGradient id="paint2_linear_79_427" x1="8.30411" y1="4.823" x2="8.30411" y2="4.87899" gradientUnits="userSpaceOnUse">
<stop stop-color="#9BC3E0"/>
<stop offset="1" stop-color="#9BC3E0" stop-opacity="0"/>
</linearGradient>
<linearGradient id="paint3_linear_79_427" x1="8.09656" y1="11.7825" x2="8.09656" y2="11.8329" gradientUnits="userSpaceOnUse">
<stop stop-color="#9BC3E0"/>
<stop offset="1" stop-color="#9BC3E0" stop-opacity="0"/>
</linearGradient>
<linearGradient id="paint4_linear_79_427" x1="8" y1="0.108154" x2="8" y2="15.8919" gradientUnits="userSpaceOnUse">
<stop stop-color="#6DACDE"/>
<stop offset="1" stop-color="#025EA1"/>
</linearGradient>
<clipPath id="clip0_79_427">
<rect x="2.81104" y="4" width="11.027" height="8.21622" rx="0.864865" fill="white"/>
</clipPath>
<clipPath id="clip1_79_427">
<path d="M7.59717 3.84888H10.4614C12.3445 3.84888 13.8712 5.37549 13.8712 7.25865V8.75896C13.8712 10.6421 12.3445 12.1687 10.4614 12.1687H7.59717V3.84888Z" fill="white"/>
</clipPath>
</defs>
</svg>
