<svg width="221" height="70" viewBox="0 0 221 70" fill="none" xmlns="http://www.w3.org/2000/svg">
<g filter="url(#filter0_d_428_46604)">
<mask id="path-1-inside-1_428_46604" fill="white">
<path fill-rule="evenodd" clip-rule="evenodd" d="M25.6191 14.8105C21.2009 14.8105 17.6191 18.3923 17.6191 22.8105V38.7952C17.6191 43.2134 21.2009 46.7952 25.6191 46.7952H103.803L111.028 51.2803C111.35 51.4797 111.756 51.4809 112.078 51.2834L119.405 46.7952H197.648C202.067 46.7952 205.648 43.2134 205.648 38.7952V22.8105C205.648 18.3923 202.067 14.8105 197.648 14.8105H25.6191Z"/>
</mask>
<path fill-rule="evenodd" clip-rule="evenodd" d="M25.6191 14.8105C21.2009 14.8105 17.6191 18.3923 17.6191 22.8105V38.7952C17.6191 43.2134 21.2009 46.7952 25.6191 46.7952H103.803L111.028 51.2803C111.35 51.4797 111.756 51.4809 112.078 51.2834L119.405 46.7952H197.648C202.067 46.7952 205.648 43.2134 205.648 38.7952V22.8105C205.648 18.3923 202.067 14.8105 197.648 14.8105H25.6191Z" fill="white"/>
<path d="M103.803 46.7952L104.69 45.3651L104.283 45.112H103.803V46.7952ZM111.028 51.2803L111.916 49.8502V49.8502L111.028 51.2803ZM112.078 51.2834L111.199 49.8481V49.8481L112.078 51.2834ZM119.405 46.7952V45.112H118.931L118.526 45.3599L119.405 46.7952ZM19.3023 22.8105C19.3023 19.3219 22.1305 16.4937 25.6191 16.4937V13.1274C20.2713 13.1274 15.936 17.4627 15.936 22.8105H19.3023ZM19.3023 38.7952V22.8105H15.936V38.7952H19.3023ZM25.6191 45.112C22.1305 45.112 19.3023 42.2838 19.3023 38.7952H15.936C15.936 44.143 20.2713 48.4783 25.6191 48.4783V45.112ZM103.803 45.112H25.6191V48.4783H103.803V45.112ZM111.916 49.8502L104.69 45.3651L102.915 48.2253L110.141 52.7104L111.916 49.8502ZM111.199 49.8481C111.419 49.7132 111.697 49.714 111.916 49.8502L110.141 52.7104C111.003 53.2454 112.092 53.2486 112.957 52.7187L111.199 49.8481ZM118.526 45.3599L111.199 49.8481L112.957 52.7187L120.284 48.2305L118.526 45.3599ZM197.648 45.112H119.405V48.4783H197.648V45.112ZM203.965 38.7952C203.965 42.2838 201.137 45.112 197.648 45.112V48.4783C202.996 48.4783 207.332 44.143 207.332 38.7952H203.965ZM203.965 22.8105V38.7952H207.332V22.8105H203.965ZM197.648 16.4937C201.137 16.4937 203.965 19.3219 203.965 22.8105H207.332C207.332 17.4627 202.996 13.1274 197.648 13.1274V16.4937ZM25.6191 16.4937H197.648V13.1274H25.6191V16.4937Z" fill="url(#paint0_linear_428_46604)" fill-opacity="0.47" mask="url(#path-1-inside-1_428_46604)"/>
</g>
<path d="M31.989 35.748L35.265 25.668H37.372L40.648 35.748H39.129L36.112 26.55H36.49L33.508 35.748H31.989ZM33.69 33.473V32.101H38.954V33.473H33.69ZM45.8168 35.958C45.0748 35.958 44.4075 35.839 43.8148 35.601C43.2268 35.3584 42.7275 34.999 42.3168 34.523C41.9108 34.047 41.6098 33.459 41.4138 32.759L42.8488 32.395C43.0495 33.053 43.4018 33.5827 43.9058 33.984C44.4145 34.3807 45.0235 34.5744 45.7328 34.565C46.2228 34.5557 46.6848 34.4624 47.1188 34.285C47.5528 34.103 47.9098 33.823 48.1898 33.445C48.4278 33.137 48.5982 32.8104 48.7008 32.465C48.8082 32.1197 48.8782 31.7627 48.9108 31.394H45.2988V30.015H48.9178C48.8525 29.385 48.6868 28.832 48.4208 28.356C48.1595 27.88 47.8025 27.509 47.3498 27.243C46.9018 26.9724 46.3628 26.8417 45.7328 26.851C44.9862 26.8604 44.3585 27.0704 43.8498 27.481C43.3412 27.887 42.9982 28.4377 42.8208 29.133L41.3438 28.923C41.5958 27.8217 42.1115 26.97 42.8908 26.368C43.6748 25.7614 44.6502 25.458 45.8168 25.458C46.7968 25.458 47.6345 25.6797 48.3298 26.123C49.0252 26.5617 49.5572 27.1754 49.9258 27.964C50.2992 28.748 50.4905 29.6627 50.4998 30.708C50.5092 31.688 50.3295 32.5747 49.9608 33.368C49.5968 34.1614 49.0625 34.7914 48.3578 35.258C47.6578 35.7247 46.8108 35.958 45.8168 35.958ZM56.105 35.958C55.097 35.958 54.2383 35.7387 53.529 35.3C52.8196 34.8567 52.276 34.2407 51.898 33.452C51.5246 32.6634 51.338 31.7487 51.338 30.708C51.338 29.6674 51.5246 28.7527 51.898 27.964C52.276 27.1754 52.8196 26.5617 53.529 26.123C54.2383 25.6797 55.097 25.458 56.105 25.458C57.267 25.458 58.2283 25.752 58.989 26.34C59.7543 26.928 60.2863 27.719 60.585 28.713L59.101 29.112C58.905 28.4074 58.555 27.8544 58.051 27.453C57.5516 27.0517 56.903 26.851 56.105 26.851C55.391 26.851 54.796 27.012 54.32 27.334C53.844 27.656 53.4846 28.1064 53.242 28.685C53.004 29.2637 52.885 29.938 52.885 30.708C52.8803 31.478 52.997 32.1524 53.235 32.731C53.4776 33.3097 53.837 33.76 54.313 34.082C54.7936 34.404 55.391 34.565 56.105 34.565C56.903 34.565 57.5516 34.3644 58.051 33.963C58.555 33.557 58.905 33.004 59.101 32.304L60.585 32.703C60.2863 33.697 59.7543 34.488 58.989 35.076C58.2283 35.664 57.267 35.958 56.105 35.958ZM64.2273 35.748V34.495C64.4653 34.5184 64.6613 34.5067 64.8153 34.46C64.9739 34.4087 65.1069 34.3107 65.2143 34.166C65.3216 34.0167 65.4126 33.802 65.4873 33.522C65.5666 33.242 65.6436 32.8804 65.7183 32.437C65.8209 31.8724 65.9073 31.2914 65.9773 30.694C66.0473 30.0967 66.1056 29.504 66.1523 28.916C66.2036 28.3234 66.2456 27.7517 66.2783 27.201C66.3109 26.6504 66.3366 26.1394 66.3553 25.668H72.9703V35.748H71.5073V27.047H67.7273C67.7039 27.4204 67.6759 27.838 67.6433 28.3C67.6106 28.762 67.5709 29.252 67.5243 29.77C67.4776 30.288 67.4193 30.8224 67.3493 31.373C67.2839 31.9237 67.1999 32.4767 67.0973 33.032C67.0133 33.508 66.9106 33.9374 66.7893 34.32C66.6679 34.7027 66.5046 35.0224 66.2993 35.279C66.0939 35.531 65.8256 35.699 65.4943 35.783C65.1629 35.8717 64.7406 35.86 64.2273 35.748ZM78.2881 35.958C77.5367 35.958 76.8764 35.7947 76.3071 35.468C75.7424 35.1367 75.3014 34.677 74.9841 34.089C74.6714 33.4964 74.5151 32.8104 74.5151 32.031C74.5151 31.205 74.6691 30.4887 74.9771 29.882C75.2897 29.2754 75.7237 28.8064 76.2791 28.475C76.8344 28.1437 77.4807 27.978 78.2181 27.978C78.9881 27.978 79.6437 28.1577 80.1851 28.517C80.7264 28.8717 81.1301 29.378 81.3961 30.036C81.6667 30.694 81.7741 31.4757 81.7181 32.381H80.2551V31.849C80.2457 30.9717 80.0777 30.323 79.7511 29.903C79.4291 29.483 78.9367 29.273 78.2741 29.273C77.5414 29.273 76.9907 29.504 76.6221 29.966C76.2534 30.428 76.0691 31.0954 76.0691 31.968C76.0691 32.7987 76.2534 33.4427 76.6221 33.9C76.9907 34.3527 77.5227 34.579 78.2181 34.579C78.6754 34.579 79.0697 34.4764 79.4011 34.271C79.7371 34.061 79.9984 33.7624 80.1851 33.375L81.6201 33.83C81.3261 34.5067 80.8804 35.0317 80.2831 35.405C79.6857 35.7737 79.0207 35.958 78.2881 35.958ZM75.5931 32.381V31.24H80.9901V32.381H75.5931ZM83.2816 35.748V28.188H84.7446V31.275H88.4336V28.188H89.8966V35.748H88.4336V32.654H84.7446V35.748H83.2816ZM98.2309 28.188V35.748H96.8239V30.491L93.0439 35.748H91.8539V28.188H93.2609V33.34L97.0479 28.188H98.2309ZM100.18 35.748V28.188H101.643V31.275H105.332V28.188H106.795V35.748H105.332V32.654H101.643V35.748H100.18ZM108.759 35.748V28.188H114.079V29.567H110.222V35.748H108.759ZM118.953 35.958C118.229 35.958 117.623 35.783 117.133 35.433C116.643 35.0784 116.272 34.6 116.02 33.998C115.768 33.396 115.642 32.717 115.642 31.961C115.642 31.205 115.765 30.526 116.013 29.924C116.265 29.322 116.633 28.8484 117.119 28.503C117.609 28.153 118.211 27.978 118.925 27.978C119.634 27.978 120.245 28.153 120.759 28.503C121.277 28.8484 121.676 29.322 121.956 29.924C122.236 30.5214 122.376 31.2004 122.376 31.961C122.376 32.717 122.236 33.3984 121.956 34.005C121.68 34.607 121.286 35.083 120.773 35.433C120.264 35.783 119.657 35.958 118.953 35.958ZM115.397 39.108V28.188H116.699V33.627H116.867V39.108H115.397ZM118.75 34.635C119.216 34.635 119.601 34.516 119.905 34.278C120.213 34.04 120.441 33.7204 120.591 33.319C120.745 32.913 120.822 32.4604 120.822 31.961C120.822 31.4664 120.745 31.0184 120.591 30.617C120.441 30.2157 120.21 29.896 119.898 29.658C119.585 29.42 119.186 29.301 118.701 29.301C118.243 29.301 117.865 29.413 117.567 29.637C117.273 29.861 117.053 30.1737 116.909 30.575C116.769 30.9764 116.699 31.4384 116.699 31.961C116.699 32.4837 116.769 32.9457 116.909 33.347C117.049 33.7484 117.27 34.0634 117.574 34.292C117.877 34.5207 118.269 34.635 118.75 34.635ZM126.056 35.958C125.496 35.958 125.027 35.8554 124.649 35.65C124.271 35.44 123.984 35.1647 123.788 34.824C123.597 34.4787 123.501 34.1007 123.501 33.69C123.501 33.3074 123.569 32.9714 123.704 32.682C123.84 32.3927 124.04 32.1477 124.306 31.947C124.572 31.7417 124.899 31.576 125.286 31.45C125.622 31.352 126.003 31.2657 126.427 31.191C126.852 31.1164 127.298 31.0464 127.764 30.981C128.236 30.9157 128.702 30.8504 129.164 30.785L128.632 31.079C128.642 30.4864 128.516 30.0477 128.254 29.763C127.998 29.4737 127.554 29.329 126.924 29.329C126.528 29.329 126.164 29.4224 125.832 29.609C125.501 29.791 125.27 30.0944 125.139 30.519L123.774 30.099C123.961 29.4504 124.316 28.9347 124.838 28.552C125.366 28.1694 126.066 27.978 126.938 27.978C127.615 27.978 128.203 28.0947 128.702 28.328C129.206 28.5567 129.575 28.9207 129.808 29.42C129.93 29.6674 130.004 29.9287 130.032 30.204C130.06 30.4794 130.074 30.7757 130.074 31.093V35.748H128.779V34.019L129.031 34.243C128.719 34.8217 128.32 35.2534 127.834 35.538C127.354 35.818 126.761 35.958 126.056 35.958ZM126.315 34.761C126.731 34.761 127.088 34.6887 127.386 34.544C127.685 34.3947 127.925 34.2057 128.107 33.977C128.289 33.7484 128.408 33.5104 128.464 33.263C128.544 33.039 128.588 32.787 128.597 32.507C128.611 32.227 128.618 32.003 128.618 31.835L129.094 32.01C128.632 32.08 128.212 32.143 127.834 32.199C127.456 32.255 127.113 32.311 126.805 32.367C126.502 32.4184 126.231 32.4814 125.993 32.556C125.793 32.626 125.613 32.71 125.454 32.808C125.3 32.906 125.177 33.025 125.083 33.165C124.995 33.305 124.95 33.4754 124.95 33.676C124.95 33.872 124.999 34.054 125.097 34.222C125.195 34.3854 125.345 34.516 125.545 34.614C125.746 34.712 126.003 34.761 126.315 34.761ZM131.332 37.428V34.572C131.747 34.572 132.044 34.4344 132.221 34.159C132.403 33.879 132.548 33.4054 132.655 32.738C132.72 32.332 132.774 31.9004 132.816 31.443C132.863 30.9857 132.902 30.491 132.935 29.959C132.968 29.4224 133 28.832 133.033 28.188H138.451V34.572H139.193V37.428H137.807V35.748H132.725V37.428H131.332ZM133.425 34.572H136.981V29.364H134.335C134.316 29.672 134.295 29.9894 134.272 30.316C134.253 30.6427 134.23 30.967 134.202 31.289C134.179 31.611 134.151 31.919 134.118 32.213C134.085 32.507 134.048 32.773 134.006 33.011C133.95 33.3797 133.882 33.6877 133.803 33.935C133.728 34.1824 133.602 34.3947 133.425 34.572ZM143.821 35.958C143.047 35.958 142.389 35.7854 141.847 35.44C141.306 35.0947 140.891 34.621 140.601 34.019C140.317 33.417 140.172 32.7334 140.167 31.968C140.172 31.1887 140.321 30.5004 140.615 29.903C140.909 29.301 141.329 28.8297 141.875 28.489C142.421 28.1484 143.077 27.978 143.842 27.978C144.668 27.978 145.373 28.1834 145.956 28.594C146.544 29.0047 146.932 29.567 147.118 30.281L145.662 30.701C145.518 30.2764 145.28 29.9474 144.948 29.714C144.622 29.476 144.246 29.357 143.821 29.357C143.341 29.357 142.946 29.4714 142.638 29.7C142.33 29.924 142.102 30.232 141.952 30.624C141.803 31.016 141.726 31.464 141.721 31.968C141.726 32.7474 141.903 33.3774 142.253 33.858C142.608 34.3387 143.131 34.579 143.821 34.579C144.293 34.579 144.673 34.4717 144.962 34.257C145.256 34.0377 145.48 33.725 145.634 33.319L147.118 33.669C146.871 34.4064 146.463 34.9734 145.893 35.37C145.324 35.762 144.633 35.958 143.821 35.958ZM148.537 35.748L148.544 28.188H150.028V31.828L152.996 28.188H154.858L151.722 31.968L155.18 35.748H153.192L150.028 32.108V35.748H148.537ZM158.021 35.958C157.461 35.958 156.992 35.8554 156.614 35.65C156.236 35.44 155.949 35.1647 155.753 34.824C155.562 34.4787 155.466 34.1007 155.466 33.69C155.466 33.3074 155.534 32.9714 155.669 32.682C155.805 32.3927 156.005 32.1477 156.271 31.947C156.537 31.7417 156.864 31.576 157.251 31.45C157.587 31.352 157.968 31.2657 158.392 31.191C158.817 31.1164 159.263 31.0464 159.729 30.981C160.201 30.9157 160.667 30.8504 161.129 30.785L160.597 31.079C160.607 30.4864 160.481 30.0477 160.219 29.763C159.963 29.4737 159.519 29.329 158.889 29.329C158.493 29.329 158.129 29.4224 157.797 29.609C157.466 29.791 157.235 30.0944 157.104 30.519L155.739 30.099C155.926 29.4504 156.281 28.9347 156.803 28.552C157.331 28.1694 158.031 27.978 158.903 27.978C159.58 27.978 160.168 28.0947 160.667 28.328C161.171 28.5567 161.54 28.9207 161.773 29.42C161.895 29.6674 161.969 29.9287 161.997 30.204C162.025 30.4794 162.039 30.7757 162.039 31.093V35.748H160.744V34.019L160.996 34.243C160.684 34.8217 160.285 35.2534 159.799 35.538C159.319 35.818 158.726 35.958 158.021 35.958ZM158.28 34.761C158.696 34.761 159.053 34.6887 159.351 34.544C159.65 34.3947 159.89 34.2057 160.072 33.977C160.254 33.7484 160.373 33.5104 160.429 33.263C160.509 33.039 160.553 32.787 160.562 32.507C160.576 32.227 160.583 32.003 160.583 31.835L161.059 32.01C160.597 32.08 160.177 32.143 159.799 32.199C159.421 32.255 159.078 32.311 158.77 32.367C158.467 32.4184 158.196 32.4814 157.958 32.556C157.758 32.626 157.578 32.71 157.419 32.808C157.265 32.906 157.142 33.025 157.048 33.165C156.96 33.305 156.915 33.4754 156.915 33.676C156.915 33.872 156.964 34.054 157.062 34.222C157.16 34.3854 157.31 34.516 157.51 34.614C157.711 34.712 157.968 34.761 158.28 34.761ZM168.456 35.748V33.123H166.958C166.781 33.123 166.568 33.116 166.321 33.102C166.078 33.088 165.85 33.0624 165.635 33.025C165.07 32.9224 164.599 32.6774 164.221 32.29C163.843 31.898 163.654 31.359 163.654 30.673C163.654 30.0104 163.831 29.4784 164.186 29.077C164.545 28.671 165 28.4097 165.551 28.293C165.789 28.237 166.032 28.2067 166.279 28.202C166.531 28.1927 166.743 28.188 166.916 28.188H169.919L169.926 35.748H168.456ZM163.437 35.748L165.348 32.759H166.895L164.998 35.748H163.437ZM166.832 31.947H168.456V29.364H166.832C166.729 29.364 166.603 29.3687 166.454 29.378C166.305 29.3874 166.16 29.413 166.02 29.455C165.875 29.497 165.735 29.5717 165.6 29.679C165.469 29.7864 165.362 29.924 165.278 30.092C165.194 30.2554 165.152 30.4444 165.152 30.659C165.152 30.981 165.243 31.247 165.425 31.457C165.607 31.6624 165.824 31.7977 166.076 31.863C166.211 31.9004 166.347 31.9237 166.482 31.933C166.617 31.9424 166.734 31.947 166.832 31.947ZM175.445 37.939C174.904 37.309 174.437 36.5974 174.045 35.804C173.653 35.0154 173.355 34.187 173.149 33.319C172.944 32.4464 172.848 31.576 172.862 30.708C172.848 29.84 172.944 28.972 173.149 28.104C173.355 27.2314 173.653 26.4007 174.045 25.612C174.437 24.8187 174.904 24.107 175.445 23.477L176.537 24.289C175.977 24.9517 175.527 25.633 175.186 26.333C174.846 27.0284 174.596 27.7424 174.437 28.475C174.279 29.203 174.199 29.9474 174.199 30.708C174.199 31.464 174.279 32.2084 174.437 32.941C174.596 33.6737 174.846 34.39 175.186 35.09C175.532 35.79 175.982 36.469 176.537 37.127L175.445 37.939ZM177.823 35.741L177.83 34.439L182.219 30.505C182.574 30.1924 182.814 29.8937 182.94 29.609C183.071 29.3244 183.136 29.0397 183.136 28.755C183.136 28.3957 183.057 28.0737 182.898 27.789C182.739 27.4997 182.52 27.271 182.24 27.103C181.96 26.935 181.638 26.851 181.274 26.851C180.901 26.851 180.567 26.9397 180.273 27.117C179.984 27.2897 179.757 27.5207 179.594 27.81C179.431 28.0994 179.351 28.412 179.356 28.748H177.858C177.858 28.0947 178.005 27.523 178.299 27.033C178.598 26.5384 179.006 26.1534 179.524 25.878C180.042 25.598 180.635 25.458 181.302 25.458C181.937 25.458 182.506 25.6027 183.01 25.892C183.514 26.1767 183.911 26.5687 184.2 27.068C184.494 27.5674 184.641 28.1367 184.641 28.776C184.641 29.238 184.58 29.63 184.459 29.952C184.338 30.274 184.156 30.5727 183.913 30.848C183.67 31.1234 183.367 31.422 183.003 31.744L179.615 34.768L179.454 34.348H184.641V35.741H177.823ZM187.013 37.939L185.921 37.127C186.476 36.469 186.924 35.79 187.265 35.09C187.61 34.39 187.862 33.6737 188.021 32.941C188.18 32.2084 188.259 31.464 188.259 30.708C188.259 29.9474 188.18 29.203 188.021 28.475C187.862 27.7424 187.613 27.0284 187.272 26.333C186.931 25.633 186.481 24.9517 185.921 24.289L187.013 23.477C187.554 24.107 188.021 24.8187 188.413 25.612C188.805 26.4007 189.104 27.2314 189.309 28.104C189.514 28.972 189.61 29.84 189.596 30.708C189.61 31.576 189.514 32.4464 189.309 33.319C189.104 34.187 188.805 35.0154 188.413 35.804C188.021 36.5974 187.554 37.309 187.013 37.939Z" fill="#505B67"/>
<defs>
<filter id="filter0_d_428_46604" x="0.619141" y="0.810547" width="220.029" height="68.6201" filterUnits="userSpaceOnUse" color-interpolation-filters="sRGB">
<feFlood flood-opacity="0" result="BackgroundImageFix"/>
<feColorMatrix in="SourceAlpha" type="matrix" values="0 0 0 0 0 0 0 0 0 0 0 0 0 0 0 0 0 0 127 0" result="hardAlpha"/>
<feOffset dx="-1" dy="2"/>
<feGaussianBlur stdDeviation="8"/>
<feColorMatrix type="matrix" values="0 0 0 0 0.0984375 0 0 0 0 0.269062 0 0 0 0 0.525 0 0 0 0.22 0"/>
<feBlend mode="normal" in2="BackgroundImageFix" result="effect1_dropShadow_428_46604"/>
<feBlend mode="normal" in="SourceGraphic" in2="effect1_dropShadow_428_46604" result="shape"/>
</filter>
<linearGradient id="paint0_linear_428_46604" x1="111.634" y1="14.8105" x2="111.634" y2="51.4307" gradientUnits="userSpaceOnUse">
<stop stop-color="#ABD1E9"/>
<stop offset="1" stop-color="#A8BBFF" stop-opacity="0.68"/>
</linearGradient>
</defs>
</svg>
