<svg width="211" height="70" viewBox="0 0 211 70" fill="none" xmlns="http://www.w3.org/2000/svg">
<g filter="url(#filter0_d_428_46619)">
<mask id="path-1-inside-1_428_46619" fill="white">
<path fill-rule="evenodd" clip-rule="evenodd" d="M25.0801 14.4648C20.6618 14.4648 17.0801 18.0466 17.0801 22.4648V38.4495C17.0801 42.8677 20.6618 46.4495 25.0801 46.4495H98.455L105.681 50.9346C106.002 51.134 106.408 51.1352 106.731 50.9377L114.057 46.4495H187.496C191.914 46.4495 195.496 42.8677 195.496 38.4495V22.4648C195.496 18.0466 191.914 14.4648 187.496 14.4648H25.0801Z"/>
</mask>
<path fill-rule="evenodd" clip-rule="evenodd" d="M25.0801 14.4648C20.6618 14.4648 17.0801 18.0466 17.0801 22.4648V38.4495C17.0801 42.8677 20.6618 46.4495 25.0801 46.4495H98.455L105.681 50.9346C106.002 51.134 106.408 51.1352 106.731 50.9377L114.057 46.4495H187.496C191.914 46.4495 195.496 42.8677 195.496 38.4495V22.4648C195.496 18.0466 191.914 14.4648 187.496 14.4648H25.0801Z" fill="white"/>
<path d="M98.455 46.4495L99.3426 45.0194L98.9349 44.7663H98.455V46.4495ZM105.681 50.9346L106.568 49.5045V49.5045L105.681 50.9346ZM106.731 50.9377L105.851 49.5024V49.5024L106.731 50.9377ZM114.057 46.4495V44.7663H113.583L113.178 45.0142L114.057 46.4495ZM18.7633 22.4648C18.7633 18.9762 21.5914 16.148 25.0801 16.148V12.7817C19.7322 12.7817 15.3969 17.117 15.3969 22.4648H18.7633ZM18.7633 38.4495V22.4648H15.3969V38.4495H18.7633ZM25.0801 44.7663C21.5914 44.7663 18.7633 41.9381 18.7633 38.4495H15.3969C15.3969 43.7973 19.7322 48.1326 25.0801 48.1326V44.7663ZM98.455 44.7663H25.0801V48.1326H98.455V44.7663ZM106.568 49.5045L99.3426 45.0194L97.5673 47.8796L104.793 52.3647L106.568 49.5045ZM105.851 49.5024C106.072 49.3675 106.349 49.3683 106.568 49.5045L104.793 52.3647C105.655 52.8997 106.745 52.9029 107.61 52.373L105.851 49.5024ZM113.178 45.0142L105.851 49.5024L107.61 52.373L114.937 47.8848L113.178 45.0142ZM187.496 44.7663H114.057V48.1326H187.496V44.7663ZM193.813 38.4495C193.813 41.9381 190.985 44.7663 187.496 44.7663V48.1326C192.844 48.1326 197.179 43.7973 197.179 38.4495H193.813ZM193.813 22.4648V38.4495H197.179V22.4648H193.813ZM187.496 16.148C190.985 16.148 193.813 18.9762 193.813 22.4648H197.179C197.179 17.117 192.844 12.7817 187.496 12.7817V16.148ZM25.0801 16.148H187.496V12.7817H25.0801V16.148Z" fill="url(#paint0_linear_428_46619)" fill-opacity="0.47" mask="url(#path-1-inside-1_428_46619)"/>
</g>
<path d="M27.8952 35.4033L31.1712 25.3233H33.2782L36.5542 35.4033H35.0352L32.0182 26.2053H32.3962L29.4142 35.4033H27.8952ZM29.5962 33.1283V31.7563H34.8602V33.1283H29.5962ZM41.7231 35.6133C40.9811 35.6133 40.3137 35.4943 39.7211 35.2563C39.1331 35.0137 38.6337 34.6543 38.2231 34.1783C37.8171 33.7023 37.5161 33.1143 37.3201 32.4143L38.7551 32.0503C38.9557 32.7083 39.3081 33.238 39.8121 33.6393C40.3207 34.036 40.9297 34.2297 41.6391 34.2203C42.1291 34.211 42.5911 34.1177 43.0251 33.9403C43.4591 33.7583 43.8161 33.4783 44.0961 33.1003C44.3341 32.7923 44.5044 32.4657 44.6071 32.1203C44.7144 31.775 44.7844 31.418 44.8171 31.0493H41.2051V29.6703H44.8241C44.7587 29.0403 44.5931 28.4873 44.3271 28.0113C44.0657 27.5353 43.7087 27.1643 43.2561 26.8983C42.8081 26.6277 42.2691 26.497 41.6391 26.5063C40.8924 26.5157 40.2647 26.7257 39.7561 27.1363C39.2474 27.5423 38.9044 28.093 38.7271 28.7883L37.2501 28.5783C37.5021 27.477 38.0177 26.6253 38.7971 26.0233C39.5811 25.4167 40.5564 25.1133 41.7231 25.1133C42.7031 25.1133 43.5407 25.335 44.2361 25.7783C44.9314 26.217 45.4634 26.8307 45.8321 27.6193C46.2054 28.4033 46.3967 29.318 46.4061 30.3633C46.4154 31.3433 46.2357 32.23 45.8671 33.0233C45.5031 33.8167 44.9687 34.4467 44.2641 34.9133C43.5641 35.38 42.7171 35.6133 41.7231 35.6133ZM52.0112 35.6133C51.0032 35.6133 50.1446 35.394 49.4352 34.9553C48.7259 34.512 48.1822 33.896 47.8042 33.1073C47.4309 32.3187 47.2442 31.404 47.2442 30.3633C47.2442 29.3227 47.4309 28.408 47.8042 27.6193C48.1822 26.8307 48.7259 26.217 49.4352 25.7783C50.1446 25.335 51.0032 25.1133 52.0112 25.1133C53.1732 25.1133 54.1346 25.4073 54.8952 25.9953C55.6606 26.5833 56.1926 27.3743 56.4912 28.3683L55.0072 28.7673C54.8112 28.0627 54.4612 27.5097 53.9572 27.1083C53.4579 26.707 52.8092 26.5063 52.0112 26.5063C51.2972 26.5063 50.7022 26.6673 50.2262 26.9893C49.7502 27.3113 49.3909 27.7617 49.1482 28.3403C48.9102 28.919 48.7912 29.5933 48.7912 30.3633C48.7866 31.1333 48.9032 31.8077 49.1412 32.3863C49.3839 32.965 49.7432 33.4153 50.2192 33.7373C50.6999 34.0593 51.2972 34.2203 52.0112 34.2203C52.8092 34.2203 53.4579 34.0197 53.9572 33.6183C54.4612 33.2123 54.8112 32.6593 55.0072 31.9593L56.4912 32.3583C56.1926 33.3523 55.6606 34.1433 54.8952 34.7313C54.1346 35.3193 53.1732 35.6133 52.0112 35.6133ZM60.8335 35.4033V25.3233H62.2965V29.6703H67.3365V25.3233H68.8065V35.4033H67.3365V31.0493H62.2965V35.4033H60.8335ZM74.056 35.6133C73.3 35.6133 72.6443 35.443 72.089 35.1023C71.5336 34.7617 71.1043 34.2927 70.801 33.6953C70.5023 33.0933 70.353 32.4003 70.353 31.6163C70.353 30.8277 70.507 30.1347 70.815 29.5373C71.123 28.9353 71.5546 28.4687 72.11 28.1373C72.6653 27.8013 73.314 27.6333 74.056 27.6333C74.812 27.6333 75.4676 27.8037 76.023 28.1443C76.5783 28.485 77.0076 28.954 77.311 29.5513C77.6143 30.1487 77.766 30.837 77.766 31.6163C77.766 32.405 77.612 33.1003 77.304 33.7023C77.0006 34.2997 76.5713 34.7687 76.016 35.1093C75.4606 35.4453 74.8073 35.6133 74.056 35.6133ZM74.056 34.2343C74.7793 34.2343 75.3183 33.9917 75.673 33.5063C76.0323 33.0163 76.212 32.3863 76.212 31.6163C76.212 30.8277 76.03 30.1977 75.666 29.7263C75.3066 29.2503 74.77 29.0123 74.056 29.0123C73.566 29.0123 73.1623 29.1243 72.845 29.3483C72.5276 29.5677 72.292 29.8733 72.138 30.2653C71.984 30.6527 71.907 31.103 71.907 31.6163C71.907 32.4097 72.089 33.0443 72.453 33.5203C72.817 33.9963 73.3513 34.2343 74.056 34.2343ZM79.2972 35.4033V27.8433H82.6222C82.8416 27.8433 83.0609 27.8573 83.2802 27.8853C83.4996 27.9087 83.6932 27.9437 83.8612 27.9903C84.2439 28.0977 84.5706 28.3123 84.8412 28.6343C85.1119 28.9517 85.2472 29.3763 85.2472 29.9083C85.2472 30.2117 85.2006 30.4683 85.1072 30.6783C85.0139 30.8837 84.8856 31.061 84.7222 31.2103C84.6476 31.2757 84.5682 31.334 84.4842 31.3853C84.4002 31.4367 84.3162 31.4763 84.2322 31.5043C84.4049 31.5323 84.5752 31.593 84.7432 31.6863C84.9999 31.8217 85.2099 32.0177 85.3732 32.2743C85.5412 32.5263 85.6252 32.8647 85.6252 33.2893C85.6252 33.798 85.5016 34.225 85.2542 34.5703C85.0069 34.911 84.6569 35.1443 84.2042 35.2703C84.0269 35.3217 83.8262 35.3567 83.6022 35.3753C83.3829 35.394 83.1636 35.4033 82.9442 35.4033H79.2972ZM80.7812 34.2483H82.8532C82.9512 34.2483 83.0632 34.239 83.1892 34.2203C83.3152 34.2017 83.4272 34.176 83.5252 34.1433C83.7352 34.078 83.8846 33.959 83.9732 33.7863C84.0666 33.6137 84.1132 33.4293 84.1132 33.2333C84.1132 32.9673 84.0432 32.755 83.9032 32.5963C83.7632 32.433 83.5859 32.328 83.3712 32.2813C83.2779 32.2487 83.1752 32.23 83.0632 32.2253C82.9512 32.2207 82.8556 32.2183 82.7762 32.2183H80.7812V34.2483ZM80.7812 31.0423H82.4192C82.5546 31.0423 82.6922 31.0353 82.8322 31.0213C82.9722 31.0027 83.0936 30.9723 83.1962 30.9303C83.3782 30.8603 83.5136 30.7437 83.6022 30.5803C83.6909 30.4123 83.7352 30.2303 83.7352 30.0343C83.7352 29.8197 83.6862 29.6283 83.5882 29.4603C83.4902 29.2923 83.3432 29.1757 83.1472 29.1103C83.0119 29.0637 82.8556 29.038 82.6782 29.0333C82.5056 29.024 82.3959 29.0193 82.3492 29.0193H80.7812V31.0423ZM90.3118 35.6133C89.5558 35.6133 88.9002 35.443 88.3448 35.1023C87.7895 34.7617 87.3602 34.2927 87.0568 33.6953C86.7582 33.0933 86.6088 32.4003 86.6088 31.6163C86.6088 30.8277 86.7628 30.1347 87.0708 29.5373C87.3788 28.9353 87.8105 28.4687 88.3658 28.1373C88.9212 27.8013 89.5698 27.6333 90.3118 27.6333C91.0678 27.6333 91.7235 27.8037 92.2788 28.1443C92.8342 28.485 93.2635 28.954 93.5668 29.5513C93.8702 30.1487 94.0218 30.837 94.0218 31.6163C94.0218 32.405 93.8678 33.1003 93.5598 33.7023C93.2565 34.2997 92.8272 34.7687 92.2718 35.1093C91.7165 35.4453 91.0632 35.6133 90.3118 35.6133ZM90.3118 34.2343C91.0352 34.2343 91.5742 33.9917 91.9288 33.5063C92.2882 33.0163 92.4678 32.3863 92.4678 31.6163C92.4678 30.8277 92.2858 30.1977 91.9218 29.7263C91.5625 29.2503 91.0258 29.0123 90.3118 29.0123C89.8218 29.0123 89.4182 29.1243 89.1008 29.3483C88.7835 29.5677 88.5478 29.8733 88.3938 30.2653C88.2398 30.6527 88.1628 31.103 88.1628 31.6163C88.1628 32.4097 88.3448 33.0443 88.7088 33.5203C89.0728 33.9963 89.6072 34.2343 90.3118 34.2343ZM95.5531 35.4033V27.8433H98.8781C99.0974 27.8433 99.3167 27.8573 99.5361 27.8853C99.7554 27.9087 99.9491 27.9437 100.117 27.9903C100.5 28.0977 100.826 28.3123 101.097 28.6343C101.368 28.9517 101.503 29.3763 101.503 29.9083C101.503 30.2117 101.456 30.4683 101.363 30.6783C101.27 30.8837 101.141 31.061 100.978 31.2103C100.903 31.2757 100.824 31.334 100.74 31.3853C100.656 31.4367 100.572 31.4763 100.488 31.5043C100.661 31.5323 100.831 31.593 100.999 31.6863C101.256 31.8217 101.466 32.0177 101.629 32.2743C101.797 32.5263 101.881 32.8647 101.881 33.2893C101.881 33.798 101.757 34.225 101.51 34.5703C101.263 34.911 100.913 35.1443 100.46 35.2703C100.283 35.3217 100.082 35.3567 99.8581 35.3753C99.6387 35.394 99.4194 35.4033 99.2001 35.4033H95.5531ZM97.0371 34.2483H99.1091C99.2071 34.2483 99.3191 34.239 99.4451 34.2203C99.5711 34.2017 99.6831 34.176 99.7811 34.1433C99.9911 34.078 100.14 33.959 100.229 33.7863C100.322 33.6137 100.369 33.4293 100.369 33.2333C100.369 32.9673 100.299 32.755 100.159 32.5963C100.019 32.433 99.8417 32.328 99.6271 32.2813C99.5337 32.2487 99.4311 32.23 99.3191 32.2253C99.2071 32.2207 99.1114 32.2183 99.0321 32.2183H97.0371V34.2483ZM97.0371 31.0423H98.6751C98.8104 31.0423 98.9481 31.0353 99.0881 31.0213C99.2281 31.0027 99.3494 30.9723 99.4521 30.9303C99.6341 30.8603 99.7694 30.7437 99.8581 30.5803C99.9467 30.4123 99.9911 30.2303 99.9911 30.0343C99.9911 29.8197 99.9421 29.6283 99.8441 29.4603C99.7461 29.2923 99.5991 29.1757 99.4031 29.1103C99.2677 29.0637 99.1114 29.038 98.9341 29.0333C98.7614 29.024 98.6517 29.0193 98.6051 29.0193H97.0371V31.0423ZM106.568 35.6133C105.812 35.6133 105.156 35.443 104.601 35.1023C104.045 34.7617 103.616 34.2927 103.313 33.6953C103.014 33.0933 102.865 32.4003 102.865 31.6163C102.865 30.8277 103.019 30.1347 103.327 29.5373C103.635 28.9353 104.066 28.4687 104.622 28.1373C105.177 27.8013 105.826 27.6333 106.568 27.6333C107.324 27.6333 107.979 27.8037 108.535 28.1443C109.09 28.485 109.519 28.954 109.823 29.5513C110.126 30.1487 110.278 30.837 110.278 31.6163C110.278 32.405 110.124 33.1003 109.816 33.7023C109.512 34.2997 109.083 34.7687 108.528 35.1093C107.972 35.4453 107.319 35.6133 106.568 35.6133ZM106.568 34.2343C107.291 34.2343 107.83 33.9917 108.185 33.5063C108.544 33.0163 108.724 32.3863 108.724 31.6163C108.724 30.8277 108.542 30.1977 108.178 29.7263C107.818 29.2503 107.282 29.0123 106.568 29.0123C106.078 29.0123 105.674 29.1243 105.357 29.3483C105.039 29.5677 104.804 29.8733 104.65 30.2653C104.496 30.6527 104.419 31.103 104.419 31.6163C104.419 32.4097 104.601 33.0443 104.965 33.5203C105.329 33.9963 105.863 34.2343 106.568 34.2343ZM115.365 35.6133C114.642 35.6133 114.035 35.4383 113.545 35.0883C113.055 34.7337 112.684 34.2553 112.432 33.6533C112.18 33.0513 112.054 32.3723 112.054 31.6163C112.054 30.8603 112.178 30.1813 112.425 29.5793C112.677 28.9773 113.046 28.5037 113.531 28.1583C114.021 27.8083 114.623 27.6333 115.337 27.6333C116.046 27.6333 116.658 27.8083 117.171 28.1583C117.689 28.5037 118.088 28.9773 118.368 29.5793C118.648 30.1767 118.788 30.8557 118.788 31.6163C118.788 32.3723 118.648 33.0537 118.368 33.6603C118.093 34.2623 117.698 34.7383 117.185 35.0883C116.676 35.4383 116.07 35.6133 115.365 35.6133ZM111.809 38.7633V27.8433H113.111V33.2823H113.279V38.7633H111.809ZM115.162 34.2903C115.629 34.2903 116.014 34.1713 116.317 33.9333C116.625 33.6953 116.854 33.3757 117.003 32.9743C117.157 32.5683 117.234 32.1157 117.234 31.6163C117.234 31.1217 117.157 30.6737 117.003 30.2723C116.854 29.871 116.623 29.5513 116.31 29.3133C115.997 29.0753 115.598 28.9563 115.113 28.9563C114.656 28.9563 114.278 29.0683 113.979 29.2923C113.685 29.5163 113.466 29.829 113.321 30.2303C113.181 30.6317 113.111 31.0937 113.111 31.6163C113.111 32.139 113.181 32.601 113.321 33.0023C113.461 33.4037 113.683 33.7187 113.986 33.9473C114.289 34.176 114.681 34.2903 115.162 34.2903ZM123.617 35.6133C122.861 35.6133 122.205 35.443 121.65 35.1023C121.094 34.7617 120.665 34.2927 120.362 33.6953C120.063 33.0933 119.914 32.4003 119.914 31.6163C119.914 30.8277 120.068 30.1347 120.376 29.5373C120.684 28.9353 121.115 28.4687 121.671 28.1373C122.226 27.8013 122.875 27.6333 123.617 27.6333C124.373 27.6333 125.028 27.8037 125.584 28.1443C126.139 28.485 126.568 28.954 126.872 29.5513C127.175 30.1487 127.327 30.837 127.327 31.6163C127.327 32.405 127.173 33.1003 126.865 33.7023C126.561 34.2997 126.132 34.7687 125.577 35.1093C125.021 35.4453 124.368 35.6133 123.617 35.6133ZM123.617 34.2343C124.34 34.2343 124.879 33.9917 125.234 33.5063C125.593 33.0163 125.773 32.3863 125.773 31.6163C125.773 30.8277 125.591 30.1977 125.227 29.7263C124.867 29.2503 124.331 29.0123 123.617 29.0123C123.127 29.0123 122.723 29.1243 122.406 29.3483C122.088 29.5677 121.853 29.8733 121.699 30.2653C121.545 30.6527 121.468 31.103 121.468 31.6163C121.468 32.4097 121.65 33.0443 122.014 33.5203C122.378 33.9963 122.912 34.2343 123.617 34.2343ZM128.858 35.4033V27.8433H130.321V30.9303H134.01V27.8433H135.473V35.4033H134.01V32.3093H130.321V35.4033H128.858ZM140.79 35.6133C140.039 35.6133 139.378 35.45 138.809 35.1233C138.244 34.792 137.803 34.3323 137.486 33.7443C137.173 33.1517 137.017 32.4657 137.017 31.6863C137.017 30.8603 137.171 30.144 137.479 29.5373C137.792 28.9307 138.226 28.4617 138.781 28.1303C139.336 27.799 139.983 27.6333 140.72 27.6333C141.49 27.6333 142.146 27.813 142.687 28.1723C143.228 28.527 143.632 29.0333 143.898 29.6913C144.169 30.3493 144.276 31.131 144.22 32.0363H142.757V31.5043C142.748 30.627 142.58 29.9783 142.253 29.5583C141.931 29.1383 141.439 28.9283 140.776 28.9283C140.043 28.9283 139.493 29.1593 139.124 29.6213C138.755 30.0833 138.571 30.7507 138.571 31.6233C138.571 32.454 138.755 33.098 139.124 33.5553C139.493 34.008 140.025 34.2343 140.72 34.2343C141.177 34.2343 141.572 34.1317 141.903 33.9263C142.239 33.7163 142.5 33.4177 142.687 33.0303L144.122 33.4853C143.828 34.162 143.382 34.687 142.785 35.0603C142.188 35.429 141.523 35.6133 140.79 35.6133ZM138.095 32.0363V30.8953H143.492V32.0363H138.095ZM144.677 35.4033L147.589 31.6233L144.838 27.8433H146.448L149.08 31.5323V27.8433H150.396V31.5323L153.028 27.8433H154.645L151.894 31.6233L154.806 35.4033H153.105L150.396 31.7143V35.4033H149.08V31.7143L146.378 35.4033H144.677ZM158.882 35.6133C158.107 35.6133 157.449 35.4407 156.908 35.0953C156.367 34.75 155.951 34.2763 155.662 33.6743C155.377 33.0723 155.233 32.3887 155.228 31.6233C155.233 30.844 155.382 30.1557 155.676 29.5583C155.97 28.9563 156.39 28.485 156.936 28.1443C157.482 27.8037 158.138 27.6333 158.903 27.6333C159.729 27.6333 160.434 27.8387 161.017 28.2493C161.605 28.66 161.992 29.2223 162.179 29.9363L160.723 30.3563C160.578 29.9317 160.34 29.6027 160.009 29.3693C159.682 29.1313 159.307 29.0123 158.882 29.0123C158.401 29.0123 158.007 29.1267 157.699 29.3553C157.391 29.5793 157.162 29.8873 157.013 30.2793C156.864 30.6713 156.787 31.1193 156.782 31.6233C156.787 32.4027 156.964 33.0327 157.314 33.5133C157.669 33.994 158.191 34.2343 158.882 34.2343C159.353 34.2343 159.734 34.127 160.023 33.9123C160.317 33.693 160.541 33.3803 160.695 32.9743L162.179 33.3243C161.932 34.0617 161.523 34.6287 160.954 35.0253C160.385 35.4173 159.694 35.6133 158.882 35.6133ZM163.598 35.4033L163.605 27.8433H165.089V31.4833L168.057 27.8433H169.919L166.783 31.6233L170.241 35.4033H168.253L165.089 31.7633V35.4033H163.598ZM173.082 35.6133C172.522 35.6133 172.053 35.5107 171.675 35.3053C171.297 35.0953 171.01 34.82 170.814 34.4793C170.622 34.134 170.527 33.756 170.527 33.3453C170.527 32.9627 170.594 32.6267 170.73 32.3373C170.865 32.048 171.066 31.803 171.332 31.6023C171.598 31.397 171.924 31.2313 172.312 31.1053C172.648 31.0073 173.028 30.921 173.453 30.8463C173.877 30.7717 174.323 30.7017 174.79 30.6363C175.261 30.571 175.728 30.5057 176.19 30.4403L175.658 30.7343C175.667 30.1417 175.541 29.703 175.28 29.4183C175.023 29.129 174.58 28.9843 173.95 28.9843C173.553 28.9843 173.189 29.0777 172.858 29.2643C172.526 29.4463 172.295 29.7497 172.165 30.1743L170.8 29.7543C170.986 29.1057 171.341 28.59 171.864 28.2073C172.391 27.8247 173.091 27.6333 173.964 27.6333C174.64 27.6333 175.228 27.75 175.728 27.9833C176.232 28.212 176.6 28.576 176.834 29.0753C176.955 29.3227 177.03 29.584 177.058 29.8593C177.086 30.1347 177.1 30.431 177.1 30.7483V35.4033H175.805V33.6743L176.057 33.8983C175.744 34.477 175.345 34.9087 174.86 35.1933C174.379 35.4733 173.786 35.6133 173.082 35.6133ZM173.341 34.4163C173.756 34.4163 174.113 34.344 174.412 34.1993C174.71 34.05 174.951 33.861 175.133 33.6323C175.315 33.4037 175.434 33.1657 175.49 32.9183C175.569 32.6943 175.613 32.4423 175.623 32.1623C175.637 31.8823 175.644 31.6583 175.644 31.4903L176.12 31.6653C175.658 31.7353 175.238 31.7983 174.86 31.8543C174.482 31.9103 174.139 31.9663 173.831 32.0223C173.527 32.0737 173.257 32.1367 173.019 32.2113C172.818 32.2813 172.638 32.3653 172.48 32.4633C172.326 32.5613 172.202 32.6803 172.109 32.8203C172.02 32.9603 171.976 33.1307 171.976 33.3313C171.976 33.5273 172.025 33.7093 172.123 33.8773C172.221 34.0407 172.37 34.1713 172.571 34.2693C172.771 34.3673 173.028 34.4163 173.341 34.4163ZM183.517 35.4033V32.7783H182.019C181.841 32.7783 181.629 32.7713 181.382 32.7573C181.139 32.7433 180.91 32.7177 180.696 32.6803C180.131 32.5777 179.66 32.3327 179.282 31.9453C178.904 31.5533 178.715 31.0143 178.715 30.3283C178.715 29.6657 178.892 29.1337 179.247 28.7323C179.606 28.3263 180.061 28.065 180.612 27.9483C180.85 27.8923 181.092 27.862 181.34 27.8573C181.592 27.848 181.804 27.8433 181.977 27.8433H184.98L184.987 35.4033H183.517ZM178.498 35.4033L180.409 32.4143H181.956L180.059 35.4033H178.498ZM181.892 31.6023H183.517V29.0193H181.892C181.79 29.0193 181.664 29.024 181.515 29.0333C181.365 29.0427 181.221 29.0683 181.081 29.1103C180.936 29.1523 180.796 29.227 180.661 29.3343C180.53 29.4417 180.423 29.5793 180.339 29.7473C180.255 29.9107 180.213 30.0997 180.213 30.3143C180.213 30.6363 180.304 30.9023 180.486 31.1123C180.668 31.3177 180.885 31.453 181.137 31.5183C181.272 31.5557 181.407 31.579 181.543 31.5883C181.678 31.5977 181.795 31.6023 181.892 31.6023Z" fill="#505B67"/>
<defs>
<filter id="filter0_d_428_46619" x="0.0800781" y="0.464844" width="210.416" height="68.6201" filterUnits="userSpaceOnUse" color-interpolation-filters="sRGB">
<feFlood flood-opacity="0" result="BackgroundImageFix"/>
<feColorMatrix in="SourceAlpha" type="matrix" values="0 0 0 0 0 0 0 0 0 0 0 0 0 0 0 0 0 0 127 0" result="hardAlpha"/>
<feOffset dx="-1" dy="2"/>
<feGaussianBlur stdDeviation="8"/>
<feColorMatrix type="matrix" values="0 0 0 0 0.0984375 0 0 0 0 0.269062 0 0 0 0 0.525 0 0 0 0.22 0"/>
<feBlend mode="normal" in2="BackgroundImageFix" result="effect1_dropShadow_428_46619"/>
<feBlend mode="normal" in="SourceGraphic" in2="effect1_dropShadow_428_46619" result="shape"/>
</filter>
<linearGradient id="paint0_linear_428_46619" x1="106.288" y1="14.4648" x2="106.288" y2="51.085" gradientUnits="userSpaceOnUse">
<stop stop-color="#ABD1E9"/>
<stop offset="1" stop-color="#A8BBFF" stop-opacity="0.68"/>
</linearGradient>
</defs>
</svg>
