<svg width="171" height="65" viewBox="0 0 171 65" fill="none" xmlns="http://www.w3.org/2000/svg">
<g filter="url(#filter0_d_428_46644)">
<mask id="path-1-inside-1_428_46644" fill="white">
<path fill-rule="evenodd" clip-rule="evenodd" d="M147.398 14.4521C151.817 14.4521 155.398 18.0339 155.398 22.4521V38.4521C155.398 42.8704 151.817 46.4521 147.398 46.4521L35.9432 46.4521L30.9468 46.4521L29.3246 46.4521C26.8049 46.4521 24.4962 45.0453 23.341 42.806L17.2578 31.0132C17.1103 30.7273 17.1094 30.3878 17.2554 30.1011L23.3494 18.1304C24.4984 15.8734 26.8167 14.4521 29.3494 14.4521H30.9468H35.9434H147.398Z"/>
</mask>
<path fill-rule="evenodd" clip-rule="evenodd" d="M147.398 14.4521C151.817 14.4521 155.398 18.0339 155.398 22.4521V38.4521C155.398 42.8704 151.817 46.4521 147.398 46.4521L35.9432 46.4521L30.9468 46.4521L29.3246 46.4521C26.8049 46.4521 24.4962 45.0453 23.341 42.806L17.2578 31.0132C17.1103 30.7273 17.1094 30.3878 17.2554 30.1011L23.3494 18.1304C24.4984 15.8734 26.8167 14.4521 29.3494 14.4521H30.9468H35.9434H147.398Z" fill="white"/>
<path d="M147.398 46.4521V48.1353V46.4521ZM35.9432 46.4521V44.769V46.4521ZM30.9468 46.4521V48.1353L30.9468 48.1353L30.9468 46.4521ZM29.3246 46.4521V44.769H29.3246L29.3246 46.4521ZM23.341 42.806L24.8369 42.0343L24.8369 42.0343L23.341 42.806ZM17.2578 31.0132L18.7537 30.2416V30.2416L17.2578 31.0132ZM17.2554 30.1011L18.7554 30.8647L17.2554 30.1011ZM23.3494 18.1304L21.8494 17.3668V17.3668L23.3494 18.1304ZM153.715 22.4521C153.715 18.9635 150.887 16.1353 147.398 16.1353V12.769C152.746 12.769 157.082 17.1043 157.082 22.4521H153.715ZM153.715 38.4521V22.4521H157.082V38.4521H153.715ZM147.398 44.769C150.887 44.769 153.715 41.9408 153.715 38.4521H157.082C157.082 43.8 152.746 48.1353 147.398 48.1353V44.769ZM35.9432 44.769L147.398 44.769V48.1353H35.9432V44.769ZM30.9468 44.769L35.9432 44.769V48.1353H30.9468V44.769ZM29.3246 44.769L30.9468 44.769L30.9468 48.1353L29.3246 48.1353L29.3246 44.769ZM24.8369 42.0343C25.7033 43.7138 27.4348 44.769 29.3246 44.769V48.1353C26.175 48.1353 23.289 46.3767 21.8452 43.5776L24.8369 42.0343ZM18.7537 30.2416L24.8369 42.0343L21.8452 43.5776L15.762 31.7849L18.7537 30.2416ZM18.7554 30.8647C18.8551 30.6689 18.8545 30.4369 18.7537 30.2416L15.762 31.7849C15.3662 31.0176 15.3638 30.1068 15.7554 29.3375L18.7554 30.8647ZM24.8494 18.894L18.7554 30.8647L15.7554 29.3375L21.8494 17.3668L24.8494 18.894ZM29.3494 16.1353C27.4499 16.1353 25.7111 17.2013 24.8494 18.894L21.8494 17.3668C23.2856 14.5456 26.1836 12.769 29.3494 12.769V16.1353ZM30.9468 16.1353H29.3494V12.769H30.9468V16.1353ZM35.9434 16.1353H30.9468V12.769H35.9434V16.1353ZM147.398 16.1353H35.9434V12.769H147.398V16.1353Z" fill="url(#paint0_linear_428_46644)" fill-opacity="0.47" mask="url(#path-1-inside-1_428_46644)"/>
</g>
<path d="M28.4499 35.5244L31.7259 25.4444H33.8329L37.1089 35.5244H35.5899L32.5729 26.3264H32.9509L29.9689 35.5244H28.4499ZM30.1509 33.2494V31.8774H35.4149V33.2494H30.1509ZM42.2778 35.7344C41.5358 35.7344 40.8684 35.6154 40.2758 35.3774C39.6878 35.1347 39.1884 34.7754 38.7778 34.2994C38.3718 33.8234 38.0708 33.2354 37.8748 32.5354L39.3098 32.1714C39.5104 32.8294 39.8628 33.3591 40.3668 33.7604C40.8754 34.1571 41.4844 34.3507 42.1938 34.3414C42.6838 34.3321 43.1458 34.2387 43.5798 34.0614C44.0138 33.8794 44.3708 33.5994 44.6508 33.2214C44.8888 32.9134 45.0591 32.5867 45.1618 32.2414C45.2691 31.8961 45.3391 31.5391 45.3718 31.1704H41.7598V29.7914H45.3788C45.3134 29.1614 45.1478 28.6084 44.8818 28.1324C44.6204 27.6564 44.2634 27.2854 43.8108 27.0194C43.3628 26.7487 42.8238 26.6181 42.1938 26.6274C41.4471 26.6367 40.8194 26.8467 40.3108 27.2574C39.8021 27.6634 39.4591 28.2141 39.2818 28.9094L37.8048 28.6994C38.0568 27.5981 38.5724 26.7464 39.3518 26.1444C40.1358 25.5377 41.1111 25.2344 42.2778 25.2344C43.2578 25.2344 44.0954 25.4561 44.7908 25.8994C45.4861 26.3381 46.0181 26.9517 46.3868 27.7404C46.7601 28.5244 46.9514 29.4391 46.9608 30.4844C46.9701 31.4644 46.7904 32.3511 46.4218 33.1444C46.0578 33.9377 45.5234 34.5677 44.8188 35.0344C44.1188 35.5011 43.2718 35.7344 42.2778 35.7344ZM52.5659 35.7344C51.5579 35.7344 50.6992 35.5151 49.9899 35.0764C49.2806 34.6331 48.7369 34.0171 48.3589 33.2284C47.9856 32.4397 47.7989 31.5251 47.7989 30.4844C47.7989 29.4437 47.9856 28.5291 48.3589 27.7404C48.7369 26.9517 49.2806 26.3381 49.9899 25.8994C50.6992 25.4561 51.5579 25.2344 52.5659 25.2344C53.7279 25.2344 54.6892 25.5284 55.4499 26.1164C56.2152 26.7044 56.7472 27.4954 57.0459 28.4894L55.5619 28.8884C55.3659 28.1837 55.0159 27.6307 54.5119 27.2294C54.0126 26.8281 53.3639 26.6274 52.5659 26.6274C51.8519 26.6274 51.2569 26.7884 50.7809 27.1104C50.3049 27.4324 49.9456 27.8827 49.7029 28.4614C49.4649 29.0401 49.3459 29.7144 49.3459 30.4844C49.3412 31.2544 49.4579 31.9287 49.6959 32.5074C49.9386 33.0861 50.2979 33.5364 50.7739 33.8584C51.2546 34.1804 51.8519 34.3414 52.5659 34.3414C53.3639 34.3414 54.0126 34.1407 54.5119 33.7394C55.0159 33.3334 55.3659 32.7804 55.5619 32.0804L57.0459 32.4794C56.7472 33.4734 56.2152 34.2644 55.4499 34.8524C54.6892 35.4404 53.7279 35.7344 52.5659 35.7344ZM61.3882 35.5244V25.4444H65.4622C65.5602 25.4444 65.6815 25.4491 65.8262 25.4584C65.9709 25.4631 66.1085 25.4771 66.2392 25.5004C66.7992 25.5891 67.2659 25.7804 67.6392 26.0744C68.0172 26.3684 68.2995 26.7394 68.4862 27.1874C68.6729 27.6354 68.7662 28.1301 68.7662 28.6714C68.7662 29.2174 68.6729 29.7144 68.4862 30.1624C68.2995 30.6104 68.0172 30.9814 67.6392 31.2754C67.2659 31.5694 66.7992 31.7607 66.2392 31.8494C66.1085 31.8681 65.9685 31.8821 65.8192 31.8914C65.6745 31.9007 65.5555 31.9054 65.4622 31.9054H62.8512V35.5244H61.3882ZM62.8512 30.5194H65.4062C65.4995 30.5194 65.6022 30.5147 65.7142 30.5054C65.8309 30.4961 65.9405 30.4797 66.0432 30.4564C66.3419 30.3864 66.5822 30.2581 66.7642 30.0714C66.9462 29.8801 67.0769 29.6607 67.1562 29.4134C67.2355 29.1661 67.2752 28.9187 67.2752 28.6714C67.2752 28.4241 67.2355 28.1791 67.1562 27.9364C67.0769 27.6891 66.9462 27.4721 66.7642 27.2854C66.5822 27.0941 66.3419 26.9634 66.0432 26.8934C65.9405 26.8654 65.8309 26.8467 65.7142 26.8374C65.6022 26.8281 65.4995 26.8234 65.4062 26.8234H62.8512V30.5194ZM73.4485 35.7344C72.6925 35.7344 72.0369 35.5641 71.4815 35.2234C70.9262 34.8827 70.4969 34.4137 70.1935 33.8164C69.8949 33.2144 69.7455 32.5214 69.7455 31.7374C69.7455 30.9487 69.8995 30.2557 70.2075 29.6584C70.5155 29.0564 70.9472 28.5897 71.5025 28.2584C72.0579 27.9224 72.7065 27.7544 73.4485 27.7544C74.2045 27.7544 74.8602 27.9247 75.4155 28.2654C75.9709 28.6061 76.4002 29.0751 76.7035 29.6724C77.0069 30.2697 77.1585 30.9581 77.1585 31.7374C77.1585 32.5261 77.0045 33.2214 76.6965 33.8234C76.3932 34.4207 75.9639 34.8897 75.4085 35.2304C74.8532 35.5664 74.1999 35.7344 73.4485 35.7344ZM73.4485 34.3554C74.1719 34.3554 74.7109 34.1127 75.0655 33.6274C75.4249 33.1374 75.6045 32.5074 75.6045 31.7374C75.6045 30.9487 75.4225 30.3187 75.0585 29.8474C74.6992 29.3714 74.1625 29.1334 73.4485 29.1334C72.9585 29.1334 72.5549 29.2454 72.2375 29.4694C71.9202 29.6887 71.6845 29.9944 71.5305 30.3864C71.3765 30.7737 71.2995 31.2241 71.2995 31.7374C71.2995 32.5307 71.4815 33.1654 71.8455 33.6414C72.2095 34.1174 72.7439 34.3554 73.4485 34.3554ZM81.9308 35.7344C81.1561 35.7344 80.4981 35.5617 79.9568 35.2164C79.4155 34.8711 79.0001 34.3974 78.7108 33.7954C78.4261 33.1934 78.2815 32.5097 78.2768 31.7444C78.2815 30.9651 78.4308 30.2767 78.7248 29.6794C79.0188 29.0774 79.4388 28.6061 79.9848 28.2654C80.5308 27.9247 81.1865 27.7544 81.9518 27.7544C82.7778 27.7544 83.4825 27.9597 84.0658 28.3704C84.6538 28.7811 85.0411 29.3434 85.2278 30.0574L83.7718 30.4774C83.6271 30.0527 83.3891 29.7237 83.0578 29.4904C82.7311 29.2524 82.3555 29.1334 81.9308 29.1334C81.4501 29.1334 81.0558 29.2477 80.7478 29.4764C80.4398 29.7004 80.2111 30.0084 80.0618 30.4004C79.9125 30.7924 79.8355 31.2404 79.8308 31.7444C79.8355 32.5237 80.0128 33.1537 80.3628 33.6344C80.7175 34.1151 81.2401 34.3554 81.9308 34.3554C82.4021 34.3554 82.7825 34.2481 83.0718 34.0334C83.3658 33.8141 83.5898 33.5014 83.7438 33.0954L85.2278 33.4454C84.9805 34.1827 84.5721 34.7497 84.0028 35.1464C83.4335 35.5384 82.7428 35.7344 81.9308 35.7344ZM88.5111 35.5244V29.2804H85.9281V27.9644H92.5571V29.2804H89.9741V35.5244H88.5111ZM97.0325 35.7344C96.2765 35.7344 95.6209 35.5641 95.0655 35.2234C94.5102 34.8827 94.0809 34.4137 93.7775 33.8164C93.4789 33.2144 93.3295 32.5214 93.3295 31.7374C93.3295 30.9487 93.4835 30.2557 93.7915 29.6584C94.0995 29.0564 94.5312 28.5897 95.0865 28.2584C95.6419 27.9224 96.2905 27.7544 97.0325 27.7544C97.7885 27.7544 98.4442 27.9247 98.9995 28.2654C99.5549 28.6061 99.9842 29.0751 100.288 29.6724C100.591 30.2697 100.743 30.9581 100.743 31.7374C100.743 32.5261 100.589 33.2214 100.281 33.8234C99.9772 34.4207 99.5479 34.8897 98.9925 35.2304C98.4372 35.5664 97.7839 35.7344 97.0325 35.7344ZM97.0325 34.3554C97.7559 34.3554 98.2949 34.1127 98.6495 33.6274C99.0089 33.1374 99.1885 32.5074 99.1885 31.7374C99.1885 30.9487 99.0065 30.3187 98.6425 29.8474C98.2832 29.3714 97.7465 29.1334 97.0325 29.1334C96.5425 29.1334 96.1389 29.2454 95.8215 29.4694C95.5042 29.6887 95.2685 29.9944 95.1145 30.3864C94.9605 30.7737 94.8835 31.2241 94.8835 31.7374C94.8835 32.5307 95.0655 33.1654 95.4295 33.6414C95.7935 34.1174 96.3279 34.3554 97.0325 34.3554ZM102.274 35.5244V27.9644H105.599C105.818 27.9644 106.037 27.9784 106.257 28.0064C106.476 28.0297 106.67 28.0647 106.838 28.1114C107.22 28.2187 107.547 28.4334 107.818 28.7554C108.088 29.0727 108.224 29.4974 108.224 30.0294C108.224 30.3327 108.177 30.5894 108.084 30.7994C107.99 31.0047 107.862 31.1821 107.699 31.3314C107.624 31.3967 107.545 31.4551 107.461 31.5064C107.377 31.5577 107.293 31.5974 107.209 31.6254C107.381 31.6534 107.552 31.7141 107.72 31.8074C107.976 31.9427 108.186 32.1387 108.35 32.3954C108.518 32.6474 108.602 32.9857 108.602 33.4104C108.602 33.9191 108.478 34.3461 108.231 34.6914C107.983 35.0321 107.633 35.2654 107.181 35.3914C107.003 35.4427 106.803 35.4777 106.579 35.4964C106.359 35.5151 106.14 35.5244 105.921 35.5244H102.274ZM103.758 34.3694H105.83C105.928 34.3694 106.04 34.3601 106.166 34.3414C106.292 34.3227 106.404 34.2971 106.502 34.2644C106.712 34.1991 106.861 34.0801 106.95 33.9074C107.043 33.7347 107.09 33.5504 107.09 33.3544C107.09 33.0884 107.02 32.8761 106.88 32.7174C106.74 32.5541 106.562 32.4491 106.348 32.4024C106.254 32.3697 106.152 32.3511 106.04 32.3464C105.928 32.3417 105.832 32.3394 105.753 32.3394H103.758V34.3694ZM103.758 31.1634H105.396C105.531 31.1634 105.669 31.1564 105.809 31.1424C105.949 31.1237 106.07 31.0934 106.173 31.0514C106.355 30.9814 106.49 30.8647 106.579 30.7014C106.667 30.5334 106.712 30.3514 106.712 30.1554C106.712 29.9407 106.663 29.7494 106.565 29.5814C106.467 29.4134 106.32 29.2967 106.124 29.2314C105.988 29.1847 105.832 29.1591 105.655 29.1544C105.482 29.1451 105.372 29.1404 105.326 29.1404H103.758V31.1634ZM113.239 35.7344C112.465 35.7344 111.807 35.5617 111.265 35.2164C110.724 34.8711 110.309 34.3974 110.019 33.7954C109.735 33.1934 109.59 32.5097 109.585 31.7444C109.59 30.9651 109.739 30.2767 110.033 29.6794C110.327 29.0774 110.747 28.6061 111.293 28.2654C111.839 27.9247 112.495 27.7544 113.26 27.7544C114.086 27.7544 114.791 27.9597 115.374 28.3704C115.962 28.7811 116.35 29.3434 116.536 30.0574L115.08 30.4774C114.936 30.0527 114.698 29.7237 114.366 29.4904C114.04 29.2524 113.664 29.1334 113.239 29.1334C112.759 29.1334 112.364 29.2477 112.056 29.4764C111.748 29.7004 111.52 30.0084 111.37 30.4004C111.221 30.7924 111.144 31.2404 111.139 31.7444C111.144 32.5237 111.321 33.1537 111.671 33.6344C112.026 34.1151 112.549 34.3554 113.239 34.3554C113.711 34.3554 114.091 34.2481 114.38 34.0334C114.674 33.8141 114.898 33.5014 115.052 33.0954L116.536 33.4454C116.289 34.1827 115.881 34.7497 115.311 35.1464C114.742 35.5384 114.051 35.7344 113.239 35.7344ZM117.955 35.5244L117.962 27.9644H119.446V31.6044L122.414 27.9644H124.276L121.14 31.7444L124.598 35.5244H122.61L119.446 31.8844V35.5244H117.955ZM127.439 35.7344C126.879 35.7344 126.41 35.6317 126.032 35.4264C125.654 35.2164 125.367 34.9411 125.171 34.6004C124.98 34.2551 124.884 33.8771 124.884 33.4664C124.884 33.0837 124.952 32.7477 125.087 32.4584C125.223 32.1691 125.423 31.9241 125.689 31.7234C125.955 31.5181 126.282 31.3524 126.669 31.2264C127.005 31.1284 127.386 31.0421 127.81 30.9674C128.235 30.8927 128.681 30.8227 129.147 30.7574C129.619 30.6921 130.085 30.6267 130.547 30.5614L130.015 30.8554C130.025 30.2627 129.899 29.8241 129.637 29.5394C129.381 29.2501 128.937 29.1054 128.307 29.1054C127.911 29.1054 127.547 29.1987 127.215 29.3854C126.884 29.5674 126.653 29.8707 126.522 30.2954L125.157 29.8754C125.344 29.2267 125.699 28.7111 126.221 28.3284C126.749 27.9457 127.449 27.7544 128.321 27.7544C128.998 27.7544 129.586 27.8711 130.085 28.1044C130.589 28.3331 130.958 28.6971 131.191 29.1964C131.313 29.4437 131.387 29.7051 131.415 29.9804C131.443 30.2557 131.457 30.5521 131.457 30.8694V35.5244H130.162V33.7954L130.414 34.0194C130.102 34.5981 129.703 35.0297 129.217 35.3144C128.737 35.5944 128.144 35.7344 127.439 35.7344ZM127.698 34.5374C128.114 34.5374 128.471 34.4651 128.769 34.3204C129.068 34.1711 129.308 33.9821 129.49 33.7534C129.672 33.5247 129.791 33.2867 129.847 33.0394C129.927 32.8154 129.971 32.5634 129.98 32.2834C129.994 32.0034 130.001 31.7794 130.001 31.6114L130.477 31.7864C130.015 31.8564 129.595 31.9194 129.217 31.9754C128.839 32.0314 128.496 32.0874 128.188 32.1434C127.885 32.1947 127.614 32.2577 127.376 32.3324C127.176 32.4024 126.996 32.4864 126.837 32.5844C126.683 32.6824 126.56 32.8014 126.466 32.9414C126.378 33.0814 126.333 33.2517 126.333 33.4524C126.333 33.6484 126.382 33.8304 126.48 33.9984C126.578 34.1617 126.728 34.2924 126.928 34.3904C127.129 34.4884 127.386 34.5374 127.698 34.5374ZM137.874 35.5244V32.8994H136.376C136.199 32.8994 135.986 32.8924 135.739 32.8784C135.496 32.8644 135.268 32.8387 135.053 32.8014C134.488 32.6987 134.017 32.4537 133.639 32.0664C133.261 31.6744 133.072 31.1354 133.072 30.4494C133.072 29.7867 133.249 29.2547 133.604 28.8534C133.963 28.4474 134.418 28.1861 134.969 28.0694C135.207 28.0134 135.45 27.9831 135.697 27.9784C135.949 27.9691 136.161 27.9644 136.334 27.9644H139.337L139.344 35.5244H137.874ZM132.855 35.5244L134.766 32.5354H136.313L134.416 35.5244H132.855ZM136.25 31.7234H137.874V29.1404H136.25C136.147 29.1404 136.021 29.1451 135.872 29.1544C135.723 29.1637 135.578 29.1894 135.438 29.2314C135.293 29.2734 135.153 29.3481 135.018 29.4554C134.887 29.5627 134.78 29.7004 134.696 29.8684C134.612 30.0317 134.57 30.2207 134.57 30.4354C134.57 30.7574 134.661 31.0234 134.843 31.2334C135.025 31.4387 135.242 31.5741 135.494 31.6394C135.629 31.6767 135.765 31.7001 135.9 31.7094C136.035 31.7187 136.152 31.7234 136.25 31.7234Z" fill="#505B67"/>
<defs>
<filter id="filter0_d_428_46644" x="0.146484" y="0.452148" width="170.252" height="64" filterUnits="userSpaceOnUse" color-interpolation-filters="sRGB">
<feFlood flood-opacity="0" result="BackgroundImageFix"/>
<feColorMatrix in="SourceAlpha" type="matrix" values="0 0 0 0 0 0 0 0 0 0 0 0 0 0 0 0 0 0 127 0" result="hardAlpha"/>
<feOffset dx="-1" dy="2"/>
<feGaussianBlur stdDeviation="8"/>
<feColorMatrix type="matrix" values="0 0 0 0 0.0984375 0 0 0 0 0.269062 0 0 0 0 0.525 0 0 0 0.22 0"/>
<feBlend mode="normal" in2="BackgroundImageFix" result="effect1_dropShadow_428_46644"/>
<feBlend mode="normal" in="SourceGraphic" in2="effect1_dropShadow_428_46644" result="shape"/>
</filter>
<linearGradient id="paint0_linear_428_46644" x1="86.2725" y1="14.4521" x2="86.2725" y2="46.4521" gradientUnits="userSpaceOnUse">
<stop stop-color="#ABD1E9"/>
<stop offset="1" stop-color="#A8BBFF" stop-opacity="0.68"/>
</linearGradient>
</defs>
</svg>
