<svg width="135" height="70" viewBox="0 0 135 70" fill="none" xmlns="http://www.w3.org/2000/svg">
<g filter="url(#filter0_d_428_46599)">
<mask id="path-1-inside-1_428_46599" fill="white">
<path fill-rule="evenodd" clip-rule="evenodd" d="M25.4316 14.6455C21.0134 14.6455 17.4316 18.2272 17.4316 22.6455V38.6301C17.4316 43.0484 21.0134 46.6301 25.4316 46.6301H60.6268L67.8527 51.1153C68.1739 51.3147 68.58 51.3158 68.9024 51.1184L76.2294 46.6301H111.488C115.907 46.6301 119.488 43.0484 119.488 38.6301V22.6455C119.488 18.2272 115.907 14.6455 111.488 14.6455H25.4316Z"/>
</mask>
<path fill-rule="evenodd" clip-rule="evenodd" d="M25.4316 14.6455C21.0134 14.6455 17.4316 18.2272 17.4316 22.6455V38.6301C17.4316 43.0484 21.0134 46.6301 25.4316 46.6301H60.6268L67.8527 51.1153C68.1739 51.3147 68.58 51.3158 68.9024 51.1184L76.2294 46.6301H111.488C115.907 46.6301 119.488 43.0484 119.488 38.6301V22.6455C119.488 18.2272 115.907 14.6455 111.488 14.6455H25.4316Z" fill="white"/>
<path d="M60.6268 46.6301L61.5145 45.2L61.1068 44.9469H60.6268V46.6301ZM67.8527 51.1153L68.7404 49.6852L68.7403 49.6852L67.8527 51.1153ZM68.9024 51.1184L69.7816 52.5537L69.7816 52.5537L68.9024 51.1184ZM76.2294 46.6301V44.9469H75.7548L75.3501 45.1948L76.2294 46.6301ZM19.1148 22.6455C19.1148 19.1568 21.943 16.3287 25.4316 16.3287V12.9623C20.0838 12.9623 15.7485 17.2976 15.7485 22.6455H19.1148ZM19.1148 38.6301V22.6455H15.7485V38.6301H19.1148ZM25.4316 44.9469C21.943 44.9469 19.1148 42.1188 19.1148 38.6301H15.7485C15.7485 43.978 20.0838 48.3133 25.4316 48.3133V44.9469ZM60.6268 44.9469H25.4316V48.3133H60.6268V44.9469ZM68.7403 49.6852L61.5145 45.2L59.7392 48.0602L66.965 52.5454L68.7403 49.6852ZM68.0232 49.6831C68.2434 49.5482 68.5209 49.549 68.7404 49.6852L66.965 52.5454C67.8268 53.0803 68.9167 53.0835 69.7816 52.5537L68.0232 49.6831ZM75.3501 45.1948L68.0232 49.6831L69.7816 52.5537L77.1086 48.0654L75.3501 45.1948ZM111.488 44.9469H76.2294V48.3133H111.488V44.9469ZM117.805 38.6301C117.805 42.1188 114.977 44.9469 111.488 44.9469V48.3133C116.836 48.3133 121.171 43.978 121.171 38.6301H117.805ZM117.805 22.6455V38.6301H121.171V22.6455H117.805ZM111.488 16.3287C114.977 16.3287 117.805 19.1568 117.805 22.6455H121.171C121.171 17.2976 116.836 12.9623 111.488 12.9623V16.3287ZM25.4316 16.3287H111.488V12.9623H25.4316V16.3287Z" fill="url(#paint0_linear_428_46599)" fill-opacity="0.47" mask="url(#path-1-inside-1_428_46599)"/>
</g>
<path d="M27.9646 35.583L31.2406 25.503H33.3476L36.6236 35.583H35.1046L32.0876 26.385H32.4656L29.4836 35.583H27.9646ZM29.6656 33.308V31.936H34.9296V33.308H29.6656ZM41.7924 35.793C41.0504 35.793 40.3831 35.674 39.7904 35.436C39.2024 35.1933 38.7031 34.834 38.2924 34.358C37.8864 33.882 37.5854 33.294 37.3894 32.594L38.8244 32.23C39.0251 32.888 39.3774 33.4177 39.8814 33.819C40.3901 34.2157 40.9991 34.4093 41.7084 34.4C42.1984 34.3907 42.6604 34.2973 43.0944 34.12C43.5284 33.938 43.8854 33.658 44.1654 33.28C44.4034 32.972 44.5737 32.6453 44.6764 32.3C44.7837 31.9547 44.8537 31.5977 44.8864 31.229H41.2744V29.85H44.8934C44.8281 29.22 44.6624 28.667 44.3964 28.191C44.1351 27.715 43.7781 27.344 43.3254 27.078C42.8774 26.8073 42.3384 26.6767 41.7084 26.686C40.9617 26.6953 40.3341 26.9053 39.8254 27.316C39.3167 27.722 38.9737 28.2727 38.7964 28.968L37.3194 28.758C37.5714 27.6567 38.0871 26.805 38.8664 26.203C39.6504 25.5963 40.6257 25.293 41.7924 25.293C42.7724 25.293 43.6101 25.5147 44.3054 25.958C45.0007 26.3967 45.5327 27.0103 45.9014 27.799C46.2747 28.583 46.4661 29.4977 46.4754 30.543C46.4847 31.523 46.3051 32.4097 45.9364 33.203C45.5724 33.9963 45.0381 34.6263 44.3334 35.093C43.6334 35.5597 42.7864 35.793 41.7924 35.793ZM52.0806 35.793C51.0726 35.793 50.2139 35.5737 49.5046 35.135C48.7952 34.6917 48.2516 34.0757 47.8736 33.287C47.5002 32.4983 47.3136 31.5837 47.3136 30.543C47.3136 29.5023 47.5002 28.5877 47.8736 27.799C48.2516 27.0103 48.7952 26.3967 49.5046 25.958C50.2139 25.5147 51.0726 25.293 52.0806 25.293C53.2426 25.293 54.2039 25.587 54.9646 26.175C55.7299 26.763 56.2619 27.554 56.5606 28.548L55.0766 28.947C54.8806 28.2423 54.5306 27.6893 54.0266 27.288C53.5272 26.8867 52.8786 26.686 52.0806 26.686C51.3666 26.686 50.7716 26.847 50.2956 27.169C49.8196 27.491 49.4602 27.9413 49.2176 28.52C48.9796 29.0987 48.8606 29.773 48.8606 30.543C48.8559 31.313 48.9726 31.9873 49.2106 32.566C49.4532 33.1447 49.8126 33.595 50.2886 33.917C50.7692 34.239 51.3666 34.4 52.0806 34.4C52.8786 34.4 53.5272 34.1993 54.0266 33.798C54.5306 33.392 54.8806 32.839 55.0766 32.139L56.5606 32.538C56.2619 33.532 55.7299 34.323 54.9646 34.911C54.2039 35.499 53.2426 35.793 52.0806 35.793ZM60.9029 35.583V25.503H64.9769C65.0749 25.503 65.1962 25.5077 65.3409 25.517C65.4855 25.5217 65.6232 25.5357 65.7539 25.559C66.3139 25.6477 66.7805 25.839 67.1539 26.133C67.5319 26.427 67.8142 26.798 68.0009 27.246C68.1875 27.694 68.2809 28.1887 68.2809 28.73C68.2809 29.276 68.1875 29.773 68.0009 30.221C67.8142 30.669 67.5319 31.04 67.1539 31.334C66.7805 31.628 66.3139 31.8193 65.7539 31.908C65.6232 31.9267 65.4832 31.9407 65.3339 31.95C65.1892 31.9593 65.0702 31.964 64.9769 31.964H62.3659V35.583H60.9029ZM62.3659 30.578H64.9209C65.0142 30.578 65.1169 30.5733 65.2289 30.564C65.3455 30.5547 65.4552 30.5383 65.5579 30.515C65.8565 30.445 66.0969 30.3167 66.2789 30.13C66.4609 29.9387 66.5915 29.7193 66.6709 29.472C66.7502 29.2247 66.7899 28.9773 66.7899 28.73C66.7899 28.4827 66.7502 28.2377 66.6709 27.995C66.5915 27.7477 66.4609 27.5307 66.2789 27.344C66.0969 27.1527 65.8565 27.022 65.5579 26.952C65.4552 26.924 65.3455 26.9053 65.2289 26.896C65.1169 26.8867 65.0142 26.882 64.9209 26.882H62.3659V30.578ZM70.7022 38.943L72.1652 34.96L72.1862 36.136L68.8892 28.023H70.4152L72.8792 34.288H72.4312L74.7832 28.023H76.2672L72.0952 38.943H70.7022ZM77.3568 35.583V28.023H83.7338V35.583H82.2708V29.402H78.8198V35.583H77.3568ZM85.683 35.583V28.023H92.06V35.583H90.597V29.402H87.146V35.583H85.683ZM95.0381 38.943L96.5011 34.96L96.5221 36.136L93.2251 28.023H94.7511L97.2151 34.288H96.7671L99.1191 28.023H100.603L96.4311 38.943H95.0381ZM105.249 35.793C104.525 35.793 103.919 35.618 103.429 35.268C102.939 34.9133 102.568 34.435 102.316 33.833C102.064 33.231 101.938 32.552 101.938 31.796C101.938 31.04 102.061 30.361 102.309 29.759C102.561 29.157 102.929 28.6833 103.415 28.338C103.905 27.988 104.507 27.813 105.221 27.813C105.93 27.813 106.541 27.988 107.055 28.338C107.573 28.6833 107.972 29.157 108.252 29.759C108.532 30.3563 108.672 31.0353 108.672 31.796C108.672 32.552 108.532 33.2333 108.252 33.84C107.976 34.442 107.582 34.918 107.069 35.268C106.56 35.618 105.953 35.793 105.249 35.793ZM101.693 38.943V28.023H102.995V33.462H103.163V38.943H101.693ZM105.046 34.47C105.512 34.47 105.897 34.351 106.201 34.113C106.509 33.875 106.737 33.5553 106.887 33.154C107.041 32.748 107.118 32.2953 107.118 31.796C107.118 31.3013 107.041 30.8533 106.887 30.452C106.737 30.0507 106.506 29.731 106.194 29.493C105.881 29.255 105.482 29.136 104.997 29.136C104.539 29.136 104.161 29.248 103.863 29.472C103.569 29.696 103.349 30.0087 103.205 30.41C103.065 30.8113 102.995 31.2733 102.995 31.796C102.995 32.3187 103.065 32.7807 103.205 33.182C103.345 33.5833 103.566 33.8983 103.87 34.127C104.173 34.3557 104.565 34.47 105.046 34.47Z" fill="#505B67"/>
<defs>
<filter id="filter0_d_428_46599" x="0.431641" y="0.645508" width="134.057" height="68.6201" filterUnits="userSpaceOnUse" color-interpolation-filters="sRGB">
<feFlood flood-opacity="0" result="BackgroundImageFix"/>
<feColorMatrix in="SourceAlpha" type="matrix" values="0 0 0 0 0 0 0 0 0 0 0 0 0 0 0 0 0 0 127 0" result="hardAlpha"/>
<feOffset dx="-1" dy="2"/>
<feGaussianBlur stdDeviation="8"/>
<feColorMatrix type="matrix" values="0 0 0 0 0.0984375 0 0 0 0 0.269062 0 0 0 0 0.525 0 0 0 0.22 0"/>
<feBlend mode="normal" in2="BackgroundImageFix" result="effect1_dropShadow_428_46599"/>
<feBlend mode="normal" in="SourceGraphic" in2="effect1_dropShadow_428_46599" result="shape"/>
</filter>
<linearGradient id="paint0_linear_428_46599" x1="68.46" y1="14.6455" x2="68.46" y2="51.2656" gradientUnits="userSpaceOnUse">
<stop stop-color="#ABD1E9"/>
<stop offset="1" stop-color="#A8BBFF" stop-opacity="0.68"/>
</linearGradient>
</defs>
</svg>
