<svg width="43" height="42" viewBox="0 0 43 42" fill="none" xmlns="http://www.w3.org/2000/svg">
<g filter="url(#filter0_dd_240_14739)">
<path d="M6.77637 11.7618C6.77637 10.095 6.77637 9.26162 7.10075 8.62499C7.38608 8.065 7.84137 7.60971 8.40136 7.32438C9.03799 7 9.87138 7 11.5382 7H28.7997C30.4665 7 31.2999 7 31.9365 7.32438C32.4965 7.60971 32.9518 8.065 33.2371 8.62499C33.5615 9.26162 33.5615 10.095 33.5615 11.7618V29.0233C33.5615 30.6901 33.5615 31.5235 33.2371 32.1602C32.9518 32.7202 32.4965 33.1754 31.9365 33.4608C31.2999 33.7852 30.4665 33.7852 28.7997 33.7852H11.5382C9.87139 33.7852 9.03799 33.7852 8.40136 33.4608C7.84137 33.1754 7.38608 32.7202 7.10075 32.1602C6.77637 31.5235 6.77637 30.6901 6.77637 29.0234V11.7618Z" fill="white" fill-opacity="0.8"/>
<path d="M6.77637 11.7618C6.77637 10.095 6.77637 9.26162 7.10075 8.62499C7.38608 8.065 7.84137 7.60971 8.40136 7.32438C9.03799 7 9.87138 7 11.5382 7H28.7997C30.4665 7 31.2999 7 31.9365 7.32438C32.4965 7.60971 32.9518 8.065 33.2371 8.62499C33.5615 9.26162 33.5615 10.095 33.5615 11.7618V29.0233C33.5615 30.6901 33.5615 31.5235 33.2371 32.1602C32.9518 32.7202 32.4965 33.1754 31.9365 33.4608C31.2999 33.7852 30.4665 33.7852 28.7997 33.7852H11.5382C9.87139 33.7852 9.03799 33.7852 8.40136 33.4608C7.84137 33.1754 7.38608 32.7202 7.10075 32.1602C6.77637 31.5235 6.77637 30.6901 6.77637 29.0234V11.7618Z" fill="url(#paint0_linear_240_14739)" fill-opacity="0.4" style="mix-blend-mode:soft-light"/>
<path d="M11.5382 7.37202H28.7997C29.6392 7.37202 30.2465 7.37231 30.7241 7.41133C31.1974 7.45 31.5105 7.52483 31.7676 7.65585C32.2576 7.90551 32.656 8.30389 32.9057 8.79389C33.0367 9.05102 33.1115 9.36411 33.1502 9.83738C33.1892 10.315 33.1895 10.9223 33.1895 11.7618V29.0233C33.1895 29.8629 33.1892 30.4702 33.1502 30.9478C33.1115 31.421 33.0367 31.7341 32.9057 31.9913C32.656 32.4813 32.2576 32.8796 31.7676 33.1293C31.5105 33.2603 31.1974 33.3352 30.7241 33.3738C30.2465 33.4129 29.6392 33.4131 28.7997 33.4131H11.5382C10.6986 33.4131 10.0914 33.4129 9.61375 33.3738C9.14048 33.3352 8.82738 33.2603 8.57025 33.1293C8.08026 32.8796 7.68188 32.4813 7.43221 31.9913C7.3012 31.7341 7.22636 31.421 7.1877 30.9478C7.14867 30.4702 7.14838 29.8629 7.14838 29.0233V11.7618C7.14838 10.9223 7.14867 10.315 7.1877 9.83738C7.22636 9.36411 7.3012 9.05102 7.43221 8.79389C7.68188 8.30389 8.08026 7.90551 8.57025 7.65585C8.82738 7.52483 9.14048 7.45 9.61375 7.41133C10.0914 7.37231 10.6986 7.37202 11.5382 7.37202Z" stroke="#D8D8D8" stroke-opacity="0.42" stroke-width="0.744032"/>
</g>
<path d="M28.6145 24.8418H25.5561V16.9104C25.5561 16.2948 25.3115 15.7043 24.8762 15.269C24.4408 14.8336 23.8504 14.5891 23.2347 14.5891H14.8197C14.7752 14.5891 14.7307 14.5775 14.6843 14.5736C14.3625 14.5532 14.0399 14.5986 13.7363 14.7071C13.4326 14.8155 13.1542 14.9847 12.9181 15.2042C12.699 15.4071 12.5242 15.6531 12.4047 15.9267C12.2852 16.2004 12.2236 16.4958 12.2236 16.7944C12.2236 16.8713 12.2542 16.9451 12.3086 16.9996C12.363 17.054 12.4368 17.0845 12.5138 17.0845H16.2706V24.9792C16.2609 25.5766 16.4795 26.1552 16.8817 26.5969C17.284 27.0387 17.8396 27.3104 18.4353 27.3567H18.4469H18.4933H26.591C26.8896 27.3631 27.1864 27.3106 27.4646 27.2023C27.7429 27.0939 27.997 26.9318 28.2126 26.7252C28.4282 26.5187 28.601 26.2716 28.721 25.9982C28.8411 25.7249 28.9061 25.4305 28.9124 25.132C28.9124 25.0932 28.9047 25.0549 28.8896 25.0191C28.8746 24.9834 28.8525 24.9511 28.8247 24.924C28.7969 24.897 28.764 24.8758 28.7279 24.8616C28.6918 24.8475 28.6533 24.8408 28.6145 24.8418V24.8418ZM12.8311 16.5042C12.8953 16.1678 13.0654 15.8607 13.3166 15.6279C13.6059 15.3634 13.9746 15.2022 14.3651 15.1694C14.3876 15.1721 14.4103 15.1721 14.4328 15.1694H14.8004C15.1423 15.2265 15.4596 15.3838 15.7121 15.6215C15.9645 15.8591 16.1407 16.1663 16.2183 16.5042H12.8311ZM18.4701 26.7763C18.0222 26.739 17.6054 26.5323 17.3046 26.1984C17.0037 25.8645 16.8415 25.4285 16.8509 24.9792V16.9472C16.8522 16.6134 16.784 16.283 16.6508 15.977C16.5176 15.671 16.3223 15.3959 16.0771 15.1694H23.2347C23.6965 15.1694 24.1393 15.3528 24.4658 15.6793C24.7923 16.0058 24.9757 16.4487 24.9757 16.9104V24.8418H20.6077C20.5307 24.8418 20.4569 24.8724 20.4025 24.9268C20.3481 24.9812 20.3175 25.055 20.3175 25.132C20.3162 25.3503 20.27 25.5659 20.1818 25.7656C20.0936 25.9653 19.9653 26.1447 19.8049 26.2927C19.6271 26.46 19.417 26.5892 19.1874 26.6724C18.9579 26.7555 18.7138 26.7909 18.4701 26.7763ZM26.5949 26.7763H20.1395L20.1995 26.7221C20.5696 26.3805 20.8096 25.921 20.8785 25.4222H28.2973C28.2139 25.8107 27.9982 26.1581 27.6869 26.4051C27.3757 26.6522 26.9883 26.7834 26.591 26.7763H26.5949Z" fill="#2C2C2C"/>
<path d="M18.3019 18.845H23.525C23.602 18.845 23.6758 18.8144 23.7302 18.76C23.7846 18.7056 23.8152 18.6318 23.8152 18.5548C23.8152 18.4779 23.7846 18.4041 23.7302 18.3496C23.6758 18.2952 23.602 18.2646 23.525 18.2646H18.3019C18.2249 18.2646 18.1511 18.2952 18.0967 18.3496C18.0423 18.4041 18.0117 18.4779 18.0117 18.5548C18.0117 18.6318 18.0423 18.7056 18.0967 18.76C18.1511 18.8144 18.2249 18.845 18.3019 18.845V18.845Z" fill="#2C2C2C"/>
<path d="M18.3019 20.5862H23.525C23.602 20.5862 23.6758 20.5556 23.7302 20.5012C23.7846 20.4468 23.8152 20.373 23.8152 20.296C23.8152 20.2191 23.7846 20.1453 23.7302 20.0908C23.6758 20.0364 23.602 20.0059 23.525 20.0059H18.3019C18.2249 20.0059 18.1511 20.0364 18.0967 20.0908C18.0423 20.1453 18.0117 20.2191 18.0117 20.296C18.0117 20.373 18.0423 20.4468 18.0967 20.5012C18.1511 20.5556 18.2249 20.5862 18.3019 20.5862V20.5862Z" fill="#2C2C2C"/>
<path d="M21.3003 22.0368C21.3003 21.9598 21.2698 21.886 21.2154 21.8316C21.1609 21.7772 21.0871 21.7466 21.0102 21.7466H18.3019C18.2249 21.7466 18.1511 21.7772 18.0967 21.8316C18.0423 21.886 18.0117 21.9598 18.0117 22.0368C18.0117 22.1137 18.0423 22.1875 18.0967 22.2419C18.1511 22.2964 18.2249 22.3269 18.3019 22.3269H21.0102C21.0871 22.3269 21.1609 22.2964 21.2154 22.2419C21.2698 22.1875 21.3003 22.1137 21.3003 22.0368Z" fill="#2C2C2C"/>
<path d="M16.4088 16.6972H12.8073L12.5693 16.2556L13.045 15.508L13.8945 14.8623H14.8459L16.0351 15.508L16.4088 16.6972Z" fill="#2C2C2C"/>
<path d="M20.3164 26.2113L20.7242 25.056H28.5392L28.3693 26.2113L27.5198 27.0268H26.7723H19.6708L20.3164 26.2113Z" fill="#2C2C2C"/>
<defs>
<filter id="filter0_dd_240_14739" x="0.82411" y="0.303711" width="41.6658" height="41.6658" filterUnits="userSpaceOnUse" color-interpolation-filters="sRGB">
<feFlood flood-opacity="0" result="BackgroundImageFix"/>
<feColorMatrix in="SourceAlpha" type="matrix" values="0 0 0 0 0 0 0 0 0 0 0 0 0 0 0 0 0 0 127 0" result="hardAlpha"/>
<feOffset dx="1.48806" dy="0.744032"/>
<feGaussianBlur stdDeviation="3.72016"/>
<feColorMatrix type="matrix" values="0 0 0 0 0.290486 0 0 0 0 0.310722 0 0 0 0 0.391667 0 0 0 0.28 0"/>
<feBlend mode="normal" in2="BackgroundImageFix" result="effect1_dropShadow_240_14739"/>
<feColorMatrix in="SourceAlpha" type="matrix" values="0 0 0 0 0 0 0 0 0 0 0 0 0 0 0 0 0 0 127 0" result="hardAlpha"/>
<feMorphology radius="2.2321" operator="erode" in="SourceAlpha" result="effect2_dropShadow_240_14739"/>
<feOffset dx="-1.48806"/>
<feGaussianBlur stdDeviation="2.97613"/>
<feColorMatrix type="matrix" values="0 0 0 0 0.933333 0 0 0 0 0.933333 0 0 0 0 0.933333 0 0 0 1 0"/>
<feBlend mode="normal" in2="effect1_dropShadow_240_14739" result="effect2_dropShadow_240_14739"/>
<feBlend mode="normal" in="SourceGraphic" in2="effect2_dropShadow_240_14739" result="shape"/>
</filter>
<linearGradient id="paint0_linear_240_14739" x1="-4.47766" y1="20.3939" x2="19.8202" y2="45.0079" gradientUnits="userSpaceOnUse">
<stop/>
<stop offset="1" stop-color="white"/>
</linearGradient>
</defs>
</svg>
