<svg width="820" height="532" viewBox="0 0 820 532" fill="none" xmlns="http://www.w3.org/2000/svg">
<ellipse cx="421.5" cy="394.5" rx="312.5" ry="137.5" fill="url(#paint0_radial_219_527)" fill-opacity="0.38"/>
<path d="M634.5 102C634.5 274.582 492.581 414.5 317.5 414.5C142.419 414.5 0.5 274.582 0.5 102C0.5 -70.5823 142.419 -210.5 317.5 -210.5C492.581 -210.5 634.5 -70.5823 634.5 102Z" fill="url(#paint1_linear_219_527)"/>
<path d="M634.5 102C634.5 274.582 492.581 414.5 317.5 414.5C142.419 414.5 0.5 274.582 0.5 102C0.5 -70.5823 142.419 -210.5 317.5 -210.5C492.581 -210.5 634.5 -70.5823 634.5 102Z" fill="url(#paint2_radial_219_527)"/>
<path d="M634.5 102C634.5 274.582 492.581 414.5 317.5 414.5C142.419 414.5 0.5 274.582 0.5 102C0.5 -70.5823 142.419 -210.5 317.5 -210.5C492.581 -210.5 634.5 -70.5823 634.5 102Z" stroke="url(#paint3_linear_219_527)"/>
<ellipse cx="469.171" cy="33.586" rx="344.124" ry="113.631" transform="rotate(3.36669 469.171 33.586)" fill="url(#paint4_radial_219_527)"/>
<defs>
<radialGradient id="paint0_radial_219_527" cx="0" cy="0" r="1" gradientUnits="userSpaceOnUse" gradientTransform="translate(421.5 394.5) rotate(90) scale(119.072 270.619)">
<stop stop-color="#569CC4" stop-opacity="0.9"/>
<stop offset="1" stop-color="#9DD8F9" stop-opacity="0"/>
</radialGradient>
<linearGradient id="paint1_linear_219_527" x1="361.293" y1="216.552" x2="72.6744" y2="-88.8445" gradientUnits="userSpaceOnUse">
<stop stop-color="#B0E9F6"/>
<stop offset="1" stop-color="#075AA6"/>
</linearGradient>
<radialGradient id="paint2_radial_219_527" cx="0" cy="0" r="1" gradientUnits="userSpaceOnUse" gradientTransform="translate(425.523 -48.8531) rotate(58.3582) scale(285.216 306.958)">
<stop stop-color="#626DD4"/>
<stop offset="1" stop-color="#D7EEFF" stop-opacity="0.39"/>
</radialGradient>
<linearGradient id="paint3_linear_219_527" x1="14.5" y1="30" x2="562" y2="495.5" gradientUnits="userSpaceOnUse">
<stop offset="0.213542" stop-color="#8CC0E2"/>
<stop offset="1" stop-color="white" stop-opacity="0"/>
</linearGradient>
<radialGradient id="paint4_radial_219_527" cx="0" cy="0" r="1" gradientUnits="userSpaceOnUse" gradientTransform="translate(469.172 33.586) rotate(90) scale(98.4025 298.004)">
<stop stop-color="white"/>
<stop offset="1" stop-color="#9DD8F9" stop-opacity="0"/>
</radialGradient>
</defs>
</svg>
