<svg width="135" height="70" viewBox="0 0 135 70" fill="none" xmlns="http://www.w3.org/2000/svg">
<g filter="url(#filter0_d_428_46614)">
<mask id="path-1-inside-1_428_46614" fill="white">
<path fill-rule="evenodd" clip-rule="evenodd" d="M25.5703 14.499C21.152 14.499 17.5703 18.0807 17.5703 22.499V38.4836C17.5703 42.9019 21.152 46.4836 25.5703 46.4836H67.2128L74.4386 50.9688C74.7598 51.1682 75.166 51.1694 75.4883 50.9719L82.8153 46.4836H124.518C128.936 46.4836 132.518 42.9019 132.518 38.4836V22.499C132.518 18.0807 128.936 14.499 124.518 14.499H25.5703Z"/>
</mask>
<path fill-rule="evenodd" clip-rule="evenodd" d="M25.5703 14.499C21.152 14.499 17.5703 18.0807 17.5703 22.499V38.4836C17.5703 42.9019 21.152 46.4836 25.5703 46.4836H67.2128L74.4386 50.9688C74.7598 51.1682 75.166 51.1694 75.4883 50.9719L82.8153 46.4836H124.518C128.936 46.4836 132.518 42.9019 132.518 38.4836V22.499C132.518 18.0807 128.936 14.499 124.518 14.499H25.5703Z" fill="white"/>
<path d="M67.2128 46.4836L68.1004 45.0536L67.6927 44.8005H67.2128V46.4836ZM74.4386 50.9688L75.3263 49.5387L75.3263 49.5387L74.4386 50.9688ZM75.4883 50.9719L76.3676 52.4072L76.3676 52.4072L75.4883 50.9719ZM82.8153 46.4836V44.8005H82.3407L81.9361 45.0483L82.8153 46.4836ZM19.2535 22.499C19.2535 19.0103 22.0816 16.1822 25.5703 16.1822V12.8158C20.2224 12.8158 15.8871 17.1511 15.8871 22.499H19.2535ZM19.2535 38.4836V22.499H15.8871V38.4836H19.2535ZM25.5703 44.8005C22.0816 44.8005 19.2535 41.9723 19.2535 38.4836H15.8871C15.8871 43.8315 20.2224 48.1668 25.5703 48.1668V44.8005ZM67.2128 44.8005H25.5703V48.1668H67.2128V44.8005ZM75.3263 49.5387L68.1004 45.0536L66.3251 47.9137L73.5509 52.3989L75.3263 49.5387ZM74.6091 49.5366C74.8294 49.4017 75.1068 49.4025 75.3263 49.5387L73.5509 52.3989C74.4128 52.9338 75.5026 52.937 76.3676 52.4072L74.6091 49.5366ZM81.9361 45.0483L74.6091 49.5366L76.3676 52.4072L83.6945 47.9189L81.9361 45.0483ZM124.518 44.8005H82.8153V48.1668H124.518V44.8005ZM130.834 38.4836C130.834 41.9723 128.006 44.8005 124.518 44.8005V48.1668C129.865 48.1668 134.201 43.8315 134.201 38.4836H130.834ZM130.834 22.499V38.4836H134.201V22.499H130.834ZM124.518 16.1822C128.006 16.1822 130.834 19.0103 130.834 22.499H134.201C134.201 17.1511 129.865 12.8158 124.518 12.8158V16.1822ZM25.5703 16.1822H124.518V12.8158H25.5703V16.1822Z" fill="url(#paint0_linear_428_46614)" fill-opacity="0.47" mask="url(#path-1-inside-1_428_46614)"/>
</g>
<path d="M27.3366 35.4365L30.6126 25.3565H32.7196L35.9956 35.4365H34.4766L31.4596 26.2385H31.8376L28.8556 35.4365H27.3366ZM29.0376 33.1615V31.7895H34.3016V33.1615H29.0376ZM41.1645 35.6465C40.4225 35.6465 39.7552 35.5275 39.1625 35.2895C38.5745 35.0469 38.0752 34.6875 37.6645 34.2115C37.2585 33.7355 36.9575 33.1475 36.7615 32.4475L38.1965 32.0835C38.3972 32.7415 38.7495 33.2712 39.2535 33.6725C39.7622 34.0692 40.3712 34.2629 41.0805 34.2535C41.5705 34.2442 42.0325 34.1509 42.4665 33.9735C42.9005 33.7915 43.2575 33.5115 43.5375 33.1335C43.7755 32.8255 43.9458 32.4989 44.0485 32.1535C44.1558 31.8082 44.2258 31.4512 44.2585 31.0825H40.6465V29.7035H44.2655C44.2002 29.0735 44.0345 28.5205 43.7685 28.0445C43.5072 27.5685 43.1502 27.1975 42.6975 26.9315C42.2495 26.6609 41.7105 26.5302 41.0805 26.5395C40.3338 26.5489 39.7062 26.7589 39.1975 27.1695C38.6888 27.5755 38.3458 28.1262 38.1685 28.8215L36.6915 28.6115C36.9435 27.5102 37.4592 26.6585 38.2385 26.0565C39.0225 25.4499 39.9978 25.1465 41.1645 25.1465C42.1445 25.1465 42.9822 25.3682 43.6775 25.8115C44.3728 26.2502 44.9048 26.8639 45.2735 27.6525C45.6468 28.4365 45.8382 29.3512 45.8475 30.3965C45.8568 31.3765 45.6772 32.2632 45.3085 33.0565C44.9445 33.8499 44.4102 34.4799 43.7055 34.9465C43.0055 35.4132 42.1585 35.6465 41.1645 35.6465ZM51.4526 35.6465C50.4446 35.6465 49.586 35.4272 48.8766 34.9885C48.1673 34.5452 47.6236 33.9292 47.2456 33.1405C46.8723 32.3519 46.6856 31.4372 46.6856 30.3965C46.6856 29.3559 46.8723 28.4412 47.2456 27.6525C47.6236 26.8639 48.1673 26.2502 48.8766 25.8115C49.586 25.3682 50.4446 25.1465 51.4526 25.1465C52.6146 25.1465 53.576 25.4405 54.3366 26.0285C55.102 26.6165 55.634 27.4075 55.9326 28.4015L54.4486 28.8005C54.2526 28.0959 53.9026 27.5429 53.3986 27.1415C52.8993 26.7402 52.2506 26.5395 51.4526 26.5395C50.7386 26.5395 50.1436 26.7005 49.6676 27.0225C49.1916 27.3445 48.8323 27.7949 48.5896 28.3735C48.3516 28.9522 48.2326 29.6265 48.2326 30.3965C48.228 31.1665 48.3446 31.8409 48.5826 32.4195C48.8253 32.9982 49.1846 33.4485 49.6606 33.7705C50.1413 34.0925 50.7386 34.2535 51.4526 34.2535C52.2506 34.2535 52.8993 34.0529 53.3986 33.6515C53.9026 33.2455 54.2526 32.6925 54.4486 31.9925L55.9326 32.3915C55.634 33.3855 55.102 34.1765 54.3366 34.7645C53.576 35.3525 52.6146 35.6465 51.4526 35.6465ZM62.7879 35.4365V26.7355H59.4349V25.3565H67.6039V26.7355H64.2509V35.4365H62.7879ZM72.3388 35.4365V32.8115H70.8408C70.6634 32.8115 70.4511 32.8045 70.2038 32.7905C69.9611 32.7765 69.7324 32.7509 69.5178 32.7135C68.9531 32.6109 68.4818 32.3659 68.1038 31.9785C67.7258 31.5865 67.5368 31.0475 67.5368 30.3615C67.5368 29.6989 67.7141 29.1669 68.0688 28.7655C68.4281 28.3595 68.8831 28.0982 69.4338 27.9815C69.6718 27.9255 69.9144 27.8952 70.1618 27.8905C70.4138 27.8812 70.6261 27.8765 70.7988 27.8765H73.8018L73.8088 35.4365H72.3388ZM67.3198 35.4365L69.2308 32.4475H70.7778L68.8808 35.4365H67.3198ZM70.7148 31.6355H72.3388V29.0525H70.7148C70.6121 29.0525 70.4861 29.0572 70.3368 29.0665C70.1874 29.0759 70.0428 29.1015 69.9028 29.1435C69.7581 29.1855 69.6181 29.2602 69.4828 29.3675C69.3521 29.4749 69.2448 29.6125 69.1608 29.7805C69.0768 29.9439 69.0348 30.1329 69.0348 30.3475C69.0348 30.6695 69.1258 30.9355 69.3078 31.1455C69.4898 31.3509 69.7068 31.4862 69.9588 31.5515C70.0941 31.5889 70.2294 31.6122 70.3648 31.6215C70.5001 31.6309 70.6168 31.6355 70.7148 31.6355ZM75.7582 35.4365V27.8765H77.2212V30.9635H80.9102V27.8765H82.3732V35.4365H80.9102V32.3425H77.2212V35.4365H75.7582ZM84.3304 35.4365V27.8765H85.8004V30.5015H87.2914C87.5061 30.5015 87.7348 30.5062 87.9774 30.5155C88.2248 30.5249 88.4371 30.5482 88.6144 30.5855C89.0204 30.6695 89.3704 30.8095 89.6644 31.0055C89.9631 31.2015 90.1941 31.4629 90.3574 31.7895C90.5208 32.1115 90.6024 32.5082 90.6024 32.9795C90.6024 33.6375 90.4298 34.1625 90.0844 34.5545C89.7438 34.9419 89.2818 35.2032 88.6984 35.3385C88.5118 35.3805 88.2901 35.4085 88.0334 35.4225C87.7814 35.4319 87.5504 35.4365 87.3404 35.4365H84.3304ZM85.8004 34.2605H87.4244C87.5411 34.2605 87.6741 34.2559 87.8234 34.2465C87.9728 34.2372 88.1104 34.2162 88.2364 34.1835C88.4604 34.1182 88.6611 33.9852 88.8384 33.7845C89.0158 33.5839 89.1044 33.3155 89.1044 32.9795C89.1044 32.6342 89.0158 32.3589 88.8384 32.1535C88.6658 31.9482 88.4464 31.8152 88.1804 31.7545C88.0544 31.7219 87.9261 31.7009 87.7954 31.6915C87.6648 31.6822 87.5411 31.6775 87.4244 31.6775H85.8004V34.2605ZM91.932 35.4365V27.8765H95.257C95.4763 27.8765 95.6957 27.8905 95.915 27.9185C96.1343 27.9419 96.328 27.9769 96.496 28.0235C96.8787 28.1309 97.2053 28.3455 97.476 28.6675C97.7467 28.9849 97.882 29.4095 97.882 29.9415C97.882 30.2449 97.8353 30.5015 97.742 30.7115C97.6487 30.9169 97.5203 31.0942 97.357 31.2435C97.2823 31.3089 97.203 31.3672 97.119 31.4185C97.035 31.4699 96.951 31.5095 96.867 31.5375C97.0397 31.5655 97.21 31.6262 97.378 31.7195C97.6347 31.8549 97.8447 32.0509 98.008 32.3075C98.176 32.5595 98.26 32.8979 98.26 33.3225C98.26 33.8312 98.1363 34.2582 97.889 34.6035C97.6417 34.9442 97.2917 35.1775 96.839 35.3035C96.6617 35.3549 96.461 35.3899 96.237 35.4085C96.0177 35.4272 95.7983 35.4365 95.579 35.4365H91.932ZM93.416 34.2815H95.488C95.586 34.2815 95.698 34.2722 95.824 34.2535C95.95 34.2349 96.062 34.2092 96.16 34.1765C96.37 34.1112 96.5193 33.9922 96.608 33.8195C96.7013 33.6469 96.748 33.4625 96.748 33.2665C96.748 33.0005 96.678 32.7882 96.538 32.6295C96.398 32.4662 96.2207 32.3612 96.006 32.3145C95.9127 32.2819 95.81 32.2632 95.698 32.2585C95.586 32.2539 95.4903 32.2515 95.411 32.2515H93.416V34.2815ZM93.416 31.0755H95.054C95.1893 31.0755 95.327 31.0685 95.467 31.0545C95.607 31.0359 95.7283 31.0055 95.831 30.9635C96.013 30.8935 96.1483 30.7769 96.237 30.6135C96.3257 30.4455 96.37 30.2635 96.37 30.0675C96.37 29.8529 96.321 29.6615 96.223 29.4935C96.125 29.3255 95.978 29.2089 95.782 29.1435C95.6467 29.0969 95.4903 29.0712 95.313 29.0665C95.1403 29.0572 95.0307 29.0525 94.984 29.0525H93.416V31.0755ZM101.799 35.6465C101.239 35.6465 100.77 35.5439 100.392 35.3385C100.014 35.1285 99.7266 34.8532 99.5306 34.5125C99.3393 34.1672 99.2436 33.7892 99.2436 33.3785C99.2436 32.9959 99.3113 32.6599 99.4466 32.3705C99.5819 32.0812 99.7826 31.8362 100.049 31.6355C100.315 31.4302 100.641 31.2645 101.029 31.1385C101.365 31.0405 101.745 30.9542 102.17 30.8795C102.594 30.8049 103.04 30.7349 103.507 30.6695C103.978 30.6042 104.445 30.5389 104.907 30.4735L104.375 30.7675C104.384 30.1749 104.258 29.7362 103.997 29.4515C103.74 29.1622 103.297 29.0175 102.667 29.0175C102.27 29.0175 101.906 29.1109 101.575 29.2975C101.243 29.4795 101.012 29.7829 100.882 30.2075L99.5166 29.7875C99.7033 29.1389 100.058 28.6232 100.581 28.2405C101.108 27.8579 101.808 27.6665 102.681 27.6665C103.357 27.6665 103.945 27.7832 104.445 28.0165C104.949 28.2452 105.317 28.6092 105.551 29.1085C105.672 29.3559 105.747 29.6172 105.775 29.8925C105.803 30.1679 105.817 30.4642 105.817 30.7815V35.4365H104.522V33.7075L104.774 33.9315C104.461 34.5102 104.062 34.9419 103.577 35.2265C103.096 35.5065 102.503 35.6465 101.799 35.6465ZM102.058 34.4495C102.473 34.4495 102.83 34.3772 103.129 34.2325C103.427 34.0832 103.668 33.8942 103.85 33.6655C104.032 33.4369 104.151 33.1989 104.207 32.9515C104.286 32.7275 104.33 32.4755 104.34 32.1955C104.354 31.9155 104.361 31.6915 104.361 31.5235L104.837 31.6985C104.375 31.7685 103.955 31.8315 103.577 31.8875C103.199 31.9435 102.856 31.9995 102.548 32.0555C102.244 32.1069 101.974 32.1699 101.736 32.2445C101.535 32.3145 101.355 32.3985 101.197 32.4965C101.043 32.5945 100.919 32.7135 100.826 32.8535C100.737 32.9935 100.693 33.1639 100.693 33.3645C100.693 33.5605 100.742 33.7425 100.84 33.9105C100.938 34.0739 101.087 34.2045 101.288 34.3025C101.488 34.4005 101.745 34.4495 102.058 34.4495ZM107.627 35.4365V27.8765H109.09V30.9635H112.779V27.8765H114.242V35.4365H112.779V32.3425H109.09V35.4365H107.627ZM116.2 35.4365V27.8765H117.67V30.5015H119.161C119.375 30.5015 119.604 30.5062 119.847 30.5155C120.094 30.5249 120.306 30.5482 120.484 30.5855C120.89 30.6695 121.24 30.8095 121.534 31.0055C121.832 31.2015 122.063 31.4629 122.227 31.7895C122.39 32.1115 122.472 32.5082 122.472 32.9795C122.472 33.6375 122.299 34.1625 121.954 34.5545C121.613 34.9419 121.151 35.2032 120.568 35.3385C120.381 35.3805 120.159 35.4085 119.903 35.4225C119.651 35.4319 119.42 35.4365 119.21 35.4365H116.2ZM117.67 34.2605H119.294C119.41 34.2605 119.543 34.2559 119.693 34.2465C119.842 34.2372 119.98 34.2162 120.106 34.1835C120.33 34.1182 120.53 33.9852 120.708 33.7845C120.885 33.5839 120.974 33.3155 120.974 32.9795C120.974 32.6342 120.885 32.3589 120.708 32.1535C120.535 31.9482 120.316 31.8152 120.05 31.7545C119.924 31.7219 119.795 31.7009 119.665 31.6915C119.534 31.6822 119.41 31.6775 119.294 31.6775H117.67V34.2605Z" fill="#505B67"/>
<defs>
<filter id="filter0_d_428_46614" x="0.570312" y="0.499023" width="146.947" height="68.6201" filterUnits="userSpaceOnUse" color-interpolation-filters="sRGB">
<feFlood flood-opacity="0" result="BackgroundImageFix"/>
<feColorMatrix in="SourceAlpha" type="matrix" values="0 0 0 0 0 0 0 0 0 0 0 0 0 0 0 0 0 0 127 0" result="hardAlpha"/>
<feOffset dx="-1" dy="2"/>
<feGaussianBlur stdDeviation="8"/>
<feColorMatrix type="matrix" values="0 0 0 0 0.0984375 0 0 0 0 0.269062 0 0 0 0 0.525 0 0 0 0.22 0"/>
<feBlend mode="normal" in2="BackgroundImageFix" result="effect1_dropShadow_428_46614"/>
<feBlend mode="normal" in="SourceGraphic" in2="effect1_dropShadow_428_46614" result="shape"/>
</filter>
<linearGradient id="paint0_linear_428_46614" x1="75.0439" y1="14.499" x2="75.0439" y2="51.1192" gradientUnits="userSpaceOnUse">
<stop stop-color="#ABD1E9"/>
<stop offset="1" stop-color="#A8BBFF" stop-opacity="0.68"/>
</linearGradient>
</defs>
</svg>
